%TF.GenerationSoftware,KiCad,Pcbnew,10.0.0*%
%TF.CreationDate,2026-04-13T17:58:31-05:00*%
%TF.ProjectId,WiiRemote,57696952-656d-46f7-9465-2e6b69636164,rev?*%
%TF.SameCoordinates,Original*%
%TF.FileFunction,Soldermask,Top*%
%TF.FilePolarity,Negative*%
%FSLAX46Y46*%
G04 Gerber Fmt 4.6, Leading zero omitted, Abs format (unit mm)*
G04 Created by KiCad (PCBNEW 10.0.0) date 2026-04-13 17:58:31*
%MOMM*%
%LPD*%
G01*
G04 APERTURE LIST*
%ADD10R,2.000000X2.000000*%
%ADD11R,2.000000X4.000000*%
%ADD12C,1.700000*%
%ADD13R,1.700000X1.700000*%
%ADD14C,3.500000*%
G04 APERTURE END LIST*
D10*
%TO.C,Conn_01x04_BUCKBOOST0*%
X27000000Y-20300000D03*
X27000000Y-9500000D03*
X3100000Y-20300000D03*
X3100000Y-9500000D03*
%TD*%
D11*
%TO.C,SW_Push4*%
X6500000Y-3000000D03*
X4000000Y-3000000D03*
%TD*%
D12*
%TO.C,DECOUPLING_CAP_47uF0*%
X7000000Y-123200000D03*
D13*
X7000000Y-125740000D03*
%TD*%
D11*
%TO.C,SW_Push7*%
X6350000Y-20500000D03*
X8850000Y-20500000D03*
%TD*%
%TO.C,SW_Push8*%
X21350000Y-20500000D03*
X23850000Y-20500000D03*
%TD*%
D14*
%TO.C,REF\u002A\u002A*%
X1500000Y-74000000D03*
%TD*%
D11*
%TO.C,SW_Push11*%
X13850000Y-118000000D03*
X16350000Y-118000000D03*
%TD*%
%TO.C,SW_Push0*%
X13850000Y-40500000D03*
X16350000Y-40500000D03*
%TD*%
%TO.C,SW_Push3*%
X4500000Y-67000000D03*
X7000000Y-67000000D03*
%TD*%
D14*
%TO.C,REF\u002A\u002A*%
X29000000Y-29500000D03*
%TD*%
D11*
%TO.C,SW_Push9*%
X13850000Y-67000000D03*
X16350000Y-67000000D03*
%TD*%
%TO.C,SW_Push6*%
X13850000Y-27500000D03*
X16350000Y-27500000D03*
%TD*%
D14*
%TO.C,REF\u002A\u002A*%
X1500000Y-29500000D03*
%TD*%
D11*
%TO.C,SW_Push10*%
X13850000Y-106000000D03*
X16350000Y-106000000D03*
%TD*%
D14*
%TO.C,REF\u002A\u002A*%
X29000000Y-74000000D03*
%TD*%
%TO.C,REF\u002A\u002A*%
X1500000Y-134000000D03*
%TD*%
D11*
%TO.C,SW_Push2*%
X23200000Y-67000000D03*
X25700000Y-67000000D03*
%TD*%
D14*
%TO.C,REF\u002A\u002A*%
X29000000Y-134000000D03*
%TD*%
D11*
%TO.C,SW_Push5*%
X13850000Y-13500000D03*
X16350000Y-13500000D03*
%TD*%
D13*
%TO.C,Conn_01x15_ESP32_DEV_KIT_PINS_3v3-D230*%
X28700000Y-82000000D03*
D12*
X28700000Y-84540000D03*
X28700000Y-87080000D03*
X28700000Y-89620000D03*
X28700000Y-92160000D03*
X28700000Y-94700000D03*
X28700000Y-97240000D03*
X28700000Y-99780000D03*
X28700000Y-102320000D03*
X28700000Y-104860000D03*
X28700000Y-107400000D03*
X28700000Y-109940000D03*
X28700000Y-112480000D03*
X28700000Y-115020000D03*
X28700000Y-117560000D03*
%TD*%
D13*
%TO.C,Conn_01x01_EXTRA_GPIO0*%
X2000000Y-126500000D03*
%TD*%
%TO.C,Conn_01x02_DECOUPLING_CAP_100uF0*%
X2600000Y-52930000D03*
D12*
X2600000Y-55470000D03*
%TD*%
D10*
%TO.C,Conn_01x04_CHARGING_MODULE0*%
X22050000Y-115000000D03*
X19550000Y-115000000D03*
X10550000Y-115000000D03*
X8050000Y-115000000D03*
%TD*%
D13*
%TO.C,Conn_01x02_POWER_AND_GROUND0*%
X28000000Y-58660000D03*
D12*
X28000000Y-61200000D03*
%TD*%
D13*
%TO.C,Conn_01x02_battery_terminal0*%
X28200000Y-122330000D03*
D12*
X28200000Y-124870000D03*
%TD*%
D13*
%TO.C,Conn_01x02_I2C_INPUT0*%
X23400000Y-72930000D03*
D12*
X23400000Y-75470000D03*
%TD*%
D13*
%TO.C,Conn_01x01_IMU_INTERRUPT0*%
X2000000Y-122500000D03*
%TD*%
%TO.C,Conn_01x15_ESP32_DEV_KIT_PINS_VIN-EN0*%
X2000000Y-82000000D03*
D12*
X2000000Y-84540000D03*
X2000000Y-87080000D03*
X2000000Y-89620000D03*
X2000000Y-92160000D03*
X2000000Y-94700000D03*
X2000000Y-97240000D03*
X2000000Y-99780000D03*
X2000000Y-102320000D03*
X2000000Y-104860000D03*
X2000000Y-107400000D03*
X2000000Y-109940000D03*
X2000000Y-112480000D03*
X2000000Y-115020000D03*
X2000000Y-117560000D03*
%TD*%
M02*
