%TF.GenerationSoftware,KiCad,Pcbnew,10.0.0*%
%TF.CreationDate,2026-04-13T17:58:31-05:00*%
%TF.ProjectId,WiiRemote,57696952-656d-46f7-9465-2e6b69636164,rev?*%
%TF.SameCoordinates,Original*%
%TF.FileFunction,Copper,L1,Top*%
%TF.FilePolarity,Positive*%
%FSLAX46Y46*%
G04 Gerber Fmt 4.6, Leading zero omitted, Abs format (unit mm)*
G04 Created by KiCad (PCBNEW 10.0.0) date 2026-04-13 17:58:31*
%MOMM*%
%LPD*%
G01*
G04 APERTURE LIST*
%TA.AperFunction,ComponentPad*%
%ADD10R,2.000000X2.000000*%
%TD*%
%TA.AperFunction,SMDPad,CuDef*%
%ADD11R,2.000000X4.000000*%
%TD*%
%TA.AperFunction,ComponentPad*%
%ADD12C,1.700000*%
%TD*%
%TA.AperFunction,ComponentPad*%
%ADD13R,1.700000X1.700000*%
%TD*%
%TA.AperFunction,ViaPad*%
%ADD14C,0.600000*%
%TD*%
%TA.AperFunction,Conductor*%
%ADD15C,0.200000*%
%TD*%
G04 APERTURE END LIST*
D10*
%TO.P,Conn_01x04_BUCKBOOST0,4,Pin_4_4*%
%TO.N,/GND*%
X27000000Y-20300000D03*
%TO.P,Conn_01x04_BUCKBOOST0,3,Pin_3_3*%
%TO.N,/VIN (VOUT)*%
X27000000Y-9500000D03*
%TO.P,Conn_01x04_BUCKBOOST0,2,Pin_2_2*%
%TO.N,/GND (OUT-)*%
X3100000Y-20300000D03*
%TO.P,Conn_01x04_BUCKBOOST0,1,Pin_1_1*%
%TO.N,Net-(Conn_01x04_BUCKBOOST0-Pin_1)*%
X3100000Y-9500000D03*
%TD*%
D11*
%TO.P,SW_Push4,2,2_2*%
%TO.N,/D23*%
X6500000Y-3000000D03*
%TO.P,SW_Push4,1,1_1*%
%TO.N,/GND*%
X4000000Y-3000000D03*
%TD*%
D12*
%TO.P,DECOUPLING_CAP_47uF0,2,Pin_2_2*%
%TO.N,/GND (OUT-)*%
X7000000Y-123200000D03*
D13*
%TO.P,DECOUPLING_CAP_47uF0,1,Pin_1_1*%
%TO.N,Net-(Conn_01x04_BUCKBOOST0-Pin_1)*%
X7000000Y-125740000D03*
%TD*%
D11*
%TO.P,SW_Push7,1,1_1*%
%TO.N,/D27*%
X6350000Y-20500000D03*
%TO.P,SW_Push7,2,2_2*%
%TO.N,/GND*%
X8850000Y-20500000D03*
%TD*%
%TO.P,SW_Push8,1,1_1*%
%TO.N,/D26*%
X21350000Y-20500000D03*
%TO.P,SW_Push8,2,2_2*%
%TO.N,/GND*%
X23850000Y-20500000D03*
%TD*%
%TO.P,SW_Push11,1,1_1*%
%TO.N,/D32*%
X13850000Y-118000000D03*
%TO.P,SW_Push11,2,2_2*%
%TO.N,/GND*%
X16350000Y-118000000D03*
%TD*%
%TO.P,SW_Push0,1,1_1*%
%TO.N,/GND*%
X13850000Y-40500000D03*
%TO.P,SW_Push0,2,2_2*%
%TO.N,/RX2 (GPIO16)*%
X16350000Y-40500000D03*
%TD*%
%TO.P,SW_Push3,1,1_1*%
%TO.N,/GND*%
X4500000Y-67000000D03*
%TO.P,SW_Push3,2,2_2*%
%TO.N,/D19*%
X7000000Y-67000000D03*
%TD*%
%TO.P,SW_Push9,1,1_1*%
%TO.N,/D25*%
X13850000Y-67000000D03*
%TO.P,SW_Push9,2,2_2*%
%TO.N,/GND*%
X16350000Y-67000000D03*
%TD*%
%TO.P,SW_Push6,1,1_1*%
%TO.N,/D14*%
X13850000Y-27500000D03*
%TO.P,SW_Push6,2,2_2*%
%TO.N,/GND*%
X16350000Y-27500000D03*
%TD*%
%TO.P,SW_Push10,1,1_1*%
%TO.N,/D33*%
X13850000Y-106000000D03*
%TO.P,SW_Push10,2,2_2*%
%TO.N,/GND*%
X16350000Y-106000000D03*
%TD*%
%TO.P,SW_Push2,1,1_1*%
%TO.N,/GND*%
X23200000Y-67000000D03*
%TO.P,SW_Push2,2,2_2*%
%TO.N,/D18*%
X25700000Y-67000000D03*
%TD*%
%TO.P,SW_Push5,1,1_1*%
%TO.N,/D13*%
X13850000Y-13500000D03*
%TO.P,SW_Push5,2,2_2*%
%TO.N,/GND*%
X16350000Y-13500000D03*
%TD*%
D13*
%TO.P,Conn_01x15_ESP32_DEV_KIT_PINS_3v3-D230,1,Pin_1_1*%
%TO.N,/3.3V*%
X28700000Y-82000000D03*
D12*
%TO.P,Conn_01x15_ESP32_DEV_KIT_PINS_3v3-D230,2,Pin_2_2*%
%TO.N,/GND*%
X28700000Y-84540000D03*
%TO.P,Conn_01x15_ESP32_DEV_KIT_PINS_3v3-D230,3,Pin_3_3*%
%TO.N,unconnected-(Conn_01x15_ESP32_DEV_KIT_PINS_3v3-D230-Pin_3-Pad3)*%
X28700000Y-87080000D03*
%TO.P,Conn_01x15_ESP32_DEV_KIT_PINS_3v3-D230,4,Pin_4_4*%
%TO.N,unconnected-(Conn_01x15_ESP32_DEV_KIT_PINS_3v3-D230-Pin_4-Pad4)*%
X28700000Y-89620000D03*
%TO.P,Conn_01x15_ESP32_DEV_KIT_PINS_3v3-D230,5,Pin_5_5*%
%TO.N,unconnected-(Conn_01x15_ESP32_DEV_KIT_PINS_3v3-D230-Pin_5-Pad5)*%
X28700000Y-92160000D03*
%TO.P,Conn_01x15_ESP32_DEV_KIT_PINS_3v3-D230,6,Pin_6_6*%
%TO.N,/RX2 (GPIO16)*%
X28700000Y-94700000D03*
%TO.P,Conn_01x15_ESP32_DEV_KIT_PINS_3v3-D230,7,Pin_7_7*%
%TO.N,/TX2 (GPIO17)*%
X28700000Y-97240000D03*
%TO.P,Conn_01x15_ESP32_DEV_KIT_PINS_3v3-D230,8,Pin_8_8*%
%TO.N,unconnected-(Conn_01x15_ESP32_DEV_KIT_PINS_3v3-D230-Pin_8-Pad8)*%
X28700000Y-99780000D03*
%TO.P,Conn_01x15_ESP32_DEV_KIT_PINS_3v3-D230,9,Pin_9_9*%
%TO.N,/D18*%
X28700000Y-102320000D03*
%TO.P,Conn_01x15_ESP32_DEV_KIT_PINS_3v3-D230,10,Pin_10_10*%
%TO.N,/D19*%
X28700000Y-104860000D03*
%TO.P,Conn_01x15_ESP32_DEV_KIT_PINS_3v3-D230,11,Pin_11_11*%
%TO.N,/D21 (SDA)*%
X28700000Y-107400000D03*
%TO.P,Conn_01x15_ESP32_DEV_KIT_PINS_3v3-D230,12,Pin_12_12*%
%TO.N,unconnected-(Conn_01x15_ESP32_DEV_KIT_PINS_3v3-D230-Pin_12-Pad12)*%
X28700000Y-109940000D03*
%TO.P,Conn_01x15_ESP32_DEV_KIT_PINS_3v3-D230,13,Pin_13_13*%
%TO.N,unconnected-(Conn_01x15_ESP32_DEV_KIT_PINS_3v3-D230-Pin_13-Pad13)*%
X28700000Y-112480000D03*
%TO.P,Conn_01x15_ESP32_DEV_KIT_PINS_3v3-D230,14,Pin_14_14*%
%TO.N,/D22 (SCL)*%
X28700000Y-115020000D03*
%TO.P,Conn_01x15_ESP32_DEV_KIT_PINS_3v3-D230,15,Pin_15_15*%
%TO.N,/D23*%
X28700000Y-117560000D03*
%TD*%
D13*
%TO.P,Conn_01x01_EXTRA_GPIO0,1,Pin_1_1*%
%TO.N,/D35*%
X2000000Y-126500000D03*
%TD*%
%TO.P,Conn_01x02_DECOUPLING_CAP_100uF0,1,Pin_1_1*%
%TO.N,/GND*%
X2600000Y-52930000D03*
D12*
%TO.P,Conn_01x02_DECOUPLING_CAP_100uF0,2,Pin_2_2*%
%TO.N,/VIN (VOUT)*%
X2600000Y-55470000D03*
%TD*%
D10*
%TO.P,Conn_01x04_CHARGING_MODULE0,1,Pin_1_1*%
%TO.N,/B+*%
X22050000Y-115000000D03*
%TO.P,Conn_01x04_CHARGING_MODULE0,2,Pin_2_2*%
%TO.N,/B-*%
X19550000Y-115000000D03*
%TO.P,Conn_01x04_CHARGING_MODULE0,3,Pin_3_3*%
%TO.N,/VIN (OUT+)*%
X10550000Y-115000000D03*
%TO.P,Conn_01x04_CHARGING_MODULE0,4,Pin_4_4*%
%TO.N,/GND (OUT-)*%
X8050000Y-115000000D03*
%TD*%
D13*
%TO.P,Conn_01x02_POWER_AND_GROUND0,1,Pin_1_1*%
%TO.N,/GND*%
X28000000Y-58660000D03*
D12*
%TO.P,Conn_01x02_POWER_AND_GROUND0,2,Pin_2_2*%
%TO.N,/3.3V*%
X28000000Y-61200000D03*
%TD*%
D13*
%TO.P,Conn_01x02_battery_terminal0,1,Pin_1_1*%
%TO.N,/B+*%
X28200000Y-122330000D03*
D12*
%TO.P,Conn_01x02_battery_terminal0,2,Pin_2_2*%
%TO.N,/B-*%
X28200000Y-124870000D03*
%TD*%
D13*
%TO.P,Conn_01x02_I2C_INPUT0,1,Pin_1_1*%
%TO.N,/D21 (SDA)*%
X23400000Y-72930000D03*
D12*
%TO.P,Conn_01x02_I2C_INPUT0,2,Pin_2_2*%
%TO.N,/D22 (SCL)*%
X23400000Y-75470000D03*
%TD*%
D13*
%TO.P,Conn_01x01_IMU_INTERRUPT0,1,Pin_1_1*%
%TO.N,/D34*%
X2000000Y-122500000D03*
%TD*%
%TO.P,Conn_01x15_ESP32_DEV_KIT_PINS_VIN-EN0,1,Pin_1_1*%
%TO.N,/VIN (VOUT)*%
X2000000Y-82000000D03*
D12*
%TO.P,Conn_01x15_ESP32_DEV_KIT_PINS_VIN-EN0,2,Pin_2_2*%
%TO.N,/GND*%
X2000000Y-84540000D03*
%TO.P,Conn_01x15_ESP32_DEV_KIT_PINS_VIN-EN0,3,Pin_3_3*%
%TO.N,/D13*%
X2000000Y-87080000D03*
%TO.P,Conn_01x15_ESP32_DEV_KIT_PINS_VIN-EN0,4,Pin_4_4*%
%TO.N,unconnected-(Conn_01x15_ESP32_DEV_KIT_PINS_VIN-EN0-Pin_4-Pad4)*%
X2000000Y-89620000D03*
%TO.P,Conn_01x15_ESP32_DEV_KIT_PINS_VIN-EN0,5,Pin_5_5*%
%TO.N,/D14*%
X2000000Y-92160000D03*
%TO.P,Conn_01x15_ESP32_DEV_KIT_PINS_VIN-EN0,6,Pin_6_6*%
%TO.N,/D27*%
X2000000Y-94700000D03*
%TO.P,Conn_01x15_ESP32_DEV_KIT_PINS_VIN-EN0,7,Pin_7_7*%
%TO.N,/D26*%
X2000000Y-97240000D03*
%TO.P,Conn_01x15_ESP32_DEV_KIT_PINS_VIN-EN0,8,Pin_8_8*%
%TO.N,/D25*%
X2000000Y-99780000D03*
%TO.P,Conn_01x15_ESP32_DEV_KIT_PINS_VIN-EN0,9,Pin_9_9*%
%TO.N,/D33*%
X2000000Y-102320000D03*
%TO.P,Conn_01x15_ESP32_DEV_KIT_PINS_VIN-EN0,10,Pin_10_10*%
%TO.N,/D32*%
X2000000Y-104860000D03*
%TO.P,Conn_01x15_ESP32_DEV_KIT_PINS_VIN-EN0,11,Pin_11_11*%
%TO.N,/D35*%
X2000000Y-107400000D03*
%TO.P,Conn_01x15_ESP32_DEV_KIT_PINS_VIN-EN0,12,Pin_12_12*%
%TO.N,/D34*%
X2000000Y-109940000D03*
%TO.P,Conn_01x15_ESP32_DEV_KIT_PINS_VIN-EN0,13,Pin_13_13*%
%TO.N,unconnected-(Conn_01x15_ESP32_DEV_KIT_PINS_VIN-EN0-Pin_13-Pad13)*%
X2000000Y-112480000D03*
%TO.P,Conn_01x15_ESP32_DEV_KIT_PINS_VIN-EN0,14,Pin_14_14*%
%TO.N,unconnected-(Conn_01x15_ESP32_DEV_KIT_PINS_VIN-EN0-Pin_14-Pad14)*%
X2000000Y-115020000D03*
%TO.P,Conn_01x15_ESP32_DEV_KIT_PINS_VIN-EN0,15,Pin_15_15*%
%TO.N,unconnected-(Conn_01x15_ESP32_DEV_KIT_PINS_VIN-EN0-Pin_15-Pad15)*%
X2000000Y-117560000D03*
%TD*%
D14*
%TO.N,/GND*%
X21400000Y-67000000D03*
X20000000Y-67000000D03*
X20000000Y-83200000D03*
X22400000Y-83200000D03*
%TO.N,/D32*%
X13800000Y-114400000D03*
%TO.N,/VIN (VOUT)*%
X24000000Y-57000000D03*
X24000000Y-32400000D03*
%TO.N,/GND (OUT-)*%
X10800000Y-101600000D03*
X10800000Y-98400000D03*
X10800000Y-93000000D03*
X8600000Y-85000000D03*
X7600000Y-43400000D03*
%TO.N,/D23*%
X10000000Y-3000000D03*
X10800000Y-48800000D03*
X10800000Y-61000000D03*
X10800000Y-46200000D03*
X10800000Y-62800000D03*
X16600000Y-92400000D03*
X16600000Y-94800000D03*
%TO.N,/GND*%
X22800000Y-104200000D03*
X22600000Y-93800000D03*
X26200000Y-84600000D03*
%TO.N,/D26*%
X19400000Y-93800000D03*
X21200000Y-25400000D03*
X19600000Y-23800000D03*
%TO.N,/D27*%
X6800000Y-94800000D03*
X8400000Y-94800000D03*
%TO.N,/D13*%
X6800000Y-87200000D03*
X8600000Y-87200000D03*
%TO.N,/GND*%
X19600000Y-30800000D03*
%TO.N,/RX2 (GPIO16)*%
X20000000Y-94800000D03*
X22200000Y-94800000D03*
%TO.N,/GND*%
X14000000Y-44400000D03*
%TO.N,/D19*%
X7800000Y-100800000D03*
X7600000Y-98800000D03*
%TO.N,/D21 (SDA)*%
X24400000Y-78400000D03*
X22600000Y-78400000D03*
%TO.N,/GND*%
X5400000Y-62000000D03*
X16400000Y-62000000D03*
X23200000Y-62000000D03*
X1400000Y-66400000D03*
%TO.N,/D33*%
X4500000Y-102500000D03*
X14000000Y-102500000D03*
%TD*%
%TO.N,/GND*%
D15*
X21400000Y-67000000D02*
X23200000Y-67000000D01*
X20000000Y-83200000D02*
X20000000Y-67000000D01*
X22600000Y-83400000D02*
X22400000Y-83200000D01*
X22600000Y-84600000D02*
X22600000Y-83400000D01*
X5800000Y-80740000D02*
X2000000Y-84540000D01*
X5800000Y-71000000D02*
X5800000Y-80740000D01*
X16350000Y-118000000D02*
X16350000Y-106000000D01*
%TO.N,/D32*%
X13850000Y-114450000D02*
X13850000Y-118000000D01*
X13800000Y-114400000D02*
X13850000Y-114450000D01*
%TO.N,/GND*%
X4500000Y-69700000D02*
X4500000Y-67000000D01*
X5800000Y-71000000D02*
X4500000Y-69700000D01*
%TO.N,/VIN (VOUT)*%
X24000000Y-32400000D02*
X24000000Y-57000000D01*
%TO.N,/GND (OUT-)*%
X8050000Y-104350000D02*
X8050000Y-115000000D01*
X10800000Y-101600000D02*
X8050000Y-104350000D01*
X10800000Y-93000000D02*
X10800000Y-98400000D01*
X8600000Y-54800000D02*
X8600000Y-85000000D01*
X7600000Y-43400000D02*
X7600000Y-53800000D01*
X7600000Y-53800000D02*
X8600000Y-54800000D01*
%TO.N,/D23*%
X10000000Y-3000000D02*
X6500000Y-3000000D01*
X10800000Y-48800000D02*
X10800000Y-46200000D01*
X10800000Y-62800000D02*
X10800000Y-61000000D01*
X16600000Y-94800000D02*
X16600000Y-92400000D01*
%TO.N,/GND*%
X21000000Y-106000000D02*
X16350000Y-106000000D01*
X26200000Y-84600000D02*
X22600000Y-84600000D01*
X22600000Y-84600000D02*
X22600000Y-93800000D01*
X22800000Y-104200000D02*
X21000000Y-106000000D01*
%TO.N,/D14*%
X850000Y-93310000D02*
X2000000Y-92160000D01*
X850000Y-100256346D02*
X850000Y-93310000D01*
X1523654Y-100930000D02*
X850000Y-100256346D01*
X2476346Y-100930000D02*
X1523654Y-100930000D01*
X3226346Y-100180000D02*
X2476346Y-100930000D01*
X13185685Y-100180000D02*
X3226346Y-100180000D01*
X17650000Y-95715685D02*
X13185685Y-100180000D01*
X17650000Y-62401471D02*
X17650000Y-95715685D01*
X12550000Y-57301471D02*
X17650000Y-62401471D01*
X12550000Y-28800000D02*
X12550000Y-57301471D01*
X13850000Y-27500000D02*
X12550000Y-28800000D01*
%TO.N,/D26*%
X20800000Y-93800000D02*
X19400000Y-93800000D01*
X20800000Y-25800000D02*
X20800000Y-93800000D01*
X19600000Y-22250000D02*
X19600000Y-23800000D01*
X21200000Y-25400000D02*
X20800000Y-25800000D01*
X21350000Y-20500000D02*
X19600000Y-22250000D01*
%TO.N,/D27*%
X6700000Y-94700000D02*
X2000000Y-94700000D01*
X6800000Y-94800000D02*
X6700000Y-94700000D01*
X9600000Y-94800000D02*
X8400000Y-94800000D01*
X10000000Y-94400000D02*
X9600000Y-94800000D01*
X10000000Y-29400000D02*
X10000000Y-94400000D01*
X6200000Y-25600000D02*
X10000000Y-29400000D01*
X6200000Y-20650000D02*
X6200000Y-25600000D01*
X6350000Y-20500000D02*
X6200000Y-20650000D01*
%TO.N,/D13*%
X6680000Y-87080000D02*
X2000000Y-87080000D01*
X6800000Y-87200000D02*
X6680000Y-87080000D01*
X9200000Y-87200000D02*
X8600000Y-87200000D01*
X5050000Y-25850000D02*
X9200000Y-30000000D01*
X9200000Y-30000000D02*
X9200000Y-87200000D01*
X5050000Y-18200000D02*
X5050000Y-25850000D01*
X9750000Y-13500000D02*
X5050000Y-18200000D01*
X13850000Y-13500000D02*
X9750000Y-13500000D01*
%TO.N,/GND*%
X16350000Y-7150000D02*
X16350000Y-13500000D01*
X4000000Y-1900000D02*
X5300000Y-600000D01*
X5300000Y-600000D02*
X9800000Y-600000D01*
X4000000Y-3000000D02*
X4000000Y-1900000D01*
X9800000Y-600000D02*
X16350000Y-7150000D01*
X16350000Y-13500000D02*
X16350000Y-15700000D01*
X16350000Y-15700000D02*
X11550000Y-20500000D01*
X11550000Y-20500000D02*
X16350000Y-25300000D01*
X8850000Y-20500000D02*
X11550000Y-20500000D01*
X16350000Y-25300000D02*
X16350000Y-27500000D01*
X17850000Y-27500000D02*
X16350000Y-27500000D01*
X23850000Y-21500000D02*
X17850000Y-27500000D01*
X23850000Y-20500000D02*
X23850000Y-21500000D01*
X26800000Y-20500000D02*
X27000000Y-20300000D01*
X23850000Y-20500000D02*
X26800000Y-20500000D01*
X19600000Y-30750000D02*
X19600000Y-30800000D01*
X16350000Y-27500000D02*
X19600000Y-30750000D01*
%TO.N,/RX2 (GPIO16)*%
X22900000Y-94700000D02*
X28700000Y-94700000D01*
X22200000Y-94800000D02*
X22800000Y-94800000D01*
X18800000Y-94800000D02*
X20000000Y-94800000D01*
X18800000Y-42950000D02*
X18800000Y-94800000D01*
X16350000Y-40500000D02*
X18800000Y-42950000D01*
X22800000Y-94800000D02*
X22900000Y-94700000D01*
%TO.N,/GND*%
X13850000Y-44250000D02*
X14000000Y-44400000D01*
X13850000Y-40500000D02*
X13850000Y-44250000D01*
%TO.N,/D19*%
X27040000Y-103200000D02*
X28700000Y-104860000D01*
X22000000Y-103200000D02*
X27040000Y-103200000D01*
X19600000Y-100800000D02*
X22000000Y-103200000D01*
X7800000Y-100800000D02*
X19600000Y-100800000D01*
X7600000Y-67600000D02*
X7600000Y-98800000D01*
X7000000Y-67000000D02*
X7600000Y-67600000D01*
%TO.N,/D25*%
X13020000Y-99780000D02*
X2000000Y-99780000D01*
X13850000Y-98950000D02*
X13020000Y-99780000D01*
X13850000Y-67000000D02*
X13850000Y-98950000D01*
%TO.N,/D18*%
X22120000Y-102320000D02*
X28700000Y-102320000D01*
X21400000Y-101600000D02*
X22120000Y-102320000D01*
X21400000Y-70800000D02*
X21400000Y-101600000D01*
X23000000Y-70800000D02*
X21400000Y-70800000D01*
X25700000Y-68100000D02*
X23000000Y-70800000D01*
X25700000Y-67000000D02*
X25700000Y-68100000D01*
%TO.N,/D21 (SDA)*%
X22600000Y-78400000D02*
X24400000Y-78400000D01*
%TO.N,/GND*%
X4500000Y-63100000D02*
X4500000Y-67000000D01*
X5400000Y-62000000D02*
X5400000Y-62200000D01*
X5400000Y-62200000D02*
X4500000Y-63100000D01*
X16400000Y-62000000D02*
X16350000Y-62050000D01*
X16350000Y-62050000D02*
X16350000Y-67000000D01*
X23200000Y-62000000D02*
X23200000Y-67000000D01*
X2000000Y-67000000D02*
X4500000Y-67000000D01*
X1400000Y-66400000D02*
X2000000Y-67000000D01*
%TO.N,/D35*%
X2000000Y-126500000D02*
X4400000Y-124100000D01*
X4400000Y-124100000D02*
X4400000Y-109800000D01*
X4400000Y-109800000D02*
X2000000Y-107400000D01*
%TO.N,/D34*%
X2000000Y-122500000D02*
X4000000Y-120500000D01*
X4000000Y-120500000D02*
X4000000Y-111940000D01*
X4000000Y-111940000D02*
X2000000Y-109940000D01*
%TO.N,/GND (OUT-)*%
X9000000Y-115950000D02*
X8050000Y-115000000D01*
%TO.N,/D33*%
X3500000Y-102500000D02*
X3320000Y-102320000D01*
X4500000Y-102500000D02*
X3500000Y-102500000D01*
X13850000Y-102650000D02*
X14000000Y-102500000D01*
X13850000Y-106000000D02*
X13850000Y-102650000D01*
X3320000Y-102320000D02*
X2000000Y-102320000D01*
%TD*%
M02*
