%TF.GenerationSoftware,KiCad,Pcbnew,10.0.0*%
%TF.CreationDate,2026-04-13T17:58:31-05:00*%
%TF.ProjectId,WiiRemote,57696952-656d-46f7-9465-2e6b69636164,rev?*%
%TF.SameCoordinates,Original*%
%TF.FileFunction,Legend,Top*%
%TF.FilePolarity,Positive*%
%FSLAX46Y46*%
G04 Gerber Fmt 4.6, Leading zero omitted, Abs format (unit mm)*
G04 Created by KiCad (PCBNEW 10.0.0) date 2026-04-13 17:58:31*
%MOMM*%
%LPD*%
G01*
G04 APERTURE LIST*
%ADD10C,0.100000*%
G04 APERTURE END LIST*
D10*
X1976190Y-6909800D02*
X2119047Y-6957419D01*
X2119047Y-6957419D02*
X2357142Y-6957419D01*
X2357142Y-6957419D02*
X2452380Y-6909800D01*
X2452380Y-6909800D02*
X2499999Y-6862180D01*
X2499999Y-6862180D02*
X2547618Y-6766942D01*
X2547618Y-6766942D02*
X2547618Y-6671704D01*
X2547618Y-6671704D02*
X2499999Y-6576466D01*
X2499999Y-6576466D02*
X2452380Y-6528847D01*
X2452380Y-6528847D02*
X2357142Y-6481228D01*
X2357142Y-6481228D02*
X2166666Y-6433609D01*
X2166666Y-6433609D02*
X2071428Y-6385990D01*
X2071428Y-6385990D02*
X2023809Y-6338371D01*
X2023809Y-6338371D02*
X1976190Y-6243133D01*
X1976190Y-6243133D02*
X1976190Y-6147895D01*
X1976190Y-6147895D02*
X2023809Y-6052657D01*
X2023809Y-6052657D02*
X2071428Y-6005038D01*
X2071428Y-6005038D02*
X2166666Y-5957419D01*
X2166666Y-5957419D02*
X2404761Y-5957419D01*
X2404761Y-5957419D02*
X2547618Y-6005038D01*
X2880952Y-5957419D02*
X3119047Y-6957419D01*
X3119047Y-6957419D02*
X3309523Y-6243133D01*
X3309523Y-6243133D02*
X3499999Y-6957419D01*
X3499999Y-6957419D02*
X3738095Y-5957419D01*
X3880952Y-7052657D02*
X4642856Y-7052657D01*
X4880952Y-6957419D02*
X4880952Y-5957419D01*
X4880952Y-5957419D02*
X5261904Y-5957419D01*
X5261904Y-5957419D02*
X5357142Y-6005038D01*
X5357142Y-6005038D02*
X5404761Y-6052657D01*
X5404761Y-6052657D02*
X5452380Y-6147895D01*
X5452380Y-6147895D02*
X5452380Y-6290752D01*
X5452380Y-6290752D02*
X5404761Y-6385990D01*
X5404761Y-6385990D02*
X5357142Y-6433609D01*
X5357142Y-6433609D02*
X5261904Y-6481228D01*
X5261904Y-6481228D02*
X4880952Y-6481228D01*
X6309523Y-6290752D02*
X6309523Y-6957419D01*
X5880952Y-6290752D02*
X5880952Y-6814561D01*
X5880952Y-6814561D02*
X5928571Y-6909800D01*
X5928571Y-6909800D02*
X6023809Y-6957419D01*
X6023809Y-6957419D02*
X6166666Y-6957419D01*
X6166666Y-6957419D02*
X6261904Y-6909800D01*
X6261904Y-6909800D02*
X6309523Y-6862180D01*
X6738095Y-6909800D02*
X6833333Y-6957419D01*
X6833333Y-6957419D02*
X7023809Y-6957419D01*
X7023809Y-6957419D02*
X7119047Y-6909800D01*
X7119047Y-6909800D02*
X7166666Y-6814561D01*
X7166666Y-6814561D02*
X7166666Y-6766942D01*
X7166666Y-6766942D02*
X7119047Y-6671704D01*
X7119047Y-6671704D02*
X7023809Y-6624085D01*
X7023809Y-6624085D02*
X6880952Y-6624085D01*
X6880952Y-6624085D02*
X6785714Y-6576466D01*
X6785714Y-6576466D02*
X6738095Y-6481228D01*
X6738095Y-6481228D02*
X6738095Y-6433609D01*
X6738095Y-6433609D02*
X6785714Y-6338371D01*
X6785714Y-6338371D02*
X6880952Y-6290752D01*
X6880952Y-6290752D02*
X7023809Y-6290752D01*
X7023809Y-6290752D02*
X7119047Y-6338371D01*
X7595238Y-6957419D02*
X7595238Y-5957419D01*
X8023809Y-6957419D02*
X8023809Y-6433609D01*
X8023809Y-6433609D02*
X7976190Y-6338371D01*
X7976190Y-6338371D02*
X7880952Y-6290752D01*
X7880952Y-6290752D02*
X7738095Y-6290752D01*
X7738095Y-6290752D02*
X7642857Y-6338371D01*
X7642857Y-6338371D02*
X7595238Y-6385990D01*
X8928571Y-6290752D02*
X8928571Y-6957419D01*
X8690476Y-5909800D02*
X8452381Y-6624085D01*
X8452381Y-6624085D02*
X9071428Y-6624085D01*
X3976190Y-17409800D02*
X4119047Y-17457419D01*
X4119047Y-17457419D02*
X4357142Y-17457419D01*
X4357142Y-17457419D02*
X4452380Y-17409800D01*
X4452380Y-17409800D02*
X4499999Y-17362180D01*
X4499999Y-17362180D02*
X4547618Y-17266942D01*
X4547618Y-17266942D02*
X4547618Y-17171704D01*
X4547618Y-17171704D02*
X4499999Y-17076466D01*
X4499999Y-17076466D02*
X4452380Y-17028847D01*
X4452380Y-17028847D02*
X4357142Y-16981228D01*
X4357142Y-16981228D02*
X4166666Y-16933609D01*
X4166666Y-16933609D02*
X4071428Y-16885990D01*
X4071428Y-16885990D02*
X4023809Y-16838371D01*
X4023809Y-16838371D02*
X3976190Y-16743133D01*
X3976190Y-16743133D02*
X3976190Y-16647895D01*
X3976190Y-16647895D02*
X4023809Y-16552657D01*
X4023809Y-16552657D02*
X4071428Y-16505038D01*
X4071428Y-16505038D02*
X4166666Y-16457419D01*
X4166666Y-16457419D02*
X4404761Y-16457419D01*
X4404761Y-16457419D02*
X4547618Y-16505038D01*
X4880952Y-16457419D02*
X5119047Y-17457419D01*
X5119047Y-17457419D02*
X5309523Y-16743133D01*
X5309523Y-16743133D02*
X5499999Y-17457419D01*
X5499999Y-17457419D02*
X5738095Y-16457419D01*
X5880952Y-17552657D02*
X6642856Y-17552657D01*
X6880952Y-17457419D02*
X6880952Y-16457419D01*
X6880952Y-16457419D02*
X7261904Y-16457419D01*
X7261904Y-16457419D02*
X7357142Y-16505038D01*
X7357142Y-16505038D02*
X7404761Y-16552657D01*
X7404761Y-16552657D02*
X7452380Y-16647895D01*
X7452380Y-16647895D02*
X7452380Y-16790752D01*
X7452380Y-16790752D02*
X7404761Y-16885990D01*
X7404761Y-16885990D02*
X7357142Y-16933609D01*
X7357142Y-16933609D02*
X7261904Y-16981228D01*
X7261904Y-16981228D02*
X6880952Y-16981228D01*
X8309523Y-16790752D02*
X8309523Y-17457419D01*
X7880952Y-16790752D02*
X7880952Y-17314561D01*
X7880952Y-17314561D02*
X7928571Y-17409800D01*
X7928571Y-17409800D02*
X8023809Y-17457419D01*
X8023809Y-17457419D02*
X8166666Y-17457419D01*
X8166666Y-17457419D02*
X8261904Y-17409800D01*
X8261904Y-17409800D02*
X8309523Y-17362180D01*
X8738095Y-17409800D02*
X8833333Y-17457419D01*
X8833333Y-17457419D02*
X9023809Y-17457419D01*
X9023809Y-17457419D02*
X9119047Y-17409800D01*
X9119047Y-17409800D02*
X9166666Y-17314561D01*
X9166666Y-17314561D02*
X9166666Y-17266942D01*
X9166666Y-17266942D02*
X9119047Y-17171704D01*
X9119047Y-17171704D02*
X9023809Y-17124085D01*
X9023809Y-17124085D02*
X8880952Y-17124085D01*
X8880952Y-17124085D02*
X8785714Y-17076466D01*
X8785714Y-17076466D02*
X8738095Y-16981228D01*
X8738095Y-16981228D02*
X8738095Y-16933609D01*
X8738095Y-16933609D02*
X8785714Y-16838371D01*
X8785714Y-16838371D02*
X8880952Y-16790752D01*
X8880952Y-16790752D02*
X9023809Y-16790752D01*
X9023809Y-16790752D02*
X9119047Y-16838371D01*
X9595238Y-17457419D02*
X9595238Y-16457419D01*
X10023809Y-17457419D02*
X10023809Y-16933609D01*
X10023809Y-16933609D02*
X9976190Y-16838371D01*
X9976190Y-16838371D02*
X9880952Y-16790752D01*
X9880952Y-16790752D02*
X9738095Y-16790752D01*
X9738095Y-16790752D02*
X9642857Y-16838371D01*
X9642857Y-16838371D02*
X9595238Y-16885990D01*
X10404762Y-16457419D02*
X11071428Y-16457419D01*
X11071428Y-16457419D02*
X10642857Y-17457419D01*
X19476190Y-17409800D02*
X19619047Y-17457419D01*
X19619047Y-17457419D02*
X19857142Y-17457419D01*
X19857142Y-17457419D02*
X19952380Y-17409800D01*
X19952380Y-17409800D02*
X19999999Y-17362180D01*
X19999999Y-17362180D02*
X20047618Y-17266942D01*
X20047618Y-17266942D02*
X20047618Y-17171704D01*
X20047618Y-17171704D02*
X19999999Y-17076466D01*
X19999999Y-17076466D02*
X19952380Y-17028847D01*
X19952380Y-17028847D02*
X19857142Y-16981228D01*
X19857142Y-16981228D02*
X19666666Y-16933609D01*
X19666666Y-16933609D02*
X19571428Y-16885990D01*
X19571428Y-16885990D02*
X19523809Y-16838371D01*
X19523809Y-16838371D02*
X19476190Y-16743133D01*
X19476190Y-16743133D02*
X19476190Y-16647895D01*
X19476190Y-16647895D02*
X19523809Y-16552657D01*
X19523809Y-16552657D02*
X19571428Y-16505038D01*
X19571428Y-16505038D02*
X19666666Y-16457419D01*
X19666666Y-16457419D02*
X19904761Y-16457419D01*
X19904761Y-16457419D02*
X20047618Y-16505038D01*
X20380952Y-16457419D02*
X20619047Y-17457419D01*
X20619047Y-17457419D02*
X20809523Y-16743133D01*
X20809523Y-16743133D02*
X20999999Y-17457419D01*
X20999999Y-17457419D02*
X21238095Y-16457419D01*
X21380952Y-17552657D02*
X22142856Y-17552657D01*
X22380952Y-17457419D02*
X22380952Y-16457419D01*
X22380952Y-16457419D02*
X22761904Y-16457419D01*
X22761904Y-16457419D02*
X22857142Y-16505038D01*
X22857142Y-16505038D02*
X22904761Y-16552657D01*
X22904761Y-16552657D02*
X22952380Y-16647895D01*
X22952380Y-16647895D02*
X22952380Y-16790752D01*
X22952380Y-16790752D02*
X22904761Y-16885990D01*
X22904761Y-16885990D02*
X22857142Y-16933609D01*
X22857142Y-16933609D02*
X22761904Y-16981228D01*
X22761904Y-16981228D02*
X22380952Y-16981228D01*
X23809523Y-16790752D02*
X23809523Y-17457419D01*
X23380952Y-16790752D02*
X23380952Y-17314561D01*
X23380952Y-17314561D02*
X23428571Y-17409800D01*
X23428571Y-17409800D02*
X23523809Y-17457419D01*
X23523809Y-17457419D02*
X23666666Y-17457419D01*
X23666666Y-17457419D02*
X23761904Y-17409800D01*
X23761904Y-17409800D02*
X23809523Y-17362180D01*
X24238095Y-17409800D02*
X24333333Y-17457419D01*
X24333333Y-17457419D02*
X24523809Y-17457419D01*
X24523809Y-17457419D02*
X24619047Y-17409800D01*
X24619047Y-17409800D02*
X24666666Y-17314561D01*
X24666666Y-17314561D02*
X24666666Y-17266942D01*
X24666666Y-17266942D02*
X24619047Y-17171704D01*
X24619047Y-17171704D02*
X24523809Y-17124085D01*
X24523809Y-17124085D02*
X24380952Y-17124085D01*
X24380952Y-17124085D02*
X24285714Y-17076466D01*
X24285714Y-17076466D02*
X24238095Y-16981228D01*
X24238095Y-16981228D02*
X24238095Y-16933609D01*
X24238095Y-16933609D02*
X24285714Y-16838371D01*
X24285714Y-16838371D02*
X24380952Y-16790752D01*
X24380952Y-16790752D02*
X24523809Y-16790752D01*
X24523809Y-16790752D02*
X24619047Y-16838371D01*
X25095238Y-17457419D02*
X25095238Y-16457419D01*
X25523809Y-17457419D02*
X25523809Y-16933609D01*
X25523809Y-16933609D02*
X25476190Y-16838371D01*
X25476190Y-16838371D02*
X25380952Y-16790752D01*
X25380952Y-16790752D02*
X25238095Y-16790752D01*
X25238095Y-16790752D02*
X25142857Y-16838371D01*
X25142857Y-16838371D02*
X25095238Y-16885990D01*
X26142857Y-16885990D02*
X26047619Y-16838371D01*
X26047619Y-16838371D02*
X26000000Y-16790752D01*
X26000000Y-16790752D02*
X25952381Y-16695514D01*
X25952381Y-16695514D02*
X25952381Y-16647895D01*
X25952381Y-16647895D02*
X26000000Y-16552657D01*
X26000000Y-16552657D02*
X26047619Y-16505038D01*
X26047619Y-16505038D02*
X26142857Y-16457419D01*
X26142857Y-16457419D02*
X26333333Y-16457419D01*
X26333333Y-16457419D02*
X26428571Y-16505038D01*
X26428571Y-16505038D02*
X26476190Y-16552657D01*
X26476190Y-16552657D02*
X26523809Y-16647895D01*
X26523809Y-16647895D02*
X26523809Y-16695514D01*
X26523809Y-16695514D02*
X26476190Y-16790752D01*
X26476190Y-16790752D02*
X26428571Y-16838371D01*
X26428571Y-16838371D02*
X26333333Y-16885990D01*
X26333333Y-16885990D02*
X26142857Y-16885990D01*
X26142857Y-16885990D02*
X26047619Y-16933609D01*
X26047619Y-16933609D02*
X26000000Y-16981228D01*
X26000000Y-16981228D02*
X25952381Y-17076466D01*
X25952381Y-17076466D02*
X25952381Y-17266942D01*
X25952381Y-17266942D02*
X26000000Y-17362180D01*
X26000000Y-17362180D02*
X26047619Y-17409800D01*
X26047619Y-17409800D02*
X26142857Y-17457419D01*
X26142857Y-17457419D02*
X26333333Y-17457419D01*
X26333333Y-17457419D02*
X26428571Y-17409800D01*
X26428571Y-17409800D02*
X26476190Y-17362180D01*
X26476190Y-17362180D02*
X26523809Y-17266942D01*
X26523809Y-17266942D02*
X26523809Y-17076466D01*
X26523809Y-17076466D02*
X26476190Y-16981228D01*
X26476190Y-16981228D02*
X26428571Y-16933609D01*
X26428571Y-16933609D02*
X26333333Y-16885990D01*
X11000000Y-122409800D02*
X11142857Y-122457419D01*
X11142857Y-122457419D02*
X11380952Y-122457419D01*
X11380952Y-122457419D02*
X11476190Y-122409800D01*
X11476190Y-122409800D02*
X11523809Y-122362180D01*
X11523809Y-122362180D02*
X11571428Y-122266942D01*
X11571428Y-122266942D02*
X11571428Y-122171704D01*
X11571428Y-122171704D02*
X11523809Y-122076466D01*
X11523809Y-122076466D02*
X11476190Y-122028847D01*
X11476190Y-122028847D02*
X11380952Y-121981228D01*
X11380952Y-121981228D02*
X11190476Y-121933609D01*
X11190476Y-121933609D02*
X11095238Y-121885990D01*
X11095238Y-121885990D02*
X11047619Y-121838371D01*
X11047619Y-121838371D02*
X11000000Y-121743133D01*
X11000000Y-121743133D02*
X11000000Y-121647895D01*
X11000000Y-121647895D02*
X11047619Y-121552657D01*
X11047619Y-121552657D02*
X11095238Y-121505038D01*
X11095238Y-121505038D02*
X11190476Y-121457419D01*
X11190476Y-121457419D02*
X11428571Y-121457419D01*
X11428571Y-121457419D02*
X11571428Y-121505038D01*
X11904762Y-121457419D02*
X12142857Y-122457419D01*
X12142857Y-122457419D02*
X12333333Y-121743133D01*
X12333333Y-121743133D02*
X12523809Y-122457419D01*
X12523809Y-122457419D02*
X12761905Y-121457419D01*
X12904762Y-122552657D02*
X13666666Y-122552657D01*
X13904762Y-122457419D02*
X13904762Y-121457419D01*
X13904762Y-121457419D02*
X14285714Y-121457419D01*
X14285714Y-121457419D02*
X14380952Y-121505038D01*
X14380952Y-121505038D02*
X14428571Y-121552657D01*
X14428571Y-121552657D02*
X14476190Y-121647895D01*
X14476190Y-121647895D02*
X14476190Y-121790752D01*
X14476190Y-121790752D02*
X14428571Y-121885990D01*
X14428571Y-121885990D02*
X14380952Y-121933609D01*
X14380952Y-121933609D02*
X14285714Y-121981228D01*
X14285714Y-121981228D02*
X13904762Y-121981228D01*
X15333333Y-121790752D02*
X15333333Y-122457419D01*
X14904762Y-121790752D02*
X14904762Y-122314561D01*
X14904762Y-122314561D02*
X14952381Y-122409800D01*
X14952381Y-122409800D02*
X15047619Y-122457419D01*
X15047619Y-122457419D02*
X15190476Y-122457419D01*
X15190476Y-122457419D02*
X15285714Y-122409800D01*
X15285714Y-122409800D02*
X15333333Y-122362180D01*
X15761905Y-122409800D02*
X15857143Y-122457419D01*
X15857143Y-122457419D02*
X16047619Y-122457419D01*
X16047619Y-122457419D02*
X16142857Y-122409800D01*
X16142857Y-122409800D02*
X16190476Y-122314561D01*
X16190476Y-122314561D02*
X16190476Y-122266942D01*
X16190476Y-122266942D02*
X16142857Y-122171704D01*
X16142857Y-122171704D02*
X16047619Y-122124085D01*
X16047619Y-122124085D02*
X15904762Y-122124085D01*
X15904762Y-122124085D02*
X15809524Y-122076466D01*
X15809524Y-122076466D02*
X15761905Y-121981228D01*
X15761905Y-121981228D02*
X15761905Y-121933609D01*
X15761905Y-121933609D02*
X15809524Y-121838371D01*
X15809524Y-121838371D02*
X15904762Y-121790752D01*
X15904762Y-121790752D02*
X16047619Y-121790752D01*
X16047619Y-121790752D02*
X16142857Y-121838371D01*
X16619048Y-122457419D02*
X16619048Y-121457419D01*
X17047619Y-122457419D02*
X17047619Y-121933609D01*
X17047619Y-121933609D02*
X17000000Y-121838371D01*
X17000000Y-121838371D02*
X16904762Y-121790752D01*
X16904762Y-121790752D02*
X16761905Y-121790752D01*
X16761905Y-121790752D02*
X16666667Y-121838371D01*
X16666667Y-121838371D02*
X16619048Y-121885990D01*
X18047619Y-122457419D02*
X17476191Y-122457419D01*
X17761905Y-122457419D02*
X17761905Y-121457419D01*
X17761905Y-121457419D02*
X17666667Y-121600276D01*
X17666667Y-121600276D02*
X17571429Y-121695514D01*
X17571429Y-121695514D02*
X17476191Y-121743133D01*
X19000000Y-122457419D02*
X18428572Y-122457419D01*
X18714286Y-122457419D02*
X18714286Y-121457419D01*
X18714286Y-121457419D02*
X18619048Y-121600276D01*
X18619048Y-121600276D02*
X18523810Y-121695514D01*
X18523810Y-121695514D02*
X18428572Y-121743133D01*
X11476190Y-44409800D02*
X11619047Y-44457419D01*
X11619047Y-44457419D02*
X11857142Y-44457419D01*
X11857142Y-44457419D02*
X11952380Y-44409800D01*
X11952380Y-44409800D02*
X11999999Y-44362180D01*
X11999999Y-44362180D02*
X12047618Y-44266942D01*
X12047618Y-44266942D02*
X12047618Y-44171704D01*
X12047618Y-44171704D02*
X11999999Y-44076466D01*
X11999999Y-44076466D02*
X11952380Y-44028847D01*
X11952380Y-44028847D02*
X11857142Y-43981228D01*
X11857142Y-43981228D02*
X11666666Y-43933609D01*
X11666666Y-43933609D02*
X11571428Y-43885990D01*
X11571428Y-43885990D02*
X11523809Y-43838371D01*
X11523809Y-43838371D02*
X11476190Y-43743133D01*
X11476190Y-43743133D02*
X11476190Y-43647895D01*
X11476190Y-43647895D02*
X11523809Y-43552657D01*
X11523809Y-43552657D02*
X11571428Y-43505038D01*
X11571428Y-43505038D02*
X11666666Y-43457419D01*
X11666666Y-43457419D02*
X11904761Y-43457419D01*
X11904761Y-43457419D02*
X12047618Y-43505038D01*
X12380952Y-43457419D02*
X12619047Y-44457419D01*
X12619047Y-44457419D02*
X12809523Y-43743133D01*
X12809523Y-43743133D02*
X12999999Y-44457419D01*
X12999999Y-44457419D02*
X13238095Y-43457419D01*
X13380952Y-44552657D02*
X14142856Y-44552657D01*
X14380952Y-44457419D02*
X14380952Y-43457419D01*
X14380952Y-43457419D02*
X14761904Y-43457419D01*
X14761904Y-43457419D02*
X14857142Y-43505038D01*
X14857142Y-43505038D02*
X14904761Y-43552657D01*
X14904761Y-43552657D02*
X14952380Y-43647895D01*
X14952380Y-43647895D02*
X14952380Y-43790752D01*
X14952380Y-43790752D02*
X14904761Y-43885990D01*
X14904761Y-43885990D02*
X14857142Y-43933609D01*
X14857142Y-43933609D02*
X14761904Y-43981228D01*
X14761904Y-43981228D02*
X14380952Y-43981228D01*
X15809523Y-43790752D02*
X15809523Y-44457419D01*
X15380952Y-43790752D02*
X15380952Y-44314561D01*
X15380952Y-44314561D02*
X15428571Y-44409800D01*
X15428571Y-44409800D02*
X15523809Y-44457419D01*
X15523809Y-44457419D02*
X15666666Y-44457419D01*
X15666666Y-44457419D02*
X15761904Y-44409800D01*
X15761904Y-44409800D02*
X15809523Y-44362180D01*
X16238095Y-44409800D02*
X16333333Y-44457419D01*
X16333333Y-44457419D02*
X16523809Y-44457419D01*
X16523809Y-44457419D02*
X16619047Y-44409800D01*
X16619047Y-44409800D02*
X16666666Y-44314561D01*
X16666666Y-44314561D02*
X16666666Y-44266942D01*
X16666666Y-44266942D02*
X16619047Y-44171704D01*
X16619047Y-44171704D02*
X16523809Y-44124085D01*
X16523809Y-44124085D02*
X16380952Y-44124085D01*
X16380952Y-44124085D02*
X16285714Y-44076466D01*
X16285714Y-44076466D02*
X16238095Y-43981228D01*
X16238095Y-43981228D02*
X16238095Y-43933609D01*
X16238095Y-43933609D02*
X16285714Y-43838371D01*
X16285714Y-43838371D02*
X16380952Y-43790752D01*
X16380952Y-43790752D02*
X16523809Y-43790752D01*
X16523809Y-43790752D02*
X16619047Y-43838371D01*
X17095238Y-44457419D02*
X17095238Y-43457419D01*
X17523809Y-44457419D02*
X17523809Y-43933609D01*
X17523809Y-43933609D02*
X17476190Y-43838371D01*
X17476190Y-43838371D02*
X17380952Y-43790752D01*
X17380952Y-43790752D02*
X17238095Y-43790752D01*
X17238095Y-43790752D02*
X17142857Y-43838371D01*
X17142857Y-43838371D02*
X17095238Y-43885990D01*
X18190476Y-43457419D02*
X18285714Y-43457419D01*
X18285714Y-43457419D02*
X18380952Y-43505038D01*
X18380952Y-43505038D02*
X18428571Y-43552657D01*
X18428571Y-43552657D02*
X18476190Y-43647895D01*
X18476190Y-43647895D02*
X18523809Y-43838371D01*
X18523809Y-43838371D02*
X18523809Y-44076466D01*
X18523809Y-44076466D02*
X18476190Y-44266942D01*
X18476190Y-44266942D02*
X18428571Y-44362180D01*
X18428571Y-44362180D02*
X18380952Y-44409800D01*
X18380952Y-44409800D02*
X18285714Y-44457419D01*
X18285714Y-44457419D02*
X18190476Y-44457419D01*
X18190476Y-44457419D02*
X18095238Y-44409800D01*
X18095238Y-44409800D02*
X18047619Y-44362180D01*
X18047619Y-44362180D02*
X18000000Y-44266942D01*
X18000000Y-44266942D02*
X17952381Y-44076466D01*
X17952381Y-44076466D02*
X17952381Y-43838371D01*
X17952381Y-43838371D02*
X18000000Y-43647895D01*
X18000000Y-43647895D02*
X18047619Y-43552657D01*
X18047619Y-43552657D02*
X18095238Y-43505038D01*
X18095238Y-43505038D02*
X18190476Y-43457419D01*
X2076190Y-64009800D02*
X2219047Y-64057419D01*
X2219047Y-64057419D02*
X2457142Y-64057419D01*
X2457142Y-64057419D02*
X2552380Y-64009800D01*
X2552380Y-64009800D02*
X2599999Y-63962180D01*
X2599999Y-63962180D02*
X2647618Y-63866942D01*
X2647618Y-63866942D02*
X2647618Y-63771704D01*
X2647618Y-63771704D02*
X2599999Y-63676466D01*
X2599999Y-63676466D02*
X2552380Y-63628847D01*
X2552380Y-63628847D02*
X2457142Y-63581228D01*
X2457142Y-63581228D02*
X2266666Y-63533609D01*
X2266666Y-63533609D02*
X2171428Y-63485990D01*
X2171428Y-63485990D02*
X2123809Y-63438371D01*
X2123809Y-63438371D02*
X2076190Y-63343133D01*
X2076190Y-63343133D02*
X2076190Y-63247895D01*
X2076190Y-63247895D02*
X2123809Y-63152657D01*
X2123809Y-63152657D02*
X2171428Y-63105038D01*
X2171428Y-63105038D02*
X2266666Y-63057419D01*
X2266666Y-63057419D02*
X2504761Y-63057419D01*
X2504761Y-63057419D02*
X2647618Y-63105038D01*
X2980952Y-63057419D02*
X3219047Y-64057419D01*
X3219047Y-64057419D02*
X3409523Y-63343133D01*
X3409523Y-63343133D02*
X3599999Y-64057419D01*
X3599999Y-64057419D02*
X3838095Y-63057419D01*
X3980952Y-64152657D02*
X4742856Y-64152657D01*
X4980952Y-64057419D02*
X4980952Y-63057419D01*
X4980952Y-63057419D02*
X5361904Y-63057419D01*
X5361904Y-63057419D02*
X5457142Y-63105038D01*
X5457142Y-63105038D02*
X5504761Y-63152657D01*
X5504761Y-63152657D02*
X5552380Y-63247895D01*
X5552380Y-63247895D02*
X5552380Y-63390752D01*
X5552380Y-63390752D02*
X5504761Y-63485990D01*
X5504761Y-63485990D02*
X5457142Y-63533609D01*
X5457142Y-63533609D02*
X5361904Y-63581228D01*
X5361904Y-63581228D02*
X4980952Y-63581228D01*
X6409523Y-63390752D02*
X6409523Y-64057419D01*
X5980952Y-63390752D02*
X5980952Y-63914561D01*
X5980952Y-63914561D02*
X6028571Y-64009800D01*
X6028571Y-64009800D02*
X6123809Y-64057419D01*
X6123809Y-64057419D02*
X6266666Y-64057419D01*
X6266666Y-64057419D02*
X6361904Y-64009800D01*
X6361904Y-64009800D02*
X6409523Y-63962180D01*
X6838095Y-64009800D02*
X6933333Y-64057419D01*
X6933333Y-64057419D02*
X7123809Y-64057419D01*
X7123809Y-64057419D02*
X7219047Y-64009800D01*
X7219047Y-64009800D02*
X7266666Y-63914561D01*
X7266666Y-63914561D02*
X7266666Y-63866942D01*
X7266666Y-63866942D02*
X7219047Y-63771704D01*
X7219047Y-63771704D02*
X7123809Y-63724085D01*
X7123809Y-63724085D02*
X6980952Y-63724085D01*
X6980952Y-63724085D02*
X6885714Y-63676466D01*
X6885714Y-63676466D02*
X6838095Y-63581228D01*
X6838095Y-63581228D02*
X6838095Y-63533609D01*
X6838095Y-63533609D02*
X6885714Y-63438371D01*
X6885714Y-63438371D02*
X6980952Y-63390752D01*
X6980952Y-63390752D02*
X7123809Y-63390752D01*
X7123809Y-63390752D02*
X7219047Y-63438371D01*
X7695238Y-64057419D02*
X7695238Y-63057419D01*
X8123809Y-64057419D02*
X8123809Y-63533609D01*
X8123809Y-63533609D02*
X8076190Y-63438371D01*
X8076190Y-63438371D02*
X7980952Y-63390752D01*
X7980952Y-63390752D02*
X7838095Y-63390752D01*
X7838095Y-63390752D02*
X7742857Y-63438371D01*
X7742857Y-63438371D02*
X7695238Y-63485990D01*
X8504762Y-63057419D02*
X9123809Y-63057419D01*
X9123809Y-63057419D02*
X8790476Y-63438371D01*
X8790476Y-63438371D02*
X8933333Y-63438371D01*
X8933333Y-63438371D02*
X9028571Y-63485990D01*
X9028571Y-63485990D02*
X9076190Y-63533609D01*
X9076190Y-63533609D02*
X9123809Y-63628847D01*
X9123809Y-63628847D02*
X9123809Y-63866942D01*
X9123809Y-63866942D02*
X9076190Y-63962180D01*
X9076190Y-63962180D02*
X9028571Y-64009800D01*
X9028571Y-64009800D02*
X8933333Y-64057419D01*
X8933333Y-64057419D02*
X8647619Y-64057419D01*
X8647619Y-64057419D02*
X8552381Y-64009800D01*
X8552381Y-64009800D02*
X8504762Y-63962180D01*
X11676190Y-64209800D02*
X11819047Y-64257419D01*
X11819047Y-64257419D02*
X12057142Y-64257419D01*
X12057142Y-64257419D02*
X12152380Y-64209800D01*
X12152380Y-64209800D02*
X12199999Y-64162180D01*
X12199999Y-64162180D02*
X12247618Y-64066942D01*
X12247618Y-64066942D02*
X12247618Y-63971704D01*
X12247618Y-63971704D02*
X12199999Y-63876466D01*
X12199999Y-63876466D02*
X12152380Y-63828847D01*
X12152380Y-63828847D02*
X12057142Y-63781228D01*
X12057142Y-63781228D02*
X11866666Y-63733609D01*
X11866666Y-63733609D02*
X11771428Y-63685990D01*
X11771428Y-63685990D02*
X11723809Y-63638371D01*
X11723809Y-63638371D02*
X11676190Y-63543133D01*
X11676190Y-63543133D02*
X11676190Y-63447895D01*
X11676190Y-63447895D02*
X11723809Y-63352657D01*
X11723809Y-63352657D02*
X11771428Y-63305038D01*
X11771428Y-63305038D02*
X11866666Y-63257419D01*
X11866666Y-63257419D02*
X12104761Y-63257419D01*
X12104761Y-63257419D02*
X12247618Y-63305038D01*
X12580952Y-63257419D02*
X12819047Y-64257419D01*
X12819047Y-64257419D02*
X13009523Y-63543133D01*
X13009523Y-63543133D02*
X13199999Y-64257419D01*
X13199999Y-64257419D02*
X13438095Y-63257419D01*
X13580952Y-64352657D02*
X14342856Y-64352657D01*
X14580952Y-64257419D02*
X14580952Y-63257419D01*
X14580952Y-63257419D02*
X14961904Y-63257419D01*
X14961904Y-63257419D02*
X15057142Y-63305038D01*
X15057142Y-63305038D02*
X15104761Y-63352657D01*
X15104761Y-63352657D02*
X15152380Y-63447895D01*
X15152380Y-63447895D02*
X15152380Y-63590752D01*
X15152380Y-63590752D02*
X15104761Y-63685990D01*
X15104761Y-63685990D02*
X15057142Y-63733609D01*
X15057142Y-63733609D02*
X14961904Y-63781228D01*
X14961904Y-63781228D02*
X14580952Y-63781228D01*
X16009523Y-63590752D02*
X16009523Y-64257419D01*
X15580952Y-63590752D02*
X15580952Y-64114561D01*
X15580952Y-64114561D02*
X15628571Y-64209800D01*
X15628571Y-64209800D02*
X15723809Y-64257419D01*
X15723809Y-64257419D02*
X15866666Y-64257419D01*
X15866666Y-64257419D02*
X15961904Y-64209800D01*
X15961904Y-64209800D02*
X16009523Y-64162180D01*
X16438095Y-64209800D02*
X16533333Y-64257419D01*
X16533333Y-64257419D02*
X16723809Y-64257419D01*
X16723809Y-64257419D02*
X16819047Y-64209800D01*
X16819047Y-64209800D02*
X16866666Y-64114561D01*
X16866666Y-64114561D02*
X16866666Y-64066942D01*
X16866666Y-64066942D02*
X16819047Y-63971704D01*
X16819047Y-63971704D02*
X16723809Y-63924085D01*
X16723809Y-63924085D02*
X16580952Y-63924085D01*
X16580952Y-63924085D02*
X16485714Y-63876466D01*
X16485714Y-63876466D02*
X16438095Y-63781228D01*
X16438095Y-63781228D02*
X16438095Y-63733609D01*
X16438095Y-63733609D02*
X16485714Y-63638371D01*
X16485714Y-63638371D02*
X16580952Y-63590752D01*
X16580952Y-63590752D02*
X16723809Y-63590752D01*
X16723809Y-63590752D02*
X16819047Y-63638371D01*
X17295238Y-64257419D02*
X17295238Y-63257419D01*
X17723809Y-64257419D02*
X17723809Y-63733609D01*
X17723809Y-63733609D02*
X17676190Y-63638371D01*
X17676190Y-63638371D02*
X17580952Y-63590752D01*
X17580952Y-63590752D02*
X17438095Y-63590752D01*
X17438095Y-63590752D02*
X17342857Y-63638371D01*
X17342857Y-63638371D02*
X17295238Y-63685990D01*
X18247619Y-64257419D02*
X18438095Y-64257419D01*
X18438095Y-64257419D02*
X18533333Y-64209800D01*
X18533333Y-64209800D02*
X18580952Y-64162180D01*
X18580952Y-64162180D02*
X18676190Y-64019323D01*
X18676190Y-64019323D02*
X18723809Y-63828847D01*
X18723809Y-63828847D02*
X18723809Y-63447895D01*
X18723809Y-63447895D02*
X18676190Y-63352657D01*
X18676190Y-63352657D02*
X18628571Y-63305038D01*
X18628571Y-63305038D02*
X18533333Y-63257419D01*
X18533333Y-63257419D02*
X18342857Y-63257419D01*
X18342857Y-63257419D02*
X18247619Y-63305038D01*
X18247619Y-63305038D02*
X18200000Y-63352657D01*
X18200000Y-63352657D02*
X18152381Y-63447895D01*
X18152381Y-63447895D02*
X18152381Y-63685990D01*
X18152381Y-63685990D02*
X18200000Y-63781228D01*
X18200000Y-63781228D02*
X18247619Y-63828847D01*
X18247619Y-63828847D02*
X18342857Y-63876466D01*
X18342857Y-63876466D02*
X18533333Y-63876466D01*
X18533333Y-63876466D02*
X18628571Y-63828847D01*
X18628571Y-63828847D02*
X18676190Y-63781228D01*
X18676190Y-63781228D02*
X18723809Y-63685990D01*
X11476190Y-24409800D02*
X11619047Y-24457419D01*
X11619047Y-24457419D02*
X11857142Y-24457419D01*
X11857142Y-24457419D02*
X11952380Y-24409800D01*
X11952380Y-24409800D02*
X11999999Y-24362180D01*
X11999999Y-24362180D02*
X12047618Y-24266942D01*
X12047618Y-24266942D02*
X12047618Y-24171704D01*
X12047618Y-24171704D02*
X11999999Y-24076466D01*
X11999999Y-24076466D02*
X11952380Y-24028847D01*
X11952380Y-24028847D02*
X11857142Y-23981228D01*
X11857142Y-23981228D02*
X11666666Y-23933609D01*
X11666666Y-23933609D02*
X11571428Y-23885990D01*
X11571428Y-23885990D02*
X11523809Y-23838371D01*
X11523809Y-23838371D02*
X11476190Y-23743133D01*
X11476190Y-23743133D02*
X11476190Y-23647895D01*
X11476190Y-23647895D02*
X11523809Y-23552657D01*
X11523809Y-23552657D02*
X11571428Y-23505038D01*
X11571428Y-23505038D02*
X11666666Y-23457419D01*
X11666666Y-23457419D02*
X11904761Y-23457419D01*
X11904761Y-23457419D02*
X12047618Y-23505038D01*
X12380952Y-23457419D02*
X12619047Y-24457419D01*
X12619047Y-24457419D02*
X12809523Y-23743133D01*
X12809523Y-23743133D02*
X12999999Y-24457419D01*
X12999999Y-24457419D02*
X13238095Y-23457419D01*
X13380952Y-24552657D02*
X14142856Y-24552657D01*
X14380952Y-24457419D02*
X14380952Y-23457419D01*
X14380952Y-23457419D02*
X14761904Y-23457419D01*
X14761904Y-23457419D02*
X14857142Y-23505038D01*
X14857142Y-23505038D02*
X14904761Y-23552657D01*
X14904761Y-23552657D02*
X14952380Y-23647895D01*
X14952380Y-23647895D02*
X14952380Y-23790752D01*
X14952380Y-23790752D02*
X14904761Y-23885990D01*
X14904761Y-23885990D02*
X14857142Y-23933609D01*
X14857142Y-23933609D02*
X14761904Y-23981228D01*
X14761904Y-23981228D02*
X14380952Y-23981228D01*
X15809523Y-23790752D02*
X15809523Y-24457419D01*
X15380952Y-23790752D02*
X15380952Y-24314561D01*
X15380952Y-24314561D02*
X15428571Y-24409800D01*
X15428571Y-24409800D02*
X15523809Y-24457419D01*
X15523809Y-24457419D02*
X15666666Y-24457419D01*
X15666666Y-24457419D02*
X15761904Y-24409800D01*
X15761904Y-24409800D02*
X15809523Y-24362180D01*
X16238095Y-24409800D02*
X16333333Y-24457419D01*
X16333333Y-24457419D02*
X16523809Y-24457419D01*
X16523809Y-24457419D02*
X16619047Y-24409800D01*
X16619047Y-24409800D02*
X16666666Y-24314561D01*
X16666666Y-24314561D02*
X16666666Y-24266942D01*
X16666666Y-24266942D02*
X16619047Y-24171704D01*
X16619047Y-24171704D02*
X16523809Y-24124085D01*
X16523809Y-24124085D02*
X16380952Y-24124085D01*
X16380952Y-24124085D02*
X16285714Y-24076466D01*
X16285714Y-24076466D02*
X16238095Y-23981228D01*
X16238095Y-23981228D02*
X16238095Y-23933609D01*
X16238095Y-23933609D02*
X16285714Y-23838371D01*
X16285714Y-23838371D02*
X16380952Y-23790752D01*
X16380952Y-23790752D02*
X16523809Y-23790752D01*
X16523809Y-23790752D02*
X16619047Y-23838371D01*
X17095238Y-24457419D02*
X17095238Y-23457419D01*
X17523809Y-24457419D02*
X17523809Y-23933609D01*
X17523809Y-23933609D02*
X17476190Y-23838371D01*
X17476190Y-23838371D02*
X17380952Y-23790752D01*
X17380952Y-23790752D02*
X17238095Y-23790752D01*
X17238095Y-23790752D02*
X17142857Y-23838371D01*
X17142857Y-23838371D02*
X17095238Y-23885990D01*
X18428571Y-23457419D02*
X18238095Y-23457419D01*
X18238095Y-23457419D02*
X18142857Y-23505038D01*
X18142857Y-23505038D02*
X18095238Y-23552657D01*
X18095238Y-23552657D02*
X18000000Y-23695514D01*
X18000000Y-23695514D02*
X17952381Y-23885990D01*
X17952381Y-23885990D02*
X17952381Y-24266942D01*
X17952381Y-24266942D02*
X18000000Y-24362180D01*
X18000000Y-24362180D02*
X18047619Y-24409800D01*
X18047619Y-24409800D02*
X18142857Y-24457419D01*
X18142857Y-24457419D02*
X18333333Y-24457419D01*
X18333333Y-24457419D02*
X18428571Y-24409800D01*
X18428571Y-24409800D02*
X18476190Y-24362180D01*
X18476190Y-24362180D02*
X18523809Y-24266942D01*
X18523809Y-24266942D02*
X18523809Y-24028847D01*
X18523809Y-24028847D02*
X18476190Y-23933609D01*
X18476190Y-23933609D02*
X18428571Y-23885990D01*
X18428571Y-23885990D02*
X18333333Y-23838371D01*
X18333333Y-23838371D02*
X18142857Y-23838371D01*
X18142857Y-23838371D02*
X18047619Y-23885990D01*
X18047619Y-23885990D02*
X18000000Y-23933609D01*
X18000000Y-23933609D02*
X17952381Y-24028847D01*
X11000000Y-102409800D02*
X11142857Y-102457419D01*
X11142857Y-102457419D02*
X11380952Y-102457419D01*
X11380952Y-102457419D02*
X11476190Y-102409800D01*
X11476190Y-102409800D02*
X11523809Y-102362180D01*
X11523809Y-102362180D02*
X11571428Y-102266942D01*
X11571428Y-102266942D02*
X11571428Y-102171704D01*
X11571428Y-102171704D02*
X11523809Y-102076466D01*
X11523809Y-102076466D02*
X11476190Y-102028847D01*
X11476190Y-102028847D02*
X11380952Y-101981228D01*
X11380952Y-101981228D02*
X11190476Y-101933609D01*
X11190476Y-101933609D02*
X11095238Y-101885990D01*
X11095238Y-101885990D02*
X11047619Y-101838371D01*
X11047619Y-101838371D02*
X11000000Y-101743133D01*
X11000000Y-101743133D02*
X11000000Y-101647895D01*
X11000000Y-101647895D02*
X11047619Y-101552657D01*
X11047619Y-101552657D02*
X11095238Y-101505038D01*
X11095238Y-101505038D02*
X11190476Y-101457419D01*
X11190476Y-101457419D02*
X11428571Y-101457419D01*
X11428571Y-101457419D02*
X11571428Y-101505038D01*
X11904762Y-101457419D02*
X12142857Y-102457419D01*
X12142857Y-102457419D02*
X12333333Y-101743133D01*
X12333333Y-101743133D02*
X12523809Y-102457419D01*
X12523809Y-102457419D02*
X12761905Y-101457419D01*
X12904762Y-102552657D02*
X13666666Y-102552657D01*
X13904762Y-102457419D02*
X13904762Y-101457419D01*
X13904762Y-101457419D02*
X14285714Y-101457419D01*
X14285714Y-101457419D02*
X14380952Y-101505038D01*
X14380952Y-101505038D02*
X14428571Y-101552657D01*
X14428571Y-101552657D02*
X14476190Y-101647895D01*
X14476190Y-101647895D02*
X14476190Y-101790752D01*
X14476190Y-101790752D02*
X14428571Y-101885990D01*
X14428571Y-101885990D02*
X14380952Y-101933609D01*
X14380952Y-101933609D02*
X14285714Y-101981228D01*
X14285714Y-101981228D02*
X13904762Y-101981228D01*
X15333333Y-101790752D02*
X15333333Y-102457419D01*
X14904762Y-101790752D02*
X14904762Y-102314561D01*
X14904762Y-102314561D02*
X14952381Y-102409800D01*
X14952381Y-102409800D02*
X15047619Y-102457419D01*
X15047619Y-102457419D02*
X15190476Y-102457419D01*
X15190476Y-102457419D02*
X15285714Y-102409800D01*
X15285714Y-102409800D02*
X15333333Y-102362180D01*
X15761905Y-102409800D02*
X15857143Y-102457419D01*
X15857143Y-102457419D02*
X16047619Y-102457419D01*
X16047619Y-102457419D02*
X16142857Y-102409800D01*
X16142857Y-102409800D02*
X16190476Y-102314561D01*
X16190476Y-102314561D02*
X16190476Y-102266942D01*
X16190476Y-102266942D02*
X16142857Y-102171704D01*
X16142857Y-102171704D02*
X16047619Y-102124085D01*
X16047619Y-102124085D02*
X15904762Y-102124085D01*
X15904762Y-102124085D02*
X15809524Y-102076466D01*
X15809524Y-102076466D02*
X15761905Y-101981228D01*
X15761905Y-101981228D02*
X15761905Y-101933609D01*
X15761905Y-101933609D02*
X15809524Y-101838371D01*
X15809524Y-101838371D02*
X15904762Y-101790752D01*
X15904762Y-101790752D02*
X16047619Y-101790752D01*
X16047619Y-101790752D02*
X16142857Y-101838371D01*
X16619048Y-102457419D02*
X16619048Y-101457419D01*
X17047619Y-102457419D02*
X17047619Y-101933609D01*
X17047619Y-101933609D02*
X17000000Y-101838371D01*
X17000000Y-101838371D02*
X16904762Y-101790752D01*
X16904762Y-101790752D02*
X16761905Y-101790752D01*
X16761905Y-101790752D02*
X16666667Y-101838371D01*
X16666667Y-101838371D02*
X16619048Y-101885990D01*
X18047619Y-102457419D02*
X17476191Y-102457419D01*
X17761905Y-102457419D02*
X17761905Y-101457419D01*
X17761905Y-101457419D02*
X17666667Y-101600276D01*
X17666667Y-101600276D02*
X17571429Y-101695514D01*
X17571429Y-101695514D02*
X17476191Y-101743133D01*
X18666667Y-101457419D02*
X18761905Y-101457419D01*
X18761905Y-101457419D02*
X18857143Y-101505038D01*
X18857143Y-101505038D02*
X18904762Y-101552657D01*
X18904762Y-101552657D02*
X18952381Y-101647895D01*
X18952381Y-101647895D02*
X19000000Y-101838371D01*
X19000000Y-101838371D02*
X19000000Y-102076466D01*
X19000000Y-102076466D02*
X18952381Y-102266942D01*
X18952381Y-102266942D02*
X18904762Y-102362180D01*
X18904762Y-102362180D02*
X18857143Y-102409800D01*
X18857143Y-102409800D02*
X18761905Y-102457419D01*
X18761905Y-102457419D02*
X18666667Y-102457419D01*
X18666667Y-102457419D02*
X18571429Y-102409800D01*
X18571429Y-102409800D02*
X18523810Y-102362180D01*
X18523810Y-102362180D02*
X18476191Y-102266942D01*
X18476191Y-102266942D02*
X18428572Y-102076466D01*
X18428572Y-102076466D02*
X18428572Y-101838371D01*
X18428572Y-101838371D02*
X18476191Y-101647895D01*
X18476191Y-101647895D02*
X18523810Y-101552657D01*
X18523810Y-101552657D02*
X18571429Y-101505038D01*
X18571429Y-101505038D02*
X18666667Y-101457419D01*
X20476190Y-64209800D02*
X20619047Y-64257419D01*
X20619047Y-64257419D02*
X20857142Y-64257419D01*
X20857142Y-64257419D02*
X20952380Y-64209800D01*
X20952380Y-64209800D02*
X20999999Y-64162180D01*
X20999999Y-64162180D02*
X21047618Y-64066942D01*
X21047618Y-64066942D02*
X21047618Y-63971704D01*
X21047618Y-63971704D02*
X20999999Y-63876466D01*
X20999999Y-63876466D02*
X20952380Y-63828847D01*
X20952380Y-63828847D02*
X20857142Y-63781228D01*
X20857142Y-63781228D02*
X20666666Y-63733609D01*
X20666666Y-63733609D02*
X20571428Y-63685990D01*
X20571428Y-63685990D02*
X20523809Y-63638371D01*
X20523809Y-63638371D02*
X20476190Y-63543133D01*
X20476190Y-63543133D02*
X20476190Y-63447895D01*
X20476190Y-63447895D02*
X20523809Y-63352657D01*
X20523809Y-63352657D02*
X20571428Y-63305038D01*
X20571428Y-63305038D02*
X20666666Y-63257419D01*
X20666666Y-63257419D02*
X20904761Y-63257419D01*
X20904761Y-63257419D02*
X21047618Y-63305038D01*
X21380952Y-63257419D02*
X21619047Y-64257419D01*
X21619047Y-64257419D02*
X21809523Y-63543133D01*
X21809523Y-63543133D02*
X21999999Y-64257419D01*
X21999999Y-64257419D02*
X22238095Y-63257419D01*
X22380952Y-64352657D02*
X23142856Y-64352657D01*
X23380952Y-64257419D02*
X23380952Y-63257419D01*
X23380952Y-63257419D02*
X23761904Y-63257419D01*
X23761904Y-63257419D02*
X23857142Y-63305038D01*
X23857142Y-63305038D02*
X23904761Y-63352657D01*
X23904761Y-63352657D02*
X23952380Y-63447895D01*
X23952380Y-63447895D02*
X23952380Y-63590752D01*
X23952380Y-63590752D02*
X23904761Y-63685990D01*
X23904761Y-63685990D02*
X23857142Y-63733609D01*
X23857142Y-63733609D02*
X23761904Y-63781228D01*
X23761904Y-63781228D02*
X23380952Y-63781228D01*
X24809523Y-63590752D02*
X24809523Y-64257419D01*
X24380952Y-63590752D02*
X24380952Y-64114561D01*
X24380952Y-64114561D02*
X24428571Y-64209800D01*
X24428571Y-64209800D02*
X24523809Y-64257419D01*
X24523809Y-64257419D02*
X24666666Y-64257419D01*
X24666666Y-64257419D02*
X24761904Y-64209800D01*
X24761904Y-64209800D02*
X24809523Y-64162180D01*
X25238095Y-64209800D02*
X25333333Y-64257419D01*
X25333333Y-64257419D02*
X25523809Y-64257419D01*
X25523809Y-64257419D02*
X25619047Y-64209800D01*
X25619047Y-64209800D02*
X25666666Y-64114561D01*
X25666666Y-64114561D02*
X25666666Y-64066942D01*
X25666666Y-64066942D02*
X25619047Y-63971704D01*
X25619047Y-63971704D02*
X25523809Y-63924085D01*
X25523809Y-63924085D02*
X25380952Y-63924085D01*
X25380952Y-63924085D02*
X25285714Y-63876466D01*
X25285714Y-63876466D02*
X25238095Y-63781228D01*
X25238095Y-63781228D02*
X25238095Y-63733609D01*
X25238095Y-63733609D02*
X25285714Y-63638371D01*
X25285714Y-63638371D02*
X25380952Y-63590752D01*
X25380952Y-63590752D02*
X25523809Y-63590752D01*
X25523809Y-63590752D02*
X25619047Y-63638371D01*
X26095238Y-64257419D02*
X26095238Y-63257419D01*
X26523809Y-64257419D02*
X26523809Y-63733609D01*
X26523809Y-63733609D02*
X26476190Y-63638371D01*
X26476190Y-63638371D02*
X26380952Y-63590752D01*
X26380952Y-63590752D02*
X26238095Y-63590752D01*
X26238095Y-63590752D02*
X26142857Y-63638371D01*
X26142857Y-63638371D02*
X26095238Y-63685990D01*
X26952381Y-63352657D02*
X27000000Y-63305038D01*
X27000000Y-63305038D02*
X27095238Y-63257419D01*
X27095238Y-63257419D02*
X27333333Y-63257419D01*
X27333333Y-63257419D02*
X27428571Y-63305038D01*
X27428571Y-63305038D02*
X27476190Y-63352657D01*
X27476190Y-63352657D02*
X27523809Y-63447895D01*
X27523809Y-63447895D02*
X27523809Y-63543133D01*
X27523809Y-63543133D02*
X27476190Y-63685990D01*
X27476190Y-63685990D02*
X26904762Y-64257419D01*
X26904762Y-64257419D02*
X27523809Y-64257419D01*
X11976190Y-9909800D02*
X12119047Y-9957419D01*
X12119047Y-9957419D02*
X12357142Y-9957419D01*
X12357142Y-9957419D02*
X12452380Y-9909800D01*
X12452380Y-9909800D02*
X12499999Y-9862180D01*
X12499999Y-9862180D02*
X12547618Y-9766942D01*
X12547618Y-9766942D02*
X12547618Y-9671704D01*
X12547618Y-9671704D02*
X12499999Y-9576466D01*
X12499999Y-9576466D02*
X12452380Y-9528847D01*
X12452380Y-9528847D02*
X12357142Y-9481228D01*
X12357142Y-9481228D02*
X12166666Y-9433609D01*
X12166666Y-9433609D02*
X12071428Y-9385990D01*
X12071428Y-9385990D02*
X12023809Y-9338371D01*
X12023809Y-9338371D02*
X11976190Y-9243133D01*
X11976190Y-9243133D02*
X11976190Y-9147895D01*
X11976190Y-9147895D02*
X12023809Y-9052657D01*
X12023809Y-9052657D02*
X12071428Y-9005038D01*
X12071428Y-9005038D02*
X12166666Y-8957419D01*
X12166666Y-8957419D02*
X12404761Y-8957419D01*
X12404761Y-8957419D02*
X12547618Y-9005038D01*
X12880952Y-8957419D02*
X13119047Y-9957419D01*
X13119047Y-9957419D02*
X13309523Y-9243133D01*
X13309523Y-9243133D02*
X13499999Y-9957419D01*
X13499999Y-9957419D02*
X13738095Y-8957419D01*
X13880952Y-10052657D02*
X14642856Y-10052657D01*
X14880952Y-9957419D02*
X14880952Y-8957419D01*
X14880952Y-8957419D02*
X15261904Y-8957419D01*
X15261904Y-8957419D02*
X15357142Y-9005038D01*
X15357142Y-9005038D02*
X15404761Y-9052657D01*
X15404761Y-9052657D02*
X15452380Y-9147895D01*
X15452380Y-9147895D02*
X15452380Y-9290752D01*
X15452380Y-9290752D02*
X15404761Y-9385990D01*
X15404761Y-9385990D02*
X15357142Y-9433609D01*
X15357142Y-9433609D02*
X15261904Y-9481228D01*
X15261904Y-9481228D02*
X14880952Y-9481228D01*
X16309523Y-9290752D02*
X16309523Y-9957419D01*
X15880952Y-9290752D02*
X15880952Y-9814561D01*
X15880952Y-9814561D02*
X15928571Y-9909800D01*
X15928571Y-9909800D02*
X16023809Y-9957419D01*
X16023809Y-9957419D02*
X16166666Y-9957419D01*
X16166666Y-9957419D02*
X16261904Y-9909800D01*
X16261904Y-9909800D02*
X16309523Y-9862180D01*
X16738095Y-9909800D02*
X16833333Y-9957419D01*
X16833333Y-9957419D02*
X17023809Y-9957419D01*
X17023809Y-9957419D02*
X17119047Y-9909800D01*
X17119047Y-9909800D02*
X17166666Y-9814561D01*
X17166666Y-9814561D02*
X17166666Y-9766942D01*
X17166666Y-9766942D02*
X17119047Y-9671704D01*
X17119047Y-9671704D02*
X17023809Y-9624085D01*
X17023809Y-9624085D02*
X16880952Y-9624085D01*
X16880952Y-9624085D02*
X16785714Y-9576466D01*
X16785714Y-9576466D02*
X16738095Y-9481228D01*
X16738095Y-9481228D02*
X16738095Y-9433609D01*
X16738095Y-9433609D02*
X16785714Y-9338371D01*
X16785714Y-9338371D02*
X16880952Y-9290752D01*
X16880952Y-9290752D02*
X17023809Y-9290752D01*
X17023809Y-9290752D02*
X17119047Y-9338371D01*
X17595238Y-9957419D02*
X17595238Y-8957419D01*
X18023809Y-9957419D02*
X18023809Y-9433609D01*
X18023809Y-9433609D02*
X17976190Y-9338371D01*
X17976190Y-9338371D02*
X17880952Y-9290752D01*
X17880952Y-9290752D02*
X17738095Y-9290752D01*
X17738095Y-9290752D02*
X17642857Y-9338371D01*
X17642857Y-9338371D02*
X17595238Y-9385990D01*
X18976190Y-8957419D02*
X18500000Y-8957419D01*
X18500000Y-8957419D02*
X18452381Y-9433609D01*
X18452381Y-9433609D02*
X18500000Y-9385990D01*
X18500000Y-9385990D02*
X18595238Y-9338371D01*
X18595238Y-9338371D02*
X18833333Y-9338371D01*
X18833333Y-9338371D02*
X18928571Y-9385990D01*
X18928571Y-9385990D02*
X18976190Y-9433609D01*
X18976190Y-9433609D02*
X19023809Y-9528847D01*
X19023809Y-9528847D02*
X19023809Y-9766942D01*
X19023809Y-9766942D02*
X18976190Y-9862180D01*
X18976190Y-9862180D02*
X18928571Y-9909800D01*
X18928571Y-9909800D02*
X18833333Y-9957419D01*
X18833333Y-9957419D02*
X18595238Y-9957419D01*
X18595238Y-9957419D02*
X18500000Y-9909800D01*
X18500000Y-9909800D02*
X18452381Y-9862180D01*
M02*
