%TF.GenerationSoftware,KiCad,Pcbnew,10.0.0*%
%TF.CreationDate,2026-04-13T17:58:31-05:00*%
%TF.ProjectId,WiiRemote,57696952-656d-46f7-9465-2e6b69636164,rev?*%
%TF.SameCoordinates,Original*%
%TF.FileFunction,Copper,L2,Bot*%
%TF.FilePolarity,Positive*%
%FSLAX46Y46*%
G04 Gerber Fmt 4.6, Leading zero omitted, Abs format (unit mm)*
G04 Created by KiCad (PCBNEW 10.0.0) date 2026-04-13 17:58:31*
%MOMM*%
%LPD*%
G01*
G04 APERTURE LIST*
G04 Aperture macros list*
%AMRoundRect*
0 Rectangle with rounded corners*
0 $1 Rounding radius*
0 $2 $3 $4 $5 $6 $7 $8 $9 X,Y pos of 4 corners*
0 Add a 4 corners polygon primitive as box body*
4,1,4,$2,$3,$4,$5,$6,$7,$8,$9,$2,$3,0*
0 Add four circle primitives for the rounded corners*
1,1,$1+$1,$2,$3*
1,1,$1+$1,$4,$5*
1,1,$1+$1,$6,$7*
1,1,$1+$1,$8,$9*
0 Add four rect primitives between the rounded corners*
20,1,$1+$1,$2,$3,$4,$5,0*
20,1,$1+$1,$4,$5,$6,$7,0*
20,1,$1+$1,$6,$7,$8,$9,0*
20,1,$1+$1,$8,$9,$2,$3,0*%
G04 Aperture macros list end*
%ADD10C,0.300000*%
%TA.AperFunction,NonConductor*%
%ADD11C,0.300000*%
%TD*%
%TA.AperFunction,ComponentPad*%
%ADD12R,2.000000X2.000000*%
%TD*%
%TA.AperFunction,ComponentPad*%
%ADD13C,1.700000*%
%TD*%
%TA.AperFunction,ComponentPad*%
%ADD14R,1.700000X1.700000*%
%TD*%
%TA.AperFunction,SMDPad,CuDef*%
%ADD15R,2.000000X4.000000*%
%TD*%
%TA.AperFunction,SMDPad,CuDef*%
%ADD16RoundRect,0.250000X-0.970000X-0.310000X0.970000X-0.310000X0.970000X0.310000X-0.970000X0.310000X0*%
%TD*%
%TA.AperFunction,ViaPad*%
%ADD17C,0.600000*%
%TD*%
%TA.AperFunction,Conductor*%
%ADD18C,0.200000*%
%TD*%
G04 APERTURE END LIST*
D10*
D11*
X8749171Y-121659774D02*
X8749171Y-121374060D01*
X8749171Y-121374060D02*
X8677742Y-121231203D01*
X8677742Y-121231203D02*
X8534885Y-121088346D01*
X8534885Y-121088346D02*
X8249171Y-121016917D01*
X8249171Y-121016917D02*
X7749171Y-121016917D01*
X7749171Y-121016917D02*
X7463457Y-121088346D01*
X7463457Y-121088346D02*
X7320600Y-121231203D01*
X7320600Y-121231203D02*
X7249171Y-121374060D01*
X7249171Y-121374060D02*
X7249171Y-121659774D01*
X7249171Y-121659774D02*
X7320600Y-121802632D01*
X7320600Y-121802632D02*
X7463457Y-121945489D01*
X7463457Y-121945489D02*
X7749171Y-122016917D01*
X7749171Y-122016917D02*
X8249171Y-122016917D01*
X8249171Y-122016917D02*
X8534885Y-121945489D01*
X8534885Y-121945489D02*
X8677742Y-121802632D01*
X8677742Y-121802632D02*
X8749171Y-121659774D01*
X8749171Y-120374060D02*
X7534885Y-120374060D01*
X7534885Y-120374060D02*
X7392028Y-120302631D01*
X7392028Y-120302631D02*
X7320600Y-120231203D01*
X7320600Y-120231203D02*
X7249171Y-120088345D01*
X7249171Y-120088345D02*
X7249171Y-119802631D01*
X7249171Y-119802631D02*
X7320600Y-119659774D01*
X7320600Y-119659774D02*
X7392028Y-119588345D01*
X7392028Y-119588345D02*
X7534885Y-119516917D01*
X7534885Y-119516917D02*
X8749171Y-119516917D01*
X8749171Y-119016916D02*
X8749171Y-118159774D01*
X7249171Y-118588345D02*
X8749171Y-118588345D01*
X7820600Y-117659774D02*
X7820600Y-116516917D01*
D10*
D11*
X8595489Y-136929400D02*
X7452632Y-136929400D01*
D10*
D11*
X10534885Y-118945489D02*
X10463457Y-118731203D01*
X10463457Y-118731203D02*
X10392028Y-118659774D01*
X10392028Y-118659774D02*
X10249171Y-118588346D01*
X10249171Y-118588346D02*
X10034885Y-118588346D01*
X10034885Y-118588346D02*
X9892028Y-118659774D01*
X9892028Y-118659774D02*
X9820600Y-118731203D01*
X9820600Y-118731203D02*
X9749171Y-118874060D01*
X9749171Y-118874060D02*
X9749171Y-119445489D01*
X9749171Y-119445489D02*
X11249171Y-119445489D01*
X11249171Y-119445489D02*
X11249171Y-118945489D01*
X11249171Y-118945489D02*
X11177742Y-118802632D01*
X11177742Y-118802632D02*
X11106314Y-118731203D01*
X11106314Y-118731203D02*
X10963457Y-118659774D01*
X10963457Y-118659774D02*
X10820600Y-118659774D01*
X10820600Y-118659774D02*
X10677742Y-118731203D01*
X10677742Y-118731203D02*
X10606314Y-118802632D01*
X10606314Y-118802632D02*
X10534885Y-118945489D01*
X10534885Y-118945489D02*
X10534885Y-119445489D01*
X10320600Y-117945489D02*
X10320600Y-116802632D01*
D10*
D11*
X19534885Y-118945489D02*
X19463457Y-118731203D01*
X19463457Y-118731203D02*
X19392028Y-118659774D01*
X19392028Y-118659774D02*
X19249171Y-118588346D01*
X19249171Y-118588346D02*
X19034885Y-118588346D01*
X19034885Y-118588346D02*
X18892028Y-118659774D01*
X18892028Y-118659774D02*
X18820600Y-118731203D01*
X18820600Y-118731203D02*
X18749171Y-118874060D01*
X18749171Y-118874060D02*
X18749171Y-119445489D01*
X18749171Y-119445489D02*
X20249171Y-119445489D01*
X20249171Y-119445489D02*
X20249171Y-118945489D01*
X20249171Y-118945489D02*
X20177742Y-118802632D01*
X20177742Y-118802632D02*
X20106314Y-118731203D01*
X20106314Y-118731203D02*
X19963457Y-118659774D01*
X19963457Y-118659774D02*
X19820600Y-118659774D01*
X19820600Y-118659774D02*
X19677742Y-118731203D01*
X19677742Y-118731203D02*
X19606314Y-118802632D01*
X19606314Y-118802632D02*
X19534885Y-118945489D01*
X19534885Y-118945489D02*
X19534885Y-119445489D01*
X19320600Y-117945489D02*
X19320600Y-116802632D01*
X18749171Y-117374060D02*
X19892028Y-117374060D01*
D10*
D11*
X22749171Y-121659774D02*
X22749171Y-121374060D01*
X22749171Y-121374060D02*
X22677742Y-121231203D01*
X22677742Y-121231203D02*
X22534885Y-121088346D01*
X22534885Y-121088346D02*
X22249171Y-121016917D01*
X22249171Y-121016917D02*
X21749171Y-121016917D01*
X21749171Y-121016917D02*
X21463457Y-121088346D01*
X21463457Y-121088346D02*
X21320600Y-121231203D01*
X21320600Y-121231203D02*
X21249171Y-121374060D01*
X21249171Y-121374060D02*
X21249171Y-121659774D01*
X21249171Y-121659774D02*
X21320600Y-121802632D01*
X21320600Y-121802632D02*
X21463457Y-121945489D01*
X21463457Y-121945489D02*
X21749171Y-122016917D01*
X21749171Y-122016917D02*
X22249171Y-122016917D01*
X22249171Y-122016917D02*
X22534885Y-121945489D01*
X22534885Y-121945489D02*
X22677742Y-121802632D01*
X22677742Y-121802632D02*
X22749171Y-121659774D01*
X22749171Y-120374060D02*
X21534885Y-120374060D01*
X21534885Y-120374060D02*
X21392028Y-120302631D01*
X21392028Y-120302631D02*
X21320600Y-120231203D01*
X21320600Y-120231203D02*
X21249171Y-120088345D01*
X21249171Y-120088345D02*
X21249171Y-119802631D01*
X21249171Y-119802631D02*
X21320600Y-119659774D01*
X21320600Y-119659774D02*
X21392028Y-119588345D01*
X21392028Y-119588345D02*
X21534885Y-119516917D01*
X21534885Y-119516917D02*
X22749171Y-119516917D01*
X22749171Y-119016916D02*
X22749171Y-118159774D01*
X21249171Y-118588345D02*
X22749171Y-118588345D01*
X21820600Y-117659774D02*
X21820600Y-116516917D01*
X21249171Y-117088345D02*
X22392028Y-117088345D01*
D10*
D11*
X22495489Y-136729400D02*
X21352632Y-136729400D01*
X21924060Y-137300828D02*
X21924060Y-136157971D01*
D12*
%TO.P,Conn_01x04_BUCKBOOST0,4,Pin_4_4*%
%TO.N,/GND*%
X27000000Y-20300000D03*
%TO.P,Conn_01x04_BUCKBOOST0,3,Pin_3_3*%
%TO.N,/VIN (VOUT)*%
X27000000Y-9500000D03*
%TO.P,Conn_01x04_BUCKBOOST0,2,Pin_2_2*%
%TO.N,/GND (OUT-)*%
X3100000Y-20300000D03*
%TO.P,Conn_01x04_BUCKBOOST0,1,Pin_1_1*%
%TO.N,Net-(Conn_01x04_BUCKBOOST0-Pin_1)*%
X3100000Y-9500000D03*
%TD*%
D13*
%TO.P,DECOUPLING_CAP_47uF0,2,Pin_2_2*%
%TO.N,/GND (OUT-)*%
X7000000Y-123200000D03*
D14*
%TO.P,DECOUPLING_CAP_47uF0,1,Pin_1_1*%
%TO.N,Net-(Conn_01x04_BUCKBOOST0-Pin_1)*%
X7000000Y-125740000D03*
%TD*%
%TO.P,Conn_01x15_ESP32_DEV_KIT_PINS_3v3-D230,1,Pin_1_1*%
%TO.N,/3.3V*%
X28700000Y-82000000D03*
D13*
%TO.P,Conn_01x15_ESP32_DEV_KIT_PINS_3v3-D230,2,Pin_2_2*%
%TO.N,/GND*%
X28700000Y-84540000D03*
%TO.P,Conn_01x15_ESP32_DEV_KIT_PINS_3v3-D230,3,Pin_3_3*%
%TO.N,unconnected-(Conn_01x15_ESP32_DEV_KIT_PINS_3v3-D230-Pin_3-Pad3)*%
X28700000Y-87080000D03*
%TO.P,Conn_01x15_ESP32_DEV_KIT_PINS_3v3-D230,4,Pin_4_4*%
%TO.N,unconnected-(Conn_01x15_ESP32_DEV_KIT_PINS_3v3-D230-Pin_4-Pad4)*%
X28700000Y-89620000D03*
%TO.P,Conn_01x15_ESP32_DEV_KIT_PINS_3v3-D230,5,Pin_5_5*%
%TO.N,unconnected-(Conn_01x15_ESP32_DEV_KIT_PINS_3v3-D230-Pin_5-Pad5)*%
X28700000Y-92160000D03*
%TO.P,Conn_01x15_ESP32_DEV_KIT_PINS_3v3-D230,6,Pin_6_6*%
%TO.N,/RX2 (GPIO16)*%
X28700000Y-94700000D03*
%TO.P,Conn_01x15_ESP32_DEV_KIT_PINS_3v3-D230,7,Pin_7_7*%
%TO.N,/TX2 (GPIO17)*%
X28700000Y-97240000D03*
%TO.P,Conn_01x15_ESP32_DEV_KIT_PINS_3v3-D230,8,Pin_8_8*%
%TO.N,unconnected-(Conn_01x15_ESP32_DEV_KIT_PINS_3v3-D230-Pin_8-Pad8)*%
X28700000Y-99780000D03*
%TO.P,Conn_01x15_ESP32_DEV_KIT_PINS_3v3-D230,9,Pin_9_9*%
%TO.N,/D18*%
X28700000Y-102320000D03*
%TO.P,Conn_01x15_ESP32_DEV_KIT_PINS_3v3-D230,10,Pin_10_10*%
%TO.N,/D19*%
X28700000Y-104860000D03*
%TO.P,Conn_01x15_ESP32_DEV_KIT_PINS_3v3-D230,11,Pin_11_11*%
%TO.N,/D21 (SDA)*%
X28700000Y-107400000D03*
%TO.P,Conn_01x15_ESP32_DEV_KIT_PINS_3v3-D230,12,Pin_12_12*%
%TO.N,unconnected-(Conn_01x15_ESP32_DEV_KIT_PINS_3v3-D230-Pin_12-Pad12)*%
X28700000Y-109940000D03*
%TO.P,Conn_01x15_ESP32_DEV_KIT_PINS_3v3-D230,13,Pin_13_13*%
%TO.N,unconnected-(Conn_01x15_ESP32_DEV_KIT_PINS_3v3-D230-Pin_13-Pad13)*%
X28700000Y-112480000D03*
%TO.P,Conn_01x15_ESP32_DEV_KIT_PINS_3v3-D230,14,Pin_14_14*%
%TO.N,/D22 (SCL)*%
X28700000Y-115020000D03*
%TO.P,Conn_01x15_ESP32_DEV_KIT_PINS_3v3-D230,15,Pin_15_15*%
%TO.N,/D23*%
X28700000Y-117560000D03*
%TD*%
D14*
%TO.P,Conn_01x01_EXTRA_GPIO0,1,Pin_1_1*%
%TO.N,/D35*%
X2000000Y-126500000D03*
%TD*%
%TO.P,Conn_01x02_DECOUPLING_CAP_100uF0,1,Pin_1_1*%
%TO.N,/GND*%
X2600000Y-52930000D03*
D13*
%TO.P,Conn_01x02_DECOUPLING_CAP_100uF0,2,Pin_2_2*%
%TO.N,/VIN (VOUT)*%
X2600000Y-55470000D03*
%TD*%
D12*
%TO.P,Conn_01x04_CHARGING_MODULE0,1,Pin_1_1*%
%TO.N,/B+*%
X22050000Y-115000000D03*
%TO.P,Conn_01x04_CHARGING_MODULE0,2,Pin_2_2*%
%TO.N,/B-*%
X19550000Y-115000000D03*
%TO.P,Conn_01x04_CHARGING_MODULE0,3,Pin_3_3*%
%TO.N,/VIN (OUT+)*%
X10550000Y-115000000D03*
%TO.P,Conn_01x04_CHARGING_MODULE0,4,Pin_4_4*%
%TO.N,/GND (OUT-)*%
X8050000Y-115000000D03*
%TD*%
D14*
%TO.P,Conn_01x02_POWER_AND_GROUND0,1,Pin_1_1*%
%TO.N,/GND*%
X28000000Y-58660000D03*
D13*
%TO.P,Conn_01x02_POWER_AND_GROUND0,2,Pin_2_2*%
%TO.N,/3.3V*%
X28000000Y-61200000D03*
%TD*%
D14*
%TO.P,Conn_01x02_battery_terminal0,1,Pin_1_1*%
%TO.N,/B+*%
X28200000Y-122330000D03*
D13*
%TO.P,Conn_01x02_battery_terminal0,2,Pin_2_2*%
%TO.N,/B-*%
X28200000Y-124870000D03*
%TD*%
D15*
%TO.P,SW_Push1,1,1_1*%
%TO.N,/GND*%
X16350000Y-33500000D03*
%TO.P,SW_Push1,2,2_2*%
%TO.N,/TX2 (GPIO17)*%
X13850000Y-33500000D03*
%TD*%
D14*
%TO.P,Conn_01x02_I2C_INPUT0,1,Pin_1_1*%
%TO.N,/D21 (SDA)*%
X23400000Y-72930000D03*
D13*
%TO.P,Conn_01x02_I2C_INPUT0,2,Pin_2_2*%
%TO.N,/D22 (SCL)*%
X23400000Y-75470000D03*
%TD*%
D14*
%TO.P,Conn_01x01_IMU_INTERRUPT0,1,Pin_1_1*%
%TO.N,/D34*%
X2000000Y-122500000D03*
%TD*%
D16*
%TO.P,SPST_POWER_SWITCH0,1,A_1*%
%TO.N,/VIN (OUT+)*%
X12990000Y-126000000D03*
%TO.P,SPST_POWER_SWITCH0,2,B_2*%
%TO.N,Net-(Conn_01x04_BUCKBOOST0-Pin_1)*%
X21600000Y-126000000D03*
%TD*%
D14*
%TO.P,Conn_01x15_ESP32_DEV_KIT_PINS_VIN-EN0,1,Pin_1_1*%
%TO.N,/VIN (VOUT)*%
X2000000Y-82000000D03*
D13*
%TO.P,Conn_01x15_ESP32_DEV_KIT_PINS_VIN-EN0,2,Pin_2_2*%
%TO.N,/GND*%
X2000000Y-84540000D03*
%TO.P,Conn_01x15_ESP32_DEV_KIT_PINS_VIN-EN0,3,Pin_3_3*%
%TO.N,/D13*%
X2000000Y-87080000D03*
%TO.P,Conn_01x15_ESP32_DEV_KIT_PINS_VIN-EN0,4,Pin_4_4*%
%TO.N,unconnected-(Conn_01x15_ESP32_DEV_KIT_PINS_VIN-EN0-Pin_4-Pad4)*%
X2000000Y-89620000D03*
%TO.P,Conn_01x15_ESP32_DEV_KIT_PINS_VIN-EN0,5,Pin_5_5*%
%TO.N,/D14*%
X2000000Y-92160000D03*
%TO.P,Conn_01x15_ESP32_DEV_KIT_PINS_VIN-EN0,6,Pin_6_6*%
%TO.N,/D27*%
X2000000Y-94700000D03*
%TO.P,Conn_01x15_ESP32_DEV_KIT_PINS_VIN-EN0,7,Pin_7_7*%
%TO.N,/D26*%
X2000000Y-97240000D03*
%TO.P,Conn_01x15_ESP32_DEV_KIT_PINS_VIN-EN0,8,Pin_8_8*%
%TO.N,/D25*%
X2000000Y-99780000D03*
%TO.P,Conn_01x15_ESP32_DEV_KIT_PINS_VIN-EN0,9,Pin_9_9*%
%TO.N,/D33*%
X2000000Y-102320000D03*
%TO.P,Conn_01x15_ESP32_DEV_KIT_PINS_VIN-EN0,10,Pin_10_10*%
%TO.N,/D32*%
X2000000Y-104860000D03*
%TO.P,Conn_01x15_ESP32_DEV_KIT_PINS_VIN-EN0,11,Pin_11_11*%
%TO.N,/D35*%
X2000000Y-107400000D03*
%TO.P,Conn_01x15_ESP32_DEV_KIT_PINS_VIN-EN0,12,Pin_12_12*%
%TO.N,/D34*%
X2000000Y-109940000D03*
%TO.P,Conn_01x15_ESP32_DEV_KIT_PINS_VIN-EN0,13,Pin_13_13*%
%TO.N,unconnected-(Conn_01x15_ESP32_DEV_KIT_PINS_VIN-EN0-Pin_13-Pad13)*%
X2000000Y-112480000D03*
%TO.P,Conn_01x15_ESP32_DEV_KIT_PINS_VIN-EN0,14,Pin_14_14*%
%TO.N,unconnected-(Conn_01x15_ESP32_DEV_KIT_PINS_VIN-EN0-Pin_14-Pad14)*%
X2000000Y-115020000D03*
%TO.P,Conn_01x15_ESP32_DEV_KIT_PINS_VIN-EN0,15,Pin_15_15*%
%TO.N,unconnected-(Conn_01x15_ESP32_DEV_KIT_PINS_VIN-EN0-Pin_15-Pad15)*%
X2000000Y-117560000D03*
%TD*%
D17*
%TO.N,/GND*%
X21400000Y-67000000D03*
X20000000Y-67000000D03*
X20000000Y-83200000D03*
X22400000Y-83200000D03*
%TO.N,/D32*%
X13800000Y-114400000D03*
%TO.N,/VIN (VOUT)*%
X24000000Y-57000000D03*
X24000000Y-32400000D03*
%TO.N,/GND (OUT-)*%
X10800000Y-101600000D03*
X10800000Y-98400000D03*
X10800000Y-93000000D03*
X8600000Y-85000000D03*
X7600000Y-43400000D03*
%TO.N,/D23*%
X10000000Y-3000000D03*
X10800000Y-48800000D03*
X10800000Y-61000000D03*
X10800000Y-46200000D03*
X10800000Y-62800000D03*
X16600000Y-92400000D03*
X16600000Y-94800000D03*
%TO.N,/GND*%
X22800000Y-104200000D03*
X22600000Y-93800000D03*
X26200000Y-84600000D03*
%TO.N,/D26*%
X19400000Y-93800000D03*
X21200000Y-25400000D03*
X19600000Y-23800000D03*
%TO.N,/D27*%
X6800000Y-94800000D03*
X8400000Y-94800000D03*
%TO.N,/D13*%
X6800000Y-87200000D03*
X8600000Y-87200000D03*
%TO.N,/GND*%
X19600000Y-30800000D03*
%TO.N,/RX2 (GPIO16)*%
X20000000Y-94800000D03*
X22200000Y-94800000D03*
%TO.N,/GND*%
X14000000Y-44400000D03*
%TO.N,/D19*%
X7800000Y-100800000D03*
X7600000Y-98800000D03*
%TO.N,/D21 (SDA)*%
X24400000Y-78400000D03*
X22600000Y-78400000D03*
%TO.N,/GND*%
X5400000Y-62000000D03*
X16400000Y-62000000D03*
X23200000Y-62000000D03*
X1400000Y-66400000D03*
%TO.N,/D33*%
X4500000Y-102500000D03*
X14000000Y-102500000D03*
%TD*%
%TO.N,/GND*%
D18*
X20000000Y-67000000D02*
X21400000Y-67000000D01*
X22400000Y-83200000D02*
X20000000Y-83200000D01*
%TO.N,/D32*%
X4260000Y-104860000D02*
X13800000Y-114400000D01*
X2000000Y-104860000D02*
X4260000Y-104860000D01*
%TO.N,/VIN (VOUT)*%
X8730000Y-61600000D02*
X2600000Y-55470000D01*
X15648529Y-57000000D02*
X11048529Y-61600000D01*
X24000000Y-57000000D02*
X15648529Y-57000000D01*
X11048529Y-61600000D02*
X8730000Y-61600000D01*
X24000000Y-12500000D02*
X24000000Y-32400000D01*
X27000000Y-9500000D02*
X24000000Y-12500000D01*
%TO.N,/GND (OUT-)*%
X10800000Y-98400000D02*
X10800000Y-101600000D01*
X10800000Y-85000000D02*
X10800000Y-93000000D01*
X8600000Y-85000000D02*
X10800000Y-85000000D01*
X7600000Y-24800000D02*
X7600000Y-43400000D01*
X3100000Y-20300000D02*
X7600000Y-24800000D01*
%TO.N,Net-(Conn_01x04_BUCKBOOST0-Pin_1)*%
X7000000Y-124826346D02*
X7000000Y-125740000D01*
X850000Y-118676346D02*
X7000000Y-124826346D01*
X850000Y-79784314D02*
X850000Y-118676346D01*
X4400000Y-76234314D02*
X850000Y-79784314D01*
X4400000Y-70248529D02*
X4400000Y-76234314D01*
X800000Y-66648529D02*
X4400000Y-70248529D01*
X800000Y-52430000D02*
X800000Y-66648529D01*
X10200000Y-43030000D02*
X800000Y-52430000D01*
X10200000Y-16600000D02*
X10200000Y-43030000D01*
X3100000Y-9500000D02*
X10200000Y-16600000D01*
%TO.N,/D23*%
X10800000Y-3800000D02*
X10000000Y-3000000D01*
X10800000Y-46200000D02*
X10800000Y-3800000D01*
X10800000Y-61000000D02*
X10800000Y-48800000D01*
X10800000Y-70600000D02*
X10800000Y-62800000D01*
X16600000Y-76400000D02*
X10800000Y-70600000D01*
X16600000Y-92400000D02*
X16600000Y-76400000D01*
X16600000Y-105460000D02*
X16600000Y-94800000D01*
X28700000Y-117560000D02*
X16600000Y-105460000D01*
%TO.N,/TX2 (GPIO17)*%
X13850000Y-32400000D02*
X13850000Y-33500000D01*
X16050000Y-30200000D02*
X13850000Y-32400000D01*
X19848529Y-30200000D02*
X16050000Y-30200000D01*
X29150000Y-39501471D02*
X19848529Y-30200000D01*
X29150000Y-59810000D02*
X29150000Y-39501471D01*
X26850000Y-59810000D02*
X29150000Y-59810000D01*
X25600000Y-61060000D02*
X26850000Y-59810000D01*
X25600000Y-94140000D02*
X25600000Y-61060000D01*
X28700000Y-97240000D02*
X25600000Y-94140000D01*
%TO.N,/GND*%
X22800000Y-94000000D02*
X22800000Y-104200000D01*
X22600000Y-93800000D02*
X22800000Y-94000000D01*
X26260000Y-84540000D02*
X26200000Y-84600000D01*
X28700000Y-84540000D02*
X26260000Y-84540000D01*
%TO.N,/D26*%
X5440000Y-93800000D02*
X2000000Y-97240000D01*
X19400000Y-93800000D02*
X5440000Y-93800000D01*
X19600000Y-23800000D02*
X21200000Y-25400000D01*
%TO.N,/D27*%
X8400000Y-94800000D02*
X6800000Y-94800000D01*
%TO.N,/D13*%
X8600000Y-87200000D02*
X6800000Y-87200000D01*
%TO.N,/GND*%
X19600000Y-30800000D02*
X19600000Y-36750000D01*
X19600000Y-44400000D02*
X14000000Y-44400000D01*
X19600000Y-36750000D02*
X19600000Y-44400000D01*
X16350000Y-33500000D02*
X19600000Y-36750000D01*
%TO.N,/RX2 (GPIO16)*%
X20000000Y-94800000D02*
X22200000Y-94800000D01*
%TO.N,/GND*%
X14000000Y-44400000D02*
X5470000Y-52930000D01*
X5470000Y-52930000D02*
X2600000Y-52930000D01*
%TO.N,/D19*%
X7600000Y-98800000D02*
X7600000Y-100600000D01*
X7600000Y-100600000D02*
X7800000Y-100800000D01*
%TO.N,/D21 (SDA)*%
X24400000Y-103100000D02*
X28700000Y-107400000D01*
X24400000Y-78400000D02*
X24400000Y-103100000D01*
X22400000Y-78200000D02*
X22600000Y-78400000D01*
X21870000Y-72930000D02*
X21000000Y-73800000D01*
X21000000Y-78200000D02*
X22400000Y-78200000D01*
X23400000Y-72930000D02*
X21870000Y-72930000D01*
X21000000Y-73800000D02*
X21000000Y-78200000D01*
%TO.N,/D22 (SCL)*%
X23400000Y-109720000D02*
X28700000Y-115020000D01*
X23400000Y-75470000D02*
X23400000Y-109720000D01*
%TO.N,/GND*%
X16400000Y-62000000D02*
X5400000Y-62000000D01*
X23200000Y-62000000D02*
X16400000Y-62000000D01*
X26540000Y-58660000D02*
X23200000Y-62000000D01*
X28000000Y-58660000D02*
X26540000Y-58660000D01*
%TO.N,/3.3V*%
X28700000Y-80900000D02*
X28700000Y-82000000D01*
X28000000Y-61600000D02*
X26000000Y-63600000D01*
X28000000Y-61200000D02*
X28000000Y-61600000D01*
X26000000Y-63600000D02*
X26000000Y-78200000D01*
X26000000Y-78200000D02*
X28700000Y-80900000D01*
%TO.N,/GND*%
X1400000Y-54130000D02*
X1400000Y-66400000D01*
X2600000Y-52930000D02*
X1400000Y-54130000D01*
%TO.N,/VIN (VOUT)*%
X2000000Y-79200000D02*
X2000000Y-82000000D01*
X4800000Y-76400000D02*
X2000000Y-79200000D01*
X4800000Y-57600000D02*
X4800000Y-76400000D01*
X2670000Y-55470000D02*
X4800000Y-57600000D01*
X2600000Y-55470000D02*
X2670000Y-55470000D01*
%TO.N,/B+*%
X28200000Y-121150000D02*
X22050000Y-115000000D01*
X28200000Y-122330000D02*
X28200000Y-121150000D01*
%TO.N,/B-*%
X20705896Y-116155896D02*
X19550000Y-115000000D01*
X20705896Y-122212335D02*
X20705896Y-116155896D01*
X28200000Y-124870000D02*
X23363561Y-124870000D01*
X23363561Y-124870000D02*
X20705896Y-122212335D01*
%TO.N,/GND (OUT-)*%
X6792446Y-115057554D02*
X6792446Y-122992446D01*
X6850000Y-115000000D02*
X6792446Y-115057554D01*
X8050000Y-115000000D02*
X6850000Y-115000000D01*
X6792446Y-122992446D02*
X7000000Y-123200000D01*
%TO.N,Net-(Conn_01x04_BUCKBOOST0-Pin_1)*%
X18000000Y-129600000D02*
X10860000Y-129600000D01*
X10860000Y-129600000D02*
X7000000Y-125740000D01*
X21600000Y-126000000D02*
X18000000Y-129600000D01*
%TO.N,/VIN (OUT+)*%
X12990000Y-117440000D02*
X10550000Y-115000000D01*
X12990000Y-126000000D02*
X12990000Y-117440000D01*
%TO.N,/D33*%
X14000000Y-102500000D02*
X4500000Y-102500000D01*
%TD*%
M02*
