%TF.GenerationSoftware,KiCad,Pcbnew,10.0.0*%
%TF.CreationDate,2026-04-13T17:58:31-05:00*%
%TF.ProjectId,WiiRemote,57696952-656d-46f7-9465-2e6b69636164,rev?*%
%TF.SameCoordinates,Original*%
%TF.FileFunction,Soldermask,Bot*%
%TF.FilePolarity,Negative*%
%FSLAX46Y46*%
G04 Gerber Fmt 4.6, Leading zero omitted, Abs format (unit mm)*
G04 Created by KiCad (PCBNEW 10.0.0) date 2026-04-13 17:58:31*
%MOMM*%
%LPD*%
G01*
G04 APERTURE LIST*
G04 Aperture macros list*
%AMRoundRect*
0 Rectangle with rounded corners*
0 $1 Rounding radius*
0 $2 $3 $4 $5 $6 $7 $8 $9 X,Y pos of 4 corners*
0 Add a 4 corners polygon primitive as box body*
4,1,4,$2,$3,$4,$5,$6,$7,$8,$9,$2,$3,0*
0 Add four circle primitives for the rounded corners*
1,1,$1+$1,$2,$3*
1,1,$1+$1,$4,$5*
1,1,$1+$1,$6,$7*
1,1,$1+$1,$8,$9*
0 Add four rect primitives between the rounded corners*
20,1,$1+$1,$2,$3,$4,$5,0*
20,1,$1+$1,$4,$5,$6,$7,0*
20,1,$1+$1,$6,$7,$8,$9,0*
20,1,$1+$1,$8,$9,$2,$3,0*%
G04 Aperture macros list end*
%ADD10R,2.000000X2.000000*%
%ADD11C,1.700000*%
%ADD12R,1.700000X1.700000*%
%ADD13C,3.500000*%
%ADD14R,2.000000X4.000000*%
%ADD15RoundRect,0.250000X-0.970000X-0.310000X0.970000X-0.310000X0.970000X0.310000X-0.970000X0.310000X0*%
G04 APERTURE END LIST*
D10*
%TO.C,Conn_01x04_BUCKBOOST0*%
X27000000Y-20300000D03*
X27000000Y-9500000D03*
X3100000Y-20300000D03*
X3100000Y-9500000D03*
%TD*%
D11*
%TO.C,DECOUPLING_CAP_47uF0*%
X7000000Y-123200000D03*
D12*
X7000000Y-125740000D03*
%TD*%
D13*
%TO.C,REF\u002A\u002A*%
X1500000Y-74000000D03*
%TD*%
%TO.C,REF\u002A\u002A*%
X29000000Y-29500000D03*
%TD*%
%TO.C,REF\u002A\u002A*%
X1500000Y-29500000D03*
%TD*%
%TO.C,REF\u002A\u002A*%
X29000000Y-74000000D03*
%TD*%
%TO.C,REF\u002A\u002A*%
X1500000Y-134000000D03*
%TD*%
%TO.C,REF\u002A\u002A*%
X29000000Y-134000000D03*
%TD*%
D12*
%TO.C,Conn_01x15_ESP32_DEV_KIT_PINS_3v3-D230*%
X28700000Y-82000000D03*
D11*
X28700000Y-84540000D03*
X28700000Y-87080000D03*
X28700000Y-89620000D03*
X28700000Y-92160000D03*
X28700000Y-94700000D03*
X28700000Y-97240000D03*
X28700000Y-99780000D03*
X28700000Y-102320000D03*
X28700000Y-104860000D03*
X28700000Y-107400000D03*
X28700000Y-109940000D03*
X28700000Y-112480000D03*
X28700000Y-115020000D03*
X28700000Y-117560000D03*
%TD*%
D12*
%TO.C,Conn_01x01_EXTRA_GPIO0*%
X2000000Y-126500000D03*
%TD*%
%TO.C,Conn_01x02_DECOUPLING_CAP_100uF0*%
X2600000Y-52930000D03*
D11*
X2600000Y-55470000D03*
%TD*%
D10*
%TO.C,Conn_01x04_CHARGING_MODULE0*%
X22050000Y-115000000D03*
X19550000Y-115000000D03*
X10550000Y-115000000D03*
X8050000Y-115000000D03*
%TD*%
D12*
%TO.C,Conn_01x02_POWER_AND_GROUND0*%
X28000000Y-58660000D03*
D11*
X28000000Y-61200000D03*
%TD*%
D12*
%TO.C,Conn_01x02_battery_terminal0*%
X28200000Y-122330000D03*
D11*
X28200000Y-124870000D03*
%TD*%
D14*
%TO.C,SW_Push1*%
X16350000Y-33500000D03*
X13850000Y-33500000D03*
%TD*%
D12*
%TO.C,Conn_01x02_I2C_INPUT0*%
X23400000Y-72930000D03*
D11*
X23400000Y-75470000D03*
%TD*%
D12*
%TO.C,Conn_01x01_IMU_INTERRUPT0*%
X2000000Y-122500000D03*
%TD*%
D15*
%TO.C,SPST_POWER_SWITCH0*%
X12990000Y-126000000D03*
X21600000Y-126000000D03*
%TD*%
D12*
%TO.C,Conn_01x15_ESP32_DEV_KIT_PINS_VIN-EN0*%
X2000000Y-82000000D03*
D11*
X2000000Y-84540000D03*
X2000000Y-87080000D03*
X2000000Y-89620000D03*
X2000000Y-92160000D03*
X2000000Y-94700000D03*
X2000000Y-97240000D03*
X2000000Y-99780000D03*
X2000000Y-102320000D03*
X2000000Y-104860000D03*
X2000000Y-107400000D03*
X2000000Y-109940000D03*
X2000000Y-112480000D03*
X2000000Y-115020000D03*
X2000000Y-117560000D03*
%TD*%
M02*
