M48
; DRILL file KiCad 10.0.0 date 2026-04-13T17:58:49
; FORMAT={-:-/ absolute / metric / decimal}
; #@! TF.CreationDate,2026-04-13T17:58:49-05:00
; #@! TF.GenerationSoftware,Kicad,Pcbnew,10.0.0
; #@! TF.FileFunction,Plated,1,2,PTH
FMAT,2
METRIC
; #@! TA.AperFunction,Plated,PTH,ViaDrill
T1C0.300
; #@! TA.AperFunction,Plated,PTH,ComponentDrill
T2C1.000
%
G90
G05
T1
X1.4Y-66.4
X4.5Y-102.5
X5.4Y-62.0
X6.8Y-87.2
X6.8Y-94.8
X7.6Y-43.4
X7.6Y-98.8
X7.8Y-100.8
X8.4Y-94.8
X8.6Y-85.0
X8.6Y-87.2
X10.0Y-3.0
X10.8Y-46.2
X10.8Y-48.8
X10.8Y-61.0
X10.8Y-62.8
X10.8Y-93.0
X10.8Y-98.4
X10.8Y-101.6
X13.8Y-114.4
X14.0Y-44.4
X14.0Y-102.5
X16.4Y-62.0
X16.6Y-92.4
X16.6Y-94.8
X19.4Y-93.8
X19.6Y-23.8
X19.6Y-30.8
X20.0Y-67.0
X20.0Y-83.2
X20.0Y-94.8
X21.2Y-25.4
X21.4Y-67.0
X22.2Y-94.8
X22.4Y-83.2
X22.6Y-78.4
X22.6Y-93.8
X22.8Y-104.2
X23.2Y-62.0
X24.0Y-32.4
X24.0Y-57.0
X24.4Y-78.4
X26.2Y-84.6
T2
X2.0Y-82.0
X2.0Y-84.54
X2.0Y-87.08
X2.0Y-89.62
X2.0Y-92.16
X2.0Y-94.7
X2.0Y-97.24
X2.0Y-99.78
X2.0Y-102.32
X2.0Y-104.86
X2.0Y-107.4
X2.0Y-109.94
X2.0Y-112.48
X2.0Y-115.02
X2.0Y-117.56
X2.0Y-122.5
X2.0Y-126.5
X2.6Y-52.93
X2.6Y-55.47
X3.1Y-9.5
X3.1Y-20.3
X7.0Y-123.2
X7.0Y-125.74
X8.05Y-115.0
X10.55Y-115.0
X19.55Y-115.0
X22.05Y-115.0
X23.4Y-72.93
X23.4Y-75.47
X27.0Y-9.5
X27.0Y-20.3
X28.0Y-58.66
X28.0Y-61.2
X28.2Y-122.33
X28.2Y-124.87
X28.7Y-82.0
X28.7Y-84.54
X28.7Y-87.08
X28.7Y-89.62
X28.7Y-92.16
X28.7Y-94.7
X28.7Y-97.24
X28.7Y-99.78
X28.7Y-102.32
X28.7Y-104.86
X28.7Y-107.4
X28.7Y-109.94
X28.7Y-112.48
X28.7Y-115.02
X28.7Y-117.56
M30
