%TF.GenerationSoftware,KiCad,Pcbnew,10.0.0*%
%TF.CreationDate,2026-05-04T21:29:55-05:00*%
%TF.ProjectId,WiiRemote,57696952-656d-46f7-9465-2e6b69636164,rev?*%
%TF.SameCoordinates,Original*%
%TF.FileFunction,Soldermask,Top*%
%TF.FilePolarity,Negative*%
%FSLAX46Y46*%
G04 Gerber Fmt 4.6, Leading zero omitted, Abs format (unit mm)*
G04 Created by KiCad (PCBNEW 10.0.0) date 2026-05-04 21:29:55*
%MOMM*%
%LPD*%
G01*
G04 APERTURE LIST*
G04 Aperture macros list*
%AMRoundRect*
0 Rectangle with rounded corners*
0 $1 Rounding radius*
0 $2 $3 $4 $5 $6 $7 $8 $9 X,Y pos of 4 corners*
0 Add a 4 corners polygon primitive as box body*
4,1,4,$2,$3,$4,$5,$6,$7,$8,$9,$2,$3,0*
0 Add four circle primitives for the rounded corners*
1,1,$1+$1,$2,$3*
1,1,$1+$1,$4,$5*
1,1,$1+$1,$6,$7*
1,1,$1+$1,$8,$9*
0 Add four rect primitives between the rounded corners*
20,1,$1+$1,$2,$3,$4,$5,0*
20,1,$1+$1,$4,$5,$6,$7,0*
20,1,$1+$1,$6,$7,$8,$9,0*
20,1,$1+$1,$8,$9,$2,$3,0*%
G04 Aperture macros list end*
%ADD10C,3.500000*%
%ADD11C,1.700000*%
%ADD12R,1.700000X1.700000*%
%ADD13RoundRect,0.250000X0.550000X0.550000X-0.550000X0.550000X-0.550000X-0.550000X0.550000X-0.550000X0*%
%ADD14C,1.600000*%
%ADD15R,2.000000X2.000000*%
%ADD16R,3.500000X3.500000*%
%ADD17R,2.000000X4.000000*%
G04 APERTURE END LIST*
D10*
%TO.C,REF\u002A\u002A*%
X29000000Y-134000000D03*
%TD*%
%TO.C,REF\u002A\u002A*%
X1500000Y-134000000D03*
%TD*%
%TO.C,REF\u002A\u002A*%
X29000000Y-29500000D03*
%TD*%
%TO.C,REF\u002A\u002A*%
X1500000Y-29500000D03*
%TD*%
D11*
%TO.C,Conn_01x15_ESP32_DEV_KIT_PINS_VIN-EN0*%
X1400000Y-73020000D03*
X1400000Y-70480000D03*
X1400000Y-67940000D03*
X1400000Y-65400000D03*
X1400000Y-62860000D03*
X1400000Y-60320000D03*
X1400000Y-57780000D03*
X1400000Y-55240000D03*
X1400000Y-52700000D03*
X1400000Y-50160000D03*
X1400000Y-47620000D03*
X1400000Y-45080000D03*
X1400000Y-42540000D03*
X1400000Y-40000000D03*
D12*
X1400000Y-37460000D03*
%TD*%
D11*
%TO.C,Conn_01x15_ESP32_DEV_KIT_PINS_3v3-D230*%
X28100000Y-73020000D03*
X28100000Y-70480000D03*
X28100000Y-67940000D03*
X28100000Y-65400000D03*
X28100000Y-62860000D03*
X28100000Y-60320000D03*
X28100000Y-57780000D03*
X28100000Y-55240000D03*
X28100000Y-52700000D03*
X28100000Y-50160000D03*
X28100000Y-47620000D03*
X28100000Y-45080000D03*
X28100000Y-42540000D03*
X28100000Y-40000000D03*
D12*
X28100000Y-37460000D03*
%TD*%
D13*
%TO.C,SPST_POWER_SWITCH0*%
X28200000Y-103600000D03*
D14*
X20580000Y-103600000D03*
%TD*%
D15*
%TO.C,Conn_01x04_CHARGING_MODULE0*%
X4200000Y-108150000D03*
X4200000Y-110650000D03*
X4200000Y-119650000D03*
X4200000Y-122150000D03*
%TD*%
D16*
%TO.C,J1*%
X4100000Y-81800000D03*
X4100000Y-97800000D03*
X26600000Y-81800000D03*
X26600000Y-97800000D03*
D15*
X11100000Y-98800000D03*
X13600000Y-98800000D03*
X16100000Y-98800000D03*
X18600000Y-98800000D03*
X7600000Y-80800000D03*
X10100000Y-80800000D03*
X12600000Y-80800000D03*
X15100000Y-80800000D03*
X17600000Y-80800000D03*
X20100000Y-80800000D03*
%TD*%
D17*
%TO.C,SW_Push11*%
X16350000Y-118000000D03*
X13850000Y-118000000D03*
%TD*%
%TO.C,SW_Push10*%
X16350000Y-106000000D03*
X13850000Y-106000000D03*
%TD*%
D11*
%TO.C,Conn_01x02_battery_terminal0*%
X4260000Y-103000000D03*
D12*
X6800000Y-103000000D03*
%TD*%
D15*
%TO.C,Conn_01x04_BUCKBOOST0*%
X27000000Y-138000000D03*
X27000000Y-127200000D03*
X3100000Y-138000000D03*
X3100000Y-127200000D03*
%TD*%
D17*
%TO.C,SW_Push7*%
X6350000Y-20500000D03*
X8850000Y-20500000D03*
%TD*%
%TO.C,SW_Push8*%
X21350000Y-20500000D03*
X23850000Y-20500000D03*
%TD*%
%TO.C,SW_Push0*%
X13850000Y-40500000D03*
X16350000Y-40500000D03*
%TD*%
%TO.C,SW_Push6*%
X13850000Y-27500000D03*
X16350000Y-27500000D03*
%TD*%
%TO.C,SW_Push5*%
X13850000Y-13500000D03*
X16350000Y-13500000D03*
%TD*%
M02*
