M48
; DRILL file KiCad 10.0.0 date 2026-05-04T21:29:58
; FORMAT={-:-/ absolute / metric / decimal}
; #@! TF.CreationDate,2026-05-04T21:29:58-05:00
; #@! TF.GenerationSoftware,Kicad,Pcbnew,10.0.0
; #@! TF.FileFunction,Plated,1,2,PTH
FMAT,2
METRIC
; #@! TA.AperFunction,Plated,PTH,ViaDrill
T1C0.300
; #@! TA.AperFunction,Plated,PTH,ComponentDrill
T2C0.800
; #@! TA.AperFunction,Plated,PTH,ComponentDrill
T3C1.000
%
G90
G05
T1
X5.4Y-37.8
X5.4Y-41.0
X5.4Y-48.4
X6.4Y-46.2
X7.8Y-38.8
X7.8Y-46.2
X10.8Y-105.2
X11.2Y-118.0
X11.6Y-78.2
X13.6Y-37.6
X18.2Y-33.6
X21.2Y-23.6
X21.2Y-119.2
X23.2Y-51.4
T2
X20.58Y-103.6
X28.2Y-103.6
T3
X1.4Y-37.46
X1.4Y-40.0
X1.4Y-42.54
X1.4Y-45.08
X1.4Y-47.62
X1.4Y-50.16
X1.4Y-52.7
X1.4Y-55.24
X1.4Y-57.78
X1.4Y-60.32
X1.4Y-62.86
X1.4Y-65.4
X1.4Y-67.94
X1.4Y-70.48
X1.4Y-73.02
X3.1Y-127.2
X3.1Y-138.0
X4.2Y-108.15
X4.2Y-110.65
X4.2Y-119.65
X4.2Y-122.15
X4.26Y-103.0
X6.8Y-103.0
X7.6Y-80.8
X10.1Y-80.8
X11.1Y-98.8
X12.6Y-80.8
X13.6Y-98.8
X15.1Y-80.8
X16.1Y-98.8
X17.6Y-80.8
X18.6Y-98.8
X20.1Y-80.8
X27.0Y-127.2
X27.0Y-138.0
X28.1Y-37.46
X28.1Y-40.0
X28.1Y-42.54
X28.1Y-45.08
X28.1Y-47.62
X28.1Y-50.16
X28.1Y-52.7
X28.1Y-55.24
X28.1Y-57.78
X28.1Y-60.32
X28.1Y-62.86
X28.1Y-65.4
X28.1Y-67.94
X28.1Y-70.48
X28.1Y-73.02
M30
