%TF.GenerationSoftware,KiCad,Pcbnew,10.0.0*%
%TF.CreationDate,2026-05-04T21:29:55-05:00*%
%TF.ProjectId,WiiRemote,57696952-656d-46f7-9465-2e6b69636164,rev?*%
%TF.SameCoordinates,Original*%
%TF.FileFunction,Copper,L2,Bot*%
%TF.FilePolarity,Positive*%
%FSLAX46Y46*%
G04 Gerber Fmt 4.6, Leading zero omitted, Abs format (unit mm)*
G04 Created by KiCad (PCBNEW 10.0.0) date 2026-05-04 21:29:55*
%MOMM*%
%LPD*%
G01*
G04 APERTURE LIST*
G04 Aperture macros list*
%AMRoundRect*
0 Rectangle with rounded corners*
0 $1 Rounding radius*
0 $2 $3 $4 $5 $6 $7 $8 $9 X,Y pos of 4 corners*
0 Add a 4 corners polygon primitive as box body*
4,1,4,$2,$3,$4,$5,$6,$7,$8,$9,$2,$3,0*
0 Add four circle primitives for the rounded corners*
1,1,$1+$1,$2,$3*
1,1,$1+$1,$4,$5*
1,1,$1+$1,$6,$7*
1,1,$1+$1,$8,$9*
0 Add four rect primitives between the rounded corners*
20,1,$1+$1,$2,$3,$4,$5,0*
20,1,$1+$1,$4,$5,$6,$7,0*
20,1,$1+$1,$6,$7,$8,$9,0*
20,1,$1+$1,$8,$9,$2,$3,0*%
G04 Aperture macros list end*
%ADD10C,0.300000*%
%TA.AperFunction,NonConductor*%
%ADD11C,0.300000*%
%TD*%
%TA.AperFunction,ComponentPad*%
%ADD12C,1.700000*%
%TD*%
%TA.AperFunction,ComponentPad*%
%ADD13R,1.700000X1.700000*%
%TD*%
%TA.AperFunction,ComponentPad*%
%ADD14RoundRect,0.250000X0.550000X0.550000X-0.550000X0.550000X-0.550000X-0.550000X0.550000X-0.550000X0*%
%TD*%
%TA.AperFunction,ComponentPad*%
%ADD15C,1.600000*%
%TD*%
%TA.AperFunction,ComponentPad*%
%ADD16R,2.000000X2.000000*%
%TD*%
%TA.AperFunction,WasherPad*%
%ADD17R,3.500000X3.500000*%
%TD*%
%TA.AperFunction,SMDPad,CuDef*%
%ADD18R,2.000000X4.000000*%
%TD*%
%TA.AperFunction,ViaPad*%
%ADD19C,0.600000*%
%TD*%
%TA.AperFunction,Conductor*%
%ADD20C,0.200000*%
%TD*%
G04 APERTURE END LIST*
D10*
D11*
X10859774Y-121450828D02*
X10574060Y-121450828D01*
X10574060Y-121450828D02*
X10431203Y-121522257D01*
X10431203Y-121522257D02*
X10288346Y-121665114D01*
X10288346Y-121665114D02*
X10216917Y-121950828D01*
X10216917Y-121950828D02*
X10216917Y-122450828D01*
X10216917Y-122450828D02*
X10288346Y-122736542D01*
X10288346Y-122736542D02*
X10431203Y-122879400D01*
X10431203Y-122879400D02*
X10574060Y-122950828D01*
X10574060Y-122950828D02*
X10859774Y-122950828D01*
X10859774Y-122950828D02*
X11002632Y-122879400D01*
X11002632Y-122879400D02*
X11145489Y-122736542D01*
X11145489Y-122736542D02*
X11216917Y-122450828D01*
X11216917Y-122450828D02*
X11216917Y-121950828D01*
X11216917Y-121950828D02*
X11145489Y-121665114D01*
X11145489Y-121665114D02*
X11002632Y-121522257D01*
X11002632Y-121522257D02*
X10859774Y-121450828D01*
X9574060Y-121450828D02*
X9574060Y-122665114D01*
X9574060Y-122665114D02*
X9502631Y-122807971D01*
X9502631Y-122807971D02*
X9431203Y-122879400D01*
X9431203Y-122879400D02*
X9288345Y-122950828D01*
X9288345Y-122950828D02*
X9002631Y-122950828D01*
X9002631Y-122950828D02*
X8859774Y-122879400D01*
X8859774Y-122879400D02*
X8788345Y-122807971D01*
X8788345Y-122807971D02*
X8716917Y-122665114D01*
X8716917Y-122665114D02*
X8716917Y-121450828D01*
X8216916Y-121450828D02*
X7359774Y-121450828D01*
X7788345Y-122950828D02*
X7788345Y-121450828D01*
X6859774Y-122379400D02*
X5716917Y-122379400D01*
D10*
D11*
X26129400Y-121604510D02*
X26129400Y-122747368D01*
D10*
D11*
X8145489Y-119665114D02*
X7931203Y-119736542D01*
X7931203Y-119736542D02*
X7859774Y-119807971D01*
X7859774Y-119807971D02*
X7788346Y-119950828D01*
X7788346Y-119950828D02*
X7788346Y-120165114D01*
X7788346Y-120165114D02*
X7859774Y-120307971D01*
X7859774Y-120307971D02*
X7931203Y-120379400D01*
X7931203Y-120379400D02*
X8074060Y-120450828D01*
X8074060Y-120450828D02*
X8645489Y-120450828D01*
X8645489Y-120450828D02*
X8645489Y-118950828D01*
X8645489Y-118950828D02*
X8145489Y-118950828D01*
X8145489Y-118950828D02*
X8002632Y-119022257D01*
X8002632Y-119022257D02*
X7931203Y-119093685D01*
X7931203Y-119093685D02*
X7859774Y-119236542D01*
X7859774Y-119236542D02*
X7859774Y-119379400D01*
X7859774Y-119379400D02*
X7931203Y-119522257D01*
X7931203Y-119522257D02*
X8002632Y-119593685D01*
X8002632Y-119593685D02*
X8145489Y-119665114D01*
X8145489Y-119665114D02*
X8645489Y-119665114D01*
X7145489Y-119879400D02*
X6002632Y-119879400D01*
D10*
D11*
X8145489Y-110665114D02*
X7931203Y-110736542D01*
X7931203Y-110736542D02*
X7859774Y-110807971D01*
X7859774Y-110807971D02*
X7788346Y-110950828D01*
X7788346Y-110950828D02*
X7788346Y-111165114D01*
X7788346Y-111165114D02*
X7859774Y-111307971D01*
X7859774Y-111307971D02*
X7931203Y-111379400D01*
X7931203Y-111379400D02*
X8074060Y-111450828D01*
X8074060Y-111450828D02*
X8645489Y-111450828D01*
X8645489Y-111450828D02*
X8645489Y-109950828D01*
X8645489Y-109950828D02*
X8145489Y-109950828D01*
X8145489Y-109950828D02*
X8002632Y-110022257D01*
X8002632Y-110022257D02*
X7931203Y-110093685D01*
X7931203Y-110093685D02*
X7859774Y-110236542D01*
X7859774Y-110236542D02*
X7859774Y-110379400D01*
X7859774Y-110379400D02*
X7931203Y-110522257D01*
X7931203Y-110522257D02*
X8002632Y-110593685D01*
X8002632Y-110593685D02*
X8145489Y-110665114D01*
X8145489Y-110665114D02*
X8645489Y-110665114D01*
X7145489Y-110879400D02*
X6002632Y-110879400D01*
X6574060Y-111450828D02*
X6574060Y-110307971D01*
D10*
D11*
X10859774Y-107450828D02*
X10574060Y-107450828D01*
X10574060Y-107450828D02*
X10431203Y-107522257D01*
X10431203Y-107522257D02*
X10288346Y-107665114D01*
X10288346Y-107665114D02*
X10216917Y-107950828D01*
X10216917Y-107950828D02*
X10216917Y-108450828D01*
X10216917Y-108450828D02*
X10288346Y-108736542D01*
X10288346Y-108736542D02*
X10431203Y-108879400D01*
X10431203Y-108879400D02*
X10574060Y-108950828D01*
X10574060Y-108950828D02*
X10859774Y-108950828D01*
X10859774Y-108950828D02*
X11002632Y-108879400D01*
X11002632Y-108879400D02*
X11145489Y-108736542D01*
X11145489Y-108736542D02*
X11216917Y-108450828D01*
X11216917Y-108450828D02*
X11216917Y-107950828D01*
X11216917Y-107950828D02*
X11145489Y-107665114D01*
X11145489Y-107665114D02*
X11002632Y-107522257D01*
X11002632Y-107522257D02*
X10859774Y-107450828D01*
X9574060Y-107450828D02*
X9574060Y-108665114D01*
X9574060Y-108665114D02*
X9502631Y-108807971D01*
X9502631Y-108807971D02*
X9431203Y-108879400D01*
X9431203Y-108879400D02*
X9288345Y-108950828D01*
X9288345Y-108950828D02*
X9002631Y-108950828D01*
X9002631Y-108950828D02*
X8859774Y-108879400D01*
X8859774Y-108879400D02*
X8788345Y-108807971D01*
X8788345Y-108807971D02*
X8716917Y-108665114D01*
X8716917Y-108665114D02*
X8716917Y-107450828D01*
X8216916Y-107450828D02*
X7359774Y-107450828D01*
X7788345Y-108950828D02*
X7788345Y-107450828D01*
X6859774Y-108379400D02*
X5716917Y-108379400D01*
X6288345Y-108950828D02*
X6288345Y-107807971D01*
D10*
D11*
X25929400Y-107704510D02*
X25929400Y-108847368D01*
X26500828Y-108275939D02*
X25357971Y-108275939D01*
D12*
%TO.P,Conn_01x15_ESP32_DEV_KIT_PINS_VIN-EN0,15,Pin_15_15*%
%TO.N,unconnected-(Conn_01x15_ESP32_DEV_KIT_PINS_VIN-EN0-Pin_15-Pad15)*%
X1400000Y-73020000D03*
%TO.P,Conn_01x15_ESP32_DEV_KIT_PINS_VIN-EN0,14,Pin_14_14*%
%TO.N,unconnected-(Conn_01x15_ESP32_DEV_KIT_PINS_VIN-EN0-Pin_14-Pad14)*%
X1400000Y-70480000D03*
%TO.P,Conn_01x15_ESP32_DEV_KIT_PINS_VIN-EN0,13,Pin_13_13*%
%TO.N,unconnected-(Conn_01x15_ESP32_DEV_KIT_PINS_VIN-EN0-Pin_13-Pad13)*%
X1400000Y-67940000D03*
%TO.P,Conn_01x15_ESP32_DEV_KIT_PINS_VIN-EN0,12,Pin_12_12*%
%TO.N,unconnected-(Conn_01x15_ESP32_DEV_KIT_PINS_VIN-EN0-Pin_12-Pad12)*%
X1400000Y-65400000D03*
%TO.P,Conn_01x15_ESP32_DEV_KIT_PINS_VIN-EN0,11,Pin_11_11*%
%TO.N,unconnected-(Conn_01x15_ESP32_DEV_KIT_PINS_VIN-EN0-Pin_11-Pad11)*%
X1400000Y-62860000D03*
%TO.P,Conn_01x15_ESP32_DEV_KIT_PINS_VIN-EN0,10,Pin_10_10*%
%TO.N,/D32*%
X1400000Y-60320000D03*
%TO.P,Conn_01x15_ESP32_DEV_KIT_PINS_VIN-EN0,9,Pin_9_9*%
%TO.N,/D33*%
X1400000Y-57780000D03*
%TO.P,Conn_01x15_ESP32_DEV_KIT_PINS_VIN-EN0,8,Pin_8_8*%
%TO.N,unconnected-(Conn_01x15_ESP32_DEV_KIT_PINS_VIN-EN0-Pin_8-Pad8)*%
X1400000Y-55240000D03*
%TO.P,Conn_01x15_ESP32_DEV_KIT_PINS_VIN-EN0,7,Pin_7_7*%
%TO.N,/D26*%
X1400000Y-52700000D03*
%TO.P,Conn_01x15_ESP32_DEV_KIT_PINS_VIN-EN0,6,Pin_6_6*%
%TO.N,/D27*%
X1400000Y-50160000D03*
%TO.P,Conn_01x15_ESP32_DEV_KIT_PINS_VIN-EN0,5,Pin_5_5*%
%TO.N,/D14*%
X1400000Y-47620000D03*
%TO.P,Conn_01x15_ESP32_DEV_KIT_PINS_VIN-EN0,4,Pin_4_4*%
%TO.N,unconnected-(Conn_01x15_ESP32_DEV_KIT_PINS_VIN-EN0-Pin_4-Pad4)*%
X1400000Y-45080000D03*
%TO.P,Conn_01x15_ESP32_DEV_KIT_PINS_VIN-EN0,3,Pin_3_3*%
%TO.N,/D13*%
X1400000Y-42540000D03*
%TO.P,Conn_01x15_ESP32_DEV_KIT_PINS_VIN-EN0,2,Pin_2_2*%
%TO.N,/GND*%
X1400000Y-40000000D03*
D13*
%TO.P,Conn_01x15_ESP32_DEV_KIT_PINS_VIN-EN0,1,Pin_1_1*%
%TO.N,/VIN (VOUT)*%
X1400000Y-37460000D03*
%TD*%
D12*
%TO.P,Conn_01x15_ESP32_DEV_KIT_PINS_3v3-D230,15,Pin_15_15*%
%TO.N,unconnected-(Conn_01x15_ESP32_DEV_KIT_PINS_3v3-D230-Pin_15-Pad15)*%
X28100000Y-73020000D03*
%TO.P,Conn_01x15_ESP32_DEV_KIT_PINS_3v3-D230,14,Pin_14_14*%
%TO.N,/D22 (SCL)*%
X28100000Y-70480000D03*
%TO.P,Conn_01x15_ESP32_DEV_KIT_PINS_3v3-D230,13,Pin_13_13*%
%TO.N,unconnected-(Conn_01x15_ESP32_DEV_KIT_PINS_3v3-D230-Pin_13-Pad13)*%
X28100000Y-67940000D03*
%TO.P,Conn_01x15_ESP32_DEV_KIT_PINS_3v3-D230,12,Pin_12_12*%
%TO.N,unconnected-(Conn_01x15_ESP32_DEV_KIT_PINS_3v3-D230-Pin_12-Pad12)*%
X28100000Y-65400000D03*
%TO.P,Conn_01x15_ESP32_DEV_KIT_PINS_3v3-D230,11,Pin_11_11*%
%TO.N,/D21 (SDA)*%
X28100000Y-62860000D03*
%TO.P,Conn_01x15_ESP32_DEV_KIT_PINS_3v3-D230,10,Pin_10_10*%
%TO.N,unconnected-(Conn_01x15_ESP32_DEV_KIT_PINS_3v3-D230-Pin_10-Pad10)*%
X28100000Y-60320000D03*
%TO.P,Conn_01x15_ESP32_DEV_KIT_PINS_3v3-D230,9,Pin_9_9*%
%TO.N,unconnected-(Conn_01x15_ESP32_DEV_KIT_PINS_3v3-D230-Pin_9-Pad9)*%
X28100000Y-57780000D03*
%TO.P,Conn_01x15_ESP32_DEV_KIT_PINS_3v3-D230,8,Pin_8_8*%
%TO.N,unconnected-(Conn_01x15_ESP32_DEV_KIT_PINS_3v3-D230-Pin_8-Pad8)*%
X28100000Y-55240000D03*
%TO.P,Conn_01x15_ESP32_DEV_KIT_PINS_3v3-D230,7,Pin_7_7*%
%TO.N,/TX2 (GPIO17)*%
X28100000Y-52700000D03*
%TO.P,Conn_01x15_ESP32_DEV_KIT_PINS_3v3-D230,6,Pin_6_6*%
%TO.N,/RX2 (GPIO16)*%
X28100000Y-50160000D03*
%TO.P,Conn_01x15_ESP32_DEV_KIT_PINS_3v3-D230,5,Pin_5_5*%
%TO.N,unconnected-(Conn_01x15_ESP32_DEV_KIT_PINS_3v3-D230-Pin_5-Pad5)*%
X28100000Y-47620000D03*
%TO.P,Conn_01x15_ESP32_DEV_KIT_PINS_3v3-D230,4,Pin_4_4*%
%TO.N,unconnected-(Conn_01x15_ESP32_DEV_KIT_PINS_3v3-D230-Pin_4-Pad4)*%
X28100000Y-45080000D03*
%TO.P,Conn_01x15_ESP32_DEV_KIT_PINS_3v3-D230,3,Pin_3_3*%
%TO.N,unconnected-(Conn_01x15_ESP32_DEV_KIT_PINS_3v3-D230-Pin_3-Pad3)*%
X28100000Y-42540000D03*
%TO.P,Conn_01x15_ESP32_DEV_KIT_PINS_3v3-D230,2,Pin_2_2*%
%TO.N,/GND*%
X28100000Y-40000000D03*
D13*
%TO.P,Conn_01x15_ESP32_DEV_KIT_PINS_3v3-D230,1,Pin_1_1*%
%TO.N,/3.3v*%
X28100000Y-37460000D03*
%TD*%
D14*
%TO.P,SPST_POWER_SWITCH0,1,A_1*%
%TO.N,/VIN (OUT+)*%
X28200000Y-103600000D03*
D15*
%TO.P,SPST_POWER_SWITCH0,2,B_2*%
X20580000Y-103600000D03*
%TD*%
D16*
%TO.P,Conn_01x04_CHARGING_MODULE0,1,Pin_1_1*%
%TO.N,/VIN (OUT+)*%
X4200000Y-108150000D03*
%TO.P,Conn_01x04_CHARGING_MODULE0,2,Pin_2_2*%
%TO.N,/B+*%
X4200000Y-110650000D03*
%TO.P,Conn_01x04_CHARGING_MODULE0,3,Pin_3_3*%
%TO.N,/B-*%
X4200000Y-119650000D03*
%TO.P,Conn_01x04_CHARGING_MODULE0,4,Pin_4_4*%
%TO.N,/GND (OUT-)*%
X4200000Y-122150000D03*
%TD*%
D17*
%TO.P,J1,*%
%TO.N,*%
X4100000Y-81800000D03*
X4100000Y-97800000D03*
X26600000Y-81800000D03*
X26600000Y-97800000D03*
D16*
%TO.P,J1,1,Pin_1_1*%
%TO.N,N/C*%
X11100000Y-98800000D03*
%TO.P,J1,2,Pin_2_2*%
X13600000Y-98800000D03*
%TO.P,J1,3,Pin_3_3*%
X16100000Y-98800000D03*
%TO.P,J1,4,Pin_4_4*%
X18600000Y-98800000D03*
%TO.P,J1,5*%
%TO.N,/3.3v*%
X7600000Y-80800000D03*
%TO.P,J1,6*%
%TO.N,N/C*%
X10100000Y-80800000D03*
%TO.P,J1,7*%
%TO.N,/GND*%
X12600000Y-80800000D03*
%TO.P,J1,8*%
%TO.N,/D21 (SDA)*%
X15100000Y-80800000D03*
%TO.P,J1,9*%
%TO.N,/D22 (SCL)*%
X17600000Y-80800000D03*
%TO.P,J1,10*%
%TO.N,N/C*%
X20100000Y-80800000D03*
%TD*%
D12*
%TO.P,Conn_01x02_battery_terminal0,2,Pin_2_2*%
%TO.N,/B-*%
X4260000Y-103000000D03*
D13*
%TO.P,Conn_01x02_battery_terminal0,1,Pin_1_1*%
%TO.N,/B+*%
X6800000Y-103000000D03*
%TD*%
D16*
%TO.P,Conn_01x04_BUCKBOOST0,4,Pin_4_4*%
%TO.N,/GND (OUT-)*%
X27000000Y-138000000D03*
%TO.P,Conn_01x04_BUCKBOOST0,3,Pin_3_3*%
%TO.N,/VIN (OUT+)*%
X27000000Y-127200000D03*
%TO.P,Conn_01x04_BUCKBOOST0,2,Pin_2_2*%
%TO.N,/GND*%
X3100000Y-138000000D03*
%TO.P,Conn_01x04_BUCKBOOST0,1,Pin_1_1*%
%TO.N,/VIN (VOUT)*%
X3100000Y-127200000D03*
%TD*%
D18*
%TO.P,SW_Push1,1,1_1*%
%TO.N,/GND*%
X16350000Y-33500000D03*
%TO.P,SW_Push1,2,2_2*%
%TO.N,/TX2 (GPIO17)*%
X13850000Y-33500000D03*
%TD*%
D19*
%TO.N,/GND*%
X21200000Y-119200000D03*
%TO.N,/VIN (VOUT)*%
X5400000Y-37800000D03*
X5400000Y-41000000D03*
X5400000Y-48400000D03*
%TO.N,/D33*%
X10800000Y-105200000D03*
%TO.N,/D32*%
X11200000Y-118000000D03*
%TO.N,/D26*%
X7800000Y-46200000D03*
X21200000Y-23600000D03*
X7800000Y-38800000D03*
%TO.N,/D27*%
X6400000Y-46200000D03*
%TO.N,/3.3v*%
X11600000Y-78200000D03*
X23200000Y-51400000D03*
%TO.N,/GND*%
X13600000Y-37600000D03*
X18200000Y-33600000D03*
%TD*%
%TO.N,/VIN (OUT+)*%
D20*
X28200000Y-125400000D02*
X28200000Y-103600000D01*
X27000000Y-126600000D02*
X28200000Y-125400000D01*
X27000000Y-127200000D02*
X27000000Y-126600000D01*
%TO.N,/GND*%
X21200000Y-138000000D02*
X21200000Y-119200000D01*
X3100000Y-138000000D02*
X21200000Y-138000000D01*
%TO.N,/VIN (VOUT)*%
X5400000Y-37800000D02*
X5060000Y-37460000D01*
X5400000Y-48400000D02*
X5400000Y-41000000D01*
%TO.N,/VIN (OUT+)*%
X5437653Y-109407553D02*
X4200000Y-108169900D01*
X20580000Y-108420000D02*
X19592447Y-109407553D01*
X19592447Y-109407553D02*
X5437653Y-109407553D01*
X20580000Y-103600000D02*
X20580000Y-108420000D01*
X4200000Y-108169900D02*
X4200000Y-108150000D01*
X20580000Y-103600000D02*
X20400000Y-103780000D01*
%TO.N,/D33*%
X1000000Y-76200000D02*
X1000000Y-105200000D01*
X3800000Y-76000000D02*
X1200000Y-76000000D01*
X4400000Y-75400000D02*
X3800000Y-76000000D01*
X1000000Y-105200000D02*
X10800000Y-105200000D01*
X4400000Y-60780000D02*
X4400000Y-75400000D01*
X1200000Y-76000000D02*
X1000000Y-76200000D01*
%TO.N,/D32*%
X3400000Y-75200000D02*
X600000Y-75200000D01*
X600000Y-118000000D02*
X11200000Y-118000000D01*
X3600000Y-75000000D02*
X3400000Y-75200000D01*
X3600000Y-62400000D02*
X3600000Y-75000000D01*
X600000Y-75200000D02*
X600000Y-118000000D01*
X3480000Y-62400000D02*
X3600000Y-62400000D01*
%TO.N,/TX2 (GPIO17)*%
X13850000Y-32500000D02*
X13850000Y-33500000D01*
X22400000Y-31000000D02*
X15350000Y-31000000D01*
X15350000Y-31000000D02*
X13850000Y-32500000D01*
X22400000Y-52800000D02*
X22400000Y-31000000D01*
X28100000Y-52700000D02*
X28000000Y-52800000D01*
%TO.N,/D26*%
X7800000Y-52600000D02*
X7700000Y-52700000D01*
X7800000Y-23800000D02*
X7800000Y-38800000D01*
X8000000Y-23600000D02*
X7800000Y-23800000D01*
X21200000Y-23600000D02*
X8000000Y-23600000D01*
X7800000Y-46200000D02*
X7800000Y-52600000D01*
%TO.N,/D27*%
X6400000Y-46200000D02*
X6400000Y-49800000D01*
X6400000Y-49800000D02*
X6040000Y-50160000D01*
%TO.N,/3.3v*%
X23600000Y-37400000D02*
X23660000Y-37460000D01*
X23200000Y-37400000D02*
X23600000Y-37400000D01*
X7600000Y-78200000D02*
X11600000Y-78200000D01*
X7600000Y-80800000D02*
X7600000Y-78200000D01*
X23200000Y-51400000D02*
X23200000Y-37400000D01*
%TO.N,/GND*%
X12600000Y-44200000D02*
X8400000Y-40000000D01*
X12600000Y-80800000D02*
X12600000Y-44200000D01*
%TO.N,/D21 (SDA)*%
X15100000Y-80800000D02*
X15100000Y-75860000D01*
%TO.N,/D22 (SCL)*%
X27920000Y-70480000D02*
X28100000Y-70480000D01*
%TO.N,/GND*%
X13600000Y-37200000D02*
X13600000Y-37600000D01*
X13600000Y-37200000D02*
X15000000Y-37200000D01*
X16350000Y-35850000D02*
X16350000Y-33500000D01*
X15000000Y-37200000D02*
X16350000Y-35850000D01*
X11200000Y-37200000D02*
X13600000Y-37200000D01*
X8400000Y-40000000D02*
X11200000Y-37200000D01*
X18100000Y-33500000D02*
X18200000Y-33600000D01*
X16350000Y-33500000D02*
X18100000Y-33500000D01*
X16350000Y-33450000D02*
X16400000Y-33400000D01*
X16350000Y-33500000D02*
X16350000Y-33450000D01*
%TO.N,/VIN (VOUT)*%
X5060000Y-37460000D02*
X1400000Y-37460000D01*
%TO.N,/GND*%
X1400000Y-40000000D02*
X8400000Y-40000000D01*
%TO.N,/D27*%
X6040000Y-50160000D02*
X1400000Y-50160000D01*
%TO.N,/D26*%
X7700000Y-52700000D02*
X1400000Y-52700000D01*
%TO.N,/D33*%
X1400000Y-57780000D02*
X4400000Y-60780000D01*
%TO.N,/D32*%
X1400000Y-60320000D02*
X3480000Y-62400000D01*
%TO.N,/D22 (SCL)*%
X17600000Y-80800000D02*
X27920000Y-70480000D01*
%TO.N,/D21 (SDA)*%
X15100000Y-75860000D02*
X28100000Y-62860000D01*
%TO.N,/3.3v*%
X23660000Y-37460000D02*
X28100000Y-37460000D01*
%TO.N,/TX2 (GPIO17)*%
X28000000Y-52800000D02*
X22400000Y-52800000D01*
%TD*%
M02*
