%TF.GenerationSoftware,KiCad,Pcbnew,10.0.0*%
%TF.CreationDate,2026-05-04T21:29:55-05:00*%
%TF.ProjectId,WiiRemote,57696952-656d-46f7-9465-2e6b69636164,rev?*%
%TF.SameCoordinates,Original*%
%TF.FileFunction,AssemblyDrawing,Top*%
%FSLAX46Y46*%
G04 Gerber Fmt 4.6, Leading zero omitted, Abs format (unit mm)*
G04 Created by KiCad (PCBNEW 10.0.0) date 2026-05-04 21:29:55*
%MOMM*%
%LPD*%
G01*
G04 APERTURE LIST*
%ADD10C,0.150000*%
%ADD11C,0.100000*%
G04 APERTURE END LIST*
D10*
X21309524Y-138904819D02*
X21309524Y-137904819D01*
X21309524Y-137904819D02*
X21642857Y-138619104D01*
X21642857Y-138619104D02*
X21976190Y-137904819D01*
X21976190Y-137904819D02*
X21976190Y-138904819D01*
X22595238Y-138904819D02*
X22500000Y-138857200D01*
X22500000Y-138857200D02*
X22452381Y-138809580D01*
X22452381Y-138809580D02*
X22404762Y-138714342D01*
X22404762Y-138714342D02*
X22404762Y-138428628D01*
X22404762Y-138428628D02*
X22452381Y-138333390D01*
X22452381Y-138333390D02*
X22500000Y-138285771D01*
X22500000Y-138285771D02*
X22595238Y-138238152D01*
X22595238Y-138238152D02*
X22738095Y-138238152D01*
X22738095Y-138238152D02*
X22833333Y-138285771D01*
X22833333Y-138285771D02*
X22880952Y-138333390D01*
X22880952Y-138333390D02*
X22928571Y-138428628D01*
X22928571Y-138428628D02*
X22928571Y-138714342D01*
X22928571Y-138714342D02*
X22880952Y-138809580D01*
X22880952Y-138809580D02*
X22833333Y-138857200D01*
X22833333Y-138857200D02*
X22738095Y-138904819D01*
X22738095Y-138904819D02*
X22595238Y-138904819D01*
X23785714Y-138238152D02*
X23785714Y-138904819D01*
X23357143Y-138238152D02*
X23357143Y-138761961D01*
X23357143Y-138761961D02*
X23404762Y-138857200D01*
X23404762Y-138857200D02*
X23500000Y-138904819D01*
X23500000Y-138904819D02*
X23642857Y-138904819D01*
X23642857Y-138904819D02*
X23738095Y-138857200D01*
X23738095Y-138857200D02*
X23785714Y-138809580D01*
X24261905Y-138238152D02*
X24261905Y-138904819D01*
X24261905Y-138333390D02*
X24309524Y-138285771D01*
X24309524Y-138285771D02*
X24404762Y-138238152D01*
X24404762Y-138238152D02*
X24547619Y-138238152D01*
X24547619Y-138238152D02*
X24642857Y-138285771D01*
X24642857Y-138285771D02*
X24690476Y-138381009D01*
X24690476Y-138381009D02*
X24690476Y-138904819D01*
X25023810Y-138238152D02*
X25404762Y-138238152D01*
X25166667Y-137904819D02*
X25166667Y-138761961D01*
X25166667Y-138761961D02*
X25214286Y-138857200D01*
X25214286Y-138857200D02*
X25309524Y-138904819D01*
X25309524Y-138904819D02*
X25404762Y-138904819D01*
X25738096Y-138904819D02*
X25738096Y-138238152D01*
X25738096Y-137904819D02*
X25690477Y-137952438D01*
X25690477Y-137952438D02*
X25738096Y-138000057D01*
X25738096Y-138000057D02*
X25785715Y-137952438D01*
X25785715Y-137952438D02*
X25738096Y-137904819D01*
X25738096Y-137904819D02*
X25738096Y-138000057D01*
X26214286Y-138238152D02*
X26214286Y-138904819D01*
X26214286Y-138333390D02*
X26261905Y-138285771D01*
X26261905Y-138285771D02*
X26357143Y-138238152D01*
X26357143Y-138238152D02*
X26500000Y-138238152D01*
X26500000Y-138238152D02*
X26595238Y-138285771D01*
X26595238Y-138285771D02*
X26642857Y-138381009D01*
X26642857Y-138381009D02*
X26642857Y-138904819D01*
X27547619Y-138238152D02*
X27547619Y-139047676D01*
X27547619Y-139047676D02*
X27500000Y-139142914D01*
X27500000Y-139142914D02*
X27452381Y-139190533D01*
X27452381Y-139190533D02*
X27357143Y-139238152D01*
X27357143Y-139238152D02*
X27214286Y-139238152D01*
X27214286Y-139238152D02*
X27119048Y-139190533D01*
X27547619Y-138857200D02*
X27452381Y-138904819D01*
X27452381Y-138904819D02*
X27261905Y-138904819D01*
X27261905Y-138904819D02*
X27166667Y-138857200D01*
X27166667Y-138857200D02*
X27119048Y-138809580D01*
X27119048Y-138809580D02*
X27071429Y-138714342D01*
X27071429Y-138714342D02*
X27071429Y-138428628D01*
X27071429Y-138428628D02*
X27119048Y-138333390D01*
X27119048Y-138333390D02*
X27166667Y-138285771D01*
X27166667Y-138285771D02*
X27261905Y-138238152D01*
X27261905Y-138238152D02*
X27452381Y-138238152D01*
X27452381Y-138238152D02*
X27547619Y-138285771D01*
X28023810Y-138904819D02*
X28023810Y-137904819D01*
X28023810Y-138381009D02*
X28595238Y-138381009D01*
X28595238Y-138904819D02*
X28595238Y-137904819D01*
X29214286Y-138904819D02*
X29119048Y-138857200D01*
X29119048Y-138857200D02*
X29071429Y-138809580D01*
X29071429Y-138809580D02*
X29023810Y-138714342D01*
X29023810Y-138714342D02*
X29023810Y-138428628D01*
X29023810Y-138428628D02*
X29071429Y-138333390D01*
X29071429Y-138333390D02*
X29119048Y-138285771D01*
X29119048Y-138285771D02*
X29214286Y-138238152D01*
X29214286Y-138238152D02*
X29357143Y-138238152D01*
X29357143Y-138238152D02*
X29452381Y-138285771D01*
X29452381Y-138285771D02*
X29500000Y-138333390D01*
X29500000Y-138333390D02*
X29547619Y-138428628D01*
X29547619Y-138428628D02*
X29547619Y-138714342D01*
X29547619Y-138714342D02*
X29500000Y-138809580D01*
X29500000Y-138809580D02*
X29452381Y-138857200D01*
X29452381Y-138857200D02*
X29357143Y-138904819D01*
X29357143Y-138904819D02*
X29214286Y-138904819D01*
X30119048Y-138904819D02*
X30023810Y-138857200D01*
X30023810Y-138857200D02*
X29976191Y-138761961D01*
X29976191Y-138761961D02*
X29976191Y-137904819D01*
X30880953Y-138857200D02*
X30785715Y-138904819D01*
X30785715Y-138904819D02*
X30595239Y-138904819D01*
X30595239Y-138904819D02*
X30500001Y-138857200D01*
X30500001Y-138857200D02*
X30452382Y-138761961D01*
X30452382Y-138761961D02*
X30452382Y-138381009D01*
X30452382Y-138381009D02*
X30500001Y-138285771D01*
X30500001Y-138285771D02*
X30595239Y-138238152D01*
X30595239Y-138238152D02*
X30785715Y-138238152D01*
X30785715Y-138238152D02*
X30880953Y-138285771D01*
X30880953Y-138285771D02*
X30928572Y-138381009D01*
X30928572Y-138381009D02*
X30928572Y-138476247D01*
X30928572Y-138476247D02*
X30452382Y-138571485D01*
X31119049Y-139000057D02*
X31880953Y-139000057D01*
X32023811Y-137904819D02*
X32642858Y-137904819D01*
X32642858Y-137904819D02*
X32309525Y-138285771D01*
X32309525Y-138285771D02*
X32452382Y-138285771D01*
X32452382Y-138285771D02*
X32547620Y-138333390D01*
X32547620Y-138333390D02*
X32595239Y-138381009D01*
X32595239Y-138381009D02*
X32642858Y-138476247D01*
X32642858Y-138476247D02*
X32642858Y-138714342D01*
X32642858Y-138714342D02*
X32595239Y-138809580D01*
X32595239Y-138809580D02*
X32547620Y-138857200D01*
X32547620Y-138857200D02*
X32452382Y-138904819D01*
X32452382Y-138904819D02*
X32166668Y-138904819D01*
X32166668Y-138904819D02*
X32071430Y-138857200D01*
X32071430Y-138857200D02*
X32023811Y-138809580D01*
X33071430Y-138809580D02*
X33119049Y-138857200D01*
X33119049Y-138857200D02*
X33071430Y-138904819D01*
X33071430Y-138904819D02*
X33023811Y-138857200D01*
X33023811Y-138857200D02*
X33071430Y-138809580D01*
X33071430Y-138809580D02*
X33071430Y-138904819D01*
X34023810Y-137904819D02*
X33547620Y-137904819D01*
X33547620Y-137904819D02*
X33500001Y-138381009D01*
X33500001Y-138381009D02*
X33547620Y-138333390D01*
X33547620Y-138333390D02*
X33642858Y-138285771D01*
X33642858Y-138285771D02*
X33880953Y-138285771D01*
X33880953Y-138285771D02*
X33976191Y-138333390D01*
X33976191Y-138333390D02*
X34023810Y-138381009D01*
X34023810Y-138381009D02*
X34071429Y-138476247D01*
X34071429Y-138476247D02*
X34071429Y-138714342D01*
X34071429Y-138714342D02*
X34023810Y-138809580D01*
X34023810Y-138809580D02*
X33976191Y-138857200D01*
X33976191Y-138857200D02*
X33880953Y-138904819D01*
X33880953Y-138904819D02*
X33642858Y-138904819D01*
X33642858Y-138904819D02*
X33547620Y-138857200D01*
X33547620Y-138857200D02*
X33500001Y-138809580D01*
X34500001Y-138904819D02*
X34500001Y-138238152D01*
X34500001Y-138333390D02*
X34547620Y-138285771D01*
X34547620Y-138285771D02*
X34642858Y-138238152D01*
X34642858Y-138238152D02*
X34785715Y-138238152D01*
X34785715Y-138238152D02*
X34880953Y-138285771D01*
X34880953Y-138285771D02*
X34928572Y-138381009D01*
X34928572Y-138381009D02*
X34928572Y-138904819D01*
X34928572Y-138381009D02*
X34976191Y-138285771D01*
X34976191Y-138285771D02*
X35071429Y-138238152D01*
X35071429Y-138238152D02*
X35214286Y-138238152D01*
X35214286Y-138238152D02*
X35309525Y-138285771D01*
X35309525Y-138285771D02*
X35357144Y-138381009D01*
X35357144Y-138381009D02*
X35357144Y-138904819D01*
X35833334Y-138904819D02*
X35833334Y-138238152D01*
X35833334Y-138333390D02*
X35880953Y-138285771D01*
X35880953Y-138285771D02*
X35976191Y-138238152D01*
X35976191Y-138238152D02*
X36119048Y-138238152D01*
X36119048Y-138238152D02*
X36214286Y-138285771D01*
X36214286Y-138285771D02*
X36261905Y-138381009D01*
X36261905Y-138381009D02*
X36261905Y-138904819D01*
X36261905Y-138381009D02*
X36309524Y-138285771D01*
X36309524Y-138285771D02*
X36404762Y-138238152D01*
X36404762Y-138238152D02*
X36547619Y-138238152D01*
X36547619Y-138238152D02*
X36642858Y-138285771D01*
X36642858Y-138285771D02*
X36690477Y-138381009D01*
X36690477Y-138381009D02*
X36690477Y-138904819D01*
X27666666Y-134454819D02*
X27333333Y-133978628D01*
X27095238Y-134454819D02*
X27095238Y-133454819D01*
X27095238Y-133454819D02*
X27476190Y-133454819D01*
X27476190Y-133454819D02*
X27571428Y-133502438D01*
X27571428Y-133502438D02*
X27619047Y-133550057D01*
X27619047Y-133550057D02*
X27666666Y-133645295D01*
X27666666Y-133645295D02*
X27666666Y-133788152D01*
X27666666Y-133788152D02*
X27619047Y-133883390D01*
X27619047Y-133883390D02*
X27571428Y-133931009D01*
X27571428Y-133931009D02*
X27476190Y-133978628D01*
X27476190Y-133978628D02*
X27095238Y-133978628D01*
X28095238Y-133931009D02*
X28428571Y-133931009D01*
X28571428Y-134454819D02*
X28095238Y-134454819D01*
X28095238Y-134454819D02*
X28095238Y-133454819D01*
X28095238Y-133454819D02*
X28571428Y-133454819D01*
X29333333Y-133931009D02*
X29000000Y-133931009D01*
X29000000Y-134454819D02*
X29000000Y-133454819D01*
X29000000Y-133454819D02*
X29476190Y-133454819D01*
X30000000Y-133454819D02*
X30000000Y-133692914D01*
X29761905Y-133597676D02*
X30000000Y-133692914D01*
X30000000Y-133692914D02*
X30238095Y-133597676D01*
X29857143Y-133883390D02*
X30000000Y-133692914D01*
X30000000Y-133692914D02*
X30142857Y-133883390D01*
X30761905Y-133454819D02*
X30761905Y-133692914D01*
X30523810Y-133597676D02*
X30761905Y-133692914D01*
X30761905Y-133692914D02*
X31000000Y-133597676D01*
X30619048Y-133883390D02*
X30761905Y-133692914D01*
X30761905Y-133692914D02*
X30904762Y-133883390D01*
X-6190475Y-138904819D02*
X-6190475Y-137904819D01*
X-6190475Y-137904819D02*
X-5857142Y-138619104D01*
X-5857142Y-138619104D02*
X-5523809Y-137904819D01*
X-5523809Y-137904819D02*
X-5523809Y-138904819D01*
X-4904761Y-138904819D02*
X-4999999Y-138857200D01*
X-4999999Y-138857200D02*
X-5047618Y-138809580D01*
X-5047618Y-138809580D02*
X-5095237Y-138714342D01*
X-5095237Y-138714342D02*
X-5095237Y-138428628D01*
X-5095237Y-138428628D02*
X-5047618Y-138333390D01*
X-5047618Y-138333390D02*
X-4999999Y-138285771D01*
X-4999999Y-138285771D02*
X-4904761Y-138238152D01*
X-4904761Y-138238152D02*
X-4761904Y-138238152D01*
X-4761904Y-138238152D02*
X-4666666Y-138285771D01*
X-4666666Y-138285771D02*
X-4619047Y-138333390D01*
X-4619047Y-138333390D02*
X-4571428Y-138428628D01*
X-4571428Y-138428628D02*
X-4571428Y-138714342D01*
X-4571428Y-138714342D02*
X-4619047Y-138809580D01*
X-4619047Y-138809580D02*
X-4666666Y-138857200D01*
X-4666666Y-138857200D02*
X-4761904Y-138904819D01*
X-4761904Y-138904819D02*
X-4904761Y-138904819D01*
X-3714285Y-138238152D02*
X-3714285Y-138904819D01*
X-4142856Y-138238152D02*
X-4142856Y-138761961D01*
X-4142856Y-138761961D02*
X-4095237Y-138857200D01*
X-4095237Y-138857200D02*
X-3999999Y-138904819D01*
X-3999999Y-138904819D02*
X-3857142Y-138904819D01*
X-3857142Y-138904819D02*
X-3761904Y-138857200D01*
X-3761904Y-138857200D02*
X-3714285Y-138809580D01*
X-3238094Y-138238152D02*
X-3238094Y-138904819D01*
X-3238094Y-138333390D02*
X-3190475Y-138285771D01*
X-3190475Y-138285771D02*
X-3095237Y-138238152D01*
X-3095237Y-138238152D02*
X-2952380Y-138238152D01*
X-2952380Y-138238152D02*
X-2857142Y-138285771D01*
X-2857142Y-138285771D02*
X-2809523Y-138381009D01*
X-2809523Y-138381009D02*
X-2809523Y-138904819D01*
X-2476189Y-138238152D02*
X-2095237Y-138238152D01*
X-2333332Y-137904819D02*
X-2333332Y-138761961D01*
X-2333332Y-138761961D02*
X-2285713Y-138857200D01*
X-2285713Y-138857200D02*
X-2190475Y-138904819D01*
X-2190475Y-138904819D02*
X-2095237Y-138904819D01*
X-1761903Y-138904819D02*
X-1761903Y-138238152D01*
X-1761903Y-137904819D02*
X-1809522Y-137952438D01*
X-1809522Y-137952438D02*
X-1761903Y-138000057D01*
X-1761903Y-138000057D02*
X-1714284Y-137952438D01*
X-1714284Y-137952438D02*
X-1761903Y-137904819D01*
X-1761903Y-137904819D02*
X-1761903Y-138000057D01*
X-1285713Y-138238152D02*
X-1285713Y-138904819D01*
X-1285713Y-138333390D02*
X-1238094Y-138285771D01*
X-1238094Y-138285771D02*
X-1142856Y-138238152D01*
X-1142856Y-138238152D02*
X-999999Y-138238152D01*
X-999999Y-138238152D02*
X-904761Y-138285771D01*
X-904761Y-138285771D02*
X-857142Y-138381009D01*
X-857142Y-138381009D02*
X-857142Y-138904819D01*
X47619Y-138238152D02*
X47619Y-139047676D01*
X47619Y-139047676D02*
X0Y-139142914D01*
X0Y-139142914D02*
X-47618Y-139190533D01*
X-47618Y-139190533D02*
X-142856Y-139238152D01*
X-142856Y-139238152D02*
X-285713Y-139238152D01*
X-285713Y-139238152D02*
X-380951Y-139190533D01*
X47619Y-138857200D02*
X-47618Y-138904819D01*
X-47618Y-138904819D02*
X-238094Y-138904819D01*
X-238094Y-138904819D02*
X-333332Y-138857200D01*
X-333332Y-138857200D02*
X-380951Y-138809580D01*
X-380951Y-138809580D02*
X-428570Y-138714342D01*
X-428570Y-138714342D02*
X-428570Y-138428628D01*
X-428570Y-138428628D02*
X-380951Y-138333390D01*
X-380951Y-138333390D02*
X-333332Y-138285771D01*
X-333332Y-138285771D02*
X-238094Y-138238152D01*
X-238094Y-138238152D02*
X-47618Y-138238152D01*
X-47618Y-138238152D02*
X47619Y-138285771D01*
X523810Y-138904819D02*
X523810Y-137904819D01*
X523810Y-138381009D02*
X1095238Y-138381009D01*
X1095238Y-138904819D02*
X1095238Y-137904819D01*
X1714286Y-138904819D02*
X1619048Y-138857200D01*
X1619048Y-138857200D02*
X1571429Y-138809580D01*
X1571429Y-138809580D02*
X1523810Y-138714342D01*
X1523810Y-138714342D02*
X1523810Y-138428628D01*
X1523810Y-138428628D02*
X1571429Y-138333390D01*
X1571429Y-138333390D02*
X1619048Y-138285771D01*
X1619048Y-138285771D02*
X1714286Y-138238152D01*
X1714286Y-138238152D02*
X1857143Y-138238152D01*
X1857143Y-138238152D02*
X1952381Y-138285771D01*
X1952381Y-138285771D02*
X2000000Y-138333390D01*
X2000000Y-138333390D02*
X2047619Y-138428628D01*
X2047619Y-138428628D02*
X2047619Y-138714342D01*
X2047619Y-138714342D02*
X2000000Y-138809580D01*
X2000000Y-138809580D02*
X1952381Y-138857200D01*
X1952381Y-138857200D02*
X1857143Y-138904819D01*
X1857143Y-138904819D02*
X1714286Y-138904819D01*
X2619048Y-138904819D02*
X2523810Y-138857200D01*
X2523810Y-138857200D02*
X2476191Y-138761961D01*
X2476191Y-138761961D02*
X2476191Y-137904819D01*
X3380953Y-138857200D02*
X3285715Y-138904819D01*
X3285715Y-138904819D02*
X3095239Y-138904819D01*
X3095239Y-138904819D02*
X3000001Y-138857200D01*
X3000001Y-138857200D02*
X2952382Y-138761961D01*
X2952382Y-138761961D02*
X2952382Y-138381009D01*
X2952382Y-138381009D02*
X3000001Y-138285771D01*
X3000001Y-138285771D02*
X3095239Y-138238152D01*
X3095239Y-138238152D02*
X3285715Y-138238152D01*
X3285715Y-138238152D02*
X3380953Y-138285771D01*
X3380953Y-138285771D02*
X3428572Y-138381009D01*
X3428572Y-138381009D02*
X3428572Y-138476247D01*
X3428572Y-138476247D02*
X2952382Y-138571485D01*
X3619049Y-139000057D02*
X4380953Y-139000057D01*
X4523811Y-137904819D02*
X5142858Y-137904819D01*
X5142858Y-137904819D02*
X4809525Y-138285771D01*
X4809525Y-138285771D02*
X4952382Y-138285771D01*
X4952382Y-138285771D02*
X5047620Y-138333390D01*
X5047620Y-138333390D02*
X5095239Y-138381009D01*
X5095239Y-138381009D02*
X5142858Y-138476247D01*
X5142858Y-138476247D02*
X5142858Y-138714342D01*
X5142858Y-138714342D02*
X5095239Y-138809580D01*
X5095239Y-138809580D02*
X5047620Y-138857200D01*
X5047620Y-138857200D02*
X4952382Y-138904819D01*
X4952382Y-138904819D02*
X4666668Y-138904819D01*
X4666668Y-138904819D02*
X4571430Y-138857200D01*
X4571430Y-138857200D02*
X4523811Y-138809580D01*
X5571430Y-138809580D02*
X5619049Y-138857200D01*
X5619049Y-138857200D02*
X5571430Y-138904819D01*
X5571430Y-138904819D02*
X5523811Y-138857200D01*
X5523811Y-138857200D02*
X5571430Y-138809580D01*
X5571430Y-138809580D02*
X5571430Y-138904819D01*
X6523810Y-137904819D02*
X6047620Y-137904819D01*
X6047620Y-137904819D02*
X6000001Y-138381009D01*
X6000001Y-138381009D02*
X6047620Y-138333390D01*
X6047620Y-138333390D02*
X6142858Y-138285771D01*
X6142858Y-138285771D02*
X6380953Y-138285771D01*
X6380953Y-138285771D02*
X6476191Y-138333390D01*
X6476191Y-138333390D02*
X6523810Y-138381009D01*
X6523810Y-138381009D02*
X6571429Y-138476247D01*
X6571429Y-138476247D02*
X6571429Y-138714342D01*
X6571429Y-138714342D02*
X6523810Y-138809580D01*
X6523810Y-138809580D02*
X6476191Y-138857200D01*
X6476191Y-138857200D02*
X6380953Y-138904819D01*
X6380953Y-138904819D02*
X6142858Y-138904819D01*
X6142858Y-138904819D02*
X6047620Y-138857200D01*
X6047620Y-138857200D02*
X6000001Y-138809580D01*
X7000001Y-138904819D02*
X7000001Y-138238152D01*
X7000001Y-138333390D02*
X7047620Y-138285771D01*
X7047620Y-138285771D02*
X7142858Y-138238152D01*
X7142858Y-138238152D02*
X7285715Y-138238152D01*
X7285715Y-138238152D02*
X7380953Y-138285771D01*
X7380953Y-138285771D02*
X7428572Y-138381009D01*
X7428572Y-138381009D02*
X7428572Y-138904819D01*
X7428572Y-138381009D02*
X7476191Y-138285771D01*
X7476191Y-138285771D02*
X7571429Y-138238152D01*
X7571429Y-138238152D02*
X7714286Y-138238152D01*
X7714286Y-138238152D02*
X7809525Y-138285771D01*
X7809525Y-138285771D02*
X7857144Y-138381009D01*
X7857144Y-138381009D02*
X7857144Y-138904819D01*
X8333334Y-138904819D02*
X8333334Y-138238152D01*
X8333334Y-138333390D02*
X8380953Y-138285771D01*
X8380953Y-138285771D02*
X8476191Y-138238152D01*
X8476191Y-138238152D02*
X8619048Y-138238152D01*
X8619048Y-138238152D02*
X8714286Y-138285771D01*
X8714286Y-138285771D02*
X8761905Y-138381009D01*
X8761905Y-138381009D02*
X8761905Y-138904819D01*
X8761905Y-138381009D02*
X8809524Y-138285771D01*
X8809524Y-138285771D02*
X8904762Y-138238152D01*
X8904762Y-138238152D02*
X9047619Y-138238152D01*
X9047619Y-138238152D02*
X9142858Y-138285771D01*
X9142858Y-138285771D02*
X9190477Y-138381009D01*
X9190477Y-138381009D02*
X9190477Y-138904819D01*
X166666Y-134454819D02*
X-166666Y-133978628D01*
X-404761Y-134454819D02*
X-404761Y-133454819D01*
X-404761Y-133454819D02*
X-23809Y-133454819D01*
X-23809Y-133454819D02*
X71428Y-133502438D01*
X71428Y-133502438D02*
X119047Y-133550057D01*
X119047Y-133550057D02*
X166666Y-133645295D01*
X166666Y-133645295D02*
X166666Y-133788152D01*
X166666Y-133788152D02*
X119047Y-133883390D01*
X119047Y-133883390D02*
X71428Y-133931009D01*
X71428Y-133931009D02*
X-23809Y-133978628D01*
X-23809Y-133978628D02*
X-404761Y-133978628D01*
X595238Y-133931009D02*
X928571Y-133931009D01*
X1071428Y-134454819D02*
X595238Y-134454819D01*
X595238Y-134454819D02*
X595238Y-133454819D01*
X595238Y-133454819D02*
X1071428Y-133454819D01*
X1833333Y-133931009D02*
X1500000Y-133931009D01*
X1500000Y-134454819D02*
X1500000Y-133454819D01*
X1500000Y-133454819D02*
X1976190Y-133454819D01*
X2500000Y-133454819D02*
X2500000Y-133692914D01*
X2261905Y-133597676D02*
X2500000Y-133692914D01*
X2500000Y-133692914D02*
X2738095Y-133597676D01*
X2357143Y-133883390D02*
X2500000Y-133692914D01*
X2500000Y-133692914D02*
X2642857Y-133883390D01*
X3261905Y-133454819D02*
X3261905Y-133692914D01*
X3023810Y-133597676D02*
X3261905Y-133692914D01*
X3261905Y-133692914D02*
X3500000Y-133597676D01*
X3119048Y-133883390D02*
X3261905Y-133692914D01*
X3261905Y-133692914D02*
X3404762Y-133883390D01*
X21309524Y-34404819D02*
X21309524Y-33404819D01*
X21309524Y-33404819D02*
X21642857Y-34119104D01*
X21642857Y-34119104D02*
X21976190Y-33404819D01*
X21976190Y-33404819D02*
X21976190Y-34404819D01*
X22595238Y-34404819D02*
X22500000Y-34357200D01*
X22500000Y-34357200D02*
X22452381Y-34309580D01*
X22452381Y-34309580D02*
X22404762Y-34214342D01*
X22404762Y-34214342D02*
X22404762Y-33928628D01*
X22404762Y-33928628D02*
X22452381Y-33833390D01*
X22452381Y-33833390D02*
X22500000Y-33785771D01*
X22500000Y-33785771D02*
X22595238Y-33738152D01*
X22595238Y-33738152D02*
X22738095Y-33738152D01*
X22738095Y-33738152D02*
X22833333Y-33785771D01*
X22833333Y-33785771D02*
X22880952Y-33833390D01*
X22880952Y-33833390D02*
X22928571Y-33928628D01*
X22928571Y-33928628D02*
X22928571Y-34214342D01*
X22928571Y-34214342D02*
X22880952Y-34309580D01*
X22880952Y-34309580D02*
X22833333Y-34357200D01*
X22833333Y-34357200D02*
X22738095Y-34404819D01*
X22738095Y-34404819D02*
X22595238Y-34404819D01*
X23785714Y-33738152D02*
X23785714Y-34404819D01*
X23357143Y-33738152D02*
X23357143Y-34261961D01*
X23357143Y-34261961D02*
X23404762Y-34357200D01*
X23404762Y-34357200D02*
X23500000Y-34404819D01*
X23500000Y-34404819D02*
X23642857Y-34404819D01*
X23642857Y-34404819D02*
X23738095Y-34357200D01*
X23738095Y-34357200D02*
X23785714Y-34309580D01*
X24261905Y-33738152D02*
X24261905Y-34404819D01*
X24261905Y-33833390D02*
X24309524Y-33785771D01*
X24309524Y-33785771D02*
X24404762Y-33738152D01*
X24404762Y-33738152D02*
X24547619Y-33738152D01*
X24547619Y-33738152D02*
X24642857Y-33785771D01*
X24642857Y-33785771D02*
X24690476Y-33881009D01*
X24690476Y-33881009D02*
X24690476Y-34404819D01*
X25023810Y-33738152D02*
X25404762Y-33738152D01*
X25166667Y-33404819D02*
X25166667Y-34261961D01*
X25166667Y-34261961D02*
X25214286Y-34357200D01*
X25214286Y-34357200D02*
X25309524Y-34404819D01*
X25309524Y-34404819D02*
X25404762Y-34404819D01*
X25738096Y-34404819D02*
X25738096Y-33738152D01*
X25738096Y-33404819D02*
X25690477Y-33452438D01*
X25690477Y-33452438D02*
X25738096Y-33500057D01*
X25738096Y-33500057D02*
X25785715Y-33452438D01*
X25785715Y-33452438D02*
X25738096Y-33404819D01*
X25738096Y-33404819D02*
X25738096Y-33500057D01*
X26214286Y-33738152D02*
X26214286Y-34404819D01*
X26214286Y-33833390D02*
X26261905Y-33785771D01*
X26261905Y-33785771D02*
X26357143Y-33738152D01*
X26357143Y-33738152D02*
X26500000Y-33738152D01*
X26500000Y-33738152D02*
X26595238Y-33785771D01*
X26595238Y-33785771D02*
X26642857Y-33881009D01*
X26642857Y-33881009D02*
X26642857Y-34404819D01*
X27547619Y-33738152D02*
X27547619Y-34547676D01*
X27547619Y-34547676D02*
X27500000Y-34642914D01*
X27500000Y-34642914D02*
X27452381Y-34690533D01*
X27452381Y-34690533D02*
X27357143Y-34738152D01*
X27357143Y-34738152D02*
X27214286Y-34738152D01*
X27214286Y-34738152D02*
X27119048Y-34690533D01*
X27547619Y-34357200D02*
X27452381Y-34404819D01*
X27452381Y-34404819D02*
X27261905Y-34404819D01*
X27261905Y-34404819D02*
X27166667Y-34357200D01*
X27166667Y-34357200D02*
X27119048Y-34309580D01*
X27119048Y-34309580D02*
X27071429Y-34214342D01*
X27071429Y-34214342D02*
X27071429Y-33928628D01*
X27071429Y-33928628D02*
X27119048Y-33833390D01*
X27119048Y-33833390D02*
X27166667Y-33785771D01*
X27166667Y-33785771D02*
X27261905Y-33738152D01*
X27261905Y-33738152D02*
X27452381Y-33738152D01*
X27452381Y-33738152D02*
X27547619Y-33785771D01*
X28023810Y-34404819D02*
X28023810Y-33404819D01*
X28023810Y-33881009D02*
X28595238Y-33881009D01*
X28595238Y-34404819D02*
X28595238Y-33404819D01*
X29214286Y-34404819D02*
X29119048Y-34357200D01*
X29119048Y-34357200D02*
X29071429Y-34309580D01*
X29071429Y-34309580D02*
X29023810Y-34214342D01*
X29023810Y-34214342D02*
X29023810Y-33928628D01*
X29023810Y-33928628D02*
X29071429Y-33833390D01*
X29071429Y-33833390D02*
X29119048Y-33785771D01*
X29119048Y-33785771D02*
X29214286Y-33738152D01*
X29214286Y-33738152D02*
X29357143Y-33738152D01*
X29357143Y-33738152D02*
X29452381Y-33785771D01*
X29452381Y-33785771D02*
X29500000Y-33833390D01*
X29500000Y-33833390D02*
X29547619Y-33928628D01*
X29547619Y-33928628D02*
X29547619Y-34214342D01*
X29547619Y-34214342D02*
X29500000Y-34309580D01*
X29500000Y-34309580D02*
X29452381Y-34357200D01*
X29452381Y-34357200D02*
X29357143Y-34404819D01*
X29357143Y-34404819D02*
X29214286Y-34404819D01*
X30119048Y-34404819D02*
X30023810Y-34357200D01*
X30023810Y-34357200D02*
X29976191Y-34261961D01*
X29976191Y-34261961D02*
X29976191Y-33404819D01*
X30880953Y-34357200D02*
X30785715Y-34404819D01*
X30785715Y-34404819D02*
X30595239Y-34404819D01*
X30595239Y-34404819D02*
X30500001Y-34357200D01*
X30500001Y-34357200D02*
X30452382Y-34261961D01*
X30452382Y-34261961D02*
X30452382Y-33881009D01*
X30452382Y-33881009D02*
X30500001Y-33785771D01*
X30500001Y-33785771D02*
X30595239Y-33738152D01*
X30595239Y-33738152D02*
X30785715Y-33738152D01*
X30785715Y-33738152D02*
X30880953Y-33785771D01*
X30880953Y-33785771D02*
X30928572Y-33881009D01*
X30928572Y-33881009D02*
X30928572Y-33976247D01*
X30928572Y-33976247D02*
X30452382Y-34071485D01*
X31119049Y-34500057D02*
X31880953Y-34500057D01*
X32023811Y-33404819D02*
X32642858Y-33404819D01*
X32642858Y-33404819D02*
X32309525Y-33785771D01*
X32309525Y-33785771D02*
X32452382Y-33785771D01*
X32452382Y-33785771D02*
X32547620Y-33833390D01*
X32547620Y-33833390D02*
X32595239Y-33881009D01*
X32595239Y-33881009D02*
X32642858Y-33976247D01*
X32642858Y-33976247D02*
X32642858Y-34214342D01*
X32642858Y-34214342D02*
X32595239Y-34309580D01*
X32595239Y-34309580D02*
X32547620Y-34357200D01*
X32547620Y-34357200D02*
X32452382Y-34404819D01*
X32452382Y-34404819D02*
X32166668Y-34404819D01*
X32166668Y-34404819D02*
X32071430Y-34357200D01*
X32071430Y-34357200D02*
X32023811Y-34309580D01*
X33071430Y-34309580D02*
X33119049Y-34357200D01*
X33119049Y-34357200D02*
X33071430Y-34404819D01*
X33071430Y-34404819D02*
X33023811Y-34357200D01*
X33023811Y-34357200D02*
X33071430Y-34309580D01*
X33071430Y-34309580D02*
X33071430Y-34404819D01*
X34023810Y-33404819D02*
X33547620Y-33404819D01*
X33547620Y-33404819D02*
X33500001Y-33881009D01*
X33500001Y-33881009D02*
X33547620Y-33833390D01*
X33547620Y-33833390D02*
X33642858Y-33785771D01*
X33642858Y-33785771D02*
X33880953Y-33785771D01*
X33880953Y-33785771D02*
X33976191Y-33833390D01*
X33976191Y-33833390D02*
X34023810Y-33881009D01*
X34023810Y-33881009D02*
X34071429Y-33976247D01*
X34071429Y-33976247D02*
X34071429Y-34214342D01*
X34071429Y-34214342D02*
X34023810Y-34309580D01*
X34023810Y-34309580D02*
X33976191Y-34357200D01*
X33976191Y-34357200D02*
X33880953Y-34404819D01*
X33880953Y-34404819D02*
X33642858Y-34404819D01*
X33642858Y-34404819D02*
X33547620Y-34357200D01*
X33547620Y-34357200D02*
X33500001Y-34309580D01*
X34500001Y-34404819D02*
X34500001Y-33738152D01*
X34500001Y-33833390D02*
X34547620Y-33785771D01*
X34547620Y-33785771D02*
X34642858Y-33738152D01*
X34642858Y-33738152D02*
X34785715Y-33738152D01*
X34785715Y-33738152D02*
X34880953Y-33785771D01*
X34880953Y-33785771D02*
X34928572Y-33881009D01*
X34928572Y-33881009D02*
X34928572Y-34404819D01*
X34928572Y-33881009D02*
X34976191Y-33785771D01*
X34976191Y-33785771D02*
X35071429Y-33738152D01*
X35071429Y-33738152D02*
X35214286Y-33738152D01*
X35214286Y-33738152D02*
X35309525Y-33785771D01*
X35309525Y-33785771D02*
X35357144Y-33881009D01*
X35357144Y-33881009D02*
X35357144Y-34404819D01*
X35833334Y-34404819D02*
X35833334Y-33738152D01*
X35833334Y-33833390D02*
X35880953Y-33785771D01*
X35880953Y-33785771D02*
X35976191Y-33738152D01*
X35976191Y-33738152D02*
X36119048Y-33738152D01*
X36119048Y-33738152D02*
X36214286Y-33785771D01*
X36214286Y-33785771D02*
X36261905Y-33881009D01*
X36261905Y-33881009D02*
X36261905Y-34404819D01*
X36261905Y-33881009D02*
X36309524Y-33785771D01*
X36309524Y-33785771D02*
X36404762Y-33738152D01*
X36404762Y-33738152D02*
X36547619Y-33738152D01*
X36547619Y-33738152D02*
X36642858Y-33785771D01*
X36642858Y-33785771D02*
X36690477Y-33881009D01*
X36690477Y-33881009D02*
X36690477Y-34404819D01*
X27666666Y-29954819D02*
X27333333Y-29478628D01*
X27095238Y-29954819D02*
X27095238Y-28954819D01*
X27095238Y-28954819D02*
X27476190Y-28954819D01*
X27476190Y-28954819D02*
X27571428Y-29002438D01*
X27571428Y-29002438D02*
X27619047Y-29050057D01*
X27619047Y-29050057D02*
X27666666Y-29145295D01*
X27666666Y-29145295D02*
X27666666Y-29288152D01*
X27666666Y-29288152D02*
X27619047Y-29383390D01*
X27619047Y-29383390D02*
X27571428Y-29431009D01*
X27571428Y-29431009D02*
X27476190Y-29478628D01*
X27476190Y-29478628D02*
X27095238Y-29478628D01*
X28095238Y-29431009D02*
X28428571Y-29431009D01*
X28571428Y-29954819D02*
X28095238Y-29954819D01*
X28095238Y-29954819D02*
X28095238Y-28954819D01*
X28095238Y-28954819D02*
X28571428Y-28954819D01*
X29333333Y-29431009D02*
X29000000Y-29431009D01*
X29000000Y-29954819D02*
X29000000Y-28954819D01*
X29000000Y-28954819D02*
X29476190Y-28954819D01*
X30000000Y-28954819D02*
X30000000Y-29192914D01*
X29761905Y-29097676D02*
X30000000Y-29192914D01*
X30000000Y-29192914D02*
X30238095Y-29097676D01*
X29857143Y-29383390D02*
X30000000Y-29192914D01*
X30000000Y-29192914D02*
X30142857Y-29383390D01*
X30761905Y-28954819D02*
X30761905Y-29192914D01*
X30523810Y-29097676D02*
X30761905Y-29192914D01*
X30761905Y-29192914D02*
X31000000Y-29097676D01*
X30619048Y-29383390D02*
X30761905Y-29192914D01*
X30761905Y-29192914D02*
X30904762Y-29383390D01*
X-6190475Y-34404819D02*
X-6190475Y-33404819D01*
X-6190475Y-33404819D02*
X-5857142Y-34119104D01*
X-5857142Y-34119104D02*
X-5523809Y-33404819D01*
X-5523809Y-33404819D02*
X-5523809Y-34404819D01*
X-4904761Y-34404819D02*
X-4999999Y-34357200D01*
X-4999999Y-34357200D02*
X-5047618Y-34309580D01*
X-5047618Y-34309580D02*
X-5095237Y-34214342D01*
X-5095237Y-34214342D02*
X-5095237Y-33928628D01*
X-5095237Y-33928628D02*
X-5047618Y-33833390D01*
X-5047618Y-33833390D02*
X-4999999Y-33785771D01*
X-4999999Y-33785771D02*
X-4904761Y-33738152D01*
X-4904761Y-33738152D02*
X-4761904Y-33738152D01*
X-4761904Y-33738152D02*
X-4666666Y-33785771D01*
X-4666666Y-33785771D02*
X-4619047Y-33833390D01*
X-4619047Y-33833390D02*
X-4571428Y-33928628D01*
X-4571428Y-33928628D02*
X-4571428Y-34214342D01*
X-4571428Y-34214342D02*
X-4619047Y-34309580D01*
X-4619047Y-34309580D02*
X-4666666Y-34357200D01*
X-4666666Y-34357200D02*
X-4761904Y-34404819D01*
X-4761904Y-34404819D02*
X-4904761Y-34404819D01*
X-3714285Y-33738152D02*
X-3714285Y-34404819D01*
X-4142856Y-33738152D02*
X-4142856Y-34261961D01*
X-4142856Y-34261961D02*
X-4095237Y-34357200D01*
X-4095237Y-34357200D02*
X-3999999Y-34404819D01*
X-3999999Y-34404819D02*
X-3857142Y-34404819D01*
X-3857142Y-34404819D02*
X-3761904Y-34357200D01*
X-3761904Y-34357200D02*
X-3714285Y-34309580D01*
X-3238094Y-33738152D02*
X-3238094Y-34404819D01*
X-3238094Y-33833390D02*
X-3190475Y-33785771D01*
X-3190475Y-33785771D02*
X-3095237Y-33738152D01*
X-3095237Y-33738152D02*
X-2952380Y-33738152D01*
X-2952380Y-33738152D02*
X-2857142Y-33785771D01*
X-2857142Y-33785771D02*
X-2809523Y-33881009D01*
X-2809523Y-33881009D02*
X-2809523Y-34404819D01*
X-2476189Y-33738152D02*
X-2095237Y-33738152D01*
X-2333332Y-33404819D02*
X-2333332Y-34261961D01*
X-2333332Y-34261961D02*
X-2285713Y-34357200D01*
X-2285713Y-34357200D02*
X-2190475Y-34404819D01*
X-2190475Y-34404819D02*
X-2095237Y-34404819D01*
X-1761903Y-34404819D02*
X-1761903Y-33738152D01*
X-1761903Y-33404819D02*
X-1809522Y-33452438D01*
X-1809522Y-33452438D02*
X-1761903Y-33500057D01*
X-1761903Y-33500057D02*
X-1714284Y-33452438D01*
X-1714284Y-33452438D02*
X-1761903Y-33404819D01*
X-1761903Y-33404819D02*
X-1761903Y-33500057D01*
X-1285713Y-33738152D02*
X-1285713Y-34404819D01*
X-1285713Y-33833390D02*
X-1238094Y-33785771D01*
X-1238094Y-33785771D02*
X-1142856Y-33738152D01*
X-1142856Y-33738152D02*
X-999999Y-33738152D01*
X-999999Y-33738152D02*
X-904761Y-33785771D01*
X-904761Y-33785771D02*
X-857142Y-33881009D01*
X-857142Y-33881009D02*
X-857142Y-34404819D01*
X47619Y-33738152D02*
X47619Y-34547676D01*
X47619Y-34547676D02*
X0Y-34642914D01*
X0Y-34642914D02*
X-47618Y-34690533D01*
X-47618Y-34690533D02*
X-142856Y-34738152D01*
X-142856Y-34738152D02*
X-285713Y-34738152D01*
X-285713Y-34738152D02*
X-380951Y-34690533D01*
X47619Y-34357200D02*
X-47618Y-34404819D01*
X-47618Y-34404819D02*
X-238094Y-34404819D01*
X-238094Y-34404819D02*
X-333332Y-34357200D01*
X-333332Y-34357200D02*
X-380951Y-34309580D01*
X-380951Y-34309580D02*
X-428570Y-34214342D01*
X-428570Y-34214342D02*
X-428570Y-33928628D01*
X-428570Y-33928628D02*
X-380951Y-33833390D01*
X-380951Y-33833390D02*
X-333332Y-33785771D01*
X-333332Y-33785771D02*
X-238094Y-33738152D01*
X-238094Y-33738152D02*
X-47618Y-33738152D01*
X-47618Y-33738152D02*
X47619Y-33785771D01*
X523810Y-34404819D02*
X523810Y-33404819D01*
X523810Y-33881009D02*
X1095238Y-33881009D01*
X1095238Y-34404819D02*
X1095238Y-33404819D01*
X1714286Y-34404819D02*
X1619048Y-34357200D01*
X1619048Y-34357200D02*
X1571429Y-34309580D01*
X1571429Y-34309580D02*
X1523810Y-34214342D01*
X1523810Y-34214342D02*
X1523810Y-33928628D01*
X1523810Y-33928628D02*
X1571429Y-33833390D01*
X1571429Y-33833390D02*
X1619048Y-33785771D01*
X1619048Y-33785771D02*
X1714286Y-33738152D01*
X1714286Y-33738152D02*
X1857143Y-33738152D01*
X1857143Y-33738152D02*
X1952381Y-33785771D01*
X1952381Y-33785771D02*
X2000000Y-33833390D01*
X2000000Y-33833390D02*
X2047619Y-33928628D01*
X2047619Y-33928628D02*
X2047619Y-34214342D01*
X2047619Y-34214342D02*
X2000000Y-34309580D01*
X2000000Y-34309580D02*
X1952381Y-34357200D01*
X1952381Y-34357200D02*
X1857143Y-34404819D01*
X1857143Y-34404819D02*
X1714286Y-34404819D01*
X2619048Y-34404819D02*
X2523810Y-34357200D01*
X2523810Y-34357200D02*
X2476191Y-34261961D01*
X2476191Y-34261961D02*
X2476191Y-33404819D01*
X3380953Y-34357200D02*
X3285715Y-34404819D01*
X3285715Y-34404819D02*
X3095239Y-34404819D01*
X3095239Y-34404819D02*
X3000001Y-34357200D01*
X3000001Y-34357200D02*
X2952382Y-34261961D01*
X2952382Y-34261961D02*
X2952382Y-33881009D01*
X2952382Y-33881009D02*
X3000001Y-33785771D01*
X3000001Y-33785771D02*
X3095239Y-33738152D01*
X3095239Y-33738152D02*
X3285715Y-33738152D01*
X3285715Y-33738152D02*
X3380953Y-33785771D01*
X3380953Y-33785771D02*
X3428572Y-33881009D01*
X3428572Y-33881009D02*
X3428572Y-33976247D01*
X3428572Y-33976247D02*
X2952382Y-34071485D01*
X3619049Y-34500057D02*
X4380953Y-34500057D01*
X4523811Y-33404819D02*
X5142858Y-33404819D01*
X5142858Y-33404819D02*
X4809525Y-33785771D01*
X4809525Y-33785771D02*
X4952382Y-33785771D01*
X4952382Y-33785771D02*
X5047620Y-33833390D01*
X5047620Y-33833390D02*
X5095239Y-33881009D01*
X5095239Y-33881009D02*
X5142858Y-33976247D01*
X5142858Y-33976247D02*
X5142858Y-34214342D01*
X5142858Y-34214342D02*
X5095239Y-34309580D01*
X5095239Y-34309580D02*
X5047620Y-34357200D01*
X5047620Y-34357200D02*
X4952382Y-34404819D01*
X4952382Y-34404819D02*
X4666668Y-34404819D01*
X4666668Y-34404819D02*
X4571430Y-34357200D01*
X4571430Y-34357200D02*
X4523811Y-34309580D01*
X5571430Y-34309580D02*
X5619049Y-34357200D01*
X5619049Y-34357200D02*
X5571430Y-34404819D01*
X5571430Y-34404819D02*
X5523811Y-34357200D01*
X5523811Y-34357200D02*
X5571430Y-34309580D01*
X5571430Y-34309580D02*
X5571430Y-34404819D01*
X6523810Y-33404819D02*
X6047620Y-33404819D01*
X6047620Y-33404819D02*
X6000001Y-33881009D01*
X6000001Y-33881009D02*
X6047620Y-33833390D01*
X6047620Y-33833390D02*
X6142858Y-33785771D01*
X6142858Y-33785771D02*
X6380953Y-33785771D01*
X6380953Y-33785771D02*
X6476191Y-33833390D01*
X6476191Y-33833390D02*
X6523810Y-33881009D01*
X6523810Y-33881009D02*
X6571429Y-33976247D01*
X6571429Y-33976247D02*
X6571429Y-34214342D01*
X6571429Y-34214342D02*
X6523810Y-34309580D01*
X6523810Y-34309580D02*
X6476191Y-34357200D01*
X6476191Y-34357200D02*
X6380953Y-34404819D01*
X6380953Y-34404819D02*
X6142858Y-34404819D01*
X6142858Y-34404819D02*
X6047620Y-34357200D01*
X6047620Y-34357200D02*
X6000001Y-34309580D01*
X7000001Y-34404819D02*
X7000001Y-33738152D01*
X7000001Y-33833390D02*
X7047620Y-33785771D01*
X7047620Y-33785771D02*
X7142858Y-33738152D01*
X7142858Y-33738152D02*
X7285715Y-33738152D01*
X7285715Y-33738152D02*
X7380953Y-33785771D01*
X7380953Y-33785771D02*
X7428572Y-33881009D01*
X7428572Y-33881009D02*
X7428572Y-34404819D01*
X7428572Y-33881009D02*
X7476191Y-33785771D01*
X7476191Y-33785771D02*
X7571429Y-33738152D01*
X7571429Y-33738152D02*
X7714286Y-33738152D01*
X7714286Y-33738152D02*
X7809525Y-33785771D01*
X7809525Y-33785771D02*
X7857144Y-33881009D01*
X7857144Y-33881009D02*
X7857144Y-34404819D01*
X8333334Y-34404819D02*
X8333334Y-33738152D01*
X8333334Y-33833390D02*
X8380953Y-33785771D01*
X8380953Y-33785771D02*
X8476191Y-33738152D01*
X8476191Y-33738152D02*
X8619048Y-33738152D01*
X8619048Y-33738152D02*
X8714286Y-33785771D01*
X8714286Y-33785771D02*
X8761905Y-33881009D01*
X8761905Y-33881009D02*
X8761905Y-34404819D01*
X8761905Y-33881009D02*
X8809524Y-33785771D01*
X8809524Y-33785771D02*
X8904762Y-33738152D01*
X8904762Y-33738152D02*
X9047619Y-33738152D01*
X9047619Y-33738152D02*
X9142858Y-33785771D01*
X9142858Y-33785771D02*
X9190477Y-33881009D01*
X9190477Y-33881009D02*
X9190477Y-34404819D01*
X-499999Y-43139461D02*
X-999999Y-29091842D01*
X-1357142Y-43139461D02*
X-1357142Y-13639461D01*
X-1357142Y-13639461D02*
X-785713Y-13639461D01*
X-785713Y-13639461D02*
X-642856Y-15044223D01*
X-642856Y-15044223D02*
X-571427Y-16448985D01*
X-571427Y-16448985D02*
X-499999Y-19258509D01*
X-499999Y-19258509D02*
X-499999Y-23472795D01*
X-499999Y-23472795D02*
X-571427Y-26282319D01*
X-571427Y-26282319D02*
X-642856Y-27687080D01*
X-642856Y-27687080D02*
X-785713Y-29091842D01*
X-785713Y-29091842D02*
X-1357142Y-29091842D01*
X142857Y-27687080D02*
X642857Y-27687080D01*
X857143Y-43139461D02*
X142857Y-43139461D01*
X142857Y-43139461D02*
X142857Y-13639461D01*
X142857Y-13639461D02*
X857143Y-13639461D01*
X2000000Y-27687080D02*
X1500000Y-27687080D01*
X1500000Y-43139461D02*
X1500000Y-13639461D01*
X1500000Y-13639461D02*
X2214286Y-13639461D01*
X3000000Y-13639461D02*
X3000000Y-20663271D01*
X2642857Y-17853747D02*
X3000000Y-20663271D01*
X3000000Y-20663271D02*
X3357143Y-17853747D01*
X2785714Y-26282319D02*
X3000000Y-20663271D01*
X3000000Y-20663271D02*
X3214286Y-26282319D01*
X4142857Y-13639461D02*
X4142857Y-20663271D01*
X3785714Y-17853747D02*
X4142857Y-20663271D01*
X4142857Y-20663271D02*
X4500000Y-17853747D01*
X3928571Y-26282319D02*
X4142857Y-20663271D01*
X4142857Y-20663271D02*
X4357143Y-26282319D01*
X17469048Y-111454819D02*
X18040476Y-111454819D01*
X17754762Y-112454819D02*
X17754762Y-111454819D01*
X18278572Y-111454819D02*
X18516667Y-112454819D01*
X18516667Y-112454819D02*
X18707143Y-111740533D01*
X18707143Y-111740533D02*
X18897619Y-112454819D01*
X18897619Y-112454819D02*
X19135715Y-111454819D01*
X19707143Y-111454819D02*
X19897619Y-111454819D01*
X19897619Y-111454819D02*
X19992857Y-111502438D01*
X19992857Y-111502438D02*
X20088095Y-111597676D01*
X20088095Y-111597676D02*
X20135714Y-111788152D01*
X20135714Y-111788152D02*
X20135714Y-112121485D01*
X20135714Y-112121485D02*
X20088095Y-112311961D01*
X20088095Y-112311961D02*
X19992857Y-112407200D01*
X19992857Y-112407200D02*
X19897619Y-112454819D01*
X19897619Y-112454819D02*
X19707143Y-112454819D01*
X19707143Y-112454819D02*
X19611905Y-112407200D01*
X19611905Y-112407200D02*
X19516667Y-112311961D01*
X19516667Y-112311961D02*
X19469048Y-112121485D01*
X19469048Y-112121485D02*
X19469048Y-111788152D01*
X19469048Y-111788152D02*
X19516667Y-111597676D01*
X19516667Y-111597676D02*
X19611905Y-111502438D01*
X19611905Y-111502438D02*
X19707143Y-111454819D01*
X14850000Y-113907200D02*
X14992857Y-113954819D01*
X14992857Y-113954819D02*
X15230952Y-113954819D01*
X15230952Y-113954819D02*
X15326190Y-113907200D01*
X15326190Y-113907200D02*
X15373809Y-113859580D01*
X15373809Y-113859580D02*
X15421428Y-113764342D01*
X15421428Y-113764342D02*
X15421428Y-113669104D01*
X15421428Y-113669104D02*
X15373809Y-113573866D01*
X15373809Y-113573866D02*
X15326190Y-113526247D01*
X15326190Y-113526247D02*
X15230952Y-113478628D01*
X15230952Y-113478628D02*
X15040476Y-113431009D01*
X15040476Y-113431009D02*
X14945238Y-113383390D01*
X14945238Y-113383390D02*
X14897619Y-113335771D01*
X14897619Y-113335771D02*
X14850000Y-113240533D01*
X14850000Y-113240533D02*
X14850000Y-113145295D01*
X14850000Y-113145295D02*
X14897619Y-113050057D01*
X14897619Y-113050057D02*
X14945238Y-113002438D01*
X14945238Y-113002438D02*
X15040476Y-112954819D01*
X15040476Y-112954819D02*
X15278571Y-112954819D01*
X15278571Y-112954819D02*
X15421428Y-113002438D01*
X15754762Y-112954819D02*
X15992857Y-113954819D01*
X15992857Y-113954819D02*
X16183333Y-113240533D01*
X16183333Y-113240533D02*
X16373809Y-113954819D01*
X16373809Y-113954819D02*
X16611905Y-112954819D01*
X16754762Y-114050057D02*
X17516666Y-114050057D01*
X17754762Y-113954819D02*
X17754762Y-112954819D01*
X17754762Y-112954819D02*
X18135714Y-112954819D01*
X18135714Y-112954819D02*
X18230952Y-113002438D01*
X18230952Y-113002438D02*
X18278571Y-113050057D01*
X18278571Y-113050057D02*
X18326190Y-113145295D01*
X18326190Y-113145295D02*
X18326190Y-113288152D01*
X18326190Y-113288152D02*
X18278571Y-113383390D01*
X18278571Y-113383390D02*
X18230952Y-113431009D01*
X18230952Y-113431009D02*
X18135714Y-113478628D01*
X18135714Y-113478628D02*
X17754762Y-113478628D01*
X19183333Y-113288152D02*
X19183333Y-113954819D01*
X18754762Y-113288152D02*
X18754762Y-113811961D01*
X18754762Y-113811961D02*
X18802381Y-113907200D01*
X18802381Y-113907200D02*
X18897619Y-113954819D01*
X18897619Y-113954819D02*
X19040476Y-113954819D01*
X19040476Y-113954819D02*
X19135714Y-113907200D01*
X19135714Y-113907200D02*
X19183333Y-113859580D01*
X19611905Y-113907200D02*
X19707143Y-113954819D01*
X19707143Y-113954819D02*
X19897619Y-113954819D01*
X19897619Y-113954819D02*
X19992857Y-113907200D01*
X19992857Y-113907200D02*
X20040476Y-113811961D01*
X20040476Y-113811961D02*
X20040476Y-113764342D01*
X20040476Y-113764342D02*
X19992857Y-113669104D01*
X19992857Y-113669104D02*
X19897619Y-113621485D01*
X19897619Y-113621485D02*
X19754762Y-113621485D01*
X19754762Y-113621485D02*
X19659524Y-113573866D01*
X19659524Y-113573866D02*
X19611905Y-113478628D01*
X19611905Y-113478628D02*
X19611905Y-113431009D01*
X19611905Y-113431009D02*
X19659524Y-113335771D01*
X19659524Y-113335771D02*
X19754762Y-113288152D01*
X19754762Y-113288152D02*
X19897619Y-113288152D01*
X19897619Y-113288152D02*
X19992857Y-113335771D01*
X20469048Y-113954819D02*
X20469048Y-112954819D01*
X20897619Y-113954819D02*
X20897619Y-113431009D01*
X20897619Y-113431009D02*
X20850000Y-113335771D01*
X20850000Y-113335771D02*
X20754762Y-113288152D01*
X20754762Y-113288152D02*
X20611905Y-113288152D01*
X20611905Y-113288152D02*
X20516667Y-113335771D01*
X20516667Y-113335771D02*
X20469048Y-113383390D01*
X21897619Y-113954819D02*
X21326191Y-113954819D01*
X21611905Y-113954819D02*
X21611905Y-112954819D01*
X21611905Y-112954819D02*
X21516667Y-113097676D01*
X21516667Y-113097676D02*
X21421429Y-113192914D01*
X21421429Y-113192914D02*
X21326191Y-113240533D01*
X22850000Y-113954819D02*
X22278572Y-113954819D01*
X22564286Y-113954819D02*
X22564286Y-112954819D01*
X22564286Y-112954819D02*
X22469048Y-113097676D01*
X22469048Y-113097676D02*
X22373810Y-113192914D01*
X22373810Y-113192914D02*
X22278572Y-113240533D01*
X14428571Y-101454819D02*
X14619047Y-101454819D01*
X14619047Y-101454819D02*
X14714285Y-101502438D01*
X14714285Y-101502438D02*
X14809523Y-101597676D01*
X14809523Y-101597676D02*
X14857142Y-101788152D01*
X14857142Y-101788152D02*
X14857142Y-102121485D01*
X14857142Y-102121485D02*
X14809523Y-102311961D01*
X14809523Y-102311961D02*
X14714285Y-102407200D01*
X14714285Y-102407200D02*
X14619047Y-102454819D01*
X14619047Y-102454819D02*
X14428571Y-102454819D01*
X14428571Y-102454819D02*
X14333333Y-102407200D01*
X14333333Y-102407200D02*
X14238095Y-102311961D01*
X14238095Y-102311961D02*
X14190476Y-102121485D01*
X14190476Y-102121485D02*
X14190476Y-101788152D01*
X14190476Y-101788152D02*
X14238095Y-101597676D01*
X14238095Y-101597676D02*
X14333333Y-101502438D01*
X14333333Y-101502438D02*
X14428571Y-101454819D01*
X15285714Y-102454819D02*
X15285714Y-101454819D01*
X15285714Y-101454819D02*
X15857142Y-102454819D01*
X15857142Y-102454819D02*
X15857142Y-101454819D01*
X16333333Y-101931009D02*
X16666666Y-101931009D01*
X16809523Y-102454819D02*
X16333333Y-102454819D01*
X16333333Y-102454819D02*
X16333333Y-101454819D01*
X16333333Y-101454819D02*
X16809523Y-101454819D01*
X12000000Y-100907200D02*
X12142857Y-100954819D01*
X12142857Y-100954819D02*
X12380952Y-100954819D01*
X12380952Y-100954819D02*
X12476190Y-100907200D01*
X12476190Y-100907200D02*
X12523809Y-100859580D01*
X12523809Y-100859580D02*
X12571428Y-100764342D01*
X12571428Y-100764342D02*
X12571428Y-100669104D01*
X12571428Y-100669104D02*
X12523809Y-100573866D01*
X12523809Y-100573866D02*
X12476190Y-100526247D01*
X12476190Y-100526247D02*
X12380952Y-100478628D01*
X12380952Y-100478628D02*
X12190476Y-100431009D01*
X12190476Y-100431009D02*
X12095238Y-100383390D01*
X12095238Y-100383390D02*
X12047619Y-100335771D01*
X12047619Y-100335771D02*
X12000000Y-100240533D01*
X12000000Y-100240533D02*
X12000000Y-100145295D01*
X12000000Y-100145295D02*
X12047619Y-100050057D01*
X12047619Y-100050057D02*
X12095238Y-100002438D01*
X12095238Y-100002438D02*
X12190476Y-99954819D01*
X12190476Y-99954819D02*
X12428571Y-99954819D01*
X12428571Y-99954819D02*
X12571428Y-100002438D01*
X12904762Y-99954819D02*
X13142857Y-100954819D01*
X13142857Y-100954819D02*
X13333333Y-100240533D01*
X13333333Y-100240533D02*
X13523809Y-100954819D01*
X13523809Y-100954819D02*
X13761905Y-99954819D01*
X13904762Y-101050057D02*
X14666666Y-101050057D01*
X14904762Y-100954819D02*
X14904762Y-99954819D01*
X14904762Y-99954819D02*
X15285714Y-99954819D01*
X15285714Y-99954819D02*
X15380952Y-100002438D01*
X15380952Y-100002438D02*
X15428571Y-100050057D01*
X15428571Y-100050057D02*
X15476190Y-100145295D01*
X15476190Y-100145295D02*
X15476190Y-100288152D01*
X15476190Y-100288152D02*
X15428571Y-100383390D01*
X15428571Y-100383390D02*
X15380952Y-100431009D01*
X15380952Y-100431009D02*
X15285714Y-100478628D01*
X15285714Y-100478628D02*
X14904762Y-100478628D01*
X16333333Y-100288152D02*
X16333333Y-100954819D01*
X15904762Y-100288152D02*
X15904762Y-100811961D01*
X15904762Y-100811961D02*
X15952381Y-100907200D01*
X15952381Y-100907200D02*
X16047619Y-100954819D01*
X16047619Y-100954819D02*
X16190476Y-100954819D01*
X16190476Y-100954819D02*
X16285714Y-100907200D01*
X16285714Y-100907200D02*
X16333333Y-100859580D01*
X16761905Y-100907200D02*
X16857143Y-100954819D01*
X16857143Y-100954819D02*
X17047619Y-100954819D01*
X17047619Y-100954819D02*
X17142857Y-100907200D01*
X17142857Y-100907200D02*
X17190476Y-100811961D01*
X17190476Y-100811961D02*
X17190476Y-100764342D01*
X17190476Y-100764342D02*
X17142857Y-100669104D01*
X17142857Y-100669104D02*
X17047619Y-100621485D01*
X17047619Y-100621485D02*
X16904762Y-100621485D01*
X16904762Y-100621485D02*
X16809524Y-100573866D01*
X16809524Y-100573866D02*
X16761905Y-100478628D01*
X16761905Y-100478628D02*
X16761905Y-100431009D01*
X16761905Y-100431009D02*
X16809524Y-100335771D01*
X16809524Y-100335771D02*
X16904762Y-100288152D01*
X16904762Y-100288152D02*
X17047619Y-100288152D01*
X17047619Y-100288152D02*
X17142857Y-100335771D01*
X17619048Y-100954819D02*
X17619048Y-99954819D01*
X18047619Y-100954819D02*
X18047619Y-100431009D01*
X18047619Y-100431009D02*
X18000000Y-100335771D01*
X18000000Y-100335771D02*
X17904762Y-100288152D01*
X17904762Y-100288152D02*
X17761905Y-100288152D01*
X17761905Y-100288152D02*
X17666667Y-100335771D01*
X17666667Y-100335771D02*
X17619048Y-100383390D01*
X19047619Y-100954819D02*
X18476191Y-100954819D01*
X18761905Y-100954819D02*
X18761905Y-99954819D01*
X18761905Y-99954819D02*
X18666667Y-100097676D01*
X18666667Y-100097676D02*
X18571429Y-100192914D01*
X18571429Y-100192914D02*
X18476191Y-100240533D01*
X19666667Y-99954819D02*
X19761905Y-99954819D01*
X19761905Y-99954819D02*
X19857143Y-100002438D01*
X19857143Y-100002438D02*
X19904762Y-100050057D01*
X19904762Y-100050057D02*
X19952381Y-100145295D01*
X19952381Y-100145295D02*
X20000000Y-100335771D01*
X20000000Y-100335771D02*
X20000000Y-100573866D01*
X20000000Y-100573866D02*
X19952381Y-100764342D01*
X19952381Y-100764342D02*
X19904762Y-100859580D01*
X19904762Y-100859580D02*
X19857143Y-100907200D01*
X19857143Y-100907200D02*
X19761905Y-100954819D01*
X19761905Y-100954819D02*
X19666667Y-100954819D01*
X19666667Y-100954819D02*
X19571429Y-100907200D01*
X19571429Y-100907200D02*
X19523810Y-100859580D01*
X19523810Y-100859580D02*
X19476191Y-100764342D01*
X19476191Y-100764342D02*
X19428572Y-100573866D01*
X19428572Y-100573866D02*
X19428572Y-100335771D01*
X19428572Y-100335771D02*
X19476191Y-100145295D01*
X19476191Y-100145295D02*
X19523810Y-100050057D01*
X19523810Y-100050057D02*
X19571429Y-100002438D01*
X19571429Y-100002438D02*
X19666667Y-99954819D01*
X10397618Y-14954819D02*
X9921428Y-14954819D01*
X9921428Y-14954819D02*
X9921428Y-13954819D01*
X10730952Y-14431009D02*
X11064285Y-14431009D01*
X11207142Y-14954819D02*
X10730952Y-14954819D01*
X10730952Y-14954819D02*
X10730952Y-13954819D01*
X10730952Y-13954819D02*
X11207142Y-13954819D01*
X11969047Y-14431009D02*
X11635714Y-14431009D01*
X11635714Y-14954819D02*
X11635714Y-13954819D01*
X11635714Y-13954819D02*
X12111904Y-13954819D01*
X12350000Y-13954819D02*
X12921428Y-13954819D01*
X12635714Y-14954819D02*
X12635714Y-13954819D01*
X7826190Y-16407200D02*
X7969047Y-16454819D01*
X7969047Y-16454819D02*
X8207142Y-16454819D01*
X8207142Y-16454819D02*
X8302380Y-16407200D01*
X8302380Y-16407200D02*
X8349999Y-16359580D01*
X8349999Y-16359580D02*
X8397618Y-16264342D01*
X8397618Y-16264342D02*
X8397618Y-16169104D01*
X8397618Y-16169104D02*
X8349999Y-16073866D01*
X8349999Y-16073866D02*
X8302380Y-16026247D01*
X8302380Y-16026247D02*
X8207142Y-15978628D01*
X8207142Y-15978628D02*
X8016666Y-15931009D01*
X8016666Y-15931009D02*
X7921428Y-15883390D01*
X7921428Y-15883390D02*
X7873809Y-15835771D01*
X7873809Y-15835771D02*
X7826190Y-15740533D01*
X7826190Y-15740533D02*
X7826190Y-15645295D01*
X7826190Y-15645295D02*
X7873809Y-15550057D01*
X7873809Y-15550057D02*
X7921428Y-15502438D01*
X7921428Y-15502438D02*
X8016666Y-15454819D01*
X8016666Y-15454819D02*
X8254761Y-15454819D01*
X8254761Y-15454819D02*
X8397618Y-15502438D01*
X8730952Y-15454819D02*
X8969047Y-16454819D01*
X8969047Y-16454819D02*
X9159523Y-15740533D01*
X9159523Y-15740533D02*
X9349999Y-16454819D01*
X9349999Y-16454819D02*
X9588095Y-15454819D01*
X9730952Y-16550057D02*
X10492856Y-16550057D01*
X10730952Y-16454819D02*
X10730952Y-15454819D01*
X10730952Y-15454819D02*
X11111904Y-15454819D01*
X11111904Y-15454819D02*
X11207142Y-15502438D01*
X11207142Y-15502438D02*
X11254761Y-15550057D01*
X11254761Y-15550057D02*
X11302380Y-15645295D01*
X11302380Y-15645295D02*
X11302380Y-15788152D01*
X11302380Y-15788152D02*
X11254761Y-15883390D01*
X11254761Y-15883390D02*
X11207142Y-15931009D01*
X11207142Y-15931009D02*
X11111904Y-15978628D01*
X11111904Y-15978628D02*
X10730952Y-15978628D01*
X12159523Y-15788152D02*
X12159523Y-16454819D01*
X11730952Y-15788152D02*
X11730952Y-16311961D01*
X11730952Y-16311961D02*
X11778571Y-16407200D01*
X11778571Y-16407200D02*
X11873809Y-16454819D01*
X11873809Y-16454819D02*
X12016666Y-16454819D01*
X12016666Y-16454819D02*
X12111904Y-16407200D01*
X12111904Y-16407200D02*
X12159523Y-16359580D01*
X12588095Y-16407200D02*
X12683333Y-16454819D01*
X12683333Y-16454819D02*
X12873809Y-16454819D01*
X12873809Y-16454819D02*
X12969047Y-16407200D01*
X12969047Y-16407200D02*
X13016666Y-16311961D01*
X13016666Y-16311961D02*
X13016666Y-16264342D01*
X13016666Y-16264342D02*
X12969047Y-16169104D01*
X12969047Y-16169104D02*
X12873809Y-16121485D01*
X12873809Y-16121485D02*
X12730952Y-16121485D01*
X12730952Y-16121485D02*
X12635714Y-16073866D01*
X12635714Y-16073866D02*
X12588095Y-15978628D01*
X12588095Y-15978628D02*
X12588095Y-15931009D01*
X12588095Y-15931009D02*
X12635714Y-15835771D01*
X12635714Y-15835771D02*
X12730952Y-15788152D01*
X12730952Y-15788152D02*
X12873809Y-15788152D01*
X12873809Y-15788152D02*
X12969047Y-15835771D01*
X13445238Y-16454819D02*
X13445238Y-15454819D01*
X13873809Y-16454819D02*
X13873809Y-15931009D01*
X13873809Y-15931009D02*
X13826190Y-15835771D01*
X13826190Y-15835771D02*
X13730952Y-15788152D01*
X13730952Y-15788152D02*
X13588095Y-15788152D01*
X13588095Y-15788152D02*
X13492857Y-15835771D01*
X13492857Y-15835771D02*
X13445238Y-15883390D01*
X14254762Y-15454819D02*
X14921428Y-15454819D01*
X14921428Y-15454819D02*
X14492857Y-16454819D01*
X25016666Y-14954819D02*
X24683333Y-14478628D01*
X24445238Y-14954819D02*
X24445238Y-13954819D01*
X24445238Y-13954819D02*
X24826190Y-13954819D01*
X24826190Y-13954819D02*
X24921428Y-14002438D01*
X24921428Y-14002438D02*
X24969047Y-14050057D01*
X24969047Y-14050057D02*
X25016666Y-14145295D01*
X25016666Y-14145295D02*
X25016666Y-14288152D01*
X25016666Y-14288152D02*
X24969047Y-14383390D01*
X24969047Y-14383390D02*
X24921428Y-14431009D01*
X24921428Y-14431009D02*
X24826190Y-14478628D01*
X24826190Y-14478628D02*
X24445238Y-14478628D01*
X25445238Y-14954819D02*
X25445238Y-13954819D01*
X26445237Y-14002438D02*
X26349999Y-13954819D01*
X26349999Y-13954819D02*
X26207142Y-13954819D01*
X26207142Y-13954819D02*
X26064285Y-14002438D01*
X26064285Y-14002438D02*
X25969047Y-14097676D01*
X25969047Y-14097676D02*
X25921428Y-14192914D01*
X25921428Y-14192914D02*
X25873809Y-14383390D01*
X25873809Y-14383390D02*
X25873809Y-14526247D01*
X25873809Y-14526247D02*
X25921428Y-14716723D01*
X25921428Y-14716723D02*
X25969047Y-14811961D01*
X25969047Y-14811961D02*
X26064285Y-14907200D01*
X26064285Y-14907200D02*
X26207142Y-14954819D01*
X26207142Y-14954819D02*
X26302380Y-14954819D01*
X26302380Y-14954819D02*
X26445237Y-14907200D01*
X26445237Y-14907200D02*
X26492856Y-14859580D01*
X26492856Y-14859580D02*
X26492856Y-14526247D01*
X26492856Y-14526247D02*
X26302380Y-14526247D01*
X26921428Y-14954819D02*
X26921428Y-13954819D01*
X26921428Y-14431009D02*
X27492856Y-14431009D01*
X27492856Y-14954819D02*
X27492856Y-13954819D01*
X27826190Y-13954819D02*
X28397618Y-13954819D01*
X28111904Y-14954819D02*
X28111904Y-13954819D01*
X22826190Y-16407200D02*
X22969047Y-16454819D01*
X22969047Y-16454819D02*
X23207142Y-16454819D01*
X23207142Y-16454819D02*
X23302380Y-16407200D01*
X23302380Y-16407200D02*
X23349999Y-16359580D01*
X23349999Y-16359580D02*
X23397618Y-16264342D01*
X23397618Y-16264342D02*
X23397618Y-16169104D01*
X23397618Y-16169104D02*
X23349999Y-16073866D01*
X23349999Y-16073866D02*
X23302380Y-16026247D01*
X23302380Y-16026247D02*
X23207142Y-15978628D01*
X23207142Y-15978628D02*
X23016666Y-15931009D01*
X23016666Y-15931009D02*
X22921428Y-15883390D01*
X22921428Y-15883390D02*
X22873809Y-15835771D01*
X22873809Y-15835771D02*
X22826190Y-15740533D01*
X22826190Y-15740533D02*
X22826190Y-15645295D01*
X22826190Y-15645295D02*
X22873809Y-15550057D01*
X22873809Y-15550057D02*
X22921428Y-15502438D01*
X22921428Y-15502438D02*
X23016666Y-15454819D01*
X23016666Y-15454819D02*
X23254761Y-15454819D01*
X23254761Y-15454819D02*
X23397618Y-15502438D01*
X23730952Y-15454819D02*
X23969047Y-16454819D01*
X23969047Y-16454819D02*
X24159523Y-15740533D01*
X24159523Y-15740533D02*
X24349999Y-16454819D01*
X24349999Y-16454819D02*
X24588095Y-15454819D01*
X24730952Y-16550057D02*
X25492856Y-16550057D01*
X25730952Y-16454819D02*
X25730952Y-15454819D01*
X25730952Y-15454819D02*
X26111904Y-15454819D01*
X26111904Y-15454819D02*
X26207142Y-15502438D01*
X26207142Y-15502438D02*
X26254761Y-15550057D01*
X26254761Y-15550057D02*
X26302380Y-15645295D01*
X26302380Y-15645295D02*
X26302380Y-15788152D01*
X26302380Y-15788152D02*
X26254761Y-15883390D01*
X26254761Y-15883390D02*
X26207142Y-15931009D01*
X26207142Y-15931009D02*
X26111904Y-15978628D01*
X26111904Y-15978628D02*
X25730952Y-15978628D01*
X27159523Y-15788152D02*
X27159523Y-16454819D01*
X26730952Y-15788152D02*
X26730952Y-16311961D01*
X26730952Y-16311961D02*
X26778571Y-16407200D01*
X26778571Y-16407200D02*
X26873809Y-16454819D01*
X26873809Y-16454819D02*
X27016666Y-16454819D01*
X27016666Y-16454819D02*
X27111904Y-16407200D01*
X27111904Y-16407200D02*
X27159523Y-16359580D01*
X27588095Y-16407200D02*
X27683333Y-16454819D01*
X27683333Y-16454819D02*
X27873809Y-16454819D01*
X27873809Y-16454819D02*
X27969047Y-16407200D01*
X27969047Y-16407200D02*
X28016666Y-16311961D01*
X28016666Y-16311961D02*
X28016666Y-16264342D01*
X28016666Y-16264342D02*
X27969047Y-16169104D01*
X27969047Y-16169104D02*
X27873809Y-16121485D01*
X27873809Y-16121485D02*
X27730952Y-16121485D01*
X27730952Y-16121485D02*
X27635714Y-16073866D01*
X27635714Y-16073866D02*
X27588095Y-15978628D01*
X27588095Y-15978628D02*
X27588095Y-15931009D01*
X27588095Y-15931009D02*
X27635714Y-15835771D01*
X27635714Y-15835771D02*
X27730952Y-15788152D01*
X27730952Y-15788152D02*
X27873809Y-15788152D01*
X27873809Y-15788152D02*
X27969047Y-15835771D01*
X28445238Y-16454819D02*
X28445238Y-15454819D01*
X28873809Y-16454819D02*
X28873809Y-15931009D01*
X28873809Y-15931009D02*
X28826190Y-15835771D01*
X28826190Y-15835771D02*
X28730952Y-15788152D01*
X28730952Y-15788152D02*
X28588095Y-15788152D01*
X28588095Y-15788152D02*
X28492857Y-15835771D01*
X28492857Y-15835771D02*
X28445238Y-15883390D01*
X29492857Y-15883390D02*
X29397619Y-15835771D01*
X29397619Y-15835771D02*
X29350000Y-15788152D01*
X29350000Y-15788152D02*
X29302381Y-15692914D01*
X29302381Y-15692914D02*
X29302381Y-15645295D01*
X29302381Y-15645295D02*
X29350000Y-15550057D01*
X29350000Y-15550057D02*
X29397619Y-15502438D01*
X29397619Y-15502438D02*
X29492857Y-15454819D01*
X29492857Y-15454819D02*
X29683333Y-15454819D01*
X29683333Y-15454819D02*
X29778571Y-15502438D01*
X29778571Y-15502438D02*
X29826190Y-15550057D01*
X29826190Y-15550057D02*
X29873809Y-15645295D01*
X29873809Y-15645295D02*
X29873809Y-15692914D01*
X29873809Y-15692914D02*
X29826190Y-15788152D01*
X29826190Y-15788152D02*
X29778571Y-15835771D01*
X29778571Y-15835771D02*
X29683333Y-15883390D01*
X29683333Y-15883390D02*
X29492857Y-15883390D01*
X29492857Y-15883390D02*
X29397619Y-15931009D01*
X29397619Y-15931009D02*
X29350000Y-15978628D01*
X29350000Y-15978628D02*
X29302381Y-16073866D01*
X29302381Y-16073866D02*
X29302381Y-16264342D01*
X29302381Y-16264342D02*
X29350000Y-16359580D01*
X29350000Y-16359580D02*
X29397619Y-16407200D01*
X29397619Y-16407200D02*
X29492857Y-16454819D01*
X29492857Y-16454819D02*
X29683333Y-16454819D01*
X29683333Y-16454819D02*
X29778571Y-16407200D01*
X29778571Y-16407200D02*
X29826190Y-16359580D01*
X29826190Y-16359580D02*
X29873809Y-16264342D01*
X29873809Y-16264342D02*
X29873809Y-16073866D01*
X29873809Y-16073866D02*
X29826190Y-15978628D01*
X29826190Y-15978628D02*
X29778571Y-15931009D01*
X29778571Y-15931009D02*
X29683333Y-15883390D01*
X18611905Y-34669104D02*
X19088095Y-34669104D01*
X18516667Y-34954819D02*
X18850000Y-33954819D01*
X18850000Y-33954819D02*
X19183333Y-34954819D01*
X15326190Y-36407200D02*
X15469047Y-36454819D01*
X15469047Y-36454819D02*
X15707142Y-36454819D01*
X15707142Y-36454819D02*
X15802380Y-36407200D01*
X15802380Y-36407200D02*
X15849999Y-36359580D01*
X15849999Y-36359580D02*
X15897618Y-36264342D01*
X15897618Y-36264342D02*
X15897618Y-36169104D01*
X15897618Y-36169104D02*
X15849999Y-36073866D01*
X15849999Y-36073866D02*
X15802380Y-36026247D01*
X15802380Y-36026247D02*
X15707142Y-35978628D01*
X15707142Y-35978628D02*
X15516666Y-35931009D01*
X15516666Y-35931009D02*
X15421428Y-35883390D01*
X15421428Y-35883390D02*
X15373809Y-35835771D01*
X15373809Y-35835771D02*
X15326190Y-35740533D01*
X15326190Y-35740533D02*
X15326190Y-35645295D01*
X15326190Y-35645295D02*
X15373809Y-35550057D01*
X15373809Y-35550057D02*
X15421428Y-35502438D01*
X15421428Y-35502438D02*
X15516666Y-35454819D01*
X15516666Y-35454819D02*
X15754761Y-35454819D01*
X15754761Y-35454819D02*
X15897618Y-35502438D01*
X16230952Y-35454819D02*
X16469047Y-36454819D01*
X16469047Y-36454819D02*
X16659523Y-35740533D01*
X16659523Y-35740533D02*
X16849999Y-36454819D01*
X16849999Y-36454819D02*
X17088095Y-35454819D01*
X17230952Y-36550057D02*
X17992856Y-36550057D01*
X18230952Y-36454819D02*
X18230952Y-35454819D01*
X18230952Y-35454819D02*
X18611904Y-35454819D01*
X18611904Y-35454819D02*
X18707142Y-35502438D01*
X18707142Y-35502438D02*
X18754761Y-35550057D01*
X18754761Y-35550057D02*
X18802380Y-35645295D01*
X18802380Y-35645295D02*
X18802380Y-35788152D01*
X18802380Y-35788152D02*
X18754761Y-35883390D01*
X18754761Y-35883390D02*
X18707142Y-35931009D01*
X18707142Y-35931009D02*
X18611904Y-35978628D01*
X18611904Y-35978628D02*
X18230952Y-35978628D01*
X19659523Y-35788152D02*
X19659523Y-36454819D01*
X19230952Y-35788152D02*
X19230952Y-36311961D01*
X19230952Y-36311961D02*
X19278571Y-36407200D01*
X19278571Y-36407200D02*
X19373809Y-36454819D01*
X19373809Y-36454819D02*
X19516666Y-36454819D01*
X19516666Y-36454819D02*
X19611904Y-36407200D01*
X19611904Y-36407200D02*
X19659523Y-36359580D01*
X20088095Y-36407200D02*
X20183333Y-36454819D01*
X20183333Y-36454819D02*
X20373809Y-36454819D01*
X20373809Y-36454819D02*
X20469047Y-36407200D01*
X20469047Y-36407200D02*
X20516666Y-36311961D01*
X20516666Y-36311961D02*
X20516666Y-36264342D01*
X20516666Y-36264342D02*
X20469047Y-36169104D01*
X20469047Y-36169104D02*
X20373809Y-36121485D01*
X20373809Y-36121485D02*
X20230952Y-36121485D01*
X20230952Y-36121485D02*
X20135714Y-36073866D01*
X20135714Y-36073866D02*
X20088095Y-35978628D01*
X20088095Y-35978628D02*
X20088095Y-35931009D01*
X20088095Y-35931009D02*
X20135714Y-35835771D01*
X20135714Y-35835771D02*
X20230952Y-35788152D01*
X20230952Y-35788152D02*
X20373809Y-35788152D01*
X20373809Y-35788152D02*
X20469047Y-35835771D01*
X20945238Y-36454819D02*
X20945238Y-35454819D01*
X21373809Y-36454819D02*
X21373809Y-35931009D01*
X21373809Y-35931009D02*
X21326190Y-35835771D01*
X21326190Y-35835771D02*
X21230952Y-35788152D01*
X21230952Y-35788152D02*
X21088095Y-35788152D01*
X21088095Y-35788152D02*
X20992857Y-35835771D01*
X20992857Y-35835771D02*
X20945238Y-35883390D01*
X22040476Y-35454819D02*
X22135714Y-35454819D01*
X22135714Y-35454819D02*
X22230952Y-35502438D01*
X22230952Y-35502438D02*
X22278571Y-35550057D01*
X22278571Y-35550057D02*
X22326190Y-35645295D01*
X22326190Y-35645295D02*
X22373809Y-35835771D01*
X22373809Y-35835771D02*
X22373809Y-36073866D01*
X22373809Y-36073866D02*
X22326190Y-36264342D01*
X22326190Y-36264342D02*
X22278571Y-36359580D01*
X22278571Y-36359580D02*
X22230952Y-36407200D01*
X22230952Y-36407200D02*
X22135714Y-36454819D01*
X22135714Y-36454819D02*
X22040476Y-36454819D01*
X22040476Y-36454819D02*
X21945238Y-36407200D01*
X21945238Y-36407200D02*
X21897619Y-36359580D01*
X21897619Y-36359580D02*
X21850000Y-36264342D01*
X21850000Y-36264342D02*
X21802381Y-36073866D01*
X21802381Y-36073866D02*
X21802381Y-35835771D01*
X21802381Y-35835771D02*
X21850000Y-35645295D01*
X21850000Y-35645295D02*
X21897619Y-35550057D01*
X21897619Y-35550057D02*
X21945238Y-35502438D01*
X21945238Y-35502438D02*
X22040476Y-35454819D01*
X16969048Y-21954819D02*
X16969048Y-20954819D01*
X16969048Y-20954819D02*
X17207143Y-20954819D01*
X17207143Y-20954819D02*
X17350000Y-21002438D01*
X17350000Y-21002438D02*
X17445238Y-21097676D01*
X17445238Y-21097676D02*
X17492857Y-21192914D01*
X17492857Y-21192914D02*
X17540476Y-21383390D01*
X17540476Y-21383390D02*
X17540476Y-21526247D01*
X17540476Y-21526247D02*
X17492857Y-21716723D01*
X17492857Y-21716723D02*
X17445238Y-21811961D01*
X17445238Y-21811961D02*
X17350000Y-21907200D01*
X17350000Y-21907200D02*
X17207143Y-21954819D01*
X17207143Y-21954819D02*
X16969048Y-21954819D01*
X18159524Y-20954819D02*
X18350000Y-20954819D01*
X18350000Y-20954819D02*
X18445238Y-21002438D01*
X18445238Y-21002438D02*
X18540476Y-21097676D01*
X18540476Y-21097676D02*
X18588095Y-21288152D01*
X18588095Y-21288152D02*
X18588095Y-21621485D01*
X18588095Y-21621485D02*
X18540476Y-21811961D01*
X18540476Y-21811961D02*
X18445238Y-21907200D01*
X18445238Y-21907200D02*
X18350000Y-21954819D01*
X18350000Y-21954819D02*
X18159524Y-21954819D01*
X18159524Y-21954819D02*
X18064286Y-21907200D01*
X18064286Y-21907200D02*
X17969048Y-21811961D01*
X17969048Y-21811961D02*
X17921429Y-21621485D01*
X17921429Y-21621485D02*
X17921429Y-21288152D01*
X17921429Y-21288152D02*
X17969048Y-21097676D01*
X17969048Y-21097676D02*
X18064286Y-21002438D01*
X18064286Y-21002438D02*
X18159524Y-20954819D01*
X18921429Y-20954819D02*
X19159524Y-21954819D01*
X19159524Y-21954819D02*
X19350000Y-21240533D01*
X19350000Y-21240533D02*
X19540476Y-21954819D01*
X19540476Y-21954819D02*
X19778572Y-20954819D01*
X20159524Y-21954819D02*
X20159524Y-20954819D01*
X20159524Y-20954819D02*
X20730952Y-21954819D01*
X20730952Y-21954819D02*
X20730952Y-20954819D01*
X15326190Y-23407200D02*
X15469047Y-23454819D01*
X15469047Y-23454819D02*
X15707142Y-23454819D01*
X15707142Y-23454819D02*
X15802380Y-23407200D01*
X15802380Y-23407200D02*
X15849999Y-23359580D01*
X15849999Y-23359580D02*
X15897618Y-23264342D01*
X15897618Y-23264342D02*
X15897618Y-23169104D01*
X15897618Y-23169104D02*
X15849999Y-23073866D01*
X15849999Y-23073866D02*
X15802380Y-23026247D01*
X15802380Y-23026247D02*
X15707142Y-22978628D01*
X15707142Y-22978628D02*
X15516666Y-22931009D01*
X15516666Y-22931009D02*
X15421428Y-22883390D01*
X15421428Y-22883390D02*
X15373809Y-22835771D01*
X15373809Y-22835771D02*
X15326190Y-22740533D01*
X15326190Y-22740533D02*
X15326190Y-22645295D01*
X15326190Y-22645295D02*
X15373809Y-22550057D01*
X15373809Y-22550057D02*
X15421428Y-22502438D01*
X15421428Y-22502438D02*
X15516666Y-22454819D01*
X15516666Y-22454819D02*
X15754761Y-22454819D01*
X15754761Y-22454819D02*
X15897618Y-22502438D01*
X16230952Y-22454819D02*
X16469047Y-23454819D01*
X16469047Y-23454819D02*
X16659523Y-22740533D01*
X16659523Y-22740533D02*
X16849999Y-23454819D01*
X16849999Y-23454819D02*
X17088095Y-22454819D01*
X17230952Y-23550057D02*
X17992856Y-23550057D01*
X18230952Y-23454819D02*
X18230952Y-22454819D01*
X18230952Y-22454819D02*
X18611904Y-22454819D01*
X18611904Y-22454819D02*
X18707142Y-22502438D01*
X18707142Y-22502438D02*
X18754761Y-22550057D01*
X18754761Y-22550057D02*
X18802380Y-22645295D01*
X18802380Y-22645295D02*
X18802380Y-22788152D01*
X18802380Y-22788152D02*
X18754761Y-22883390D01*
X18754761Y-22883390D02*
X18707142Y-22931009D01*
X18707142Y-22931009D02*
X18611904Y-22978628D01*
X18611904Y-22978628D02*
X18230952Y-22978628D01*
X19659523Y-22788152D02*
X19659523Y-23454819D01*
X19230952Y-22788152D02*
X19230952Y-23311961D01*
X19230952Y-23311961D02*
X19278571Y-23407200D01*
X19278571Y-23407200D02*
X19373809Y-23454819D01*
X19373809Y-23454819D02*
X19516666Y-23454819D01*
X19516666Y-23454819D02*
X19611904Y-23407200D01*
X19611904Y-23407200D02*
X19659523Y-23359580D01*
X20088095Y-23407200D02*
X20183333Y-23454819D01*
X20183333Y-23454819D02*
X20373809Y-23454819D01*
X20373809Y-23454819D02*
X20469047Y-23407200D01*
X20469047Y-23407200D02*
X20516666Y-23311961D01*
X20516666Y-23311961D02*
X20516666Y-23264342D01*
X20516666Y-23264342D02*
X20469047Y-23169104D01*
X20469047Y-23169104D02*
X20373809Y-23121485D01*
X20373809Y-23121485D02*
X20230952Y-23121485D01*
X20230952Y-23121485D02*
X20135714Y-23073866D01*
X20135714Y-23073866D02*
X20088095Y-22978628D01*
X20088095Y-22978628D02*
X20088095Y-22931009D01*
X20088095Y-22931009D02*
X20135714Y-22835771D01*
X20135714Y-22835771D02*
X20230952Y-22788152D01*
X20230952Y-22788152D02*
X20373809Y-22788152D01*
X20373809Y-22788152D02*
X20469047Y-22835771D01*
X20945238Y-23454819D02*
X20945238Y-22454819D01*
X21373809Y-23454819D02*
X21373809Y-22931009D01*
X21373809Y-22931009D02*
X21326190Y-22835771D01*
X21326190Y-22835771D02*
X21230952Y-22788152D01*
X21230952Y-22788152D02*
X21088095Y-22788152D01*
X21088095Y-22788152D02*
X20992857Y-22835771D01*
X20992857Y-22835771D02*
X20945238Y-22883390D01*
X22278571Y-22454819D02*
X22088095Y-22454819D01*
X22088095Y-22454819D02*
X21992857Y-22502438D01*
X21992857Y-22502438D02*
X21945238Y-22550057D01*
X21945238Y-22550057D02*
X21850000Y-22692914D01*
X21850000Y-22692914D02*
X21802381Y-22883390D01*
X21802381Y-22883390D02*
X21802381Y-23264342D01*
X21802381Y-23264342D02*
X21850000Y-23359580D01*
X21850000Y-23359580D02*
X21897619Y-23407200D01*
X21897619Y-23407200D02*
X21992857Y-23454819D01*
X21992857Y-23454819D02*
X22183333Y-23454819D01*
X22183333Y-23454819D02*
X22278571Y-23407200D01*
X22278571Y-23407200D02*
X22326190Y-23359580D01*
X22326190Y-23359580D02*
X22373809Y-23264342D01*
X22373809Y-23264342D02*
X22373809Y-23026247D01*
X22373809Y-23026247D02*
X22326190Y-22931009D01*
X22326190Y-22931009D02*
X22278571Y-22883390D01*
X22278571Y-22883390D02*
X22183333Y-22835771D01*
X22183333Y-22835771D02*
X21992857Y-22835771D01*
X21992857Y-22835771D02*
X21897619Y-22883390D01*
X21897619Y-22883390D02*
X21850000Y-22931009D01*
X21850000Y-22931009D02*
X21802381Y-23026247D01*
X18064286Y-6954819D02*
X18064286Y-7764342D01*
X18064286Y-7764342D02*
X18111905Y-7859580D01*
X18111905Y-7859580D02*
X18159524Y-7907200D01*
X18159524Y-7907200D02*
X18254762Y-7954819D01*
X18254762Y-7954819D02*
X18445238Y-7954819D01*
X18445238Y-7954819D02*
X18540476Y-7907200D01*
X18540476Y-7907200D02*
X18588095Y-7859580D01*
X18588095Y-7859580D02*
X18635714Y-7764342D01*
X18635714Y-7764342D02*
X18635714Y-6954819D01*
X19111905Y-7954819D02*
X19111905Y-6954819D01*
X19111905Y-6954819D02*
X19492857Y-6954819D01*
X19492857Y-6954819D02*
X19588095Y-7002438D01*
X19588095Y-7002438D02*
X19635714Y-7050057D01*
X19635714Y-7050057D02*
X19683333Y-7145295D01*
X19683333Y-7145295D02*
X19683333Y-7288152D01*
X19683333Y-7288152D02*
X19635714Y-7383390D01*
X19635714Y-7383390D02*
X19588095Y-7431009D01*
X19588095Y-7431009D02*
X19492857Y-7478628D01*
X19492857Y-7478628D02*
X19111905Y-7478628D01*
X12076190Y-10407200D02*
X12219047Y-10454819D01*
X12219047Y-10454819D02*
X12457142Y-10454819D01*
X12457142Y-10454819D02*
X12552380Y-10407200D01*
X12552380Y-10407200D02*
X12599999Y-10359580D01*
X12599999Y-10359580D02*
X12647618Y-10264342D01*
X12647618Y-10264342D02*
X12647618Y-10169104D01*
X12647618Y-10169104D02*
X12599999Y-10073866D01*
X12599999Y-10073866D02*
X12552380Y-10026247D01*
X12552380Y-10026247D02*
X12457142Y-9978628D01*
X12457142Y-9978628D02*
X12266666Y-9931009D01*
X12266666Y-9931009D02*
X12171428Y-9883390D01*
X12171428Y-9883390D02*
X12123809Y-9835771D01*
X12123809Y-9835771D02*
X12076190Y-9740533D01*
X12076190Y-9740533D02*
X12076190Y-9645295D01*
X12076190Y-9645295D02*
X12123809Y-9550057D01*
X12123809Y-9550057D02*
X12171428Y-9502438D01*
X12171428Y-9502438D02*
X12266666Y-9454819D01*
X12266666Y-9454819D02*
X12504761Y-9454819D01*
X12504761Y-9454819D02*
X12647618Y-9502438D01*
X12980952Y-9454819D02*
X13219047Y-10454819D01*
X13219047Y-10454819D02*
X13409523Y-9740533D01*
X13409523Y-9740533D02*
X13599999Y-10454819D01*
X13599999Y-10454819D02*
X13838095Y-9454819D01*
X13980952Y-10550057D02*
X14742856Y-10550057D01*
X14980952Y-10454819D02*
X14980952Y-9454819D01*
X14980952Y-9454819D02*
X15361904Y-9454819D01*
X15361904Y-9454819D02*
X15457142Y-9502438D01*
X15457142Y-9502438D02*
X15504761Y-9550057D01*
X15504761Y-9550057D02*
X15552380Y-9645295D01*
X15552380Y-9645295D02*
X15552380Y-9788152D01*
X15552380Y-9788152D02*
X15504761Y-9883390D01*
X15504761Y-9883390D02*
X15457142Y-9931009D01*
X15457142Y-9931009D02*
X15361904Y-9978628D01*
X15361904Y-9978628D02*
X14980952Y-9978628D01*
X16409523Y-9788152D02*
X16409523Y-10454819D01*
X15980952Y-9788152D02*
X15980952Y-10311961D01*
X15980952Y-10311961D02*
X16028571Y-10407200D01*
X16028571Y-10407200D02*
X16123809Y-10454819D01*
X16123809Y-10454819D02*
X16266666Y-10454819D01*
X16266666Y-10454819D02*
X16361904Y-10407200D01*
X16361904Y-10407200D02*
X16409523Y-10359580D01*
X16838095Y-10407200D02*
X16933333Y-10454819D01*
X16933333Y-10454819D02*
X17123809Y-10454819D01*
X17123809Y-10454819D02*
X17219047Y-10407200D01*
X17219047Y-10407200D02*
X17266666Y-10311961D01*
X17266666Y-10311961D02*
X17266666Y-10264342D01*
X17266666Y-10264342D02*
X17219047Y-10169104D01*
X17219047Y-10169104D02*
X17123809Y-10121485D01*
X17123809Y-10121485D02*
X16980952Y-10121485D01*
X16980952Y-10121485D02*
X16885714Y-10073866D01*
X16885714Y-10073866D02*
X16838095Y-9978628D01*
X16838095Y-9978628D02*
X16838095Y-9931009D01*
X16838095Y-9931009D02*
X16885714Y-9835771D01*
X16885714Y-9835771D02*
X16980952Y-9788152D01*
X16980952Y-9788152D02*
X17123809Y-9788152D01*
X17123809Y-9788152D02*
X17219047Y-9835771D01*
X17695238Y-10454819D02*
X17695238Y-9454819D01*
X18123809Y-10454819D02*
X18123809Y-9931009D01*
X18123809Y-9931009D02*
X18076190Y-9835771D01*
X18076190Y-9835771D02*
X17980952Y-9788152D01*
X17980952Y-9788152D02*
X17838095Y-9788152D01*
X17838095Y-9788152D02*
X17742857Y-9835771D01*
X17742857Y-9835771D02*
X17695238Y-9883390D01*
X19076190Y-9454819D02*
X18600000Y-9454819D01*
X18600000Y-9454819D02*
X18552381Y-9931009D01*
X18552381Y-9931009D02*
X18600000Y-9883390D01*
X18600000Y-9883390D02*
X18695238Y-9835771D01*
X18695238Y-9835771D02*
X18933333Y-9835771D01*
X18933333Y-9835771D02*
X19028571Y-9883390D01*
X19028571Y-9883390D02*
X19076190Y-9931009D01*
X19076190Y-9931009D02*
X19123809Y-10026247D01*
X19123809Y-10026247D02*
X19123809Y-10264342D01*
X19123809Y-10264342D02*
X19076190Y-10359580D01*
X19076190Y-10359580D02*
X19028571Y-10407200D01*
X19028571Y-10407200D02*
X18933333Y-10454819D01*
X18933333Y-10454819D02*
X18695238Y-10454819D01*
X18695238Y-10454819D02*
X18600000Y-10407200D01*
X18600000Y-10407200D02*
X18552381Y-10359580D01*
%TO.C,SW_Push11*%
D11*
X17850000Y-120500000D02*
X12350000Y-120500000D01*
X17850000Y-115500000D02*
X17850000Y-120500000D01*
X12350000Y-115500000D02*
X17850000Y-115500000D01*
X12350000Y-115500000D02*
X12350000Y-120500000D01*
%TO.C,SW_Push10*%
X17850000Y-108500000D02*
X12350000Y-108500000D01*
X17850000Y-103500000D02*
X17850000Y-108500000D01*
X12350000Y-103500000D02*
X17850000Y-103500000D01*
X12350000Y-103500000D02*
X12350000Y-108500000D01*
%TO.C,SW_Push7*%
X4850000Y-18000000D02*
X4850000Y-23000000D01*
X4850000Y-18000000D02*
X10350000Y-18000000D01*
X10350000Y-18000000D02*
X10350000Y-23000000D01*
X10350000Y-23000000D02*
X4850000Y-23000000D01*
%TO.C,SW_Push8*%
X19850000Y-18000000D02*
X19850000Y-23000000D01*
X19850000Y-18000000D02*
X25350000Y-18000000D01*
X25350000Y-18000000D02*
X25350000Y-23000000D01*
X25350000Y-23000000D02*
X19850000Y-23000000D01*
%TO.C,SW_Push0*%
X12350000Y-38000000D02*
X12350000Y-43000000D01*
X12350000Y-38000000D02*
X17850000Y-38000000D01*
X17850000Y-38000000D02*
X17850000Y-43000000D01*
X17850000Y-43000000D02*
X12350000Y-43000000D01*
%TO.C,SW_Push6*%
X12350000Y-25000000D02*
X12350000Y-30000000D01*
X12350000Y-25000000D02*
X17850000Y-25000000D01*
X17850000Y-25000000D02*
X17850000Y-30000000D01*
X17850000Y-30000000D02*
X12350000Y-30000000D01*
%TO.C,SW_Push5*%
X12350000Y-11000000D02*
X12350000Y-16000000D01*
X12350000Y-11000000D02*
X17850000Y-11000000D01*
X17850000Y-11000000D02*
X17850000Y-16000000D01*
X17850000Y-16000000D02*
X12350000Y-16000000D01*
%TD*%
M02*
