%TF.GenerationSoftware,KiCad,Pcbnew,10.0.0*%
%TF.CreationDate,2026-05-04T21:29:55-05:00*%
%TF.ProjectId,WiiRemote,57696952-656d-46f7-9465-2e6b69636164,rev?*%
%TF.SameCoordinates,Original*%
%TF.FileFunction,AssemblyDrawing,Bot*%
%FSLAX46Y46*%
G04 Gerber Fmt 4.6, Leading zero omitted, Abs format (unit mm)*
G04 Created by KiCad (PCBNEW 10.0.0) date 2026-05-04 21:29:55*
%MOMM*%
%LPD*%
G01*
G04 APERTURE LIST*
%ADD10C,0.150000*%
%ADD11C,0.090000*%
%ADD12C,0.100000*%
G04 APERTURE END LIST*
D10*
X16590475Y-75211009D02*
X16257142Y-75211009D01*
X16114285Y-75734819D02*
X16590475Y-75734819D01*
X16590475Y-75734819D02*
X16590475Y-74734819D01*
X16590475Y-74734819D02*
X16114285Y-74734819D01*
X15733332Y-75687200D02*
X15590475Y-75734819D01*
X15590475Y-75734819D02*
X15352380Y-75734819D01*
X15352380Y-75734819D02*
X15257142Y-75687200D01*
X15257142Y-75687200D02*
X15209523Y-75639580D01*
X15209523Y-75639580D02*
X15161904Y-75544342D01*
X15161904Y-75544342D02*
X15161904Y-75449104D01*
X15161904Y-75449104D02*
X15209523Y-75353866D01*
X15209523Y-75353866D02*
X15257142Y-75306247D01*
X15257142Y-75306247D02*
X15352380Y-75258628D01*
X15352380Y-75258628D02*
X15542856Y-75211009D01*
X15542856Y-75211009D02*
X15638094Y-75163390D01*
X15638094Y-75163390D02*
X15685713Y-75115771D01*
X15685713Y-75115771D02*
X15733332Y-75020533D01*
X15733332Y-75020533D02*
X15733332Y-74925295D01*
X15733332Y-74925295D02*
X15685713Y-74830057D01*
X15685713Y-74830057D02*
X15638094Y-74782438D01*
X15638094Y-74782438D02*
X15542856Y-74734819D01*
X15542856Y-74734819D02*
X15304761Y-74734819D01*
X15304761Y-74734819D02*
X15161904Y-74782438D01*
X14733332Y-75734819D02*
X14733332Y-74734819D01*
X14733332Y-74734819D02*
X14352380Y-74734819D01*
X14352380Y-74734819D02*
X14257142Y-74782438D01*
X14257142Y-74782438D02*
X14209523Y-74830057D01*
X14209523Y-74830057D02*
X14161904Y-74925295D01*
X14161904Y-74925295D02*
X14161904Y-75068152D01*
X14161904Y-75068152D02*
X14209523Y-75163390D01*
X14209523Y-75163390D02*
X14257142Y-75211009D01*
X14257142Y-75211009D02*
X14352380Y-75258628D01*
X14352380Y-75258628D02*
X14733332Y-75258628D01*
X13828570Y-74734819D02*
X13209523Y-74734819D01*
X13209523Y-74734819D02*
X13542856Y-75115771D01*
X13542856Y-75115771D02*
X13399999Y-75115771D01*
X13399999Y-75115771D02*
X13304761Y-75163390D01*
X13304761Y-75163390D02*
X13257142Y-75211009D01*
X13257142Y-75211009D02*
X13209523Y-75306247D01*
X13209523Y-75306247D02*
X13209523Y-75544342D01*
X13209523Y-75544342D02*
X13257142Y-75639580D01*
X13257142Y-75639580D02*
X13304761Y-75687200D01*
X13304761Y-75687200D02*
X13399999Y-75734819D01*
X13399999Y-75734819D02*
X13685713Y-75734819D01*
X13685713Y-75734819D02*
X13780951Y-75687200D01*
X13780951Y-75687200D02*
X13828570Y-75639580D01*
X12828570Y-74830057D02*
X12780951Y-74782438D01*
X12780951Y-74782438D02*
X12685713Y-74734819D01*
X12685713Y-74734819D02*
X12447618Y-74734819D01*
X12447618Y-74734819D02*
X12352380Y-74782438D01*
X12352380Y-74782438D02*
X12304761Y-74830057D01*
X12304761Y-74830057D02*
X12257142Y-74925295D01*
X12257142Y-74925295D02*
X12257142Y-75020533D01*
X12257142Y-75020533D02*
X12304761Y-75163390D01*
X12304761Y-75163390D02*
X12876189Y-75734819D01*
X12876189Y-75734819D02*
X12257142Y-75734819D01*
X11066665Y-75734819D02*
X11066665Y-74734819D01*
X11066665Y-74734819D02*
X10828570Y-74734819D01*
X10828570Y-74734819D02*
X10685713Y-74782438D01*
X10685713Y-74782438D02*
X10590475Y-74877676D01*
X10590475Y-74877676D02*
X10542856Y-74972914D01*
X10542856Y-74972914D02*
X10495237Y-75163390D01*
X10495237Y-75163390D02*
X10495237Y-75306247D01*
X10495237Y-75306247D02*
X10542856Y-75496723D01*
X10542856Y-75496723D02*
X10590475Y-75591961D01*
X10590475Y-75591961D02*
X10685713Y-75687200D01*
X10685713Y-75687200D02*
X10828570Y-75734819D01*
X10828570Y-75734819D02*
X11066665Y-75734819D01*
X10066665Y-75211009D02*
X9733332Y-75211009D01*
X9590475Y-75734819D02*
X10066665Y-75734819D01*
X10066665Y-75734819D02*
X10066665Y-74734819D01*
X10066665Y-74734819D02*
X9590475Y-74734819D01*
X9304760Y-74734819D02*
X8971427Y-75734819D01*
X8971427Y-75734819D02*
X8638094Y-74734819D01*
X7542855Y-75734819D02*
X7542855Y-74734819D01*
X6971427Y-75734819D02*
X7399998Y-75163390D01*
X6971427Y-74734819D02*
X7542855Y-75306247D01*
X6542855Y-75734819D02*
X6542855Y-74734819D01*
X6209522Y-74734819D02*
X5638094Y-74734819D01*
X5923808Y-75734819D02*
X5923808Y-74734819D01*
X4542855Y-75734819D02*
X4542855Y-74734819D01*
X4542855Y-74734819D02*
X4161903Y-74734819D01*
X4161903Y-74734819D02*
X4066665Y-74782438D01*
X4066665Y-74782438D02*
X4019046Y-74830057D01*
X4019046Y-74830057D02*
X3971427Y-74925295D01*
X3971427Y-74925295D02*
X3971427Y-75068152D01*
X3971427Y-75068152D02*
X4019046Y-75163390D01*
X4019046Y-75163390D02*
X4066665Y-75211009D01*
X4066665Y-75211009D02*
X4161903Y-75258628D01*
X4161903Y-75258628D02*
X4542855Y-75258628D01*
X3542855Y-75734819D02*
X3542855Y-74734819D01*
X3066665Y-75734819D02*
X3066665Y-74734819D01*
X3066665Y-74734819D02*
X2495237Y-75734819D01*
X2495237Y-75734819D02*
X2495237Y-74734819D01*
X2066665Y-75687200D02*
X1923808Y-75734819D01*
X1923808Y-75734819D02*
X1685713Y-75734819D01*
X1685713Y-75734819D02*
X1590475Y-75687200D01*
X1590475Y-75687200D02*
X1542856Y-75639580D01*
X1542856Y-75639580D02*
X1495237Y-75544342D01*
X1495237Y-75544342D02*
X1495237Y-75449104D01*
X1495237Y-75449104D02*
X1542856Y-75353866D01*
X1542856Y-75353866D02*
X1590475Y-75306247D01*
X1590475Y-75306247D02*
X1685713Y-75258628D01*
X1685713Y-75258628D02*
X1876189Y-75211009D01*
X1876189Y-75211009D02*
X1971427Y-75163390D01*
X1971427Y-75163390D02*
X2019046Y-75115771D01*
X2019046Y-75115771D02*
X2066665Y-75020533D01*
X2066665Y-75020533D02*
X2066665Y-74925295D01*
X2066665Y-74925295D02*
X2019046Y-74830057D01*
X2019046Y-74830057D02*
X1971427Y-74782438D01*
X1971427Y-74782438D02*
X1876189Y-74734819D01*
X1876189Y-74734819D02*
X1638094Y-74734819D01*
X1638094Y-74734819D02*
X1495237Y-74782438D01*
X447617Y-74734819D02*
X114284Y-75734819D01*
X114284Y-75734819D02*
X-219048Y-74734819D01*
X-552382Y-75734819D02*
X-552382Y-74734819D01*
X-1028572Y-75734819D02*
X-1028572Y-74734819D01*
X-1028572Y-74734819D02*
X-1600000Y-75734819D01*
X-1600000Y-75734819D02*
X-1600000Y-74734819D01*
X-2076191Y-75353866D02*
X-2838096Y-75353866D01*
X-3314286Y-75211009D02*
X-3647619Y-75211009D01*
X-3790476Y-75734819D02*
X-3314286Y-75734819D01*
X-3314286Y-75734819D02*
X-3314286Y-74734819D01*
X-3314286Y-74734819D02*
X-3790476Y-74734819D01*
X-4219048Y-75734819D02*
X-4219048Y-74734819D01*
X-4219048Y-74734819D02*
X-4790476Y-75734819D01*
X-4790476Y-75734819D02*
X-4790476Y-74734819D01*
X-1740419Y-38176189D02*
X-1692800Y-38128570D01*
X-1692800Y-38128570D02*
X-1645180Y-37985713D01*
X-1645180Y-37985713D02*
X-1645180Y-37890475D01*
X-1645180Y-37890475D02*
X-1692800Y-37747618D01*
X-1692800Y-37747618D02*
X-1788038Y-37652380D01*
X-1788038Y-37652380D02*
X-1883276Y-37604761D01*
X-1883276Y-37604761D02*
X-2073752Y-37557142D01*
X-2073752Y-37557142D02*
X-2216609Y-37557142D01*
X-2216609Y-37557142D02*
X-2407085Y-37604761D01*
X-2407085Y-37604761D02*
X-2502323Y-37652380D01*
X-2502323Y-37652380D02*
X-2597561Y-37747618D01*
X-2597561Y-37747618D02*
X-2645180Y-37890475D01*
X-2645180Y-37890475D02*
X-2645180Y-37985713D01*
X-2645180Y-37985713D02*
X-2597561Y-38128570D01*
X-2597561Y-38128570D02*
X-2549942Y-38176189D01*
X-1645180Y-38747618D02*
X-1692800Y-38652380D01*
X-1692800Y-38652380D02*
X-1740419Y-38604761D01*
X-1740419Y-38604761D02*
X-1835657Y-38557142D01*
X-1835657Y-38557142D02*
X-2121371Y-38557142D01*
X-2121371Y-38557142D02*
X-2216609Y-38604761D01*
X-2216609Y-38604761D02*
X-2264228Y-38652380D01*
X-2264228Y-38652380D02*
X-2311847Y-38747618D01*
X-2311847Y-38747618D02*
X-2311847Y-38890475D01*
X-2311847Y-38890475D02*
X-2264228Y-38985713D01*
X-2264228Y-38985713D02*
X-2216609Y-39033332D01*
X-2216609Y-39033332D02*
X-2121371Y-39080951D01*
X-2121371Y-39080951D02*
X-1835657Y-39080951D01*
X-1835657Y-39080951D02*
X-1740419Y-39033332D01*
X-1740419Y-39033332D02*
X-1692800Y-38985713D01*
X-1692800Y-38985713D02*
X-1645180Y-38890475D01*
X-1645180Y-38890475D02*
X-1645180Y-38747618D01*
X-2311847Y-39509523D02*
X-1645180Y-39509523D01*
X-2216609Y-39509523D02*
X-2264228Y-39557142D01*
X-2264228Y-39557142D02*
X-2311847Y-39652380D01*
X-2311847Y-39652380D02*
X-2311847Y-39795237D01*
X-2311847Y-39795237D02*
X-2264228Y-39890475D01*
X-2264228Y-39890475D02*
X-2168990Y-39938094D01*
X-2168990Y-39938094D02*
X-1645180Y-39938094D01*
X-2311847Y-40414285D02*
X-1645180Y-40414285D01*
X-2216609Y-40414285D02*
X-2264228Y-40461904D01*
X-2264228Y-40461904D02*
X-2311847Y-40557142D01*
X-2311847Y-40557142D02*
X-2311847Y-40699999D01*
X-2311847Y-40699999D02*
X-2264228Y-40795237D01*
X-2264228Y-40795237D02*
X-2168990Y-40842856D01*
X-2168990Y-40842856D02*
X-1645180Y-40842856D01*
X-1549942Y-41080952D02*
X-1549942Y-41842856D01*
X-2645180Y-42271428D02*
X-2645180Y-42366666D01*
X-2645180Y-42366666D02*
X-2597561Y-42461904D01*
X-2597561Y-42461904D02*
X-2549942Y-42509523D01*
X-2549942Y-42509523D02*
X-2454704Y-42557142D01*
X-2454704Y-42557142D02*
X-2264228Y-42604761D01*
X-2264228Y-42604761D02*
X-2026133Y-42604761D01*
X-2026133Y-42604761D02*
X-1835657Y-42557142D01*
X-1835657Y-42557142D02*
X-1740419Y-42509523D01*
X-1740419Y-42509523D02*
X-1692800Y-42461904D01*
X-1692800Y-42461904D02*
X-1645180Y-42366666D01*
X-1645180Y-42366666D02*
X-1645180Y-42271428D01*
X-1645180Y-42271428D02*
X-1692800Y-42176190D01*
X-1692800Y-42176190D02*
X-1740419Y-42128571D01*
X-1740419Y-42128571D02*
X-1835657Y-42080952D01*
X-1835657Y-42080952D02*
X-2026133Y-42033333D01*
X-2026133Y-42033333D02*
X-2264228Y-42033333D01*
X-2264228Y-42033333D02*
X-2454704Y-42080952D01*
X-2454704Y-42080952D02*
X-2549942Y-42128571D01*
X-2549942Y-42128571D02*
X-2597561Y-42176190D01*
X-2597561Y-42176190D02*
X-2645180Y-42271428D01*
X-1645180Y-43557142D02*
X-1645180Y-42985714D01*
X-1645180Y-43271428D02*
X-2645180Y-43271428D01*
X-2645180Y-43271428D02*
X-2502323Y-43176190D01*
X-2502323Y-43176190D02*
X-2407085Y-43080952D01*
X-2407085Y-43080952D02*
X-2359466Y-42985714D01*
X-1645180Y-43890476D02*
X-2311847Y-44414285D01*
X-2311847Y-43890476D02*
X-1645180Y-44414285D01*
X-1645180Y-45319047D02*
X-1645180Y-44747619D01*
X-1645180Y-45033333D02*
X-2645180Y-45033333D01*
X-2645180Y-45033333D02*
X-2502323Y-44938095D01*
X-2502323Y-44938095D02*
X-2407085Y-44842857D01*
X-2407085Y-44842857D02*
X-2359466Y-44747619D01*
X-2645180Y-46223809D02*
X-2645180Y-45747619D01*
X-2645180Y-45747619D02*
X-2168990Y-45700000D01*
X-2168990Y-45700000D02*
X-2216609Y-45747619D01*
X-2216609Y-45747619D02*
X-2264228Y-45842857D01*
X-2264228Y-45842857D02*
X-2264228Y-46080952D01*
X-2264228Y-46080952D02*
X-2216609Y-46176190D01*
X-2216609Y-46176190D02*
X-2168990Y-46223809D01*
X-2168990Y-46223809D02*
X-2073752Y-46271428D01*
X-2073752Y-46271428D02*
X-1835657Y-46271428D01*
X-1835657Y-46271428D02*
X-1740419Y-46223809D01*
X-1740419Y-46223809D02*
X-1692800Y-46176190D01*
X-1692800Y-46176190D02*
X-1645180Y-46080952D01*
X-1645180Y-46080952D02*
X-1645180Y-45842857D01*
X-1645180Y-45842857D02*
X-1692800Y-45747619D01*
X-1692800Y-45747619D02*
X-1740419Y-45700000D01*
X-1549942Y-46461905D02*
X-1549942Y-47223809D01*
X-2168990Y-47461905D02*
X-2168990Y-47795238D01*
X-1645180Y-47938095D02*
X-1645180Y-47461905D01*
X-1645180Y-47461905D02*
X-2645180Y-47461905D01*
X-2645180Y-47461905D02*
X-2645180Y-47938095D01*
X-1692800Y-48319048D02*
X-1645180Y-48461905D01*
X-1645180Y-48461905D02*
X-1645180Y-48700000D01*
X-1645180Y-48700000D02*
X-1692800Y-48795238D01*
X-1692800Y-48795238D02*
X-1740419Y-48842857D01*
X-1740419Y-48842857D02*
X-1835657Y-48890476D01*
X-1835657Y-48890476D02*
X-1930895Y-48890476D01*
X-1930895Y-48890476D02*
X-2026133Y-48842857D01*
X-2026133Y-48842857D02*
X-2073752Y-48795238D01*
X-2073752Y-48795238D02*
X-2121371Y-48700000D01*
X-2121371Y-48700000D02*
X-2168990Y-48509524D01*
X-2168990Y-48509524D02*
X-2216609Y-48414286D01*
X-2216609Y-48414286D02*
X-2264228Y-48366667D01*
X-2264228Y-48366667D02*
X-2359466Y-48319048D01*
X-2359466Y-48319048D02*
X-2454704Y-48319048D01*
X-2454704Y-48319048D02*
X-2549942Y-48366667D01*
X-2549942Y-48366667D02*
X-2597561Y-48414286D01*
X-2597561Y-48414286D02*
X-2645180Y-48509524D01*
X-2645180Y-48509524D02*
X-2645180Y-48747619D01*
X-2645180Y-48747619D02*
X-2597561Y-48890476D01*
X-1645180Y-49319048D02*
X-2645180Y-49319048D01*
X-2645180Y-49319048D02*
X-2645180Y-49700000D01*
X-2645180Y-49700000D02*
X-2597561Y-49795238D01*
X-2597561Y-49795238D02*
X-2549942Y-49842857D01*
X-2549942Y-49842857D02*
X-2454704Y-49890476D01*
X-2454704Y-49890476D02*
X-2311847Y-49890476D01*
X-2311847Y-49890476D02*
X-2216609Y-49842857D01*
X-2216609Y-49842857D02*
X-2168990Y-49795238D01*
X-2168990Y-49795238D02*
X-2121371Y-49700000D01*
X-2121371Y-49700000D02*
X-2121371Y-49319048D01*
X-2645180Y-50223810D02*
X-2645180Y-50842857D01*
X-2645180Y-50842857D02*
X-2264228Y-50509524D01*
X-2264228Y-50509524D02*
X-2264228Y-50652381D01*
X-2264228Y-50652381D02*
X-2216609Y-50747619D01*
X-2216609Y-50747619D02*
X-2168990Y-50795238D01*
X-2168990Y-50795238D02*
X-2073752Y-50842857D01*
X-2073752Y-50842857D02*
X-1835657Y-50842857D01*
X-1835657Y-50842857D02*
X-1740419Y-50795238D01*
X-1740419Y-50795238D02*
X-1692800Y-50747619D01*
X-1692800Y-50747619D02*
X-1645180Y-50652381D01*
X-1645180Y-50652381D02*
X-1645180Y-50366667D01*
X-1645180Y-50366667D02*
X-1692800Y-50271429D01*
X-1692800Y-50271429D02*
X-1740419Y-50223810D01*
X-2549942Y-51223810D02*
X-2597561Y-51271429D01*
X-2597561Y-51271429D02*
X-2645180Y-51366667D01*
X-2645180Y-51366667D02*
X-2645180Y-51604762D01*
X-2645180Y-51604762D02*
X-2597561Y-51700000D01*
X-2597561Y-51700000D02*
X-2549942Y-51747619D01*
X-2549942Y-51747619D02*
X-2454704Y-51795238D01*
X-2454704Y-51795238D02*
X-2359466Y-51795238D01*
X-2359466Y-51795238D02*
X-2216609Y-51747619D01*
X-2216609Y-51747619D02*
X-1645180Y-51176191D01*
X-1645180Y-51176191D02*
X-1645180Y-51795238D01*
X-1549942Y-51985715D02*
X-1549942Y-52747619D01*
X-1645180Y-52985715D02*
X-2645180Y-52985715D01*
X-2645180Y-52985715D02*
X-2645180Y-53223810D01*
X-2645180Y-53223810D02*
X-2597561Y-53366667D01*
X-2597561Y-53366667D02*
X-2502323Y-53461905D01*
X-2502323Y-53461905D02*
X-2407085Y-53509524D01*
X-2407085Y-53509524D02*
X-2216609Y-53557143D01*
X-2216609Y-53557143D02*
X-2073752Y-53557143D01*
X-2073752Y-53557143D02*
X-1883276Y-53509524D01*
X-1883276Y-53509524D02*
X-1788038Y-53461905D01*
X-1788038Y-53461905D02*
X-1692800Y-53366667D01*
X-1692800Y-53366667D02*
X-1645180Y-53223810D01*
X-1645180Y-53223810D02*
X-1645180Y-52985715D01*
X-2168990Y-53985715D02*
X-2168990Y-54319048D01*
X-1645180Y-54461905D02*
X-1645180Y-53985715D01*
X-1645180Y-53985715D02*
X-2645180Y-53985715D01*
X-2645180Y-53985715D02*
X-2645180Y-54461905D01*
X-2645180Y-54747620D02*
X-1645180Y-55080953D01*
X-1645180Y-55080953D02*
X-2645180Y-55414286D01*
X-1549942Y-55509525D02*
X-1549942Y-56271429D01*
X-1645180Y-56509525D02*
X-2645180Y-56509525D01*
X-1645180Y-57080953D02*
X-2216609Y-56652382D01*
X-2645180Y-57080953D02*
X-2073752Y-56509525D01*
X-1645180Y-57509525D02*
X-2645180Y-57509525D01*
X-2645180Y-57842858D02*
X-2645180Y-58414286D01*
X-1645180Y-58128572D02*
X-2645180Y-58128572D01*
X-1549942Y-58509525D02*
X-1549942Y-59271429D01*
X-1645180Y-59509525D02*
X-2645180Y-59509525D01*
X-2645180Y-59509525D02*
X-2645180Y-59890477D01*
X-2645180Y-59890477D02*
X-2597561Y-59985715D01*
X-2597561Y-59985715D02*
X-2549942Y-60033334D01*
X-2549942Y-60033334D02*
X-2454704Y-60080953D01*
X-2454704Y-60080953D02*
X-2311847Y-60080953D01*
X-2311847Y-60080953D02*
X-2216609Y-60033334D01*
X-2216609Y-60033334D02*
X-2168990Y-59985715D01*
X-2168990Y-59985715D02*
X-2121371Y-59890477D01*
X-2121371Y-59890477D02*
X-2121371Y-59509525D01*
X-1645180Y-60509525D02*
X-2645180Y-60509525D01*
X-1645180Y-60985715D02*
X-2645180Y-60985715D01*
X-2645180Y-60985715D02*
X-1645180Y-61557143D01*
X-1645180Y-61557143D02*
X-2645180Y-61557143D01*
X-1692800Y-61985715D02*
X-1645180Y-62128572D01*
X-1645180Y-62128572D02*
X-1645180Y-62366667D01*
X-1645180Y-62366667D02*
X-1692800Y-62461905D01*
X-1692800Y-62461905D02*
X-1740419Y-62509524D01*
X-1740419Y-62509524D02*
X-1835657Y-62557143D01*
X-1835657Y-62557143D02*
X-1930895Y-62557143D01*
X-1930895Y-62557143D02*
X-2026133Y-62509524D01*
X-2026133Y-62509524D02*
X-2073752Y-62461905D01*
X-2073752Y-62461905D02*
X-2121371Y-62366667D01*
X-2121371Y-62366667D02*
X-2168990Y-62176191D01*
X-2168990Y-62176191D02*
X-2216609Y-62080953D01*
X-2216609Y-62080953D02*
X-2264228Y-62033334D01*
X-2264228Y-62033334D02*
X-2359466Y-61985715D01*
X-2359466Y-61985715D02*
X-2454704Y-61985715D01*
X-2454704Y-61985715D02*
X-2549942Y-62033334D01*
X-2549942Y-62033334D02*
X-2597561Y-62080953D01*
X-2597561Y-62080953D02*
X-2645180Y-62176191D01*
X-2645180Y-62176191D02*
X-2645180Y-62414286D01*
X-2645180Y-62414286D02*
X-2597561Y-62557143D01*
X-1549942Y-62747620D02*
X-1549942Y-63509524D01*
X-2645180Y-63604763D02*
X-1645180Y-63938096D01*
X-1645180Y-63938096D02*
X-2645180Y-64271429D01*
X-1645180Y-64604763D02*
X-2645180Y-64604763D01*
X-1645180Y-65080953D02*
X-2645180Y-65080953D01*
X-2645180Y-65080953D02*
X-1645180Y-65652381D01*
X-1645180Y-65652381D02*
X-2645180Y-65652381D01*
X-2026133Y-66128572D02*
X-2026133Y-66890477D01*
X-2168990Y-67366667D02*
X-2168990Y-67700000D01*
X-1645180Y-67842857D02*
X-1645180Y-67366667D01*
X-1645180Y-67366667D02*
X-2645180Y-67366667D01*
X-2645180Y-67366667D02*
X-2645180Y-67842857D01*
X-1645180Y-68271429D02*
X-2645180Y-68271429D01*
X-2645180Y-68271429D02*
X-1645180Y-68842857D01*
X-1645180Y-68842857D02*
X-2645180Y-68842857D01*
X-2645180Y-69509524D02*
X-2645180Y-69604762D01*
X-2645180Y-69604762D02*
X-2597561Y-69700000D01*
X-2597561Y-69700000D02*
X-2549942Y-69747619D01*
X-2549942Y-69747619D02*
X-2454704Y-69795238D01*
X-2454704Y-69795238D02*
X-2264228Y-69842857D01*
X-2264228Y-69842857D02*
X-2026133Y-69842857D01*
X-2026133Y-69842857D02*
X-1835657Y-69795238D01*
X-1835657Y-69795238D02*
X-1740419Y-69747619D01*
X-1740419Y-69747619D02*
X-1692800Y-69700000D01*
X-1692800Y-69700000D02*
X-1645180Y-69604762D01*
X-1645180Y-69604762D02*
X-1645180Y-69509524D01*
X-1645180Y-69509524D02*
X-1692800Y-69414286D01*
X-1692800Y-69414286D02*
X-1740419Y-69366667D01*
X-1740419Y-69366667D02*
X-1835657Y-69319048D01*
X-1835657Y-69319048D02*
X-2026133Y-69271429D01*
X-2026133Y-69271429D02*
X-2264228Y-69271429D01*
X-2264228Y-69271429D02*
X-2454704Y-69319048D01*
X-2454704Y-69319048D02*
X-2549942Y-69366667D01*
X-2549942Y-69366667D02*
X-2597561Y-69414286D01*
X-2597561Y-69414286D02*
X-2645180Y-69509524D01*
X24831009Y-42770476D02*
X24831009Y-43103809D01*
X25354819Y-43246666D02*
X25354819Y-42770476D01*
X25354819Y-42770476D02*
X24354819Y-42770476D01*
X24354819Y-42770476D02*
X24354819Y-43246666D01*
X25307200Y-43627619D02*
X25354819Y-43770476D01*
X25354819Y-43770476D02*
X25354819Y-44008571D01*
X25354819Y-44008571D02*
X25307200Y-44103809D01*
X25307200Y-44103809D02*
X25259580Y-44151428D01*
X25259580Y-44151428D02*
X25164342Y-44199047D01*
X25164342Y-44199047D02*
X25069104Y-44199047D01*
X25069104Y-44199047D02*
X24973866Y-44151428D01*
X24973866Y-44151428D02*
X24926247Y-44103809D01*
X24926247Y-44103809D02*
X24878628Y-44008571D01*
X24878628Y-44008571D02*
X24831009Y-43818095D01*
X24831009Y-43818095D02*
X24783390Y-43722857D01*
X24783390Y-43722857D02*
X24735771Y-43675238D01*
X24735771Y-43675238D02*
X24640533Y-43627619D01*
X24640533Y-43627619D02*
X24545295Y-43627619D01*
X24545295Y-43627619D02*
X24450057Y-43675238D01*
X24450057Y-43675238D02*
X24402438Y-43722857D01*
X24402438Y-43722857D02*
X24354819Y-43818095D01*
X24354819Y-43818095D02*
X24354819Y-44056190D01*
X24354819Y-44056190D02*
X24402438Y-44199047D01*
X25354819Y-44627619D02*
X24354819Y-44627619D01*
X24354819Y-44627619D02*
X24354819Y-45008571D01*
X24354819Y-45008571D02*
X24402438Y-45103809D01*
X24402438Y-45103809D02*
X24450057Y-45151428D01*
X24450057Y-45151428D02*
X24545295Y-45199047D01*
X24545295Y-45199047D02*
X24688152Y-45199047D01*
X24688152Y-45199047D02*
X24783390Y-45151428D01*
X24783390Y-45151428D02*
X24831009Y-45103809D01*
X24831009Y-45103809D02*
X24878628Y-45008571D01*
X24878628Y-45008571D02*
X24878628Y-44627619D01*
X24354819Y-45532381D02*
X24354819Y-46151428D01*
X24354819Y-46151428D02*
X24735771Y-45818095D01*
X24735771Y-45818095D02*
X24735771Y-45960952D01*
X24735771Y-45960952D02*
X24783390Y-46056190D01*
X24783390Y-46056190D02*
X24831009Y-46103809D01*
X24831009Y-46103809D02*
X24926247Y-46151428D01*
X24926247Y-46151428D02*
X25164342Y-46151428D01*
X25164342Y-46151428D02*
X25259580Y-46103809D01*
X25259580Y-46103809D02*
X25307200Y-46056190D01*
X25307200Y-46056190D02*
X25354819Y-45960952D01*
X25354819Y-45960952D02*
X25354819Y-45675238D01*
X25354819Y-45675238D02*
X25307200Y-45580000D01*
X25307200Y-45580000D02*
X25259580Y-45532381D01*
X24450057Y-46532381D02*
X24402438Y-46580000D01*
X24402438Y-46580000D02*
X24354819Y-46675238D01*
X24354819Y-46675238D02*
X24354819Y-46913333D01*
X24354819Y-46913333D02*
X24402438Y-47008571D01*
X24402438Y-47008571D02*
X24450057Y-47056190D01*
X24450057Y-47056190D02*
X24545295Y-47103809D01*
X24545295Y-47103809D02*
X24640533Y-47103809D01*
X24640533Y-47103809D02*
X24783390Y-47056190D01*
X24783390Y-47056190D02*
X25354819Y-46484762D01*
X25354819Y-46484762D02*
X25354819Y-47103809D01*
X25354819Y-48294286D02*
X24354819Y-48294286D01*
X24354819Y-48294286D02*
X24354819Y-48532381D01*
X24354819Y-48532381D02*
X24402438Y-48675238D01*
X24402438Y-48675238D02*
X24497676Y-48770476D01*
X24497676Y-48770476D02*
X24592914Y-48818095D01*
X24592914Y-48818095D02*
X24783390Y-48865714D01*
X24783390Y-48865714D02*
X24926247Y-48865714D01*
X24926247Y-48865714D02*
X25116723Y-48818095D01*
X25116723Y-48818095D02*
X25211961Y-48770476D01*
X25211961Y-48770476D02*
X25307200Y-48675238D01*
X25307200Y-48675238D02*
X25354819Y-48532381D01*
X25354819Y-48532381D02*
X25354819Y-48294286D01*
X24831009Y-49294286D02*
X24831009Y-49627619D01*
X25354819Y-49770476D02*
X25354819Y-49294286D01*
X25354819Y-49294286D02*
X24354819Y-49294286D01*
X24354819Y-49294286D02*
X24354819Y-49770476D01*
X24354819Y-50056191D02*
X25354819Y-50389524D01*
X25354819Y-50389524D02*
X24354819Y-50722857D01*
X25354819Y-51818096D02*
X24354819Y-51818096D01*
X25354819Y-52389524D02*
X24783390Y-51960953D01*
X24354819Y-52389524D02*
X24926247Y-51818096D01*
X25354819Y-52818096D02*
X24354819Y-52818096D01*
X24354819Y-53151429D02*
X24354819Y-53722857D01*
X25354819Y-53437143D02*
X24354819Y-53437143D01*
X25354819Y-54818096D02*
X24354819Y-54818096D01*
X24354819Y-54818096D02*
X24354819Y-55199048D01*
X24354819Y-55199048D02*
X24402438Y-55294286D01*
X24402438Y-55294286D02*
X24450057Y-55341905D01*
X24450057Y-55341905D02*
X24545295Y-55389524D01*
X24545295Y-55389524D02*
X24688152Y-55389524D01*
X24688152Y-55389524D02*
X24783390Y-55341905D01*
X24783390Y-55341905D02*
X24831009Y-55294286D01*
X24831009Y-55294286D02*
X24878628Y-55199048D01*
X24878628Y-55199048D02*
X24878628Y-54818096D01*
X25354819Y-55818096D02*
X24354819Y-55818096D01*
X25354819Y-56294286D02*
X24354819Y-56294286D01*
X24354819Y-56294286D02*
X25354819Y-56865714D01*
X25354819Y-56865714D02*
X24354819Y-56865714D01*
X25307200Y-57294286D02*
X25354819Y-57437143D01*
X25354819Y-57437143D02*
X25354819Y-57675238D01*
X25354819Y-57675238D02*
X25307200Y-57770476D01*
X25307200Y-57770476D02*
X25259580Y-57818095D01*
X25259580Y-57818095D02*
X25164342Y-57865714D01*
X25164342Y-57865714D02*
X25069104Y-57865714D01*
X25069104Y-57865714D02*
X24973866Y-57818095D01*
X24973866Y-57818095D02*
X24926247Y-57770476D01*
X24926247Y-57770476D02*
X24878628Y-57675238D01*
X24878628Y-57675238D02*
X24831009Y-57484762D01*
X24831009Y-57484762D02*
X24783390Y-57389524D01*
X24783390Y-57389524D02*
X24735771Y-57341905D01*
X24735771Y-57341905D02*
X24640533Y-57294286D01*
X24640533Y-57294286D02*
X24545295Y-57294286D01*
X24545295Y-57294286D02*
X24450057Y-57341905D01*
X24450057Y-57341905D02*
X24402438Y-57389524D01*
X24402438Y-57389524D02*
X24354819Y-57484762D01*
X24354819Y-57484762D02*
X24354819Y-57722857D01*
X24354819Y-57722857D02*
X24402438Y-57865714D01*
X24354819Y-58960953D02*
X24354819Y-59580000D01*
X24354819Y-59580000D02*
X24735771Y-59246667D01*
X24735771Y-59246667D02*
X24735771Y-59389524D01*
X24735771Y-59389524D02*
X24783390Y-59484762D01*
X24783390Y-59484762D02*
X24831009Y-59532381D01*
X24831009Y-59532381D02*
X24926247Y-59580000D01*
X24926247Y-59580000D02*
X25164342Y-59580000D01*
X25164342Y-59580000D02*
X25259580Y-59532381D01*
X25259580Y-59532381D02*
X25307200Y-59484762D01*
X25307200Y-59484762D02*
X25354819Y-59389524D01*
X25354819Y-59389524D02*
X25354819Y-59103810D01*
X25354819Y-59103810D02*
X25307200Y-59008572D01*
X25307200Y-59008572D02*
X25259580Y-58960953D01*
X24688152Y-59913334D02*
X25354819Y-60151429D01*
X25354819Y-60151429D02*
X24688152Y-60389524D01*
X24354819Y-60675239D02*
X24354819Y-61294286D01*
X24354819Y-61294286D02*
X24735771Y-60960953D01*
X24735771Y-60960953D02*
X24735771Y-61103810D01*
X24735771Y-61103810D02*
X24783390Y-61199048D01*
X24783390Y-61199048D02*
X24831009Y-61246667D01*
X24831009Y-61246667D02*
X24926247Y-61294286D01*
X24926247Y-61294286D02*
X25164342Y-61294286D01*
X25164342Y-61294286D02*
X25259580Y-61246667D01*
X25259580Y-61246667D02*
X25307200Y-61199048D01*
X25307200Y-61199048D02*
X25354819Y-61103810D01*
X25354819Y-61103810D02*
X25354819Y-60818096D01*
X25354819Y-60818096D02*
X25307200Y-60722858D01*
X25307200Y-60722858D02*
X25259580Y-60675239D01*
X24973866Y-61722858D02*
X24973866Y-62484763D01*
X25354819Y-62960953D02*
X24354819Y-62960953D01*
X24354819Y-62960953D02*
X24354819Y-63199048D01*
X24354819Y-63199048D02*
X24402438Y-63341905D01*
X24402438Y-63341905D02*
X24497676Y-63437143D01*
X24497676Y-63437143D02*
X24592914Y-63484762D01*
X24592914Y-63484762D02*
X24783390Y-63532381D01*
X24783390Y-63532381D02*
X24926247Y-63532381D01*
X24926247Y-63532381D02*
X25116723Y-63484762D01*
X25116723Y-63484762D02*
X25211961Y-63437143D01*
X25211961Y-63437143D02*
X25307200Y-63341905D01*
X25307200Y-63341905D02*
X25354819Y-63199048D01*
X25354819Y-63199048D02*
X25354819Y-62960953D01*
X24450057Y-63913334D02*
X24402438Y-63960953D01*
X24402438Y-63960953D02*
X24354819Y-64056191D01*
X24354819Y-64056191D02*
X24354819Y-64294286D01*
X24354819Y-64294286D02*
X24402438Y-64389524D01*
X24402438Y-64389524D02*
X24450057Y-64437143D01*
X24450057Y-64437143D02*
X24545295Y-64484762D01*
X24545295Y-64484762D02*
X24640533Y-64484762D01*
X24640533Y-64484762D02*
X24783390Y-64437143D01*
X24783390Y-64437143D02*
X25354819Y-63865715D01*
X25354819Y-63865715D02*
X25354819Y-64484762D01*
X24354819Y-64818096D02*
X24354819Y-65437143D01*
X24354819Y-65437143D02*
X24735771Y-65103810D01*
X24735771Y-65103810D02*
X24735771Y-65246667D01*
X24735771Y-65246667D02*
X24783390Y-65341905D01*
X24783390Y-65341905D02*
X24831009Y-65389524D01*
X24831009Y-65389524D02*
X24926247Y-65437143D01*
X24926247Y-65437143D02*
X25164342Y-65437143D01*
X25164342Y-65437143D02*
X25259580Y-65389524D01*
X25259580Y-65389524D02*
X25307200Y-65341905D01*
X25307200Y-65341905D02*
X25354819Y-65246667D01*
X25354819Y-65246667D02*
X25354819Y-64960953D01*
X25354819Y-64960953D02*
X25307200Y-64865715D01*
X25307200Y-64865715D02*
X25259580Y-64818096D01*
X24959580Y-38057141D02*
X25007200Y-38009522D01*
X25007200Y-38009522D02*
X25054819Y-37866665D01*
X25054819Y-37866665D02*
X25054819Y-37771427D01*
X25054819Y-37771427D02*
X25007200Y-37628570D01*
X25007200Y-37628570D02*
X24911961Y-37533332D01*
X24911961Y-37533332D02*
X24816723Y-37485713D01*
X24816723Y-37485713D02*
X24626247Y-37438094D01*
X24626247Y-37438094D02*
X24483390Y-37438094D01*
X24483390Y-37438094D02*
X24292914Y-37485713D01*
X24292914Y-37485713D02*
X24197676Y-37533332D01*
X24197676Y-37533332D02*
X24102438Y-37628570D01*
X24102438Y-37628570D02*
X24054819Y-37771427D01*
X24054819Y-37771427D02*
X24054819Y-37866665D01*
X24054819Y-37866665D02*
X24102438Y-38009522D01*
X24102438Y-38009522D02*
X24150057Y-38057141D01*
X25054819Y-38628570D02*
X25007200Y-38533332D01*
X25007200Y-38533332D02*
X24959580Y-38485713D01*
X24959580Y-38485713D02*
X24864342Y-38438094D01*
X24864342Y-38438094D02*
X24578628Y-38438094D01*
X24578628Y-38438094D02*
X24483390Y-38485713D01*
X24483390Y-38485713D02*
X24435771Y-38533332D01*
X24435771Y-38533332D02*
X24388152Y-38628570D01*
X24388152Y-38628570D02*
X24388152Y-38771427D01*
X24388152Y-38771427D02*
X24435771Y-38866665D01*
X24435771Y-38866665D02*
X24483390Y-38914284D01*
X24483390Y-38914284D02*
X24578628Y-38961903D01*
X24578628Y-38961903D02*
X24864342Y-38961903D01*
X24864342Y-38961903D02*
X24959580Y-38914284D01*
X24959580Y-38914284D02*
X25007200Y-38866665D01*
X25007200Y-38866665D02*
X25054819Y-38771427D01*
X25054819Y-38771427D02*
X25054819Y-38628570D01*
X24388152Y-39390475D02*
X25054819Y-39390475D01*
X24483390Y-39390475D02*
X24435771Y-39438094D01*
X24435771Y-39438094D02*
X24388152Y-39533332D01*
X24388152Y-39533332D02*
X24388152Y-39676189D01*
X24388152Y-39676189D02*
X24435771Y-39771427D01*
X24435771Y-39771427D02*
X24531009Y-39819046D01*
X24531009Y-39819046D02*
X25054819Y-39819046D01*
X24388152Y-40295237D02*
X25054819Y-40295237D01*
X24483390Y-40295237D02*
X24435771Y-40342856D01*
X24435771Y-40342856D02*
X24388152Y-40438094D01*
X24388152Y-40438094D02*
X24388152Y-40580951D01*
X24388152Y-40580951D02*
X24435771Y-40676189D01*
X24435771Y-40676189D02*
X24531009Y-40723808D01*
X24531009Y-40723808D02*
X25054819Y-40723808D01*
X25150057Y-40961904D02*
X25150057Y-41723808D01*
X24054819Y-42152380D02*
X24054819Y-42247618D01*
X24054819Y-42247618D02*
X24102438Y-42342856D01*
X24102438Y-42342856D02*
X24150057Y-42390475D01*
X24150057Y-42390475D02*
X24245295Y-42438094D01*
X24245295Y-42438094D02*
X24435771Y-42485713D01*
X24435771Y-42485713D02*
X24673866Y-42485713D01*
X24673866Y-42485713D02*
X24864342Y-42438094D01*
X24864342Y-42438094D02*
X24959580Y-42390475D01*
X24959580Y-42390475D02*
X25007200Y-42342856D01*
X25007200Y-42342856D02*
X25054819Y-42247618D01*
X25054819Y-42247618D02*
X25054819Y-42152380D01*
X25054819Y-42152380D02*
X25007200Y-42057142D01*
X25007200Y-42057142D02*
X24959580Y-42009523D01*
X24959580Y-42009523D02*
X24864342Y-41961904D01*
X24864342Y-41961904D02*
X24673866Y-41914285D01*
X24673866Y-41914285D02*
X24435771Y-41914285D01*
X24435771Y-41914285D02*
X24245295Y-41961904D01*
X24245295Y-41961904D02*
X24150057Y-42009523D01*
X24150057Y-42009523D02*
X24102438Y-42057142D01*
X24102438Y-42057142D02*
X24054819Y-42152380D01*
X25054819Y-43438094D02*
X25054819Y-42866666D01*
X25054819Y-43152380D02*
X24054819Y-43152380D01*
X24054819Y-43152380D02*
X24197676Y-43057142D01*
X24197676Y-43057142D02*
X24292914Y-42961904D01*
X24292914Y-42961904D02*
X24340533Y-42866666D01*
X25054819Y-43771428D02*
X24388152Y-44295237D01*
X24388152Y-43771428D02*
X25054819Y-44295237D01*
X25054819Y-45199999D02*
X25054819Y-44628571D01*
X25054819Y-44914285D02*
X24054819Y-44914285D01*
X24054819Y-44914285D02*
X24197676Y-44819047D01*
X24197676Y-44819047D02*
X24292914Y-44723809D01*
X24292914Y-44723809D02*
X24340533Y-44628571D01*
X24054819Y-46104761D02*
X24054819Y-45628571D01*
X24054819Y-45628571D02*
X24531009Y-45580952D01*
X24531009Y-45580952D02*
X24483390Y-45628571D01*
X24483390Y-45628571D02*
X24435771Y-45723809D01*
X24435771Y-45723809D02*
X24435771Y-45961904D01*
X24435771Y-45961904D02*
X24483390Y-46057142D01*
X24483390Y-46057142D02*
X24531009Y-46104761D01*
X24531009Y-46104761D02*
X24626247Y-46152380D01*
X24626247Y-46152380D02*
X24864342Y-46152380D01*
X24864342Y-46152380D02*
X24959580Y-46104761D01*
X24959580Y-46104761D02*
X25007200Y-46057142D01*
X25007200Y-46057142D02*
X25054819Y-45961904D01*
X25054819Y-45961904D02*
X25054819Y-45723809D01*
X25054819Y-45723809D02*
X25007200Y-45628571D01*
X25007200Y-45628571D02*
X24959580Y-45580952D01*
X25150057Y-46342857D02*
X25150057Y-47104761D01*
X24531009Y-47342857D02*
X24531009Y-47676190D01*
X25054819Y-47819047D02*
X25054819Y-47342857D01*
X25054819Y-47342857D02*
X24054819Y-47342857D01*
X24054819Y-47342857D02*
X24054819Y-47819047D01*
X25007200Y-48200000D02*
X25054819Y-48342857D01*
X25054819Y-48342857D02*
X25054819Y-48580952D01*
X25054819Y-48580952D02*
X25007200Y-48676190D01*
X25007200Y-48676190D02*
X24959580Y-48723809D01*
X24959580Y-48723809D02*
X24864342Y-48771428D01*
X24864342Y-48771428D02*
X24769104Y-48771428D01*
X24769104Y-48771428D02*
X24673866Y-48723809D01*
X24673866Y-48723809D02*
X24626247Y-48676190D01*
X24626247Y-48676190D02*
X24578628Y-48580952D01*
X24578628Y-48580952D02*
X24531009Y-48390476D01*
X24531009Y-48390476D02*
X24483390Y-48295238D01*
X24483390Y-48295238D02*
X24435771Y-48247619D01*
X24435771Y-48247619D02*
X24340533Y-48200000D01*
X24340533Y-48200000D02*
X24245295Y-48200000D01*
X24245295Y-48200000D02*
X24150057Y-48247619D01*
X24150057Y-48247619D02*
X24102438Y-48295238D01*
X24102438Y-48295238D02*
X24054819Y-48390476D01*
X24054819Y-48390476D02*
X24054819Y-48628571D01*
X24054819Y-48628571D02*
X24102438Y-48771428D01*
X25054819Y-49200000D02*
X24054819Y-49200000D01*
X24054819Y-49200000D02*
X24054819Y-49580952D01*
X24054819Y-49580952D02*
X24102438Y-49676190D01*
X24102438Y-49676190D02*
X24150057Y-49723809D01*
X24150057Y-49723809D02*
X24245295Y-49771428D01*
X24245295Y-49771428D02*
X24388152Y-49771428D01*
X24388152Y-49771428D02*
X24483390Y-49723809D01*
X24483390Y-49723809D02*
X24531009Y-49676190D01*
X24531009Y-49676190D02*
X24578628Y-49580952D01*
X24578628Y-49580952D02*
X24578628Y-49200000D01*
X24054819Y-50104762D02*
X24054819Y-50723809D01*
X24054819Y-50723809D02*
X24435771Y-50390476D01*
X24435771Y-50390476D02*
X24435771Y-50533333D01*
X24435771Y-50533333D02*
X24483390Y-50628571D01*
X24483390Y-50628571D02*
X24531009Y-50676190D01*
X24531009Y-50676190D02*
X24626247Y-50723809D01*
X24626247Y-50723809D02*
X24864342Y-50723809D01*
X24864342Y-50723809D02*
X24959580Y-50676190D01*
X24959580Y-50676190D02*
X25007200Y-50628571D01*
X25007200Y-50628571D02*
X25054819Y-50533333D01*
X25054819Y-50533333D02*
X25054819Y-50247619D01*
X25054819Y-50247619D02*
X25007200Y-50152381D01*
X25007200Y-50152381D02*
X24959580Y-50104762D01*
X24150057Y-51104762D02*
X24102438Y-51152381D01*
X24102438Y-51152381D02*
X24054819Y-51247619D01*
X24054819Y-51247619D02*
X24054819Y-51485714D01*
X24054819Y-51485714D02*
X24102438Y-51580952D01*
X24102438Y-51580952D02*
X24150057Y-51628571D01*
X24150057Y-51628571D02*
X24245295Y-51676190D01*
X24245295Y-51676190D02*
X24340533Y-51676190D01*
X24340533Y-51676190D02*
X24483390Y-51628571D01*
X24483390Y-51628571D02*
X25054819Y-51057143D01*
X25054819Y-51057143D02*
X25054819Y-51676190D01*
X25150057Y-51866667D02*
X25150057Y-52628571D01*
X25054819Y-52866667D02*
X24054819Y-52866667D01*
X24054819Y-52866667D02*
X24054819Y-53104762D01*
X24054819Y-53104762D02*
X24102438Y-53247619D01*
X24102438Y-53247619D02*
X24197676Y-53342857D01*
X24197676Y-53342857D02*
X24292914Y-53390476D01*
X24292914Y-53390476D02*
X24483390Y-53438095D01*
X24483390Y-53438095D02*
X24626247Y-53438095D01*
X24626247Y-53438095D02*
X24816723Y-53390476D01*
X24816723Y-53390476D02*
X24911961Y-53342857D01*
X24911961Y-53342857D02*
X25007200Y-53247619D01*
X25007200Y-53247619D02*
X25054819Y-53104762D01*
X25054819Y-53104762D02*
X25054819Y-52866667D01*
X24531009Y-53866667D02*
X24531009Y-54200000D01*
X25054819Y-54342857D02*
X25054819Y-53866667D01*
X25054819Y-53866667D02*
X24054819Y-53866667D01*
X24054819Y-53866667D02*
X24054819Y-54342857D01*
X24054819Y-54628572D02*
X25054819Y-54961905D01*
X25054819Y-54961905D02*
X24054819Y-55295238D01*
X25150057Y-55390477D02*
X25150057Y-56152381D01*
X25054819Y-56390477D02*
X24054819Y-56390477D01*
X25054819Y-56961905D02*
X24483390Y-56533334D01*
X24054819Y-56961905D02*
X24626247Y-56390477D01*
X25054819Y-57390477D02*
X24054819Y-57390477D01*
X24054819Y-57723810D02*
X24054819Y-58295238D01*
X25054819Y-58009524D02*
X24054819Y-58009524D01*
X25150057Y-58390477D02*
X25150057Y-59152381D01*
X25054819Y-59390477D02*
X24054819Y-59390477D01*
X24054819Y-59390477D02*
X24054819Y-59771429D01*
X24054819Y-59771429D02*
X24102438Y-59866667D01*
X24102438Y-59866667D02*
X24150057Y-59914286D01*
X24150057Y-59914286D02*
X24245295Y-59961905D01*
X24245295Y-59961905D02*
X24388152Y-59961905D01*
X24388152Y-59961905D02*
X24483390Y-59914286D01*
X24483390Y-59914286D02*
X24531009Y-59866667D01*
X24531009Y-59866667D02*
X24578628Y-59771429D01*
X24578628Y-59771429D02*
X24578628Y-59390477D01*
X25054819Y-60390477D02*
X24054819Y-60390477D01*
X25054819Y-60866667D02*
X24054819Y-60866667D01*
X24054819Y-60866667D02*
X25054819Y-61438095D01*
X25054819Y-61438095D02*
X24054819Y-61438095D01*
X25007200Y-61866667D02*
X25054819Y-62009524D01*
X25054819Y-62009524D02*
X25054819Y-62247619D01*
X25054819Y-62247619D02*
X25007200Y-62342857D01*
X25007200Y-62342857D02*
X24959580Y-62390476D01*
X24959580Y-62390476D02*
X24864342Y-62438095D01*
X24864342Y-62438095D02*
X24769104Y-62438095D01*
X24769104Y-62438095D02*
X24673866Y-62390476D01*
X24673866Y-62390476D02*
X24626247Y-62342857D01*
X24626247Y-62342857D02*
X24578628Y-62247619D01*
X24578628Y-62247619D02*
X24531009Y-62057143D01*
X24531009Y-62057143D02*
X24483390Y-61961905D01*
X24483390Y-61961905D02*
X24435771Y-61914286D01*
X24435771Y-61914286D02*
X24340533Y-61866667D01*
X24340533Y-61866667D02*
X24245295Y-61866667D01*
X24245295Y-61866667D02*
X24150057Y-61914286D01*
X24150057Y-61914286D02*
X24102438Y-61961905D01*
X24102438Y-61961905D02*
X24054819Y-62057143D01*
X24054819Y-62057143D02*
X24054819Y-62295238D01*
X24054819Y-62295238D02*
X24102438Y-62438095D01*
X25150057Y-62628572D02*
X25150057Y-63390476D01*
X24054819Y-63533334D02*
X24054819Y-64152381D01*
X24054819Y-64152381D02*
X24435771Y-63819048D01*
X24435771Y-63819048D02*
X24435771Y-63961905D01*
X24435771Y-63961905D02*
X24483390Y-64057143D01*
X24483390Y-64057143D02*
X24531009Y-64104762D01*
X24531009Y-64104762D02*
X24626247Y-64152381D01*
X24626247Y-64152381D02*
X24864342Y-64152381D01*
X24864342Y-64152381D02*
X24959580Y-64104762D01*
X24959580Y-64104762D02*
X25007200Y-64057143D01*
X25007200Y-64057143D02*
X25054819Y-63961905D01*
X25054819Y-63961905D02*
X25054819Y-63676191D01*
X25054819Y-63676191D02*
X25007200Y-63580953D01*
X25007200Y-63580953D02*
X24959580Y-63533334D01*
X24388152Y-64485715D02*
X25054819Y-64723810D01*
X25054819Y-64723810D02*
X24388152Y-64961905D01*
X24054819Y-65247620D02*
X24054819Y-65866667D01*
X24054819Y-65866667D02*
X24435771Y-65533334D01*
X24435771Y-65533334D02*
X24435771Y-65676191D01*
X24435771Y-65676191D02*
X24483390Y-65771429D01*
X24483390Y-65771429D02*
X24531009Y-65819048D01*
X24531009Y-65819048D02*
X24626247Y-65866667D01*
X24626247Y-65866667D02*
X24864342Y-65866667D01*
X24864342Y-65866667D02*
X24959580Y-65819048D01*
X24959580Y-65819048D02*
X25007200Y-65771429D01*
X25007200Y-65771429D02*
X25054819Y-65676191D01*
X25054819Y-65676191D02*
X25054819Y-65390477D01*
X25054819Y-65390477D02*
X25007200Y-65295239D01*
X25007200Y-65295239D02*
X24959580Y-65247620D01*
X24673866Y-66295239D02*
X24673866Y-67057144D01*
X25054819Y-67533334D02*
X24054819Y-67533334D01*
X24054819Y-67533334D02*
X24054819Y-67771429D01*
X24054819Y-67771429D02*
X24102438Y-67914286D01*
X24102438Y-67914286D02*
X24197676Y-68009524D01*
X24197676Y-68009524D02*
X24292914Y-68057143D01*
X24292914Y-68057143D02*
X24483390Y-68104762D01*
X24483390Y-68104762D02*
X24626247Y-68104762D01*
X24626247Y-68104762D02*
X24816723Y-68057143D01*
X24816723Y-68057143D02*
X24911961Y-68009524D01*
X24911961Y-68009524D02*
X25007200Y-67914286D01*
X25007200Y-67914286D02*
X25054819Y-67771429D01*
X25054819Y-67771429D02*
X25054819Y-67533334D01*
X24150057Y-68485715D02*
X24102438Y-68533334D01*
X24102438Y-68533334D02*
X24054819Y-68628572D01*
X24054819Y-68628572D02*
X24054819Y-68866667D01*
X24054819Y-68866667D02*
X24102438Y-68961905D01*
X24102438Y-68961905D02*
X24150057Y-69009524D01*
X24150057Y-69009524D02*
X24245295Y-69057143D01*
X24245295Y-69057143D02*
X24340533Y-69057143D01*
X24340533Y-69057143D02*
X24483390Y-69009524D01*
X24483390Y-69009524D02*
X25054819Y-68438096D01*
X25054819Y-68438096D02*
X25054819Y-69057143D01*
X24054819Y-69390477D02*
X24054819Y-70009524D01*
X24054819Y-70009524D02*
X24435771Y-69676191D01*
X24435771Y-69676191D02*
X24435771Y-69819048D01*
X24435771Y-69819048D02*
X24483390Y-69914286D01*
X24483390Y-69914286D02*
X24531009Y-69961905D01*
X24531009Y-69961905D02*
X24626247Y-70009524D01*
X24626247Y-70009524D02*
X24864342Y-70009524D01*
X24864342Y-70009524D02*
X24959580Y-69961905D01*
X24959580Y-69961905D02*
X25007200Y-69914286D01*
X25007200Y-69914286D02*
X25054819Y-69819048D01*
X25054819Y-69819048D02*
X25054819Y-69533334D01*
X25054819Y-69533334D02*
X25007200Y-69438096D01*
X25007200Y-69438096D02*
X24959580Y-69390477D01*
X24054819Y-70628572D02*
X24054819Y-70723810D01*
X24054819Y-70723810D02*
X24102438Y-70819048D01*
X24102438Y-70819048D02*
X24150057Y-70866667D01*
X24150057Y-70866667D02*
X24245295Y-70914286D01*
X24245295Y-70914286D02*
X24435771Y-70961905D01*
X24435771Y-70961905D02*
X24673866Y-70961905D01*
X24673866Y-70961905D02*
X24864342Y-70914286D01*
X24864342Y-70914286D02*
X24959580Y-70866667D01*
X24959580Y-70866667D02*
X25007200Y-70819048D01*
X25007200Y-70819048D02*
X25054819Y-70723810D01*
X25054819Y-70723810D02*
X25054819Y-70628572D01*
X25054819Y-70628572D02*
X25007200Y-70533334D01*
X25007200Y-70533334D02*
X24959580Y-70485715D01*
X24959580Y-70485715D02*
X24864342Y-70438096D01*
X24864342Y-70438096D02*
X24673866Y-70390477D01*
X24673866Y-70390477D02*
X24435771Y-70390477D01*
X24435771Y-70390477D02*
X24245295Y-70438096D01*
X24245295Y-70438096D02*
X24150057Y-70485715D01*
X24150057Y-70485715D02*
X24102438Y-70533334D01*
X24102438Y-70533334D02*
X24054819Y-70628572D01*
X28628095Y-107427200D02*
X28485238Y-107474819D01*
X28485238Y-107474819D02*
X28247143Y-107474819D01*
X28247143Y-107474819D02*
X28151905Y-107427200D01*
X28151905Y-107427200D02*
X28104286Y-107379580D01*
X28104286Y-107379580D02*
X28056667Y-107284342D01*
X28056667Y-107284342D02*
X28056667Y-107189104D01*
X28056667Y-107189104D02*
X28104286Y-107093866D01*
X28104286Y-107093866D02*
X28151905Y-107046247D01*
X28151905Y-107046247D02*
X28247143Y-106998628D01*
X28247143Y-106998628D02*
X28437619Y-106951009D01*
X28437619Y-106951009D02*
X28532857Y-106903390D01*
X28532857Y-106903390D02*
X28580476Y-106855771D01*
X28580476Y-106855771D02*
X28628095Y-106760533D01*
X28628095Y-106760533D02*
X28628095Y-106665295D01*
X28628095Y-106665295D02*
X28580476Y-106570057D01*
X28580476Y-106570057D02*
X28532857Y-106522438D01*
X28532857Y-106522438D02*
X28437619Y-106474819D01*
X28437619Y-106474819D02*
X28199524Y-106474819D01*
X28199524Y-106474819D02*
X28056667Y-106522438D01*
X27628095Y-107474819D02*
X27628095Y-106474819D01*
X27628095Y-106474819D02*
X27247143Y-106474819D01*
X27247143Y-106474819D02*
X27151905Y-106522438D01*
X27151905Y-106522438D02*
X27104286Y-106570057D01*
X27104286Y-106570057D02*
X27056667Y-106665295D01*
X27056667Y-106665295D02*
X27056667Y-106808152D01*
X27056667Y-106808152D02*
X27104286Y-106903390D01*
X27104286Y-106903390D02*
X27151905Y-106951009D01*
X27151905Y-106951009D02*
X27247143Y-106998628D01*
X27247143Y-106998628D02*
X27628095Y-106998628D01*
X26675714Y-107427200D02*
X26532857Y-107474819D01*
X26532857Y-107474819D02*
X26294762Y-107474819D01*
X26294762Y-107474819D02*
X26199524Y-107427200D01*
X26199524Y-107427200D02*
X26151905Y-107379580D01*
X26151905Y-107379580D02*
X26104286Y-107284342D01*
X26104286Y-107284342D02*
X26104286Y-107189104D01*
X26104286Y-107189104D02*
X26151905Y-107093866D01*
X26151905Y-107093866D02*
X26199524Y-107046247D01*
X26199524Y-107046247D02*
X26294762Y-106998628D01*
X26294762Y-106998628D02*
X26485238Y-106951009D01*
X26485238Y-106951009D02*
X26580476Y-106903390D01*
X26580476Y-106903390D02*
X26628095Y-106855771D01*
X26628095Y-106855771D02*
X26675714Y-106760533D01*
X26675714Y-106760533D02*
X26675714Y-106665295D01*
X26675714Y-106665295D02*
X26628095Y-106570057D01*
X26628095Y-106570057D02*
X26580476Y-106522438D01*
X26580476Y-106522438D02*
X26485238Y-106474819D01*
X26485238Y-106474819D02*
X26247143Y-106474819D01*
X26247143Y-106474819D02*
X26104286Y-106522438D01*
X25818571Y-106474819D02*
X25247143Y-106474819D01*
X25532857Y-107474819D02*
X25532857Y-106474819D01*
X24151904Y-107474819D02*
X24151904Y-106474819D01*
X24151904Y-106474819D02*
X23770952Y-106474819D01*
X23770952Y-106474819D02*
X23675714Y-106522438D01*
X23675714Y-106522438D02*
X23628095Y-106570057D01*
X23628095Y-106570057D02*
X23580476Y-106665295D01*
X23580476Y-106665295D02*
X23580476Y-106808152D01*
X23580476Y-106808152D02*
X23628095Y-106903390D01*
X23628095Y-106903390D02*
X23675714Y-106951009D01*
X23675714Y-106951009D02*
X23770952Y-106998628D01*
X23770952Y-106998628D02*
X24151904Y-106998628D01*
X23009047Y-107474819D02*
X23104285Y-107427200D01*
X23104285Y-107427200D02*
X23151904Y-107379580D01*
X23151904Y-107379580D02*
X23199523Y-107284342D01*
X23199523Y-107284342D02*
X23199523Y-106998628D01*
X23199523Y-106998628D02*
X23151904Y-106903390D01*
X23151904Y-106903390D02*
X23104285Y-106855771D01*
X23104285Y-106855771D02*
X23009047Y-106808152D01*
X23009047Y-106808152D02*
X22866190Y-106808152D01*
X22866190Y-106808152D02*
X22770952Y-106855771D01*
X22770952Y-106855771D02*
X22723333Y-106903390D01*
X22723333Y-106903390D02*
X22675714Y-106998628D01*
X22675714Y-106998628D02*
X22675714Y-107284342D01*
X22675714Y-107284342D02*
X22723333Y-107379580D01*
X22723333Y-107379580D02*
X22770952Y-107427200D01*
X22770952Y-107427200D02*
X22866190Y-107474819D01*
X22866190Y-107474819D02*
X23009047Y-107474819D01*
X22342380Y-106808152D02*
X22151904Y-107474819D01*
X22151904Y-107474819D02*
X21961428Y-106998628D01*
X21961428Y-106998628D02*
X21770952Y-107474819D01*
X21770952Y-107474819D02*
X21580476Y-106808152D01*
X20818571Y-107427200D02*
X20913809Y-107474819D01*
X20913809Y-107474819D02*
X21104285Y-107474819D01*
X21104285Y-107474819D02*
X21199523Y-107427200D01*
X21199523Y-107427200D02*
X21247142Y-107331961D01*
X21247142Y-107331961D02*
X21247142Y-106951009D01*
X21247142Y-106951009D02*
X21199523Y-106855771D01*
X21199523Y-106855771D02*
X21104285Y-106808152D01*
X21104285Y-106808152D02*
X20913809Y-106808152D01*
X20913809Y-106808152D02*
X20818571Y-106855771D01*
X20818571Y-106855771D02*
X20770952Y-106951009D01*
X20770952Y-106951009D02*
X20770952Y-107046247D01*
X20770952Y-107046247D02*
X21247142Y-107141485D01*
X20342380Y-107474819D02*
X20342380Y-106808152D01*
X20342380Y-106998628D02*
X20294761Y-106903390D01*
X20294761Y-106903390D02*
X20247142Y-106855771D01*
X20247142Y-106855771D02*
X20151904Y-106808152D01*
X20151904Y-106808152D02*
X20056666Y-106808152D01*
D11*
X23149285Y-102375391D02*
X23206428Y-102346820D01*
X23206428Y-102346820D02*
X23234999Y-102318248D01*
X23234999Y-102318248D02*
X23263571Y-102261105D01*
X23263571Y-102261105D02*
X23263571Y-102089677D01*
X23263571Y-102089677D02*
X23234999Y-102032534D01*
X23234999Y-102032534D02*
X23206428Y-102003962D01*
X23206428Y-102003962D02*
X23149285Y-101975391D01*
X23149285Y-101975391D02*
X23063571Y-101975391D01*
X23063571Y-101975391D02*
X23006428Y-102003962D01*
X23006428Y-102003962D02*
X22977857Y-102032534D01*
X22977857Y-102032534D02*
X22949285Y-102089677D01*
X22949285Y-102089677D02*
X22949285Y-102261105D01*
X22949285Y-102261105D02*
X22977857Y-102318248D01*
X22977857Y-102318248D02*
X23006428Y-102346820D01*
X23006428Y-102346820D02*
X23063571Y-102375391D01*
X23063571Y-102375391D02*
X23149285Y-102375391D01*
X22692142Y-101975391D02*
X22692142Y-102375391D01*
X22692142Y-102032534D02*
X22663571Y-102003962D01*
X22663571Y-102003962D02*
X22606428Y-101975391D01*
X22606428Y-101975391D02*
X22520714Y-101975391D01*
X22520714Y-101975391D02*
X22463571Y-102003962D01*
X22463571Y-102003962D02*
X22435000Y-102061105D01*
X22435000Y-102061105D02*
X22435000Y-102375391D01*
X21174320Y-98728571D02*
X21202891Y-98814286D01*
X21202891Y-98814286D02*
X21202891Y-98957143D01*
X21202891Y-98957143D02*
X21174320Y-99014286D01*
X21174320Y-99014286D02*
X21145748Y-99042857D01*
X21145748Y-99042857D02*
X21088605Y-99071428D01*
X21088605Y-99071428D02*
X21031462Y-99071428D01*
X21031462Y-99071428D02*
X20974320Y-99042857D01*
X20974320Y-99042857D02*
X20945748Y-99014286D01*
X20945748Y-99014286D02*
X20917177Y-98957143D01*
X20917177Y-98957143D02*
X20888605Y-98842857D01*
X20888605Y-98842857D02*
X20860034Y-98785714D01*
X20860034Y-98785714D02*
X20831462Y-98757143D01*
X20831462Y-98757143D02*
X20774320Y-98728571D01*
X20774320Y-98728571D02*
X20717177Y-98728571D01*
X20717177Y-98728571D02*
X20660034Y-98757143D01*
X20660034Y-98757143D02*
X20631462Y-98785714D01*
X20631462Y-98785714D02*
X20602891Y-98842857D01*
X20602891Y-98842857D02*
X20602891Y-98985714D01*
X20602891Y-98985714D02*
X20631462Y-99071428D01*
X21202891Y-99328572D02*
X20602891Y-99328572D01*
X20602891Y-99328572D02*
X20602891Y-99557143D01*
X20602891Y-99557143D02*
X20631462Y-99614286D01*
X20631462Y-99614286D02*
X20660034Y-99642857D01*
X20660034Y-99642857D02*
X20717177Y-99671429D01*
X20717177Y-99671429D02*
X20802891Y-99671429D01*
X20802891Y-99671429D02*
X20860034Y-99642857D01*
X20860034Y-99642857D02*
X20888605Y-99614286D01*
X20888605Y-99614286D02*
X20917177Y-99557143D01*
X20917177Y-99557143D02*
X20917177Y-99328572D01*
X21174320Y-99900000D02*
X21202891Y-99985715D01*
X21202891Y-99985715D02*
X21202891Y-100128572D01*
X21202891Y-100128572D02*
X21174320Y-100185715D01*
X21174320Y-100185715D02*
X21145748Y-100214286D01*
X21145748Y-100214286D02*
X21088605Y-100242857D01*
X21088605Y-100242857D02*
X21031462Y-100242857D01*
X21031462Y-100242857D02*
X20974320Y-100214286D01*
X20974320Y-100214286D02*
X20945748Y-100185715D01*
X20945748Y-100185715D02*
X20917177Y-100128572D01*
X20917177Y-100128572D02*
X20888605Y-100014286D01*
X20888605Y-100014286D02*
X20860034Y-99957143D01*
X20860034Y-99957143D02*
X20831462Y-99928572D01*
X20831462Y-99928572D02*
X20774320Y-99900000D01*
X20774320Y-99900000D02*
X20717177Y-99900000D01*
X20717177Y-99900000D02*
X20660034Y-99928572D01*
X20660034Y-99928572D02*
X20631462Y-99957143D01*
X20631462Y-99957143D02*
X20602891Y-100014286D01*
X20602891Y-100014286D02*
X20602891Y-100157143D01*
X20602891Y-100157143D02*
X20631462Y-100242857D01*
X20602891Y-100414286D02*
X20602891Y-100757144D01*
X21202891Y-100585715D02*
X20602891Y-100585715D01*
X21260034Y-100814287D02*
X21260034Y-101271429D01*
X21202891Y-101414287D02*
X20602891Y-101414287D01*
X20602891Y-101414287D02*
X20602891Y-101642858D01*
X20602891Y-101642858D02*
X20631462Y-101700001D01*
X20631462Y-101700001D02*
X20660034Y-101728572D01*
X20660034Y-101728572D02*
X20717177Y-101757144D01*
X20717177Y-101757144D02*
X20802891Y-101757144D01*
X20802891Y-101757144D02*
X20860034Y-101728572D01*
X20860034Y-101728572D02*
X20888605Y-101700001D01*
X20888605Y-101700001D02*
X20917177Y-101642858D01*
X20917177Y-101642858D02*
X20917177Y-101414287D01*
X20602891Y-102128572D02*
X20602891Y-102242858D01*
X20602891Y-102242858D02*
X20631462Y-102300001D01*
X20631462Y-102300001D02*
X20688605Y-102357144D01*
X20688605Y-102357144D02*
X20802891Y-102385715D01*
X20802891Y-102385715D02*
X21002891Y-102385715D01*
X21002891Y-102385715D02*
X21117177Y-102357144D01*
X21117177Y-102357144D02*
X21174320Y-102300001D01*
X21174320Y-102300001D02*
X21202891Y-102242858D01*
X21202891Y-102242858D02*
X21202891Y-102128572D01*
X21202891Y-102128572D02*
X21174320Y-102071430D01*
X21174320Y-102071430D02*
X21117177Y-102014287D01*
X21117177Y-102014287D02*
X21002891Y-101985715D01*
X21002891Y-101985715D02*
X20802891Y-101985715D01*
X20802891Y-101985715D02*
X20688605Y-102014287D01*
X20688605Y-102014287D02*
X20631462Y-102071430D01*
X20631462Y-102071430D02*
X20602891Y-102128572D01*
X20602891Y-102585715D02*
X21202891Y-102728572D01*
X21202891Y-102728572D02*
X20774320Y-102842858D01*
X20774320Y-102842858D02*
X21202891Y-102957143D01*
X21202891Y-102957143D02*
X20602891Y-103100001D01*
X20888605Y-103328572D02*
X20888605Y-103528572D01*
X21202891Y-103614286D02*
X21202891Y-103328572D01*
X21202891Y-103328572D02*
X20602891Y-103328572D01*
X20602891Y-103328572D02*
X20602891Y-103614286D01*
X21202891Y-104214286D02*
X20917177Y-104014286D01*
X21202891Y-103871429D02*
X20602891Y-103871429D01*
X20602891Y-103871429D02*
X20602891Y-104100000D01*
X20602891Y-104100000D02*
X20631462Y-104157143D01*
X20631462Y-104157143D02*
X20660034Y-104185714D01*
X20660034Y-104185714D02*
X20717177Y-104214286D01*
X20717177Y-104214286D02*
X20802891Y-104214286D01*
X20802891Y-104214286D02*
X20860034Y-104185714D01*
X20860034Y-104185714D02*
X20888605Y-104157143D01*
X20888605Y-104157143D02*
X20917177Y-104100000D01*
X20917177Y-104100000D02*
X20917177Y-103871429D01*
X21260034Y-104328572D02*
X21260034Y-104785714D01*
X21174320Y-104900000D02*
X21202891Y-104985715D01*
X21202891Y-104985715D02*
X21202891Y-105128572D01*
X21202891Y-105128572D02*
X21174320Y-105185715D01*
X21174320Y-105185715D02*
X21145748Y-105214286D01*
X21145748Y-105214286D02*
X21088605Y-105242857D01*
X21088605Y-105242857D02*
X21031462Y-105242857D01*
X21031462Y-105242857D02*
X20974320Y-105214286D01*
X20974320Y-105214286D02*
X20945748Y-105185715D01*
X20945748Y-105185715D02*
X20917177Y-105128572D01*
X20917177Y-105128572D02*
X20888605Y-105014286D01*
X20888605Y-105014286D02*
X20860034Y-104957143D01*
X20860034Y-104957143D02*
X20831462Y-104928572D01*
X20831462Y-104928572D02*
X20774320Y-104900000D01*
X20774320Y-104900000D02*
X20717177Y-104900000D01*
X20717177Y-104900000D02*
X20660034Y-104928572D01*
X20660034Y-104928572D02*
X20631462Y-104957143D01*
X20631462Y-104957143D02*
X20602891Y-105014286D01*
X20602891Y-105014286D02*
X20602891Y-105157143D01*
X20602891Y-105157143D02*
X20631462Y-105242857D01*
X20602891Y-105442858D02*
X21202891Y-105585715D01*
X21202891Y-105585715D02*
X20774320Y-105700001D01*
X20774320Y-105700001D02*
X21202891Y-105814286D01*
X21202891Y-105814286D02*
X20602891Y-105957144D01*
X21202891Y-106185715D02*
X20602891Y-106185715D01*
X20602891Y-106385714D02*
X20602891Y-106728572D01*
X21202891Y-106557143D02*
X20602891Y-106557143D01*
X21145748Y-107271429D02*
X21174320Y-107242857D01*
X21174320Y-107242857D02*
X21202891Y-107157143D01*
X21202891Y-107157143D02*
X21202891Y-107100000D01*
X21202891Y-107100000D02*
X21174320Y-107014286D01*
X21174320Y-107014286D02*
X21117177Y-106957143D01*
X21117177Y-106957143D02*
X21060034Y-106928572D01*
X21060034Y-106928572D02*
X20945748Y-106900000D01*
X20945748Y-106900000D02*
X20860034Y-106900000D01*
X20860034Y-106900000D02*
X20745748Y-106928572D01*
X20745748Y-106928572D02*
X20688605Y-106957143D01*
X20688605Y-106957143D02*
X20631462Y-107014286D01*
X20631462Y-107014286D02*
X20602891Y-107100000D01*
X20602891Y-107100000D02*
X20602891Y-107157143D01*
X20602891Y-107157143D02*
X20631462Y-107242857D01*
X20631462Y-107242857D02*
X20660034Y-107271429D01*
X21202891Y-107528572D02*
X20602891Y-107528572D01*
X20888605Y-107528572D02*
X20888605Y-107871429D01*
X21202891Y-107871429D02*
X20602891Y-107871429D01*
X20602891Y-108271428D02*
X20602891Y-108328571D01*
X20602891Y-108328571D02*
X20631462Y-108385714D01*
X20631462Y-108385714D02*
X20660034Y-108414286D01*
X20660034Y-108414286D02*
X20717177Y-108442857D01*
X20717177Y-108442857D02*
X20831462Y-108471428D01*
X20831462Y-108471428D02*
X20974320Y-108471428D01*
X20974320Y-108471428D02*
X21088605Y-108442857D01*
X21088605Y-108442857D02*
X21145748Y-108414286D01*
X21145748Y-108414286D02*
X21174320Y-108385714D01*
X21174320Y-108385714D02*
X21202891Y-108328571D01*
X21202891Y-108328571D02*
X21202891Y-108271428D01*
X21202891Y-108271428D02*
X21174320Y-108214286D01*
X21174320Y-108214286D02*
X21145748Y-108185714D01*
X21145748Y-108185714D02*
X21088605Y-108157143D01*
X21088605Y-108157143D02*
X20974320Y-108128571D01*
X20974320Y-108128571D02*
X20831462Y-108128571D01*
X20831462Y-108128571D02*
X20717177Y-108157143D01*
X20717177Y-108157143D02*
X20660034Y-108185714D01*
X20660034Y-108185714D02*
X20631462Y-108214286D01*
X20631462Y-108214286D02*
X20602891Y-108271428D01*
D10*
X-1440419Y-109649999D02*
X-1392800Y-109602380D01*
X-1392800Y-109602380D02*
X-1345180Y-109459523D01*
X-1345180Y-109459523D02*
X-1345180Y-109364285D01*
X-1345180Y-109364285D02*
X-1392800Y-109221428D01*
X-1392800Y-109221428D02*
X-1488038Y-109126190D01*
X-1488038Y-109126190D02*
X-1583276Y-109078571D01*
X-1583276Y-109078571D02*
X-1773752Y-109030952D01*
X-1773752Y-109030952D02*
X-1916609Y-109030952D01*
X-1916609Y-109030952D02*
X-2107085Y-109078571D01*
X-2107085Y-109078571D02*
X-2202323Y-109126190D01*
X-2202323Y-109126190D02*
X-2297561Y-109221428D01*
X-2297561Y-109221428D02*
X-2345180Y-109364285D01*
X-2345180Y-109364285D02*
X-2345180Y-109459523D01*
X-2345180Y-109459523D02*
X-2297561Y-109602380D01*
X-2297561Y-109602380D02*
X-2249942Y-109649999D01*
X-1345180Y-110078571D02*
X-2345180Y-110078571D01*
X-1345180Y-110507142D02*
X-1868990Y-110507142D01*
X-1868990Y-110507142D02*
X-1964228Y-110459523D01*
X-1964228Y-110459523D02*
X-2011847Y-110364285D01*
X-2011847Y-110364285D02*
X-2011847Y-110221428D01*
X-2011847Y-110221428D02*
X-1964228Y-110126190D01*
X-1964228Y-110126190D02*
X-1916609Y-110078571D01*
X-1345180Y-111411904D02*
X-1868990Y-111411904D01*
X-1868990Y-111411904D02*
X-1964228Y-111364285D01*
X-1964228Y-111364285D02*
X-2011847Y-111269047D01*
X-2011847Y-111269047D02*
X-2011847Y-111078571D01*
X-2011847Y-111078571D02*
X-1964228Y-110983333D01*
X-1392800Y-111411904D02*
X-1345180Y-111316666D01*
X-1345180Y-111316666D02*
X-1345180Y-111078571D01*
X-1345180Y-111078571D02*
X-1392800Y-110983333D01*
X-1392800Y-110983333D02*
X-1488038Y-110935714D01*
X-1488038Y-110935714D02*
X-1583276Y-110935714D01*
X-1583276Y-110935714D02*
X-1678514Y-110983333D01*
X-1678514Y-110983333D02*
X-1726133Y-111078571D01*
X-1726133Y-111078571D02*
X-1726133Y-111316666D01*
X-1726133Y-111316666D02*
X-1773752Y-111411904D01*
X-1345180Y-111888095D02*
X-2011847Y-111888095D01*
X-1821371Y-111888095D02*
X-1916609Y-111935714D01*
X-1916609Y-111935714D02*
X-1964228Y-111983333D01*
X-1964228Y-111983333D02*
X-2011847Y-112078571D01*
X-2011847Y-112078571D02*
X-2011847Y-112173809D01*
X-2011847Y-112935714D02*
X-1202323Y-112935714D01*
X-1202323Y-112935714D02*
X-1107085Y-112888095D01*
X-1107085Y-112888095D02*
X-1059466Y-112840476D01*
X-1059466Y-112840476D02*
X-1011847Y-112745238D01*
X-1011847Y-112745238D02*
X-1011847Y-112602381D01*
X-1011847Y-112602381D02*
X-1059466Y-112507143D01*
X-1392800Y-112935714D02*
X-1345180Y-112840476D01*
X-1345180Y-112840476D02*
X-1345180Y-112650000D01*
X-1345180Y-112650000D02*
X-1392800Y-112554762D01*
X-1392800Y-112554762D02*
X-1440419Y-112507143D01*
X-1440419Y-112507143D02*
X-1535657Y-112459524D01*
X-1535657Y-112459524D02*
X-1821371Y-112459524D01*
X-1821371Y-112459524D02*
X-1916609Y-112507143D01*
X-1916609Y-112507143D02*
X-1964228Y-112554762D01*
X-1964228Y-112554762D02*
X-2011847Y-112650000D01*
X-2011847Y-112650000D02*
X-2011847Y-112840476D01*
X-2011847Y-112840476D02*
X-1964228Y-112935714D01*
X-1345180Y-113411905D02*
X-2011847Y-113411905D01*
X-2345180Y-113411905D02*
X-2297561Y-113364286D01*
X-2297561Y-113364286D02*
X-2249942Y-113411905D01*
X-2249942Y-113411905D02*
X-2297561Y-113459524D01*
X-2297561Y-113459524D02*
X-2345180Y-113411905D01*
X-2345180Y-113411905D02*
X-2249942Y-113411905D01*
X-2011847Y-113888095D02*
X-1345180Y-113888095D01*
X-1916609Y-113888095D02*
X-1964228Y-113935714D01*
X-1964228Y-113935714D02*
X-2011847Y-114030952D01*
X-2011847Y-114030952D02*
X-2011847Y-114173809D01*
X-2011847Y-114173809D02*
X-1964228Y-114269047D01*
X-1964228Y-114269047D02*
X-1868990Y-114316666D01*
X-1868990Y-114316666D02*
X-1345180Y-114316666D01*
X-2011847Y-115221428D02*
X-1202323Y-115221428D01*
X-1202323Y-115221428D02*
X-1107085Y-115173809D01*
X-1107085Y-115173809D02*
X-1059466Y-115126190D01*
X-1059466Y-115126190D02*
X-1011847Y-115030952D01*
X-1011847Y-115030952D02*
X-1011847Y-114888095D01*
X-1011847Y-114888095D02*
X-1059466Y-114792857D01*
X-1392800Y-115221428D02*
X-1345180Y-115126190D01*
X-1345180Y-115126190D02*
X-1345180Y-114935714D01*
X-1345180Y-114935714D02*
X-1392800Y-114840476D01*
X-1392800Y-114840476D02*
X-1440419Y-114792857D01*
X-1440419Y-114792857D02*
X-1535657Y-114745238D01*
X-1535657Y-114745238D02*
X-1821371Y-114745238D01*
X-1821371Y-114745238D02*
X-1916609Y-114792857D01*
X-1916609Y-114792857D02*
X-1964228Y-114840476D01*
X-1964228Y-114840476D02*
X-2011847Y-114935714D01*
X-2011847Y-114935714D02*
X-2011847Y-115126190D01*
X-2011847Y-115126190D02*
X-1964228Y-115221428D01*
X-1345180Y-116459524D02*
X-2345180Y-116459524D01*
X-2345180Y-116459524D02*
X-1630895Y-116792857D01*
X-1630895Y-116792857D02*
X-2345180Y-117126190D01*
X-2345180Y-117126190D02*
X-1345180Y-117126190D01*
X-1345180Y-117745238D02*
X-1392800Y-117650000D01*
X-1392800Y-117650000D02*
X-1440419Y-117602381D01*
X-1440419Y-117602381D02*
X-1535657Y-117554762D01*
X-1535657Y-117554762D02*
X-1821371Y-117554762D01*
X-1821371Y-117554762D02*
X-1916609Y-117602381D01*
X-1916609Y-117602381D02*
X-1964228Y-117650000D01*
X-1964228Y-117650000D02*
X-2011847Y-117745238D01*
X-2011847Y-117745238D02*
X-2011847Y-117888095D01*
X-2011847Y-117888095D02*
X-1964228Y-117983333D01*
X-1964228Y-117983333D02*
X-1916609Y-118030952D01*
X-1916609Y-118030952D02*
X-1821371Y-118078571D01*
X-1821371Y-118078571D02*
X-1535657Y-118078571D01*
X-1535657Y-118078571D02*
X-1440419Y-118030952D01*
X-1440419Y-118030952D02*
X-1392800Y-117983333D01*
X-1392800Y-117983333D02*
X-1345180Y-117888095D01*
X-1345180Y-117888095D02*
X-1345180Y-117745238D01*
X-1345180Y-118935714D02*
X-2345180Y-118935714D01*
X-1392800Y-118935714D02*
X-1345180Y-118840476D01*
X-1345180Y-118840476D02*
X-1345180Y-118650000D01*
X-1345180Y-118650000D02*
X-1392800Y-118554762D01*
X-1392800Y-118554762D02*
X-1440419Y-118507143D01*
X-1440419Y-118507143D02*
X-1535657Y-118459524D01*
X-1535657Y-118459524D02*
X-1821371Y-118459524D01*
X-1821371Y-118459524D02*
X-1916609Y-118507143D01*
X-1916609Y-118507143D02*
X-1964228Y-118554762D01*
X-1964228Y-118554762D02*
X-2011847Y-118650000D01*
X-2011847Y-118650000D02*
X-2011847Y-118840476D01*
X-2011847Y-118840476D02*
X-1964228Y-118935714D01*
X-2011847Y-119840476D02*
X-1345180Y-119840476D01*
X-2011847Y-119411905D02*
X-1488038Y-119411905D01*
X-1488038Y-119411905D02*
X-1392800Y-119459524D01*
X-1392800Y-119459524D02*
X-1345180Y-119554762D01*
X-1345180Y-119554762D02*
X-1345180Y-119697619D01*
X-1345180Y-119697619D02*
X-1392800Y-119792857D01*
X-1392800Y-119792857D02*
X-1440419Y-119840476D01*
X-1345180Y-120459524D02*
X-1392800Y-120364286D01*
X-1392800Y-120364286D02*
X-1488038Y-120316667D01*
X-1488038Y-120316667D02*
X-2345180Y-120316667D01*
X-1392800Y-121221429D02*
X-1345180Y-121126191D01*
X-1345180Y-121126191D02*
X-1345180Y-120935715D01*
X-1345180Y-120935715D02*
X-1392800Y-120840477D01*
X-1392800Y-120840477D02*
X-1488038Y-120792858D01*
X-1488038Y-120792858D02*
X-1868990Y-120792858D01*
X-1868990Y-120792858D02*
X-1964228Y-120840477D01*
X-1964228Y-120840477D02*
X-2011847Y-120935715D01*
X-2011847Y-120935715D02*
X-2011847Y-121126191D01*
X-2011847Y-121126191D02*
X-1964228Y-121221429D01*
X-1964228Y-121221429D02*
X-1868990Y-121269048D01*
X-1868990Y-121269048D02*
X-1773752Y-121269048D01*
X-1773752Y-121269048D02*
X-1678514Y-120792858D01*
X59580Y-102983332D02*
X107200Y-102935713D01*
X107200Y-102935713D02*
X154819Y-102792856D01*
X154819Y-102792856D02*
X154819Y-102697618D01*
X154819Y-102697618D02*
X107200Y-102554761D01*
X107200Y-102554761D02*
X11961Y-102459523D01*
X11961Y-102459523D02*
X-83276Y-102411904D01*
X-83276Y-102411904D02*
X-273752Y-102364285D01*
X-273752Y-102364285D02*
X-416609Y-102364285D01*
X-416609Y-102364285D02*
X-607085Y-102411904D01*
X-607085Y-102411904D02*
X-702323Y-102459523D01*
X-702323Y-102459523D02*
X-797561Y-102554761D01*
X-797561Y-102554761D02*
X-845180Y-102697618D01*
X-845180Y-102697618D02*
X-845180Y-102792856D01*
X-845180Y-102792856D02*
X-797561Y-102935713D01*
X-797561Y-102935713D02*
X-749942Y-102983332D01*
X154819Y-103554761D02*
X107200Y-103459523D01*
X107200Y-103459523D02*
X59580Y-103411904D01*
X59580Y-103411904D02*
X-35657Y-103364285D01*
X-35657Y-103364285D02*
X-321371Y-103364285D01*
X-321371Y-103364285D02*
X-416609Y-103411904D01*
X-416609Y-103411904D02*
X-464228Y-103459523D01*
X-464228Y-103459523D02*
X-511847Y-103554761D01*
X-511847Y-103554761D02*
X-511847Y-103697618D01*
X-511847Y-103697618D02*
X-464228Y-103792856D01*
X-464228Y-103792856D02*
X-416609Y-103840475D01*
X-416609Y-103840475D02*
X-321371Y-103888094D01*
X-321371Y-103888094D02*
X-35657Y-103888094D01*
X-35657Y-103888094D02*
X59580Y-103840475D01*
X59580Y-103840475D02*
X107200Y-103792856D01*
X107200Y-103792856D02*
X154819Y-103697618D01*
X154819Y-103697618D02*
X154819Y-103554761D01*
X-511847Y-104316666D02*
X154819Y-104316666D01*
X-416609Y-104316666D02*
X-464228Y-104364285D01*
X-464228Y-104364285D02*
X-511847Y-104459523D01*
X-511847Y-104459523D02*
X-511847Y-104602380D01*
X-511847Y-104602380D02*
X-464228Y-104697618D01*
X-464228Y-104697618D02*
X-368990Y-104745237D01*
X-368990Y-104745237D02*
X154819Y-104745237D01*
X-511847Y-105221428D02*
X154819Y-105221428D01*
X-416609Y-105221428D02*
X-464228Y-105269047D01*
X-464228Y-105269047D02*
X-511847Y-105364285D01*
X-511847Y-105364285D02*
X-511847Y-105507142D01*
X-511847Y-105507142D02*
X-464228Y-105602380D01*
X-464228Y-105602380D02*
X-368990Y-105649999D01*
X-368990Y-105649999D02*
X154819Y-105649999D01*
X250057Y-105888095D02*
X250057Y-106649999D01*
X-845180Y-107078571D02*
X-845180Y-107173809D01*
X-845180Y-107173809D02*
X-797561Y-107269047D01*
X-797561Y-107269047D02*
X-749942Y-107316666D01*
X-749942Y-107316666D02*
X-654704Y-107364285D01*
X-654704Y-107364285D02*
X-464228Y-107411904D01*
X-464228Y-107411904D02*
X-226133Y-107411904D01*
X-226133Y-107411904D02*
X-35657Y-107364285D01*
X-35657Y-107364285D02*
X59580Y-107316666D01*
X59580Y-107316666D02*
X107200Y-107269047D01*
X107200Y-107269047D02*
X154819Y-107173809D01*
X154819Y-107173809D02*
X154819Y-107078571D01*
X154819Y-107078571D02*
X107200Y-106983333D01*
X107200Y-106983333D02*
X59580Y-106935714D01*
X59580Y-106935714D02*
X-35657Y-106888095D01*
X-35657Y-106888095D02*
X-226133Y-106840476D01*
X-226133Y-106840476D02*
X-464228Y-106840476D01*
X-464228Y-106840476D02*
X-654704Y-106888095D01*
X-654704Y-106888095D02*
X-749942Y-106935714D01*
X-749942Y-106935714D02*
X-797561Y-106983333D01*
X-797561Y-106983333D02*
X-845180Y-107078571D01*
X154819Y-108364285D02*
X154819Y-107792857D01*
X154819Y-108078571D02*
X-845180Y-108078571D01*
X-845180Y-108078571D02*
X-702323Y-107983333D01*
X-702323Y-107983333D02*
X-607085Y-107888095D01*
X-607085Y-107888095D02*
X-559466Y-107792857D01*
X154819Y-108697619D02*
X-511847Y-109221428D01*
X-511847Y-108697619D02*
X154819Y-109221428D01*
X-845180Y-109792857D02*
X-845180Y-109888095D01*
X-845180Y-109888095D02*
X-797561Y-109983333D01*
X-797561Y-109983333D02*
X-749942Y-110030952D01*
X-749942Y-110030952D02*
X-654704Y-110078571D01*
X-654704Y-110078571D02*
X-464228Y-110126190D01*
X-464228Y-110126190D02*
X-226133Y-110126190D01*
X-226133Y-110126190D02*
X-35657Y-110078571D01*
X-35657Y-110078571D02*
X59580Y-110030952D01*
X59580Y-110030952D02*
X107200Y-109983333D01*
X107200Y-109983333D02*
X154819Y-109888095D01*
X154819Y-109888095D02*
X154819Y-109792857D01*
X154819Y-109792857D02*
X107200Y-109697619D01*
X107200Y-109697619D02*
X59580Y-109650000D01*
X59580Y-109650000D02*
X-35657Y-109602381D01*
X-35657Y-109602381D02*
X-226133Y-109554762D01*
X-226133Y-109554762D02*
X-464228Y-109554762D01*
X-464228Y-109554762D02*
X-654704Y-109602381D01*
X-654704Y-109602381D02*
X-749942Y-109650000D01*
X-749942Y-109650000D02*
X-797561Y-109697619D01*
X-797561Y-109697619D02*
X-845180Y-109792857D01*
X-511847Y-110983333D02*
X154819Y-110983333D01*
X-892800Y-110745238D02*
X-178514Y-110507143D01*
X-178514Y-110507143D02*
X-178514Y-111126190D01*
X250057Y-111269048D02*
X250057Y-112030952D01*
X59580Y-112840476D02*
X107200Y-112792857D01*
X107200Y-112792857D02*
X154819Y-112650000D01*
X154819Y-112650000D02*
X154819Y-112554762D01*
X154819Y-112554762D02*
X107200Y-112411905D01*
X107200Y-112411905D02*
X11961Y-112316667D01*
X11961Y-112316667D02*
X-83276Y-112269048D01*
X-83276Y-112269048D02*
X-273752Y-112221429D01*
X-273752Y-112221429D02*
X-416609Y-112221429D01*
X-416609Y-112221429D02*
X-607085Y-112269048D01*
X-607085Y-112269048D02*
X-702323Y-112316667D01*
X-702323Y-112316667D02*
X-797561Y-112411905D01*
X-797561Y-112411905D02*
X-845180Y-112554762D01*
X-845180Y-112554762D02*
X-845180Y-112650000D01*
X-845180Y-112650000D02*
X-797561Y-112792857D01*
X-797561Y-112792857D02*
X-749942Y-112840476D01*
X154819Y-113269048D02*
X-845180Y-113269048D01*
X-368990Y-113269048D02*
X-368990Y-113840476D01*
X154819Y-113840476D02*
X-845180Y-113840476D01*
X-130895Y-114269048D02*
X-130895Y-114745238D01*
X154819Y-114173810D02*
X-845180Y-114507143D01*
X-845180Y-114507143D02*
X154819Y-114840476D01*
X154819Y-115745238D02*
X-321371Y-115411905D01*
X154819Y-115173810D02*
X-845180Y-115173810D01*
X-845180Y-115173810D02*
X-845180Y-115554762D01*
X-845180Y-115554762D02*
X-797561Y-115650000D01*
X-797561Y-115650000D02*
X-749942Y-115697619D01*
X-749942Y-115697619D02*
X-654704Y-115745238D01*
X-654704Y-115745238D02*
X-511847Y-115745238D01*
X-511847Y-115745238D02*
X-416609Y-115697619D01*
X-416609Y-115697619D02*
X-368990Y-115650000D01*
X-368990Y-115650000D02*
X-321371Y-115554762D01*
X-321371Y-115554762D02*
X-321371Y-115173810D01*
X-797561Y-116697619D02*
X-845180Y-116602381D01*
X-845180Y-116602381D02*
X-845180Y-116459524D01*
X-845180Y-116459524D02*
X-797561Y-116316667D01*
X-797561Y-116316667D02*
X-702323Y-116221429D01*
X-702323Y-116221429D02*
X-607085Y-116173810D01*
X-607085Y-116173810D02*
X-416609Y-116126191D01*
X-416609Y-116126191D02*
X-273752Y-116126191D01*
X-273752Y-116126191D02*
X-83276Y-116173810D01*
X-83276Y-116173810D02*
X11961Y-116221429D01*
X11961Y-116221429D02*
X107200Y-116316667D01*
X107200Y-116316667D02*
X154819Y-116459524D01*
X154819Y-116459524D02*
X154819Y-116554762D01*
X154819Y-116554762D02*
X107200Y-116697619D01*
X107200Y-116697619D02*
X59580Y-116745238D01*
X59580Y-116745238D02*
X-273752Y-116745238D01*
X-273752Y-116745238D02*
X-273752Y-116554762D01*
X154819Y-117173810D02*
X-845180Y-117173810D01*
X154819Y-117650000D02*
X-845180Y-117650000D01*
X-845180Y-117650000D02*
X154819Y-118221428D01*
X154819Y-118221428D02*
X-845180Y-118221428D01*
X-797561Y-119221428D02*
X-845180Y-119126190D01*
X-845180Y-119126190D02*
X-845180Y-118983333D01*
X-845180Y-118983333D02*
X-797561Y-118840476D01*
X-797561Y-118840476D02*
X-702323Y-118745238D01*
X-702323Y-118745238D02*
X-607085Y-118697619D01*
X-607085Y-118697619D02*
X-416609Y-118650000D01*
X-416609Y-118650000D02*
X-273752Y-118650000D01*
X-273752Y-118650000D02*
X-83276Y-118697619D01*
X-83276Y-118697619D02*
X11961Y-118745238D01*
X11961Y-118745238D02*
X107200Y-118840476D01*
X107200Y-118840476D02*
X154819Y-118983333D01*
X154819Y-118983333D02*
X154819Y-119078571D01*
X154819Y-119078571D02*
X107200Y-119221428D01*
X107200Y-119221428D02*
X59580Y-119269047D01*
X59580Y-119269047D02*
X-273752Y-119269047D01*
X-273752Y-119269047D02*
X-273752Y-119078571D01*
X250057Y-119459524D02*
X250057Y-120221428D01*
X154819Y-120459524D02*
X-845180Y-120459524D01*
X-845180Y-120459524D02*
X-130895Y-120792857D01*
X-130895Y-120792857D02*
X-845180Y-121126190D01*
X-845180Y-121126190D02*
X154819Y-121126190D01*
X-845180Y-121792857D02*
X-845180Y-121983333D01*
X-845180Y-121983333D02*
X-797561Y-122078571D01*
X-797561Y-122078571D02*
X-702323Y-122173809D01*
X-702323Y-122173809D02*
X-511847Y-122221428D01*
X-511847Y-122221428D02*
X-178514Y-122221428D01*
X-178514Y-122221428D02*
X11961Y-122173809D01*
X11961Y-122173809D02*
X107200Y-122078571D01*
X107200Y-122078571D02*
X154819Y-121983333D01*
X154819Y-121983333D02*
X154819Y-121792857D01*
X154819Y-121792857D02*
X107200Y-121697619D01*
X107200Y-121697619D02*
X11961Y-121602381D01*
X11961Y-121602381D02*
X-178514Y-121554762D01*
X-178514Y-121554762D02*
X-511847Y-121554762D01*
X-511847Y-121554762D02*
X-702323Y-121602381D01*
X-702323Y-121602381D02*
X-797561Y-121697619D01*
X-797561Y-121697619D02*
X-845180Y-121792857D01*
X154819Y-122650000D02*
X-845180Y-122650000D01*
X-845180Y-122650000D02*
X-845180Y-122888095D01*
X-845180Y-122888095D02*
X-797561Y-123030952D01*
X-797561Y-123030952D02*
X-702323Y-123126190D01*
X-702323Y-123126190D02*
X-607085Y-123173809D01*
X-607085Y-123173809D02*
X-416609Y-123221428D01*
X-416609Y-123221428D02*
X-273752Y-123221428D01*
X-273752Y-123221428D02*
X-83276Y-123173809D01*
X-83276Y-123173809D02*
X11961Y-123126190D01*
X11961Y-123126190D02*
X107200Y-123030952D01*
X107200Y-123030952D02*
X154819Y-122888095D01*
X154819Y-122888095D02*
X154819Y-122650000D01*
X-845180Y-123650000D02*
X-35657Y-123650000D01*
X-35657Y-123650000D02*
X59580Y-123697619D01*
X59580Y-123697619D02*
X107200Y-123745238D01*
X107200Y-123745238D02*
X154819Y-123840476D01*
X154819Y-123840476D02*
X154819Y-124030952D01*
X154819Y-124030952D02*
X107200Y-124126190D01*
X107200Y-124126190D02*
X59580Y-124173809D01*
X59580Y-124173809D02*
X-35657Y-124221428D01*
X-35657Y-124221428D02*
X-845180Y-124221428D01*
X154819Y-125173809D02*
X154819Y-124697619D01*
X154819Y-124697619D02*
X-845180Y-124697619D01*
X-368990Y-125507143D02*
X-368990Y-125840476D01*
X154819Y-125983333D02*
X154819Y-125507143D01*
X154819Y-125507143D02*
X-845180Y-125507143D01*
X-845180Y-125507143D02*
X-845180Y-125983333D01*
X-845180Y-126602381D02*
X-845180Y-126697619D01*
X-845180Y-126697619D02*
X-797561Y-126792857D01*
X-797561Y-126792857D02*
X-749942Y-126840476D01*
X-749942Y-126840476D02*
X-654704Y-126888095D01*
X-654704Y-126888095D02*
X-464228Y-126935714D01*
X-464228Y-126935714D02*
X-226133Y-126935714D01*
X-226133Y-126935714D02*
X-35657Y-126888095D01*
X-35657Y-126888095D02*
X59580Y-126840476D01*
X59580Y-126840476D02*
X107200Y-126792857D01*
X107200Y-126792857D02*
X154819Y-126697619D01*
X154819Y-126697619D02*
X154819Y-126602381D01*
X154819Y-126602381D02*
X107200Y-126507143D01*
X107200Y-126507143D02*
X59580Y-126459524D01*
X59580Y-126459524D02*
X-35657Y-126411905D01*
X-35657Y-126411905D02*
X-226133Y-126364286D01*
X-226133Y-126364286D02*
X-464228Y-126364286D01*
X-464228Y-126364286D02*
X-654704Y-126411905D01*
X-654704Y-126411905D02*
X-749942Y-126459524D01*
X-749942Y-126459524D02*
X-797561Y-126507143D01*
X-797561Y-126507143D02*
X-845180Y-126602381D01*
X11695238Y-89368990D02*
X11838095Y-89321371D01*
X11838095Y-89321371D02*
X11885714Y-89273752D01*
X11885714Y-89273752D02*
X11933333Y-89178514D01*
X11933333Y-89178514D02*
X11933333Y-89035657D01*
X11933333Y-89035657D02*
X11885714Y-88940419D01*
X11885714Y-88940419D02*
X11838095Y-88892800D01*
X11838095Y-88892800D02*
X11742857Y-88845180D01*
X11742857Y-88845180D02*
X11361905Y-88845180D01*
X11361905Y-88845180D02*
X11361905Y-89845180D01*
X11361905Y-89845180D02*
X11695238Y-89845180D01*
X11695238Y-89845180D02*
X11790476Y-89797561D01*
X11790476Y-89797561D02*
X11838095Y-89749942D01*
X11838095Y-89749942D02*
X11885714Y-89654704D01*
X11885714Y-89654704D02*
X11885714Y-89559466D01*
X11885714Y-89559466D02*
X11838095Y-89464228D01*
X11838095Y-89464228D02*
X11790476Y-89416609D01*
X11790476Y-89416609D02*
X11695238Y-89368990D01*
X11695238Y-89368990D02*
X11361905Y-89368990D01*
X12361905Y-88845180D02*
X12361905Y-89845180D01*
X12361905Y-89845180D02*
X12933333Y-88845180D01*
X12933333Y-88845180D02*
X12933333Y-89845180D01*
X13600000Y-89845180D02*
X13790476Y-89845180D01*
X13790476Y-89845180D02*
X13885714Y-89797561D01*
X13885714Y-89797561D02*
X13980952Y-89702323D01*
X13980952Y-89702323D02*
X14028571Y-89511847D01*
X14028571Y-89511847D02*
X14028571Y-89178514D01*
X14028571Y-89178514D02*
X13980952Y-88988038D01*
X13980952Y-88988038D02*
X13885714Y-88892800D01*
X13885714Y-88892800D02*
X13790476Y-88845180D01*
X13790476Y-88845180D02*
X13600000Y-88845180D01*
X13600000Y-88845180D02*
X13504762Y-88892800D01*
X13504762Y-88892800D02*
X13409524Y-88988038D01*
X13409524Y-88988038D02*
X13361905Y-89178514D01*
X13361905Y-89178514D02*
X13361905Y-89511847D01*
X13361905Y-89511847D02*
X13409524Y-89702323D01*
X13409524Y-89702323D02*
X13504762Y-89797561D01*
X13504762Y-89797561D02*
X13600000Y-89845180D01*
X14647619Y-89845180D02*
X14742857Y-89845180D01*
X14742857Y-89845180D02*
X14838095Y-89797561D01*
X14838095Y-89797561D02*
X14885714Y-89749942D01*
X14885714Y-89749942D02*
X14933333Y-89654704D01*
X14933333Y-89654704D02*
X14980952Y-89464228D01*
X14980952Y-89464228D02*
X14980952Y-89226133D01*
X14980952Y-89226133D02*
X14933333Y-89035657D01*
X14933333Y-89035657D02*
X14885714Y-88940419D01*
X14885714Y-88940419D02*
X14838095Y-88892800D01*
X14838095Y-88892800D02*
X14742857Y-88845180D01*
X14742857Y-88845180D02*
X14647619Y-88845180D01*
X14647619Y-88845180D02*
X14552381Y-88892800D01*
X14552381Y-88892800D02*
X14504762Y-88940419D01*
X14504762Y-88940419D02*
X14457143Y-89035657D01*
X14457143Y-89035657D02*
X14409524Y-89226133D01*
X14409524Y-89226133D02*
X14409524Y-89464228D01*
X14409524Y-89464228D02*
X14457143Y-89654704D01*
X14457143Y-89654704D02*
X14504762Y-89749942D01*
X14504762Y-89749942D02*
X14552381Y-89797561D01*
X14552381Y-89797561D02*
X14647619Y-89845180D01*
X15885714Y-89845180D02*
X15409524Y-89845180D01*
X15409524Y-89845180D02*
X15361905Y-89368990D01*
X15361905Y-89368990D02*
X15409524Y-89416609D01*
X15409524Y-89416609D02*
X15504762Y-89464228D01*
X15504762Y-89464228D02*
X15742857Y-89464228D01*
X15742857Y-89464228D02*
X15838095Y-89416609D01*
X15838095Y-89416609D02*
X15885714Y-89368990D01*
X15885714Y-89368990D02*
X15933333Y-89273752D01*
X15933333Y-89273752D02*
X15933333Y-89035657D01*
X15933333Y-89035657D02*
X15885714Y-88940419D01*
X15885714Y-88940419D02*
X15838095Y-88892800D01*
X15838095Y-88892800D02*
X15742857Y-88845180D01*
X15742857Y-88845180D02*
X15504762Y-88845180D01*
X15504762Y-88845180D02*
X15409524Y-88892800D01*
X15409524Y-88892800D02*
X15361905Y-88940419D01*
X16838095Y-89845180D02*
X16361905Y-89845180D01*
X16361905Y-89845180D02*
X16314286Y-89368990D01*
X16314286Y-89368990D02*
X16361905Y-89416609D01*
X16361905Y-89416609D02*
X16457143Y-89464228D01*
X16457143Y-89464228D02*
X16695238Y-89464228D01*
X16695238Y-89464228D02*
X16790476Y-89416609D01*
X16790476Y-89416609D02*
X16838095Y-89368990D01*
X16838095Y-89368990D02*
X16885714Y-89273752D01*
X16885714Y-89273752D02*
X16885714Y-89035657D01*
X16885714Y-89035657D02*
X16838095Y-88940419D01*
X16838095Y-88940419D02*
X16790476Y-88892800D01*
X16790476Y-88892800D02*
X16695238Y-88845180D01*
X16695238Y-88845180D02*
X16457143Y-88845180D01*
X16457143Y-88845180D02*
X16361905Y-88892800D01*
X16361905Y-88892800D02*
X16314286Y-88940419D01*
X8266666Y-93345180D02*
X8266666Y-92630895D01*
X8266666Y-92630895D02*
X8219047Y-92488038D01*
X8219047Y-92488038D02*
X8123809Y-92392800D01*
X8123809Y-92392800D02*
X7980952Y-92345180D01*
X7980952Y-92345180D02*
X7885714Y-92345180D01*
X9266666Y-92345180D02*
X8695238Y-92345180D01*
X8980952Y-92345180D02*
X8980952Y-93345180D01*
X8980952Y-93345180D02*
X8885714Y-93202323D01*
X8885714Y-93202323D02*
X8790476Y-93107085D01*
X8790476Y-93107085D02*
X8695238Y-93059466D01*
X1421009Y-97357141D02*
X1468628Y-97499998D01*
X1468628Y-97499998D02*
X1516247Y-97547617D01*
X1516247Y-97547617D02*
X1611485Y-97595236D01*
X1611485Y-97595236D02*
X1754342Y-97595236D01*
X1754342Y-97595236D02*
X1849580Y-97547617D01*
X1849580Y-97547617D02*
X1897200Y-97499998D01*
X1897200Y-97499998D02*
X1944819Y-97404760D01*
X1944819Y-97404760D02*
X1944819Y-97023808D01*
X1944819Y-97023808D02*
X944819Y-97023808D01*
X944819Y-97023808D02*
X944819Y-97357141D01*
X944819Y-97357141D02*
X992438Y-97452379D01*
X992438Y-97452379D02*
X1040057Y-97499998D01*
X1040057Y-97499998D02*
X1135295Y-97547617D01*
X1135295Y-97547617D02*
X1230533Y-97547617D01*
X1230533Y-97547617D02*
X1325771Y-97499998D01*
X1325771Y-97499998D02*
X1373390Y-97452379D01*
X1373390Y-97452379D02*
X1421009Y-97357141D01*
X1421009Y-97357141D02*
X1421009Y-97023808D01*
X1944819Y-98452379D02*
X1421009Y-98452379D01*
X1421009Y-98452379D02*
X1325771Y-98404760D01*
X1325771Y-98404760D02*
X1278152Y-98309522D01*
X1278152Y-98309522D02*
X1278152Y-98119046D01*
X1278152Y-98119046D02*
X1325771Y-98023808D01*
X1897200Y-98452379D02*
X1944819Y-98357141D01*
X1944819Y-98357141D02*
X1944819Y-98119046D01*
X1944819Y-98119046D02*
X1897200Y-98023808D01*
X1897200Y-98023808D02*
X1801961Y-97976189D01*
X1801961Y-97976189D02*
X1706723Y-97976189D01*
X1706723Y-97976189D02*
X1611485Y-98023808D01*
X1611485Y-98023808D02*
X1563866Y-98119046D01*
X1563866Y-98119046D02*
X1563866Y-98357141D01*
X1563866Y-98357141D02*
X1516247Y-98452379D01*
X1278152Y-98785713D02*
X1278152Y-99166665D01*
X944819Y-98928570D02*
X1801961Y-98928570D01*
X1801961Y-98928570D02*
X1897200Y-98976189D01*
X1897200Y-98976189D02*
X1944819Y-99071427D01*
X1944819Y-99071427D02*
X1944819Y-99166665D01*
X1278152Y-99357142D02*
X1278152Y-99738094D01*
X944819Y-99499999D02*
X1801961Y-99499999D01*
X1801961Y-99499999D02*
X1897200Y-99547618D01*
X1897200Y-99547618D02*
X1944819Y-99642856D01*
X1944819Y-99642856D02*
X1944819Y-99738094D01*
X1897200Y-100452380D02*
X1944819Y-100357142D01*
X1944819Y-100357142D02*
X1944819Y-100166666D01*
X1944819Y-100166666D02*
X1897200Y-100071428D01*
X1897200Y-100071428D02*
X1801961Y-100023809D01*
X1801961Y-100023809D02*
X1421009Y-100023809D01*
X1421009Y-100023809D02*
X1325771Y-100071428D01*
X1325771Y-100071428D02*
X1278152Y-100166666D01*
X1278152Y-100166666D02*
X1278152Y-100357142D01*
X1278152Y-100357142D02*
X1325771Y-100452380D01*
X1325771Y-100452380D02*
X1421009Y-100499999D01*
X1421009Y-100499999D02*
X1516247Y-100499999D01*
X1516247Y-100499999D02*
X1611485Y-100023809D01*
X1944819Y-100928571D02*
X1278152Y-100928571D01*
X1468628Y-100928571D02*
X1373390Y-100976190D01*
X1373390Y-100976190D02*
X1325771Y-101023809D01*
X1325771Y-101023809D02*
X1278152Y-101119047D01*
X1278152Y-101119047D02*
X1278152Y-101214285D01*
X1278152Y-101452381D02*
X1944819Y-101690476D01*
X1278152Y-101928571D02*
X1944819Y-101690476D01*
X1944819Y-101690476D02*
X2182914Y-101595238D01*
X2182914Y-101595238D02*
X2230533Y-101547619D01*
X2230533Y-101547619D02*
X2278152Y-101452381D01*
X944819Y-102928572D02*
X944819Y-103500000D01*
X1944819Y-103214286D02*
X944819Y-103214286D01*
X1897200Y-104214286D02*
X1944819Y-104119048D01*
X1944819Y-104119048D02*
X1944819Y-103928572D01*
X1944819Y-103928572D02*
X1897200Y-103833334D01*
X1897200Y-103833334D02*
X1801961Y-103785715D01*
X1801961Y-103785715D02*
X1421009Y-103785715D01*
X1421009Y-103785715D02*
X1325771Y-103833334D01*
X1325771Y-103833334D02*
X1278152Y-103928572D01*
X1278152Y-103928572D02*
X1278152Y-104119048D01*
X1278152Y-104119048D02*
X1325771Y-104214286D01*
X1325771Y-104214286D02*
X1421009Y-104261905D01*
X1421009Y-104261905D02*
X1516247Y-104261905D01*
X1516247Y-104261905D02*
X1611485Y-103785715D01*
X1944819Y-104690477D02*
X1278152Y-104690477D01*
X1468628Y-104690477D02*
X1373390Y-104738096D01*
X1373390Y-104738096D02*
X1325771Y-104785715D01*
X1325771Y-104785715D02*
X1278152Y-104880953D01*
X1278152Y-104880953D02*
X1278152Y-104976191D01*
X1944819Y-105309525D02*
X1278152Y-105309525D01*
X1373390Y-105309525D02*
X1325771Y-105357144D01*
X1325771Y-105357144D02*
X1278152Y-105452382D01*
X1278152Y-105452382D02*
X1278152Y-105595239D01*
X1278152Y-105595239D02*
X1325771Y-105690477D01*
X1325771Y-105690477D02*
X1421009Y-105738096D01*
X1421009Y-105738096D02*
X1944819Y-105738096D01*
X1421009Y-105738096D02*
X1325771Y-105785715D01*
X1325771Y-105785715D02*
X1278152Y-105880953D01*
X1278152Y-105880953D02*
X1278152Y-106023810D01*
X1278152Y-106023810D02*
X1325771Y-106119049D01*
X1325771Y-106119049D02*
X1421009Y-106166668D01*
X1421009Y-106166668D02*
X1944819Y-106166668D01*
X1944819Y-106642858D02*
X1278152Y-106642858D01*
X944819Y-106642858D02*
X992438Y-106595239D01*
X992438Y-106595239D02*
X1040057Y-106642858D01*
X1040057Y-106642858D02*
X992438Y-106690477D01*
X992438Y-106690477D02*
X944819Y-106642858D01*
X944819Y-106642858D02*
X1040057Y-106642858D01*
X1278152Y-107119048D02*
X1944819Y-107119048D01*
X1373390Y-107119048D02*
X1325771Y-107166667D01*
X1325771Y-107166667D02*
X1278152Y-107261905D01*
X1278152Y-107261905D02*
X1278152Y-107404762D01*
X1278152Y-107404762D02*
X1325771Y-107500000D01*
X1325771Y-107500000D02*
X1421009Y-107547619D01*
X1421009Y-107547619D02*
X1944819Y-107547619D01*
X1944819Y-108452381D02*
X1421009Y-108452381D01*
X1421009Y-108452381D02*
X1325771Y-108404762D01*
X1325771Y-108404762D02*
X1278152Y-108309524D01*
X1278152Y-108309524D02*
X1278152Y-108119048D01*
X1278152Y-108119048D02*
X1325771Y-108023810D01*
X1897200Y-108452381D02*
X1944819Y-108357143D01*
X1944819Y-108357143D02*
X1944819Y-108119048D01*
X1944819Y-108119048D02*
X1897200Y-108023810D01*
X1897200Y-108023810D02*
X1801961Y-107976191D01*
X1801961Y-107976191D02*
X1706723Y-107976191D01*
X1706723Y-107976191D02*
X1611485Y-108023810D01*
X1611485Y-108023810D02*
X1563866Y-108119048D01*
X1563866Y-108119048D02*
X1563866Y-108357143D01*
X1563866Y-108357143D02*
X1516247Y-108452381D01*
X1944819Y-109071429D02*
X1897200Y-108976191D01*
X1897200Y-108976191D02*
X1801961Y-108928572D01*
X1801961Y-108928572D02*
X944819Y-108928572D01*
X15696668Y-105859580D02*
X15744287Y-105907200D01*
X15744287Y-105907200D02*
X15887144Y-105954819D01*
X15887144Y-105954819D02*
X15982382Y-105954819D01*
X15982382Y-105954819D02*
X16125239Y-105907200D01*
X16125239Y-105907200D02*
X16220477Y-105811961D01*
X16220477Y-105811961D02*
X16268096Y-105716723D01*
X16268096Y-105716723D02*
X16315715Y-105526247D01*
X16315715Y-105526247D02*
X16315715Y-105383390D01*
X16315715Y-105383390D02*
X16268096Y-105192914D01*
X16268096Y-105192914D02*
X16220477Y-105097676D01*
X16220477Y-105097676D02*
X16125239Y-105002438D01*
X16125239Y-105002438D02*
X15982382Y-104954819D01*
X15982382Y-104954819D02*
X15887144Y-104954819D01*
X15887144Y-104954819D02*
X15744287Y-105002438D01*
X15744287Y-105002438D02*
X15696668Y-105050057D01*
X15125239Y-105954819D02*
X15220477Y-105907200D01*
X15220477Y-105907200D02*
X15268096Y-105859580D01*
X15268096Y-105859580D02*
X15315715Y-105764342D01*
X15315715Y-105764342D02*
X15315715Y-105478628D01*
X15315715Y-105478628D02*
X15268096Y-105383390D01*
X15268096Y-105383390D02*
X15220477Y-105335771D01*
X15220477Y-105335771D02*
X15125239Y-105288152D01*
X15125239Y-105288152D02*
X14982382Y-105288152D01*
X14982382Y-105288152D02*
X14887144Y-105335771D01*
X14887144Y-105335771D02*
X14839525Y-105383390D01*
X14839525Y-105383390D02*
X14791906Y-105478628D01*
X14791906Y-105478628D02*
X14791906Y-105764342D01*
X14791906Y-105764342D02*
X14839525Y-105859580D01*
X14839525Y-105859580D02*
X14887144Y-105907200D01*
X14887144Y-105907200D02*
X14982382Y-105954819D01*
X14982382Y-105954819D02*
X15125239Y-105954819D01*
X14363334Y-105288152D02*
X14363334Y-105954819D01*
X14363334Y-105383390D02*
X14315715Y-105335771D01*
X14315715Y-105335771D02*
X14220477Y-105288152D01*
X14220477Y-105288152D02*
X14077620Y-105288152D01*
X14077620Y-105288152D02*
X13982382Y-105335771D01*
X13982382Y-105335771D02*
X13934763Y-105431009D01*
X13934763Y-105431009D02*
X13934763Y-105954819D01*
X13458572Y-105288152D02*
X13458572Y-105954819D01*
X13458572Y-105383390D02*
X13410953Y-105335771D01*
X13410953Y-105335771D02*
X13315715Y-105288152D01*
X13315715Y-105288152D02*
X13172858Y-105288152D01*
X13172858Y-105288152D02*
X13077620Y-105335771D01*
X13077620Y-105335771D02*
X13030001Y-105431009D01*
X13030001Y-105431009D02*
X13030001Y-105954819D01*
X12791906Y-106050057D02*
X12030001Y-106050057D01*
X11601429Y-104954819D02*
X11506191Y-104954819D01*
X11506191Y-104954819D02*
X11410953Y-105002438D01*
X11410953Y-105002438D02*
X11363334Y-105050057D01*
X11363334Y-105050057D02*
X11315715Y-105145295D01*
X11315715Y-105145295D02*
X11268096Y-105335771D01*
X11268096Y-105335771D02*
X11268096Y-105573866D01*
X11268096Y-105573866D02*
X11315715Y-105764342D01*
X11315715Y-105764342D02*
X11363334Y-105859580D01*
X11363334Y-105859580D02*
X11410953Y-105907200D01*
X11410953Y-105907200D02*
X11506191Y-105954819D01*
X11506191Y-105954819D02*
X11601429Y-105954819D01*
X11601429Y-105954819D02*
X11696667Y-105907200D01*
X11696667Y-105907200D02*
X11744286Y-105859580D01*
X11744286Y-105859580D02*
X11791905Y-105764342D01*
X11791905Y-105764342D02*
X11839524Y-105573866D01*
X11839524Y-105573866D02*
X11839524Y-105335771D01*
X11839524Y-105335771D02*
X11791905Y-105145295D01*
X11791905Y-105145295D02*
X11744286Y-105050057D01*
X11744286Y-105050057D02*
X11696667Y-105002438D01*
X11696667Y-105002438D02*
X11601429Y-104954819D01*
X10315715Y-105954819D02*
X10887143Y-105954819D01*
X10601429Y-105954819D02*
X10601429Y-104954819D01*
X10601429Y-104954819D02*
X10696667Y-105097676D01*
X10696667Y-105097676D02*
X10791905Y-105192914D01*
X10791905Y-105192914D02*
X10887143Y-105240533D01*
X9982381Y-105954819D02*
X9458572Y-105288152D01*
X9982381Y-105288152D02*
X9458572Y-105954819D01*
X8887143Y-104954819D02*
X8791905Y-104954819D01*
X8791905Y-104954819D02*
X8696667Y-105002438D01*
X8696667Y-105002438D02*
X8649048Y-105050057D01*
X8649048Y-105050057D02*
X8601429Y-105145295D01*
X8601429Y-105145295D02*
X8553810Y-105335771D01*
X8553810Y-105335771D02*
X8553810Y-105573866D01*
X8553810Y-105573866D02*
X8601429Y-105764342D01*
X8601429Y-105764342D02*
X8649048Y-105859580D01*
X8649048Y-105859580D02*
X8696667Y-105907200D01*
X8696667Y-105907200D02*
X8791905Y-105954819D01*
X8791905Y-105954819D02*
X8887143Y-105954819D01*
X8887143Y-105954819D02*
X8982381Y-105907200D01*
X8982381Y-105907200D02*
X9030000Y-105859580D01*
X9030000Y-105859580D02*
X9077619Y-105764342D01*
X9077619Y-105764342D02*
X9125238Y-105573866D01*
X9125238Y-105573866D02*
X9125238Y-105335771D01*
X9125238Y-105335771D02*
X9077619Y-105145295D01*
X9077619Y-105145295D02*
X9030000Y-105050057D01*
X9030000Y-105050057D02*
X8982381Y-105002438D01*
X8982381Y-105002438D02*
X8887143Y-104954819D01*
X8172857Y-105050057D02*
X8125238Y-105002438D01*
X8125238Y-105002438D02*
X8030000Y-104954819D01*
X8030000Y-104954819D02*
X7791905Y-104954819D01*
X7791905Y-104954819D02*
X7696667Y-105002438D01*
X7696667Y-105002438D02*
X7649048Y-105050057D01*
X7649048Y-105050057D02*
X7601429Y-105145295D01*
X7601429Y-105145295D02*
X7601429Y-105240533D01*
X7601429Y-105240533D02*
X7649048Y-105383390D01*
X7649048Y-105383390D02*
X8220476Y-105954819D01*
X8220476Y-105954819D02*
X7601429Y-105954819D01*
X7410953Y-106050057D02*
X6649048Y-106050057D01*
X6410952Y-105954819D02*
X6410952Y-104954819D01*
X6410952Y-105335771D02*
X6315714Y-105288152D01*
X6315714Y-105288152D02*
X6125238Y-105288152D01*
X6125238Y-105288152D02*
X6030000Y-105335771D01*
X6030000Y-105335771D02*
X5982381Y-105383390D01*
X5982381Y-105383390D02*
X5934762Y-105478628D01*
X5934762Y-105478628D02*
X5934762Y-105764342D01*
X5934762Y-105764342D02*
X5982381Y-105859580D01*
X5982381Y-105859580D02*
X6030000Y-105907200D01*
X6030000Y-105907200D02*
X6125238Y-105954819D01*
X6125238Y-105954819D02*
X6315714Y-105954819D01*
X6315714Y-105954819D02*
X6410952Y-105907200D01*
X5077619Y-105954819D02*
X5077619Y-105431009D01*
X5077619Y-105431009D02*
X5125238Y-105335771D01*
X5125238Y-105335771D02*
X5220476Y-105288152D01*
X5220476Y-105288152D02*
X5410952Y-105288152D01*
X5410952Y-105288152D02*
X5506190Y-105335771D01*
X5077619Y-105907200D02*
X5172857Y-105954819D01*
X5172857Y-105954819D02*
X5410952Y-105954819D01*
X5410952Y-105954819D02*
X5506190Y-105907200D01*
X5506190Y-105907200D02*
X5553809Y-105811961D01*
X5553809Y-105811961D02*
X5553809Y-105716723D01*
X5553809Y-105716723D02*
X5506190Y-105621485D01*
X5506190Y-105621485D02*
X5410952Y-105573866D01*
X5410952Y-105573866D02*
X5172857Y-105573866D01*
X5172857Y-105573866D02*
X5077619Y-105526247D01*
X4744285Y-105288152D02*
X4363333Y-105288152D01*
X4601428Y-104954819D02*
X4601428Y-105811961D01*
X4601428Y-105811961D02*
X4553809Y-105907200D01*
X4553809Y-105907200D02*
X4458571Y-105954819D01*
X4458571Y-105954819D02*
X4363333Y-105954819D01*
X4172856Y-105288152D02*
X3791904Y-105288152D01*
X4029999Y-104954819D02*
X4029999Y-105811961D01*
X4029999Y-105811961D02*
X3982380Y-105907200D01*
X3982380Y-105907200D02*
X3887142Y-105954819D01*
X3887142Y-105954819D02*
X3791904Y-105954819D01*
X3077618Y-105907200D02*
X3172856Y-105954819D01*
X3172856Y-105954819D02*
X3363332Y-105954819D01*
X3363332Y-105954819D02*
X3458570Y-105907200D01*
X3458570Y-105907200D02*
X3506189Y-105811961D01*
X3506189Y-105811961D02*
X3506189Y-105431009D01*
X3506189Y-105431009D02*
X3458570Y-105335771D01*
X3458570Y-105335771D02*
X3363332Y-105288152D01*
X3363332Y-105288152D02*
X3172856Y-105288152D01*
X3172856Y-105288152D02*
X3077618Y-105335771D01*
X3077618Y-105335771D02*
X3029999Y-105431009D01*
X3029999Y-105431009D02*
X3029999Y-105526247D01*
X3029999Y-105526247D02*
X3506189Y-105621485D01*
X2601427Y-105954819D02*
X2601427Y-105288152D01*
X2601427Y-105478628D02*
X2553808Y-105383390D01*
X2553808Y-105383390D02*
X2506189Y-105335771D01*
X2506189Y-105335771D02*
X2410951Y-105288152D01*
X2410951Y-105288152D02*
X2315713Y-105288152D01*
X2077617Y-105288152D02*
X1839522Y-105954819D01*
X1601427Y-105288152D02*
X1839522Y-105954819D01*
X1839522Y-105954819D02*
X1934760Y-106192914D01*
X1934760Y-106192914D02*
X1982379Y-106240533D01*
X1982379Y-106240533D02*
X2077617Y-106288152D01*
X1458570Y-106050057D02*
X696665Y-106050057D01*
X601426Y-105288152D02*
X220474Y-105288152D01*
X458569Y-104954819D02*
X458569Y-105811961D01*
X458569Y-105811961D02*
X410950Y-105907200D01*
X410950Y-105907200D02*
X315712Y-105954819D01*
X315712Y-105954819D02*
X220474Y-105954819D01*
X-493811Y-105907200D02*
X-398573Y-105954819D01*
X-398573Y-105954819D02*
X-208097Y-105954819D01*
X-208097Y-105954819D02*
X-112859Y-105907200D01*
X-112859Y-105907200D02*
X-65240Y-105811961D01*
X-65240Y-105811961D02*
X-65240Y-105431009D01*
X-65240Y-105431009D02*
X-112859Y-105335771D01*
X-112859Y-105335771D02*
X-208097Y-105288152D01*
X-208097Y-105288152D02*
X-398573Y-105288152D01*
X-398573Y-105288152D02*
X-493811Y-105335771D01*
X-493811Y-105335771D02*
X-541430Y-105431009D01*
X-541430Y-105431009D02*
X-541430Y-105526247D01*
X-541430Y-105526247D02*
X-65240Y-105621485D01*
X-970002Y-105954819D02*
X-970002Y-105288152D01*
X-970002Y-105478628D02*
X-1017621Y-105383390D01*
X-1017621Y-105383390D02*
X-1065240Y-105335771D01*
X-1065240Y-105335771D02*
X-1160478Y-105288152D01*
X-1160478Y-105288152D02*
X-1255716Y-105288152D01*
X-1589050Y-105954819D02*
X-1589050Y-105288152D01*
X-1589050Y-105383390D02*
X-1636669Y-105335771D01*
X-1636669Y-105335771D02*
X-1731907Y-105288152D01*
X-1731907Y-105288152D02*
X-1874764Y-105288152D01*
X-1874764Y-105288152D02*
X-1970002Y-105335771D01*
X-1970002Y-105335771D02*
X-2017621Y-105431009D01*
X-2017621Y-105431009D02*
X-2017621Y-105954819D01*
X-2017621Y-105431009D02*
X-2065240Y-105335771D01*
X-2065240Y-105335771D02*
X-2160478Y-105288152D01*
X-2160478Y-105288152D02*
X-2303335Y-105288152D01*
X-2303335Y-105288152D02*
X-2398574Y-105335771D01*
X-2398574Y-105335771D02*
X-2446193Y-105431009D01*
X-2446193Y-105431009D02*
X-2446193Y-105954819D01*
X-2922383Y-105954819D02*
X-2922383Y-105288152D01*
X-2922383Y-104954819D02*
X-2874764Y-105002438D01*
X-2874764Y-105002438D02*
X-2922383Y-105050057D01*
X-2922383Y-105050057D02*
X-2970002Y-105002438D01*
X-2970002Y-105002438D02*
X-2922383Y-104954819D01*
X-2922383Y-104954819D02*
X-2922383Y-105050057D01*
X-3398573Y-105288152D02*
X-3398573Y-105954819D01*
X-3398573Y-105383390D02*
X-3446192Y-105335771D01*
X-3446192Y-105335771D02*
X-3541430Y-105288152D01*
X-3541430Y-105288152D02*
X-3684287Y-105288152D01*
X-3684287Y-105288152D02*
X-3779525Y-105335771D01*
X-3779525Y-105335771D02*
X-3827144Y-105431009D01*
X-3827144Y-105431009D02*
X-3827144Y-105954819D01*
X-4731906Y-105954819D02*
X-4731906Y-105431009D01*
X-4731906Y-105431009D02*
X-4684287Y-105335771D01*
X-4684287Y-105335771D02*
X-4589049Y-105288152D01*
X-4589049Y-105288152D02*
X-4398573Y-105288152D01*
X-4398573Y-105288152D02*
X-4303335Y-105335771D01*
X-4731906Y-105907200D02*
X-4636668Y-105954819D01*
X-4636668Y-105954819D02*
X-4398573Y-105954819D01*
X-4398573Y-105954819D02*
X-4303335Y-105907200D01*
X-4303335Y-105907200D02*
X-4255716Y-105811961D01*
X-4255716Y-105811961D02*
X-4255716Y-105716723D01*
X-4255716Y-105716723D02*
X-4303335Y-105621485D01*
X-4303335Y-105621485D02*
X-4398573Y-105573866D01*
X-4398573Y-105573866D02*
X-4636668Y-105573866D01*
X-4636668Y-105573866D02*
X-4731906Y-105526247D01*
X-5350954Y-105954819D02*
X-5255716Y-105907200D01*
X-5255716Y-105907200D02*
X-5208097Y-105811961D01*
X-5208097Y-105811961D02*
X-5208097Y-104954819D01*
X-5922383Y-104954819D02*
X-6017621Y-104954819D01*
X-6017621Y-104954819D02*
X-6112859Y-105002438D01*
X-6112859Y-105002438D02*
X-6160478Y-105050057D01*
X-6160478Y-105050057D02*
X-6208097Y-105145295D01*
X-6208097Y-105145295D02*
X-6255716Y-105335771D01*
X-6255716Y-105335771D02*
X-6255716Y-105573866D01*
X-6255716Y-105573866D02*
X-6208097Y-105764342D01*
X-6208097Y-105764342D02*
X-6160478Y-105859580D01*
X-6160478Y-105859580D02*
X-6112859Y-105907200D01*
X-6112859Y-105907200D02*
X-6017621Y-105954819D01*
X-6017621Y-105954819D02*
X-5922383Y-105954819D01*
X-5922383Y-105954819D02*
X-5827145Y-105907200D01*
X-5827145Y-105907200D02*
X-5779526Y-105859580D01*
X-5779526Y-105859580D02*
X-5731907Y-105764342D01*
X-5731907Y-105764342D02*
X-5684288Y-105573866D01*
X-5684288Y-105573866D02*
X-5684288Y-105335771D01*
X-5684288Y-105335771D02*
X-5731907Y-105145295D01*
X-5731907Y-105145295D02*
X-5779526Y-105050057D01*
X-5779526Y-105050057D02*
X-5827145Y-105002438D01*
X-5827145Y-105002438D02*
X-5922383Y-104954819D01*
X-1468990Y-125080950D02*
X-1421371Y-125223807D01*
X-1421371Y-125223807D02*
X-1373752Y-125271426D01*
X-1373752Y-125271426D02*
X-1278514Y-125319045D01*
X-1278514Y-125319045D02*
X-1135657Y-125319045D01*
X-1135657Y-125319045D02*
X-1040419Y-125271426D01*
X-1040419Y-125271426D02*
X-992800Y-125223807D01*
X-992800Y-125223807D02*
X-945180Y-125128569D01*
X-945180Y-125128569D02*
X-945180Y-124747617D01*
X-945180Y-124747617D02*
X-1945180Y-124747617D01*
X-1945180Y-124747617D02*
X-1945180Y-125080950D01*
X-1945180Y-125080950D02*
X-1897561Y-125176188D01*
X-1897561Y-125176188D02*
X-1849942Y-125223807D01*
X-1849942Y-125223807D02*
X-1754704Y-125271426D01*
X-1754704Y-125271426D02*
X-1659466Y-125271426D01*
X-1659466Y-125271426D02*
X-1564228Y-125223807D01*
X-1564228Y-125223807D02*
X-1516609Y-125176188D01*
X-1516609Y-125176188D02*
X-1468990Y-125080950D01*
X-1468990Y-125080950D02*
X-1468990Y-124747617D01*
X-1611847Y-126176188D02*
X-945180Y-126176188D01*
X-1611847Y-125747617D02*
X-1088038Y-125747617D01*
X-1088038Y-125747617D02*
X-992800Y-125795236D01*
X-992800Y-125795236D02*
X-945180Y-125890474D01*
X-945180Y-125890474D02*
X-945180Y-126033331D01*
X-945180Y-126033331D02*
X-992800Y-126128569D01*
X-992800Y-126128569D02*
X-1040419Y-126176188D01*
X-992800Y-127080950D02*
X-945180Y-126985712D01*
X-945180Y-126985712D02*
X-945180Y-126795236D01*
X-945180Y-126795236D02*
X-992800Y-126699998D01*
X-992800Y-126699998D02*
X-1040419Y-126652379D01*
X-1040419Y-126652379D02*
X-1135657Y-126604760D01*
X-1135657Y-126604760D02*
X-1421371Y-126604760D01*
X-1421371Y-126604760D02*
X-1516609Y-126652379D01*
X-1516609Y-126652379D02*
X-1564228Y-126699998D01*
X-1564228Y-126699998D02*
X-1611847Y-126795236D01*
X-1611847Y-126795236D02*
X-1611847Y-126985712D01*
X-1611847Y-126985712D02*
X-1564228Y-127080950D01*
X-945180Y-127509522D02*
X-1945180Y-127509522D01*
X-1326133Y-127604760D02*
X-945180Y-127890474D01*
X-1611847Y-127890474D02*
X-1230895Y-127509522D01*
X-1468990Y-129414284D02*
X-1421371Y-129557141D01*
X-1421371Y-129557141D02*
X-1373752Y-129604760D01*
X-1373752Y-129604760D02*
X-1278514Y-129652379D01*
X-1278514Y-129652379D02*
X-1135657Y-129652379D01*
X-1135657Y-129652379D02*
X-1040419Y-129604760D01*
X-1040419Y-129604760D02*
X-992800Y-129557141D01*
X-992800Y-129557141D02*
X-945180Y-129461903D01*
X-945180Y-129461903D02*
X-945180Y-129080951D01*
X-945180Y-129080951D02*
X-1945180Y-129080951D01*
X-1945180Y-129080951D02*
X-1945180Y-129414284D01*
X-1945180Y-129414284D02*
X-1897561Y-129509522D01*
X-1897561Y-129509522D02*
X-1849942Y-129557141D01*
X-1849942Y-129557141D02*
X-1754704Y-129604760D01*
X-1754704Y-129604760D02*
X-1659466Y-129604760D01*
X-1659466Y-129604760D02*
X-1564228Y-129557141D01*
X-1564228Y-129557141D02*
X-1516609Y-129509522D01*
X-1516609Y-129509522D02*
X-1468990Y-129414284D01*
X-1468990Y-129414284D02*
X-1468990Y-129080951D01*
X-945180Y-130223808D02*
X-992800Y-130128570D01*
X-992800Y-130128570D02*
X-1040419Y-130080951D01*
X-1040419Y-130080951D02*
X-1135657Y-130033332D01*
X-1135657Y-130033332D02*
X-1421371Y-130033332D01*
X-1421371Y-130033332D02*
X-1516609Y-130080951D01*
X-1516609Y-130080951D02*
X-1564228Y-130128570D01*
X-1564228Y-130128570D02*
X-1611847Y-130223808D01*
X-1611847Y-130223808D02*
X-1611847Y-130366665D01*
X-1611847Y-130366665D02*
X-1564228Y-130461903D01*
X-1564228Y-130461903D02*
X-1516609Y-130509522D01*
X-1516609Y-130509522D02*
X-1421371Y-130557141D01*
X-1421371Y-130557141D02*
X-1135657Y-130557141D01*
X-1135657Y-130557141D02*
X-1040419Y-130509522D01*
X-1040419Y-130509522D02*
X-992800Y-130461903D01*
X-992800Y-130461903D02*
X-945180Y-130366665D01*
X-945180Y-130366665D02*
X-945180Y-130223808D01*
X-945180Y-131128570D02*
X-992800Y-131033332D01*
X-992800Y-131033332D02*
X-1040419Y-130985713D01*
X-1040419Y-130985713D02*
X-1135657Y-130938094D01*
X-1135657Y-130938094D02*
X-1421371Y-130938094D01*
X-1421371Y-130938094D02*
X-1516609Y-130985713D01*
X-1516609Y-130985713D02*
X-1564228Y-131033332D01*
X-1564228Y-131033332D02*
X-1611847Y-131128570D01*
X-1611847Y-131128570D02*
X-1611847Y-131271427D01*
X-1611847Y-131271427D02*
X-1564228Y-131366665D01*
X-1564228Y-131366665D02*
X-1516609Y-131414284D01*
X-1516609Y-131414284D02*
X-1421371Y-131461903D01*
X-1421371Y-131461903D02*
X-1135657Y-131461903D01*
X-1135657Y-131461903D02*
X-1040419Y-131414284D01*
X-1040419Y-131414284D02*
X-992800Y-131366665D01*
X-992800Y-131366665D02*
X-945180Y-131271427D01*
X-945180Y-131271427D02*
X-945180Y-131128570D01*
X-992800Y-131842856D02*
X-945180Y-131938094D01*
X-945180Y-131938094D02*
X-945180Y-132128570D01*
X-945180Y-132128570D02*
X-992800Y-132223808D01*
X-992800Y-132223808D02*
X-1088038Y-132271427D01*
X-1088038Y-132271427D02*
X-1135657Y-132271427D01*
X-1135657Y-132271427D02*
X-1230895Y-132223808D01*
X-1230895Y-132223808D02*
X-1278514Y-132128570D01*
X-1278514Y-132128570D02*
X-1278514Y-131985713D01*
X-1278514Y-131985713D02*
X-1326133Y-131890475D01*
X-1326133Y-131890475D02*
X-1421371Y-131842856D01*
X-1421371Y-131842856D02*
X-1468990Y-131842856D01*
X-1468990Y-131842856D02*
X-1564228Y-131890475D01*
X-1564228Y-131890475D02*
X-1611847Y-131985713D01*
X-1611847Y-131985713D02*
X-1611847Y-132128570D01*
X-1611847Y-132128570D02*
X-1564228Y-132223808D01*
X-1611847Y-132557142D02*
X-1611847Y-132938094D01*
X-1945180Y-132699999D02*
X-1088038Y-132699999D01*
X-1088038Y-132699999D02*
X-992800Y-132747618D01*
X-992800Y-132747618D02*
X-945180Y-132842856D01*
X-945180Y-132842856D02*
X-945180Y-132938094D01*
X-1040419Y-134604761D02*
X-992800Y-134557142D01*
X-992800Y-134557142D02*
X-945180Y-134414285D01*
X-945180Y-134414285D02*
X-945180Y-134319047D01*
X-945180Y-134319047D02*
X-992800Y-134176190D01*
X-992800Y-134176190D02*
X-1088038Y-134080952D01*
X-1088038Y-134080952D02*
X-1183276Y-134033333D01*
X-1183276Y-134033333D02*
X-1373752Y-133985714D01*
X-1373752Y-133985714D02*
X-1516609Y-133985714D01*
X-1516609Y-133985714D02*
X-1707085Y-134033333D01*
X-1707085Y-134033333D02*
X-1802323Y-134080952D01*
X-1802323Y-134080952D02*
X-1897561Y-134176190D01*
X-1897561Y-134176190D02*
X-1945180Y-134319047D01*
X-1945180Y-134319047D02*
X-1945180Y-134414285D01*
X-1945180Y-134414285D02*
X-1897561Y-134557142D01*
X-1897561Y-134557142D02*
X-1849942Y-134604761D01*
X-945180Y-135176190D02*
X-992800Y-135080952D01*
X-992800Y-135080952D02*
X-1040419Y-135033333D01*
X-1040419Y-135033333D02*
X-1135657Y-134985714D01*
X-1135657Y-134985714D02*
X-1421371Y-134985714D01*
X-1421371Y-134985714D02*
X-1516609Y-135033333D01*
X-1516609Y-135033333D02*
X-1564228Y-135080952D01*
X-1564228Y-135080952D02*
X-1611847Y-135176190D01*
X-1611847Y-135176190D02*
X-1611847Y-135319047D01*
X-1611847Y-135319047D02*
X-1564228Y-135414285D01*
X-1564228Y-135414285D02*
X-1516609Y-135461904D01*
X-1516609Y-135461904D02*
X-1421371Y-135509523D01*
X-1421371Y-135509523D02*
X-1135657Y-135509523D01*
X-1135657Y-135509523D02*
X-1040419Y-135461904D01*
X-1040419Y-135461904D02*
X-992800Y-135414285D01*
X-992800Y-135414285D02*
X-945180Y-135319047D01*
X-945180Y-135319047D02*
X-945180Y-135176190D01*
X-1611847Y-135938095D02*
X-945180Y-135938095D01*
X-1516609Y-135938095D02*
X-1564228Y-135985714D01*
X-1564228Y-135985714D02*
X-1611847Y-136080952D01*
X-1611847Y-136080952D02*
X-1611847Y-136223809D01*
X-1611847Y-136223809D02*
X-1564228Y-136319047D01*
X-1564228Y-136319047D02*
X-1468990Y-136366666D01*
X-1468990Y-136366666D02*
X-945180Y-136366666D01*
X-1611847Y-136747619D02*
X-945180Y-136985714D01*
X-945180Y-136985714D02*
X-1611847Y-137223809D01*
X-992800Y-137985714D02*
X-945180Y-137890476D01*
X-945180Y-137890476D02*
X-945180Y-137700000D01*
X-945180Y-137700000D02*
X-992800Y-137604762D01*
X-992800Y-137604762D02*
X-1088038Y-137557143D01*
X-1088038Y-137557143D02*
X-1468990Y-137557143D01*
X-1468990Y-137557143D02*
X-1564228Y-137604762D01*
X-1564228Y-137604762D02*
X-1611847Y-137700000D01*
X-1611847Y-137700000D02*
X-1611847Y-137890476D01*
X-1611847Y-137890476D02*
X-1564228Y-137985714D01*
X-1564228Y-137985714D02*
X-1468990Y-138033333D01*
X-1468990Y-138033333D02*
X-1373752Y-138033333D01*
X-1373752Y-138033333D02*
X-1278514Y-137557143D01*
X-945180Y-138461905D02*
X-1611847Y-138461905D01*
X-1421371Y-138461905D02*
X-1516609Y-138509524D01*
X-1516609Y-138509524D02*
X-1564228Y-138557143D01*
X-1564228Y-138557143D02*
X-1611847Y-138652381D01*
X-1611847Y-138652381D02*
X-1611847Y-138747619D01*
X-1611847Y-138938096D02*
X-1611847Y-139319048D01*
X-1945180Y-139080953D02*
X-1088038Y-139080953D01*
X-1088038Y-139080953D02*
X-992800Y-139128572D01*
X-992800Y-139128572D02*
X-945180Y-139223810D01*
X-945180Y-139223810D02*
X-945180Y-139319048D01*
X-992800Y-140033334D02*
X-945180Y-139938096D01*
X-945180Y-139938096D02*
X-945180Y-139747620D01*
X-945180Y-139747620D02*
X-992800Y-139652382D01*
X-992800Y-139652382D02*
X-1088038Y-139604763D01*
X-1088038Y-139604763D02*
X-1468990Y-139604763D01*
X-1468990Y-139604763D02*
X-1564228Y-139652382D01*
X-1564228Y-139652382D02*
X-1611847Y-139747620D01*
X-1611847Y-139747620D02*
X-1611847Y-139938096D01*
X-1611847Y-139938096D02*
X-1564228Y-140033334D01*
X-1564228Y-140033334D02*
X-1468990Y-140080953D01*
X-1468990Y-140080953D02*
X-1373752Y-140080953D01*
X-1373752Y-140080953D02*
X-1278514Y-139604763D01*
X-945180Y-140509525D02*
X-1611847Y-140509525D01*
X-1421371Y-140509525D02*
X-1516609Y-140557144D01*
X-1516609Y-140557144D02*
X-1564228Y-140604763D01*
X-1564228Y-140604763D02*
X-1611847Y-140700001D01*
X-1611847Y-140700001D02*
X-1611847Y-140795239D01*
X-5540419Y-123676189D02*
X-5492800Y-123628570D01*
X-5492800Y-123628570D02*
X-5445180Y-123485713D01*
X-5445180Y-123485713D02*
X-5445180Y-123390475D01*
X-5445180Y-123390475D02*
X-5492800Y-123247618D01*
X-5492800Y-123247618D02*
X-5588038Y-123152380D01*
X-5588038Y-123152380D02*
X-5683276Y-123104761D01*
X-5683276Y-123104761D02*
X-5873752Y-123057142D01*
X-5873752Y-123057142D02*
X-6016609Y-123057142D01*
X-6016609Y-123057142D02*
X-6207085Y-123104761D01*
X-6207085Y-123104761D02*
X-6302323Y-123152380D01*
X-6302323Y-123152380D02*
X-6397561Y-123247618D01*
X-6397561Y-123247618D02*
X-6445180Y-123390475D01*
X-6445180Y-123390475D02*
X-6445180Y-123485713D01*
X-6445180Y-123485713D02*
X-6397561Y-123628570D01*
X-6397561Y-123628570D02*
X-6349942Y-123676189D01*
X-5445180Y-124247618D02*
X-5492800Y-124152380D01*
X-5492800Y-124152380D02*
X-5540419Y-124104761D01*
X-5540419Y-124104761D02*
X-5635657Y-124057142D01*
X-5635657Y-124057142D02*
X-5921371Y-124057142D01*
X-5921371Y-124057142D02*
X-6016609Y-124104761D01*
X-6016609Y-124104761D02*
X-6064228Y-124152380D01*
X-6064228Y-124152380D02*
X-6111847Y-124247618D01*
X-6111847Y-124247618D02*
X-6111847Y-124390475D01*
X-6111847Y-124390475D02*
X-6064228Y-124485713D01*
X-6064228Y-124485713D02*
X-6016609Y-124533332D01*
X-6016609Y-124533332D02*
X-5921371Y-124580951D01*
X-5921371Y-124580951D02*
X-5635657Y-124580951D01*
X-5635657Y-124580951D02*
X-5540419Y-124533332D01*
X-5540419Y-124533332D02*
X-5492800Y-124485713D01*
X-5492800Y-124485713D02*
X-5445180Y-124390475D01*
X-5445180Y-124390475D02*
X-5445180Y-124247618D01*
X-6111847Y-125009523D02*
X-5445180Y-125009523D01*
X-6016609Y-125009523D02*
X-6064228Y-125057142D01*
X-6064228Y-125057142D02*
X-6111847Y-125152380D01*
X-6111847Y-125152380D02*
X-6111847Y-125295237D01*
X-6111847Y-125295237D02*
X-6064228Y-125390475D01*
X-6064228Y-125390475D02*
X-5968990Y-125438094D01*
X-5968990Y-125438094D02*
X-5445180Y-125438094D01*
X-6111847Y-125914285D02*
X-5445180Y-125914285D01*
X-6016609Y-125914285D02*
X-6064228Y-125961904D01*
X-6064228Y-125961904D02*
X-6111847Y-126057142D01*
X-6111847Y-126057142D02*
X-6111847Y-126199999D01*
X-6111847Y-126199999D02*
X-6064228Y-126295237D01*
X-6064228Y-126295237D02*
X-5968990Y-126342856D01*
X-5968990Y-126342856D02*
X-5445180Y-126342856D01*
X-5349942Y-126580952D02*
X-5349942Y-127342856D01*
X-6445180Y-127771428D02*
X-6445180Y-127866666D01*
X-6445180Y-127866666D02*
X-6397561Y-127961904D01*
X-6397561Y-127961904D02*
X-6349942Y-128009523D01*
X-6349942Y-128009523D02*
X-6254704Y-128057142D01*
X-6254704Y-128057142D02*
X-6064228Y-128104761D01*
X-6064228Y-128104761D02*
X-5826133Y-128104761D01*
X-5826133Y-128104761D02*
X-5635657Y-128057142D01*
X-5635657Y-128057142D02*
X-5540419Y-128009523D01*
X-5540419Y-128009523D02*
X-5492800Y-127961904D01*
X-5492800Y-127961904D02*
X-5445180Y-127866666D01*
X-5445180Y-127866666D02*
X-5445180Y-127771428D01*
X-5445180Y-127771428D02*
X-5492800Y-127676190D01*
X-5492800Y-127676190D02*
X-5540419Y-127628571D01*
X-5540419Y-127628571D02*
X-5635657Y-127580952D01*
X-5635657Y-127580952D02*
X-5826133Y-127533333D01*
X-5826133Y-127533333D02*
X-6064228Y-127533333D01*
X-6064228Y-127533333D02*
X-6254704Y-127580952D01*
X-6254704Y-127580952D02*
X-6349942Y-127628571D01*
X-6349942Y-127628571D02*
X-6397561Y-127676190D01*
X-6397561Y-127676190D02*
X-6445180Y-127771428D01*
X-5445180Y-129057142D02*
X-5445180Y-128485714D01*
X-5445180Y-128771428D02*
X-6445180Y-128771428D01*
X-6445180Y-128771428D02*
X-6302323Y-128676190D01*
X-6302323Y-128676190D02*
X-6207085Y-128580952D01*
X-6207085Y-128580952D02*
X-6159466Y-128485714D01*
X-5445180Y-129390476D02*
X-6111847Y-129914285D01*
X-6111847Y-129390476D02*
X-5445180Y-129914285D01*
X-6445180Y-130485714D02*
X-6445180Y-130580952D01*
X-6445180Y-130580952D02*
X-6397561Y-130676190D01*
X-6397561Y-130676190D02*
X-6349942Y-130723809D01*
X-6349942Y-130723809D02*
X-6254704Y-130771428D01*
X-6254704Y-130771428D02*
X-6064228Y-130819047D01*
X-6064228Y-130819047D02*
X-5826133Y-130819047D01*
X-5826133Y-130819047D02*
X-5635657Y-130771428D01*
X-5635657Y-130771428D02*
X-5540419Y-130723809D01*
X-5540419Y-130723809D02*
X-5492800Y-130676190D01*
X-5492800Y-130676190D02*
X-5445180Y-130580952D01*
X-5445180Y-130580952D02*
X-5445180Y-130485714D01*
X-5445180Y-130485714D02*
X-5492800Y-130390476D01*
X-5492800Y-130390476D02*
X-5540419Y-130342857D01*
X-5540419Y-130342857D02*
X-5635657Y-130295238D01*
X-5635657Y-130295238D02*
X-5826133Y-130247619D01*
X-5826133Y-130247619D02*
X-6064228Y-130247619D01*
X-6064228Y-130247619D02*
X-6254704Y-130295238D01*
X-6254704Y-130295238D02*
X-6349942Y-130342857D01*
X-6349942Y-130342857D02*
X-6397561Y-130390476D01*
X-6397561Y-130390476D02*
X-6445180Y-130485714D01*
X-6111847Y-131676190D02*
X-5445180Y-131676190D01*
X-6492800Y-131438095D02*
X-5778514Y-131200000D01*
X-5778514Y-131200000D02*
X-5778514Y-131819047D01*
X-5349942Y-131961905D02*
X-5349942Y-132723809D01*
X-5968990Y-133295238D02*
X-5921371Y-133438095D01*
X-5921371Y-133438095D02*
X-5873752Y-133485714D01*
X-5873752Y-133485714D02*
X-5778514Y-133533333D01*
X-5778514Y-133533333D02*
X-5635657Y-133533333D01*
X-5635657Y-133533333D02*
X-5540419Y-133485714D01*
X-5540419Y-133485714D02*
X-5492800Y-133438095D01*
X-5492800Y-133438095D02*
X-5445180Y-133342857D01*
X-5445180Y-133342857D02*
X-5445180Y-132961905D01*
X-5445180Y-132961905D02*
X-6445180Y-132961905D01*
X-6445180Y-132961905D02*
X-6445180Y-133295238D01*
X-6445180Y-133295238D02*
X-6397561Y-133390476D01*
X-6397561Y-133390476D02*
X-6349942Y-133438095D01*
X-6349942Y-133438095D02*
X-6254704Y-133485714D01*
X-6254704Y-133485714D02*
X-6159466Y-133485714D01*
X-6159466Y-133485714D02*
X-6064228Y-133438095D01*
X-6064228Y-133438095D02*
X-6016609Y-133390476D01*
X-6016609Y-133390476D02*
X-5968990Y-133295238D01*
X-5968990Y-133295238D02*
X-5968990Y-132961905D01*
X-6445180Y-133961905D02*
X-5635657Y-133961905D01*
X-5635657Y-133961905D02*
X-5540419Y-134009524D01*
X-5540419Y-134009524D02*
X-5492800Y-134057143D01*
X-5492800Y-134057143D02*
X-5445180Y-134152381D01*
X-5445180Y-134152381D02*
X-5445180Y-134342857D01*
X-5445180Y-134342857D02*
X-5492800Y-134438095D01*
X-5492800Y-134438095D02*
X-5540419Y-134485714D01*
X-5540419Y-134485714D02*
X-5635657Y-134533333D01*
X-5635657Y-134533333D02*
X-6445180Y-134533333D01*
X-5540419Y-135580952D02*
X-5492800Y-135533333D01*
X-5492800Y-135533333D02*
X-5445180Y-135390476D01*
X-5445180Y-135390476D02*
X-5445180Y-135295238D01*
X-5445180Y-135295238D02*
X-5492800Y-135152381D01*
X-5492800Y-135152381D02*
X-5588038Y-135057143D01*
X-5588038Y-135057143D02*
X-5683276Y-135009524D01*
X-5683276Y-135009524D02*
X-5873752Y-134961905D01*
X-5873752Y-134961905D02*
X-6016609Y-134961905D01*
X-6016609Y-134961905D02*
X-6207085Y-135009524D01*
X-6207085Y-135009524D02*
X-6302323Y-135057143D01*
X-6302323Y-135057143D02*
X-6397561Y-135152381D01*
X-6397561Y-135152381D02*
X-6445180Y-135295238D01*
X-6445180Y-135295238D02*
X-6445180Y-135390476D01*
X-6445180Y-135390476D02*
X-6397561Y-135533333D01*
X-6397561Y-135533333D02*
X-6349942Y-135580952D01*
X-5445180Y-136009524D02*
X-6445180Y-136009524D01*
X-5445180Y-136580952D02*
X-6016609Y-136152381D01*
X-6445180Y-136580952D02*
X-5873752Y-136009524D01*
X-5968990Y-137342857D02*
X-5921371Y-137485714D01*
X-5921371Y-137485714D02*
X-5873752Y-137533333D01*
X-5873752Y-137533333D02*
X-5778514Y-137580952D01*
X-5778514Y-137580952D02*
X-5635657Y-137580952D01*
X-5635657Y-137580952D02*
X-5540419Y-137533333D01*
X-5540419Y-137533333D02*
X-5492800Y-137485714D01*
X-5492800Y-137485714D02*
X-5445180Y-137390476D01*
X-5445180Y-137390476D02*
X-5445180Y-137009524D01*
X-5445180Y-137009524D02*
X-6445180Y-137009524D01*
X-6445180Y-137009524D02*
X-6445180Y-137342857D01*
X-6445180Y-137342857D02*
X-6397561Y-137438095D01*
X-6397561Y-137438095D02*
X-6349942Y-137485714D01*
X-6349942Y-137485714D02*
X-6254704Y-137533333D01*
X-6254704Y-137533333D02*
X-6159466Y-137533333D01*
X-6159466Y-137533333D02*
X-6064228Y-137485714D01*
X-6064228Y-137485714D02*
X-6016609Y-137438095D01*
X-6016609Y-137438095D02*
X-5968990Y-137342857D01*
X-5968990Y-137342857D02*
X-5968990Y-137009524D01*
X-6445180Y-138200000D02*
X-6445180Y-138390476D01*
X-6445180Y-138390476D02*
X-6397561Y-138485714D01*
X-6397561Y-138485714D02*
X-6302323Y-138580952D01*
X-6302323Y-138580952D02*
X-6111847Y-138628571D01*
X-6111847Y-138628571D02*
X-5778514Y-138628571D01*
X-5778514Y-138628571D02*
X-5588038Y-138580952D01*
X-5588038Y-138580952D02*
X-5492800Y-138485714D01*
X-5492800Y-138485714D02*
X-5445180Y-138390476D01*
X-5445180Y-138390476D02*
X-5445180Y-138200000D01*
X-5445180Y-138200000D02*
X-5492800Y-138104762D01*
X-5492800Y-138104762D02*
X-5588038Y-138009524D01*
X-5588038Y-138009524D02*
X-5778514Y-137961905D01*
X-5778514Y-137961905D02*
X-6111847Y-137961905D01*
X-6111847Y-137961905D02*
X-6302323Y-138009524D01*
X-6302323Y-138009524D02*
X-6397561Y-138104762D01*
X-6397561Y-138104762D02*
X-6445180Y-138200000D01*
X-6445180Y-139247619D02*
X-6445180Y-139438095D01*
X-6445180Y-139438095D02*
X-6397561Y-139533333D01*
X-6397561Y-139533333D02*
X-6302323Y-139628571D01*
X-6302323Y-139628571D02*
X-6111847Y-139676190D01*
X-6111847Y-139676190D02*
X-5778514Y-139676190D01*
X-5778514Y-139676190D02*
X-5588038Y-139628571D01*
X-5588038Y-139628571D02*
X-5492800Y-139533333D01*
X-5492800Y-139533333D02*
X-5445180Y-139438095D01*
X-5445180Y-139438095D02*
X-5445180Y-139247619D01*
X-5445180Y-139247619D02*
X-5492800Y-139152381D01*
X-5492800Y-139152381D02*
X-5588038Y-139057143D01*
X-5588038Y-139057143D02*
X-5778514Y-139009524D01*
X-5778514Y-139009524D02*
X-6111847Y-139009524D01*
X-6111847Y-139009524D02*
X-6302323Y-139057143D01*
X-6302323Y-139057143D02*
X-6397561Y-139152381D01*
X-6397561Y-139152381D02*
X-6445180Y-139247619D01*
X-5492800Y-140057143D02*
X-5445180Y-140200000D01*
X-5445180Y-140200000D02*
X-5445180Y-140438095D01*
X-5445180Y-140438095D02*
X-5492800Y-140533333D01*
X-5492800Y-140533333D02*
X-5540419Y-140580952D01*
X-5540419Y-140580952D02*
X-5635657Y-140628571D01*
X-5635657Y-140628571D02*
X-5730895Y-140628571D01*
X-5730895Y-140628571D02*
X-5826133Y-140580952D01*
X-5826133Y-140580952D02*
X-5873752Y-140533333D01*
X-5873752Y-140533333D02*
X-5921371Y-140438095D01*
X-5921371Y-140438095D02*
X-5968990Y-140247619D01*
X-5968990Y-140247619D02*
X-6016609Y-140152381D01*
X-6016609Y-140152381D02*
X-6064228Y-140104762D01*
X-6064228Y-140104762D02*
X-6159466Y-140057143D01*
X-6159466Y-140057143D02*
X-6254704Y-140057143D01*
X-6254704Y-140057143D02*
X-6349942Y-140104762D01*
X-6349942Y-140104762D02*
X-6397561Y-140152381D01*
X-6397561Y-140152381D02*
X-6445180Y-140247619D01*
X-6445180Y-140247619D02*
X-6445180Y-140485714D01*
X-6445180Y-140485714D02*
X-6397561Y-140628571D01*
X-6445180Y-140914286D02*
X-6445180Y-141485714D01*
X-5445180Y-141200000D02*
X-6445180Y-141200000D01*
X-6445180Y-142009524D02*
X-6445180Y-142104762D01*
X-6445180Y-142104762D02*
X-6397561Y-142200000D01*
X-6397561Y-142200000D02*
X-6349942Y-142247619D01*
X-6349942Y-142247619D02*
X-6254704Y-142295238D01*
X-6254704Y-142295238D02*
X-6064228Y-142342857D01*
X-6064228Y-142342857D02*
X-5826133Y-142342857D01*
X-5826133Y-142342857D02*
X-5635657Y-142295238D01*
X-5635657Y-142295238D02*
X-5540419Y-142247619D01*
X-5540419Y-142247619D02*
X-5492800Y-142200000D01*
X-5492800Y-142200000D02*
X-5445180Y-142104762D01*
X-5445180Y-142104762D02*
X-5445180Y-142009524D01*
X-5445180Y-142009524D02*
X-5492800Y-141914286D01*
X-5492800Y-141914286D02*
X-5540419Y-141866667D01*
X-5540419Y-141866667D02*
X-5635657Y-141819048D01*
X-5635657Y-141819048D02*
X-5826133Y-141771429D01*
X-5826133Y-141771429D02*
X-6064228Y-141771429D01*
X-6064228Y-141771429D02*
X-6254704Y-141819048D01*
X-6254704Y-141819048D02*
X-6349942Y-141866667D01*
X-6349942Y-141866667D02*
X-6397561Y-141914286D01*
X-6397561Y-141914286D02*
X-6445180Y-142009524D01*
X11278571Y-27431009D02*
X11135714Y-27478628D01*
X11135714Y-27478628D02*
X11088095Y-27526247D01*
X11088095Y-27526247D02*
X11040476Y-27621485D01*
X11040476Y-27621485D02*
X11040476Y-27764342D01*
X11040476Y-27764342D02*
X11088095Y-27859580D01*
X11088095Y-27859580D02*
X11135714Y-27907200D01*
X11135714Y-27907200D02*
X11230952Y-27954819D01*
X11230952Y-27954819D02*
X11611904Y-27954819D01*
X11611904Y-27954819D02*
X11611904Y-26954819D01*
X11611904Y-26954819D02*
X11278571Y-26954819D01*
X11278571Y-26954819D02*
X11183333Y-27002438D01*
X11183333Y-27002438D02*
X11135714Y-27050057D01*
X11135714Y-27050057D02*
X11088095Y-27145295D01*
X11088095Y-27145295D02*
X11088095Y-27240533D01*
X11088095Y-27240533D02*
X11135714Y-27335771D01*
X11135714Y-27335771D02*
X11183333Y-27383390D01*
X11183333Y-27383390D02*
X11278571Y-27431009D01*
X11278571Y-27431009D02*
X11611904Y-27431009D01*
X14873809Y-29407200D02*
X14730952Y-29454819D01*
X14730952Y-29454819D02*
X14492857Y-29454819D01*
X14492857Y-29454819D02*
X14397619Y-29407200D01*
X14397619Y-29407200D02*
X14350000Y-29359580D01*
X14350000Y-29359580D02*
X14302381Y-29264342D01*
X14302381Y-29264342D02*
X14302381Y-29169104D01*
X14302381Y-29169104D02*
X14350000Y-29073866D01*
X14350000Y-29073866D02*
X14397619Y-29026247D01*
X14397619Y-29026247D02*
X14492857Y-28978628D01*
X14492857Y-28978628D02*
X14683333Y-28931009D01*
X14683333Y-28931009D02*
X14778571Y-28883390D01*
X14778571Y-28883390D02*
X14826190Y-28835771D01*
X14826190Y-28835771D02*
X14873809Y-28740533D01*
X14873809Y-28740533D02*
X14873809Y-28645295D01*
X14873809Y-28645295D02*
X14826190Y-28550057D01*
X14826190Y-28550057D02*
X14778571Y-28502438D01*
X14778571Y-28502438D02*
X14683333Y-28454819D01*
X14683333Y-28454819D02*
X14445238Y-28454819D01*
X14445238Y-28454819D02*
X14302381Y-28502438D01*
X13969047Y-28454819D02*
X13730952Y-29454819D01*
X13730952Y-29454819D02*
X13540476Y-28740533D01*
X13540476Y-28740533D02*
X13350000Y-29454819D01*
X13350000Y-29454819D02*
X13111905Y-28454819D01*
X12969048Y-29550057D02*
X12207143Y-29550057D01*
X11969047Y-29454819D02*
X11969047Y-28454819D01*
X11969047Y-28454819D02*
X11588095Y-28454819D01*
X11588095Y-28454819D02*
X11492857Y-28502438D01*
X11492857Y-28502438D02*
X11445238Y-28550057D01*
X11445238Y-28550057D02*
X11397619Y-28645295D01*
X11397619Y-28645295D02*
X11397619Y-28788152D01*
X11397619Y-28788152D02*
X11445238Y-28883390D01*
X11445238Y-28883390D02*
X11492857Y-28931009D01*
X11492857Y-28931009D02*
X11588095Y-28978628D01*
X11588095Y-28978628D02*
X11969047Y-28978628D01*
X10540476Y-28788152D02*
X10540476Y-29454819D01*
X10969047Y-28788152D02*
X10969047Y-29311961D01*
X10969047Y-29311961D02*
X10921428Y-29407200D01*
X10921428Y-29407200D02*
X10826190Y-29454819D01*
X10826190Y-29454819D02*
X10683333Y-29454819D01*
X10683333Y-29454819D02*
X10588095Y-29407200D01*
X10588095Y-29407200D02*
X10540476Y-29359580D01*
X10111904Y-29407200D02*
X10016666Y-29454819D01*
X10016666Y-29454819D02*
X9826190Y-29454819D01*
X9826190Y-29454819D02*
X9730952Y-29407200D01*
X9730952Y-29407200D02*
X9683333Y-29311961D01*
X9683333Y-29311961D02*
X9683333Y-29264342D01*
X9683333Y-29264342D02*
X9730952Y-29169104D01*
X9730952Y-29169104D02*
X9826190Y-29121485D01*
X9826190Y-29121485D02*
X9969047Y-29121485D01*
X9969047Y-29121485D02*
X10064285Y-29073866D01*
X10064285Y-29073866D02*
X10111904Y-28978628D01*
X10111904Y-28978628D02*
X10111904Y-28931009D01*
X10111904Y-28931009D02*
X10064285Y-28835771D01*
X10064285Y-28835771D02*
X9969047Y-28788152D01*
X9969047Y-28788152D02*
X9826190Y-28788152D01*
X9826190Y-28788152D02*
X9730952Y-28835771D01*
X9254761Y-29454819D02*
X9254761Y-28454819D01*
X8826190Y-29454819D02*
X8826190Y-28931009D01*
X8826190Y-28931009D02*
X8873809Y-28835771D01*
X8873809Y-28835771D02*
X8969047Y-28788152D01*
X8969047Y-28788152D02*
X9111904Y-28788152D01*
X9111904Y-28788152D02*
X9207142Y-28835771D01*
X9207142Y-28835771D02*
X9254761Y-28883390D01*
X7826190Y-29454819D02*
X8397618Y-29454819D01*
X8111904Y-29454819D02*
X8111904Y-28454819D01*
X8111904Y-28454819D02*
X8207142Y-28597676D01*
X8207142Y-28597676D02*
X8302380Y-28692914D01*
X8302380Y-28692914D02*
X8397618Y-28740533D01*
%TO.C,Conn_01x15_ESP32_DEV_KIT_PINS_VIN-EN0*%
D12*
X2670000Y-74290000D02*
X2670000Y-36190000D01*
X2670000Y-36190000D02*
X765000Y-36190000D01*
X765000Y-36190000D02*
X130000Y-36825000D01*
X130000Y-74290000D02*
X2670000Y-74290000D01*
X130000Y-36825000D02*
X130000Y-74290000D01*
%TO.C,Conn_01x15_ESP32_DEV_KIT_PINS_3v3-D230*%
X29370000Y-74290000D02*
X29370000Y-36190000D01*
X29370000Y-36190000D02*
X27465000Y-36190000D01*
X27465000Y-36190000D02*
X26830000Y-36825000D01*
X26830000Y-74290000D02*
X29370000Y-74290000D01*
X26830000Y-36825000D02*
X26830000Y-74290000D01*
%TO.C,SPST_POWER_SWITCH0*%
X19500000Y-101240000D02*
X19500000Y-105960000D01*
X28280000Y-101240000D02*
X19500000Y-101240000D01*
X29280000Y-102240000D02*
X28280000Y-101240000D01*
X25066667Y-102965000D02*
X25066667Y-104235000D01*
X19500000Y-105960000D02*
X29280000Y-105960000D01*
X29280000Y-105960000D02*
X29280000Y-102240000D01*
X22360000Y-102965000D02*
X26420000Y-102965000D01*
X26420000Y-104235000D01*
X22360000Y-104235000D01*
X22360000Y-102965000D01*
X25066667Y-102965000D02*
X26420000Y-102965000D01*
X26420000Y-104235000D01*
X25066667Y-104235000D01*
X25066667Y-102965000D01*
G36*
X25066667Y-102965000D02*
G01*
X26420000Y-102965000D01*
X26420000Y-104235000D01*
X25066667Y-104235000D01*
X25066667Y-102965000D01*
G37*
%TO.C,Conn_01x04_CHARGING_MODULE0*%
X1200000Y-123550000D02*
X29400000Y-123550000D01*
X29400000Y-123550000D02*
X29400000Y-106650000D01*
X1200000Y-106650000D02*
X1200000Y-123550000D01*
X1200000Y-106650000D02*
X29400000Y-106650000D01*
%TO.C,J1*%
X2100000Y-79600000D02*
X28600000Y-79600000D01*
X28600000Y-99800000D01*
X2100000Y-99800000D01*
X2100000Y-79600000D01*
%TO.C,Conn_01x02_battery_terminal0*%
X2990000Y-104270000D02*
X8070000Y-104270000D01*
X8070000Y-104270000D02*
X8070000Y-102365000D01*
X8070000Y-102365000D02*
X7435000Y-101730000D01*
X2990000Y-101730000D02*
X2990000Y-104270000D01*
X7435000Y-101730000D02*
X2990000Y-101730000D01*
%TO.C,Conn_01x04_BUCKBOOST0*%
X30100000Y-141200000D02*
X100000Y-141200000D01*
X30100000Y-124200000D02*
X30100000Y-141200000D01*
X100000Y-141200000D02*
X100000Y-124200000D01*
X100000Y-124200000D02*
X30100000Y-124200000D01*
%TO.C,SW_Push1*%
X12350000Y-31000000D02*
X12350000Y-36000000D01*
X12350000Y-36000000D02*
X17850000Y-36000000D01*
X17850000Y-31000000D02*
X12350000Y-31000000D01*
X17850000Y-31000000D02*
X17850000Y-36000000D01*
%TD*%
M02*
