%TF.GenerationSoftware,KiCad,Pcbnew,10.0.0*%
%TF.CreationDate,2026-05-04T21:29:55-05:00*%
%TF.ProjectId,WiiRemote,57696952-656d-46f7-9465-2e6b69636164,rev?*%
%TF.SameCoordinates,Original*%
%TF.FileFunction,Legend,Bot*%
%TF.FilePolarity,Positive*%
%FSLAX46Y46*%
G04 Gerber Fmt 4.6, Leading zero omitted, Abs format (unit mm)*
G04 Created by KiCad (PCBNEW 10.0.0) date 2026-05-04 21:29:55*
%MOMM*%
%LPD*%
G01*
G04 APERTURE LIST*
%ADD10C,0.150000*%
%ADD11C,0.100000*%
%ADD12C,0.080000*%
%ADD13C,0.120000*%
G04 APERTURE END LIST*
D10*
X4759580Y-37636189D02*
X4807200Y-37588570D01*
X4807200Y-37588570D02*
X4854819Y-37445713D01*
X4854819Y-37445713D02*
X4854819Y-37350475D01*
X4854819Y-37350475D02*
X4807200Y-37207618D01*
X4807200Y-37207618D02*
X4711961Y-37112380D01*
X4711961Y-37112380D02*
X4616723Y-37064761D01*
X4616723Y-37064761D02*
X4426247Y-37017142D01*
X4426247Y-37017142D02*
X4283390Y-37017142D01*
X4283390Y-37017142D02*
X4092914Y-37064761D01*
X4092914Y-37064761D02*
X3997676Y-37112380D01*
X3997676Y-37112380D02*
X3902438Y-37207618D01*
X3902438Y-37207618D02*
X3854819Y-37350475D01*
X3854819Y-37350475D02*
X3854819Y-37445713D01*
X3854819Y-37445713D02*
X3902438Y-37588570D01*
X3902438Y-37588570D02*
X3950057Y-37636189D01*
X4854819Y-38207618D02*
X4807200Y-38112380D01*
X4807200Y-38112380D02*
X4759580Y-38064761D01*
X4759580Y-38064761D02*
X4664342Y-38017142D01*
X4664342Y-38017142D02*
X4378628Y-38017142D01*
X4378628Y-38017142D02*
X4283390Y-38064761D01*
X4283390Y-38064761D02*
X4235771Y-38112380D01*
X4235771Y-38112380D02*
X4188152Y-38207618D01*
X4188152Y-38207618D02*
X4188152Y-38350475D01*
X4188152Y-38350475D02*
X4235771Y-38445713D01*
X4235771Y-38445713D02*
X4283390Y-38493332D01*
X4283390Y-38493332D02*
X4378628Y-38540951D01*
X4378628Y-38540951D02*
X4664342Y-38540951D01*
X4664342Y-38540951D02*
X4759580Y-38493332D01*
X4759580Y-38493332D02*
X4807200Y-38445713D01*
X4807200Y-38445713D02*
X4854819Y-38350475D01*
X4854819Y-38350475D02*
X4854819Y-38207618D01*
X4188152Y-38969523D02*
X4854819Y-38969523D01*
X4283390Y-38969523D02*
X4235771Y-39017142D01*
X4235771Y-39017142D02*
X4188152Y-39112380D01*
X4188152Y-39112380D02*
X4188152Y-39255237D01*
X4188152Y-39255237D02*
X4235771Y-39350475D01*
X4235771Y-39350475D02*
X4331009Y-39398094D01*
X4331009Y-39398094D02*
X4854819Y-39398094D01*
X4188152Y-39874285D02*
X4854819Y-39874285D01*
X4283390Y-39874285D02*
X4235771Y-39921904D01*
X4235771Y-39921904D02*
X4188152Y-40017142D01*
X4188152Y-40017142D02*
X4188152Y-40159999D01*
X4188152Y-40159999D02*
X4235771Y-40255237D01*
X4235771Y-40255237D02*
X4331009Y-40302856D01*
X4331009Y-40302856D02*
X4854819Y-40302856D01*
X4950057Y-40540952D02*
X4950057Y-41302856D01*
X3854819Y-41731428D02*
X3854819Y-41826666D01*
X3854819Y-41826666D02*
X3902438Y-41921904D01*
X3902438Y-41921904D02*
X3950057Y-41969523D01*
X3950057Y-41969523D02*
X4045295Y-42017142D01*
X4045295Y-42017142D02*
X4235771Y-42064761D01*
X4235771Y-42064761D02*
X4473866Y-42064761D01*
X4473866Y-42064761D02*
X4664342Y-42017142D01*
X4664342Y-42017142D02*
X4759580Y-41969523D01*
X4759580Y-41969523D02*
X4807200Y-41921904D01*
X4807200Y-41921904D02*
X4854819Y-41826666D01*
X4854819Y-41826666D02*
X4854819Y-41731428D01*
X4854819Y-41731428D02*
X4807200Y-41636190D01*
X4807200Y-41636190D02*
X4759580Y-41588571D01*
X4759580Y-41588571D02*
X4664342Y-41540952D01*
X4664342Y-41540952D02*
X4473866Y-41493333D01*
X4473866Y-41493333D02*
X4235771Y-41493333D01*
X4235771Y-41493333D02*
X4045295Y-41540952D01*
X4045295Y-41540952D02*
X3950057Y-41588571D01*
X3950057Y-41588571D02*
X3902438Y-41636190D01*
X3902438Y-41636190D02*
X3854819Y-41731428D01*
X4854819Y-43017142D02*
X4854819Y-42445714D01*
X4854819Y-42731428D02*
X3854819Y-42731428D01*
X3854819Y-42731428D02*
X3997676Y-42636190D01*
X3997676Y-42636190D02*
X4092914Y-42540952D01*
X4092914Y-42540952D02*
X4140533Y-42445714D01*
X4854819Y-43350476D02*
X4188152Y-43874285D01*
X4188152Y-43350476D02*
X4854819Y-43874285D01*
X4854819Y-44779047D02*
X4854819Y-44207619D01*
X4854819Y-44493333D02*
X3854819Y-44493333D01*
X3854819Y-44493333D02*
X3997676Y-44398095D01*
X3997676Y-44398095D02*
X4092914Y-44302857D01*
X4092914Y-44302857D02*
X4140533Y-44207619D01*
X3854819Y-45683809D02*
X3854819Y-45207619D01*
X3854819Y-45207619D02*
X4331009Y-45160000D01*
X4331009Y-45160000D02*
X4283390Y-45207619D01*
X4283390Y-45207619D02*
X4235771Y-45302857D01*
X4235771Y-45302857D02*
X4235771Y-45540952D01*
X4235771Y-45540952D02*
X4283390Y-45636190D01*
X4283390Y-45636190D02*
X4331009Y-45683809D01*
X4331009Y-45683809D02*
X4426247Y-45731428D01*
X4426247Y-45731428D02*
X4664342Y-45731428D01*
X4664342Y-45731428D02*
X4759580Y-45683809D01*
X4759580Y-45683809D02*
X4807200Y-45636190D01*
X4807200Y-45636190D02*
X4854819Y-45540952D01*
X4854819Y-45540952D02*
X4854819Y-45302857D01*
X4854819Y-45302857D02*
X4807200Y-45207619D01*
X4807200Y-45207619D02*
X4759580Y-45160000D01*
X4950057Y-45921905D02*
X4950057Y-46683809D01*
X4331009Y-46921905D02*
X4331009Y-47255238D01*
X4854819Y-47398095D02*
X4854819Y-46921905D01*
X4854819Y-46921905D02*
X3854819Y-46921905D01*
X3854819Y-46921905D02*
X3854819Y-47398095D01*
X4807200Y-47779048D02*
X4854819Y-47921905D01*
X4854819Y-47921905D02*
X4854819Y-48160000D01*
X4854819Y-48160000D02*
X4807200Y-48255238D01*
X4807200Y-48255238D02*
X4759580Y-48302857D01*
X4759580Y-48302857D02*
X4664342Y-48350476D01*
X4664342Y-48350476D02*
X4569104Y-48350476D01*
X4569104Y-48350476D02*
X4473866Y-48302857D01*
X4473866Y-48302857D02*
X4426247Y-48255238D01*
X4426247Y-48255238D02*
X4378628Y-48160000D01*
X4378628Y-48160000D02*
X4331009Y-47969524D01*
X4331009Y-47969524D02*
X4283390Y-47874286D01*
X4283390Y-47874286D02*
X4235771Y-47826667D01*
X4235771Y-47826667D02*
X4140533Y-47779048D01*
X4140533Y-47779048D02*
X4045295Y-47779048D01*
X4045295Y-47779048D02*
X3950057Y-47826667D01*
X3950057Y-47826667D02*
X3902438Y-47874286D01*
X3902438Y-47874286D02*
X3854819Y-47969524D01*
X3854819Y-47969524D02*
X3854819Y-48207619D01*
X3854819Y-48207619D02*
X3902438Y-48350476D01*
X4854819Y-48779048D02*
X3854819Y-48779048D01*
X3854819Y-48779048D02*
X3854819Y-49160000D01*
X3854819Y-49160000D02*
X3902438Y-49255238D01*
X3902438Y-49255238D02*
X3950057Y-49302857D01*
X3950057Y-49302857D02*
X4045295Y-49350476D01*
X4045295Y-49350476D02*
X4188152Y-49350476D01*
X4188152Y-49350476D02*
X4283390Y-49302857D01*
X4283390Y-49302857D02*
X4331009Y-49255238D01*
X4331009Y-49255238D02*
X4378628Y-49160000D01*
X4378628Y-49160000D02*
X4378628Y-48779048D01*
X3854819Y-49683810D02*
X3854819Y-50302857D01*
X3854819Y-50302857D02*
X4235771Y-49969524D01*
X4235771Y-49969524D02*
X4235771Y-50112381D01*
X4235771Y-50112381D02*
X4283390Y-50207619D01*
X4283390Y-50207619D02*
X4331009Y-50255238D01*
X4331009Y-50255238D02*
X4426247Y-50302857D01*
X4426247Y-50302857D02*
X4664342Y-50302857D01*
X4664342Y-50302857D02*
X4759580Y-50255238D01*
X4759580Y-50255238D02*
X4807200Y-50207619D01*
X4807200Y-50207619D02*
X4854819Y-50112381D01*
X4854819Y-50112381D02*
X4854819Y-49826667D01*
X4854819Y-49826667D02*
X4807200Y-49731429D01*
X4807200Y-49731429D02*
X4759580Y-49683810D01*
X3950057Y-50683810D02*
X3902438Y-50731429D01*
X3902438Y-50731429D02*
X3854819Y-50826667D01*
X3854819Y-50826667D02*
X3854819Y-51064762D01*
X3854819Y-51064762D02*
X3902438Y-51160000D01*
X3902438Y-51160000D02*
X3950057Y-51207619D01*
X3950057Y-51207619D02*
X4045295Y-51255238D01*
X4045295Y-51255238D02*
X4140533Y-51255238D01*
X4140533Y-51255238D02*
X4283390Y-51207619D01*
X4283390Y-51207619D02*
X4854819Y-50636191D01*
X4854819Y-50636191D02*
X4854819Y-51255238D01*
X4950057Y-51445715D02*
X4950057Y-52207619D01*
X4854819Y-52445715D02*
X3854819Y-52445715D01*
X3854819Y-52445715D02*
X3854819Y-52683810D01*
X3854819Y-52683810D02*
X3902438Y-52826667D01*
X3902438Y-52826667D02*
X3997676Y-52921905D01*
X3997676Y-52921905D02*
X4092914Y-52969524D01*
X4092914Y-52969524D02*
X4283390Y-53017143D01*
X4283390Y-53017143D02*
X4426247Y-53017143D01*
X4426247Y-53017143D02*
X4616723Y-52969524D01*
X4616723Y-52969524D02*
X4711961Y-52921905D01*
X4711961Y-52921905D02*
X4807200Y-52826667D01*
X4807200Y-52826667D02*
X4854819Y-52683810D01*
X4854819Y-52683810D02*
X4854819Y-52445715D01*
X4331009Y-53445715D02*
X4331009Y-53779048D01*
X4854819Y-53921905D02*
X4854819Y-53445715D01*
X4854819Y-53445715D02*
X3854819Y-53445715D01*
X3854819Y-53445715D02*
X3854819Y-53921905D01*
X3854819Y-54207620D02*
X4854819Y-54540953D01*
X4854819Y-54540953D02*
X3854819Y-54874286D01*
X4950057Y-54969525D02*
X4950057Y-55731429D01*
X4854819Y-55969525D02*
X3854819Y-55969525D01*
X4854819Y-56540953D02*
X4283390Y-56112382D01*
X3854819Y-56540953D02*
X4426247Y-55969525D01*
X4854819Y-56969525D02*
X3854819Y-56969525D01*
X3854819Y-57302858D02*
X3854819Y-57874286D01*
X4854819Y-57588572D02*
X3854819Y-57588572D01*
X4950057Y-57969525D02*
X4950057Y-58731429D01*
X4854819Y-58969525D02*
X3854819Y-58969525D01*
X3854819Y-58969525D02*
X3854819Y-59350477D01*
X3854819Y-59350477D02*
X3902438Y-59445715D01*
X3902438Y-59445715D02*
X3950057Y-59493334D01*
X3950057Y-59493334D02*
X4045295Y-59540953D01*
X4045295Y-59540953D02*
X4188152Y-59540953D01*
X4188152Y-59540953D02*
X4283390Y-59493334D01*
X4283390Y-59493334D02*
X4331009Y-59445715D01*
X4331009Y-59445715D02*
X4378628Y-59350477D01*
X4378628Y-59350477D02*
X4378628Y-58969525D01*
X4854819Y-59969525D02*
X3854819Y-59969525D01*
X4854819Y-60445715D02*
X3854819Y-60445715D01*
X3854819Y-60445715D02*
X4854819Y-61017143D01*
X4854819Y-61017143D02*
X3854819Y-61017143D01*
X4807200Y-61445715D02*
X4854819Y-61588572D01*
X4854819Y-61588572D02*
X4854819Y-61826667D01*
X4854819Y-61826667D02*
X4807200Y-61921905D01*
X4807200Y-61921905D02*
X4759580Y-61969524D01*
X4759580Y-61969524D02*
X4664342Y-62017143D01*
X4664342Y-62017143D02*
X4569104Y-62017143D01*
X4569104Y-62017143D02*
X4473866Y-61969524D01*
X4473866Y-61969524D02*
X4426247Y-61921905D01*
X4426247Y-61921905D02*
X4378628Y-61826667D01*
X4378628Y-61826667D02*
X4331009Y-61636191D01*
X4331009Y-61636191D02*
X4283390Y-61540953D01*
X4283390Y-61540953D02*
X4235771Y-61493334D01*
X4235771Y-61493334D02*
X4140533Y-61445715D01*
X4140533Y-61445715D02*
X4045295Y-61445715D01*
X4045295Y-61445715D02*
X3950057Y-61493334D01*
X3950057Y-61493334D02*
X3902438Y-61540953D01*
X3902438Y-61540953D02*
X3854819Y-61636191D01*
X3854819Y-61636191D02*
X3854819Y-61874286D01*
X3854819Y-61874286D02*
X3902438Y-62017143D01*
X4950057Y-62207620D02*
X4950057Y-62969524D01*
X3854819Y-63064763D02*
X4854819Y-63398096D01*
X4854819Y-63398096D02*
X3854819Y-63731429D01*
X4854819Y-64064763D02*
X3854819Y-64064763D01*
X4854819Y-64540953D02*
X3854819Y-64540953D01*
X3854819Y-64540953D02*
X4854819Y-65112381D01*
X4854819Y-65112381D02*
X3854819Y-65112381D01*
X4473866Y-65588572D02*
X4473866Y-66350477D01*
X4331009Y-66826667D02*
X4331009Y-67160000D01*
X4854819Y-67302857D02*
X4854819Y-66826667D01*
X4854819Y-66826667D02*
X3854819Y-66826667D01*
X3854819Y-66826667D02*
X3854819Y-67302857D01*
X4854819Y-67731429D02*
X3854819Y-67731429D01*
X3854819Y-67731429D02*
X4854819Y-68302857D01*
X4854819Y-68302857D02*
X3854819Y-68302857D01*
X3854819Y-68969524D02*
X3854819Y-69064762D01*
X3854819Y-69064762D02*
X3902438Y-69160000D01*
X3902438Y-69160000D02*
X3950057Y-69207619D01*
X3950057Y-69207619D02*
X4045295Y-69255238D01*
X4045295Y-69255238D02*
X4235771Y-69302857D01*
X4235771Y-69302857D02*
X4473866Y-69302857D01*
X4473866Y-69302857D02*
X4664342Y-69255238D01*
X4664342Y-69255238D02*
X4759580Y-69207619D01*
X4759580Y-69207619D02*
X4807200Y-69160000D01*
X4807200Y-69160000D02*
X4854819Y-69064762D01*
X4854819Y-69064762D02*
X4854819Y-68969524D01*
X4854819Y-68969524D02*
X4807200Y-68874286D01*
X4807200Y-68874286D02*
X4759580Y-68826667D01*
X4759580Y-68826667D02*
X4664342Y-68779048D01*
X4664342Y-68779048D02*
X4473866Y-68731429D01*
X4473866Y-68731429D02*
X4235771Y-68731429D01*
X4235771Y-68731429D02*
X4045295Y-68779048D01*
X4045295Y-68779048D02*
X3950057Y-68826667D01*
X3950057Y-68826667D02*
X3902438Y-68874286D01*
X3902438Y-68874286D02*
X3854819Y-68969524D01*
X25259580Y-37937141D02*
X25307200Y-37889522D01*
X25307200Y-37889522D02*
X25354819Y-37746665D01*
X25354819Y-37746665D02*
X25354819Y-37651427D01*
X25354819Y-37651427D02*
X25307200Y-37508570D01*
X25307200Y-37508570D02*
X25211961Y-37413332D01*
X25211961Y-37413332D02*
X25116723Y-37365713D01*
X25116723Y-37365713D02*
X24926247Y-37318094D01*
X24926247Y-37318094D02*
X24783390Y-37318094D01*
X24783390Y-37318094D02*
X24592914Y-37365713D01*
X24592914Y-37365713D02*
X24497676Y-37413332D01*
X24497676Y-37413332D02*
X24402438Y-37508570D01*
X24402438Y-37508570D02*
X24354819Y-37651427D01*
X24354819Y-37651427D02*
X24354819Y-37746665D01*
X24354819Y-37746665D02*
X24402438Y-37889522D01*
X24402438Y-37889522D02*
X24450057Y-37937141D01*
X25354819Y-38508570D02*
X25307200Y-38413332D01*
X25307200Y-38413332D02*
X25259580Y-38365713D01*
X25259580Y-38365713D02*
X25164342Y-38318094D01*
X25164342Y-38318094D02*
X24878628Y-38318094D01*
X24878628Y-38318094D02*
X24783390Y-38365713D01*
X24783390Y-38365713D02*
X24735771Y-38413332D01*
X24735771Y-38413332D02*
X24688152Y-38508570D01*
X24688152Y-38508570D02*
X24688152Y-38651427D01*
X24688152Y-38651427D02*
X24735771Y-38746665D01*
X24735771Y-38746665D02*
X24783390Y-38794284D01*
X24783390Y-38794284D02*
X24878628Y-38841903D01*
X24878628Y-38841903D02*
X25164342Y-38841903D01*
X25164342Y-38841903D02*
X25259580Y-38794284D01*
X25259580Y-38794284D02*
X25307200Y-38746665D01*
X25307200Y-38746665D02*
X25354819Y-38651427D01*
X25354819Y-38651427D02*
X25354819Y-38508570D01*
X24688152Y-39270475D02*
X25354819Y-39270475D01*
X24783390Y-39270475D02*
X24735771Y-39318094D01*
X24735771Y-39318094D02*
X24688152Y-39413332D01*
X24688152Y-39413332D02*
X24688152Y-39556189D01*
X24688152Y-39556189D02*
X24735771Y-39651427D01*
X24735771Y-39651427D02*
X24831009Y-39699046D01*
X24831009Y-39699046D02*
X25354819Y-39699046D01*
X24688152Y-40175237D02*
X25354819Y-40175237D01*
X24783390Y-40175237D02*
X24735771Y-40222856D01*
X24735771Y-40222856D02*
X24688152Y-40318094D01*
X24688152Y-40318094D02*
X24688152Y-40460951D01*
X24688152Y-40460951D02*
X24735771Y-40556189D01*
X24735771Y-40556189D02*
X24831009Y-40603808D01*
X24831009Y-40603808D02*
X25354819Y-40603808D01*
X25450057Y-40841904D02*
X25450057Y-41603808D01*
X24354819Y-42032380D02*
X24354819Y-42127618D01*
X24354819Y-42127618D02*
X24402438Y-42222856D01*
X24402438Y-42222856D02*
X24450057Y-42270475D01*
X24450057Y-42270475D02*
X24545295Y-42318094D01*
X24545295Y-42318094D02*
X24735771Y-42365713D01*
X24735771Y-42365713D02*
X24973866Y-42365713D01*
X24973866Y-42365713D02*
X25164342Y-42318094D01*
X25164342Y-42318094D02*
X25259580Y-42270475D01*
X25259580Y-42270475D02*
X25307200Y-42222856D01*
X25307200Y-42222856D02*
X25354819Y-42127618D01*
X25354819Y-42127618D02*
X25354819Y-42032380D01*
X25354819Y-42032380D02*
X25307200Y-41937142D01*
X25307200Y-41937142D02*
X25259580Y-41889523D01*
X25259580Y-41889523D02*
X25164342Y-41841904D01*
X25164342Y-41841904D02*
X24973866Y-41794285D01*
X24973866Y-41794285D02*
X24735771Y-41794285D01*
X24735771Y-41794285D02*
X24545295Y-41841904D01*
X24545295Y-41841904D02*
X24450057Y-41889523D01*
X24450057Y-41889523D02*
X24402438Y-41937142D01*
X24402438Y-41937142D02*
X24354819Y-42032380D01*
X25354819Y-43318094D02*
X25354819Y-42746666D01*
X25354819Y-43032380D02*
X24354819Y-43032380D01*
X24354819Y-43032380D02*
X24497676Y-42937142D01*
X24497676Y-42937142D02*
X24592914Y-42841904D01*
X24592914Y-42841904D02*
X24640533Y-42746666D01*
X25354819Y-43651428D02*
X24688152Y-44175237D01*
X24688152Y-43651428D02*
X25354819Y-44175237D01*
X25354819Y-45079999D02*
X25354819Y-44508571D01*
X25354819Y-44794285D02*
X24354819Y-44794285D01*
X24354819Y-44794285D02*
X24497676Y-44699047D01*
X24497676Y-44699047D02*
X24592914Y-44603809D01*
X24592914Y-44603809D02*
X24640533Y-44508571D01*
X24354819Y-45984761D02*
X24354819Y-45508571D01*
X24354819Y-45508571D02*
X24831009Y-45460952D01*
X24831009Y-45460952D02*
X24783390Y-45508571D01*
X24783390Y-45508571D02*
X24735771Y-45603809D01*
X24735771Y-45603809D02*
X24735771Y-45841904D01*
X24735771Y-45841904D02*
X24783390Y-45937142D01*
X24783390Y-45937142D02*
X24831009Y-45984761D01*
X24831009Y-45984761D02*
X24926247Y-46032380D01*
X24926247Y-46032380D02*
X25164342Y-46032380D01*
X25164342Y-46032380D02*
X25259580Y-45984761D01*
X25259580Y-45984761D02*
X25307200Y-45937142D01*
X25307200Y-45937142D02*
X25354819Y-45841904D01*
X25354819Y-45841904D02*
X25354819Y-45603809D01*
X25354819Y-45603809D02*
X25307200Y-45508571D01*
X25307200Y-45508571D02*
X25259580Y-45460952D01*
X25450057Y-46222857D02*
X25450057Y-46984761D01*
X24831009Y-47222857D02*
X24831009Y-47556190D01*
X25354819Y-47699047D02*
X25354819Y-47222857D01*
X25354819Y-47222857D02*
X24354819Y-47222857D01*
X24354819Y-47222857D02*
X24354819Y-47699047D01*
X25307200Y-48080000D02*
X25354819Y-48222857D01*
X25354819Y-48222857D02*
X25354819Y-48460952D01*
X25354819Y-48460952D02*
X25307200Y-48556190D01*
X25307200Y-48556190D02*
X25259580Y-48603809D01*
X25259580Y-48603809D02*
X25164342Y-48651428D01*
X25164342Y-48651428D02*
X25069104Y-48651428D01*
X25069104Y-48651428D02*
X24973866Y-48603809D01*
X24973866Y-48603809D02*
X24926247Y-48556190D01*
X24926247Y-48556190D02*
X24878628Y-48460952D01*
X24878628Y-48460952D02*
X24831009Y-48270476D01*
X24831009Y-48270476D02*
X24783390Y-48175238D01*
X24783390Y-48175238D02*
X24735771Y-48127619D01*
X24735771Y-48127619D02*
X24640533Y-48080000D01*
X24640533Y-48080000D02*
X24545295Y-48080000D01*
X24545295Y-48080000D02*
X24450057Y-48127619D01*
X24450057Y-48127619D02*
X24402438Y-48175238D01*
X24402438Y-48175238D02*
X24354819Y-48270476D01*
X24354819Y-48270476D02*
X24354819Y-48508571D01*
X24354819Y-48508571D02*
X24402438Y-48651428D01*
X25354819Y-49080000D02*
X24354819Y-49080000D01*
X24354819Y-49080000D02*
X24354819Y-49460952D01*
X24354819Y-49460952D02*
X24402438Y-49556190D01*
X24402438Y-49556190D02*
X24450057Y-49603809D01*
X24450057Y-49603809D02*
X24545295Y-49651428D01*
X24545295Y-49651428D02*
X24688152Y-49651428D01*
X24688152Y-49651428D02*
X24783390Y-49603809D01*
X24783390Y-49603809D02*
X24831009Y-49556190D01*
X24831009Y-49556190D02*
X24878628Y-49460952D01*
X24878628Y-49460952D02*
X24878628Y-49080000D01*
X24354819Y-49984762D02*
X24354819Y-50603809D01*
X24354819Y-50603809D02*
X24735771Y-50270476D01*
X24735771Y-50270476D02*
X24735771Y-50413333D01*
X24735771Y-50413333D02*
X24783390Y-50508571D01*
X24783390Y-50508571D02*
X24831009Y-50556190D01*
X24831009Y-50556190D02*
X24926247Y-50603809D01*
X24926247Y-50603809D02*
X25164342Y-50603809D01*
X25164342Y-50603809D02*
X25259580Y-50556190D01*
X25259580Y-50556190D02*
X25307200Y-50508571D01*
X25307200Y-50508571D02*
X25354819Y-50413333D01*
X25354819Y-50413333D02*
X25354819Y-50127619D01*
X25354819Y-50127619D02*
X25307200Y-50032381D01*
X25307200Y-50032381D02*
X25259580Y-49984762D01*
X24450057Y-50984762D02*
X24402438Y-51032381D01*
X24402438Y-51032381D02*
X24354819Y-51127619D01*
X24354819Y-51127619D02*
X24354819Y-51365714D01*
X24354819Y-51365714D02*
X24402438Y-51460952D01*
X24402438Y-51460952D02*
X24450057Y-51508571D01*
X24450057Y-51508571D02*
X24545295Y-51556190D01*
X24545295Y-51556190D02*
X24640533Y-51556190D01*
X24640533Y-51556190D02*
X24783390Y-51508571D01*
X24783390Y-51508571D02*
X25354819Y-50937143D01*
X25354819Y-50937143D02*
X25354819Y-51556190D01*
X25450057Y-51746667D02*
X25450057Y-52508571D01*
X25354819Y-52746667D02*
X24354819Y-52746667D01*
X24354819Y-52746667D02*
X24354819Y-52984762D01*
X24354819Y-52984762D02*
X24402438Y-53127619D01*
X24402438Y-53127619D02*
X24497676Y-53222857D01*
X24497676Y-53222857D02*
X24592914Y-53270476D01*
X24592914Y-53270476D02*
X24783390Y-53318095D01*
X24783390Y-53318095D02*
X24926247Y-53318095D01*
X24926247Y-53318095D02*
X25116723Y-53270476D01*
X25116723Y-53270476D02*
X25211961Y-53222857D01*
X25211961Y-53222857D02*
X25307200Y-53127619D01*
X25307200Y-53127619D02*
X25354819Y-52984762D01*
X25354819Y-52984762D02*
X25354819Y-52746667D01*
X24831009Y-53746667D02*
X24831009Y-54080000D01*
X25354819Y-54222857D02*
X25354819Y-53746667D01*
X25354819Y-53746667D02*
X24354819Y-53746667D01*
X24354819Y-53746667D02*
X24354819Y-54222857D01*
X24354819Y-54508572D02*
X25354819Y-54841905D01*
X25354819Y-54841905D02*
X24354819Y-55175238D01*
X25450057Y-55270477D02*
X25450057Y-56032381D01*
X25354819Y-56270477D02*
X24354819Y-56270477D01*
X25354819Y-56841905D02*
X24783390Y-56413334D01*
X24354819Y-56841905D02*
X24926247Y-56270477D01*
X25354819Y-57270477D02*
X24354819Y-57270477D01*
X24354819Y-57603810D02*
X24354819Y-58175238D01*
X25354819Y-57889524D02*
X24354819Y-57889524D01*
X25450057Y-58270477D02*
X25450057Y-59032381D01*
X25354819Y-59270477D02*
X24354819Y-59270477D01*
X24354819Y-59270477D02*
X24354819Y-59651429D01*
X24354819Y-59651429D02*
X24402438Y-59746667D01*
X24402438Y-59746667D02*
X24450057Y-59794286D01*
X24450057Y-59794286D02*
X24545295Y-59841905D01*
X24545295Y-59841905D02*
X24688152Y-59841905D01*
X24688152Y-59841905D02*
X24783390Y-59794286D01*
X24783390Y-59794286D02*
X24831009Y-59746667D01*
X24831009Y-59746667D02*
X24878628Y-59651429D01*
X24878628Y-59651429D02*
X24878628Y-59270477D01*
X25354819Y-60270477D02*
X24354819Y-60270477D01*
X25354819Y-60746667D02*
X24354819Y-60746667D01*
X24354819Y-60746667D02*
X25354819Y-61318095D01*
X25354819Y-61318095D02*
X24354819Y-61318095D01*
X25307200Y-61746667D02*
X25354819Y-61889524D01*
X25354819Y-61889524D02*
X25354819Y-62127619D01*
X25354819Y-62127619D02*
X25307200Y-62222857D01*
X25307200Y-62222857D02*
X25259580Y-62270476D01*
X25259580Y-62270476D02*
X25164342Y-62318095D01*
X25164342Y-62318095D02*
X25069104Y-62318095D01*
X25069104Y-62318095D02*
X24973866Y-62270476D01*
X24973866Y-62270476D02*
X24926247Y-62222857D01*
X24926247Y-62222857D02*
X24878628Y-62127619D01*
X24878628Y-62127619D02*
X24831009Y-61937143D01*
X24831009Y-61937143D02*
X24783390Y-61841905D01*
X24783390Y-61841905D02*
X24735771Y-61794286D01*
X24735771Y-61794286D02*
X24640533Y-61746667D01*
X24640533Y-61746667D02*
X24545295Y-61746667D01*
X24545295Y-61746667D02*
X24450057Y-61794286D01*
X24450057Y-61794286D02*
X24402438Y-61841905D01*
X24402438Y-61841905D02*
X24354819Y-61937143D01*
X24354819Y-61937143D02*
X24354819Y-62175238D01*
X24354819Y-62175238D02*
X24402438Y-62318095D01*
X25450057Y-62508572D02*
X25450057Y-63270476D01*
X24354819Y-63413334D02*
X24354819Y-64032381D01*
X24354819Y-64032381D02*
X24735771Y-63699048D01*
X24735771Y-63699048D02*
X24735771Y-63841905D01*
X24735771Y-63841905D02*
X24783390Y-63937143D01*
X24783390Y-63937143D02*
X24831009Y-63984762D01*
X24831009Y-63984762D02*
X24926247Y-64032381D01*
X24926247Y-64032381D02*
X25164342Y-64032381D01*
X25164342Y-64032381D02*
X25259580Y-63984762D01*
X25259580Y-63984762D02*
X25307200Y-63937143D01*
X25307200Y-63937143D02*
X25354819Y-63841905D01*
X25354819Y-63841905D02*
X25354819Y-63556191D01*
X25354819Y-63556191D02*
X25307200Y-63460953D01*
X25307200Y-63460953D02*
X25259580Y-63413334D01*
X24688152Y-64365715D02*
X25354819Y-64603810D01*
X25354819Y-64603810D02*
X24688152Y-64841905D01*
X24354819Y-65127620D02*
X24354819Y-65746667D01*
X24354819Y-65746667D02*
X24735771Y-65413334D01*
X24735771Y-65413334D02*
X24735771Y-65556191D01*
X24735771Y-65556191D02*
X24783390Y-65651429D01*
X24783390Y-65651429D02*
X24831009Y-65699048D01*
X24831009Y-65699048D02*
X24926247Y-65746667D01*
X24926247Y-65746667D02*
X25164342Y-65746667D01*
X25164342Y-65746667D02*
X25259580Y-65699048D01*
X25259580Y-65699048D02*
X25307200Y-65651429D01*
X25307200Y-65651429D02*
X25354819Y-65556191D01*
X25354819Y-65556191D02*
X25354819Y-65270477D01*
X25354819Y-65270477D02*
X25307200Y-65175239D01*
X25307200Y-65175239D02*
X25259580Y-65127620D01*
X24973866Y-66175239D02*
X24973866Y-66937144D01*
X25354819Y-67413334D02*
X24354819Y-67413334D01*
X24354819Y-67413334D02*
X24354819Y-67651429D01*
X24354819Y-67651429D02*
X24402438Y-67794286D01*
X24402438Y-67794286D02*
X24497676Y-67889524D01*
X24497676Y-67889524D02*
X24592914Y-67937143D01*
X24592914Y-67937143D02*
X24783390Y-67984762D01*
X24783390Y-67984762D02*
X24926247Y-67984762D01*
X24926247Y-67984762D02*
X25116723Y-67937143D01*
X25116723Y-67937143D02*
X25211961Y-67889524D01*
X25211961Y-67889524D02*
X25307200Y-67794286D01*
X25307200Y-67794286D02*
X25354819Y-67651429D01*
X25354819Y-67651429D02*
X25354819Y-67413334D01*
X24450057Y-68365715D02*
X24402438Y-68413334D01*
X24402438Y-68413334D02*
X24354819Y-68508572D01*
X24354819Y-68508572D02*
X24354819Y-68746667D01*
X24354819Y-68746667D02*
X24402438Y-68841905D01*
X24402438Y-68841905D02*
X24450057Y-68889524D01*
X24450057Y-68889524D02*
X24545295Y-68937143D01*
X24545295Y-68937143D02*
X24640533Y-68937143D01*
X24640533Y-68937143D02*
X24783390Y-68889524D01*
X24783390Y-68889524D02*
X25354819Y-68318096D01*
X25354819Y-68318096D02*
X25354819Y-68937143D01*
X24354819Y-69270477D02*
X24354819Y-69889524D01*
X24354819Y-69889524D02*
X24735771Y-69556191D01*
X24735771Y-69556191D02*
X24735771Y-69699048D01*
X24735771Y-69699048D02*
X24783390Y-69794286D01*
X24783390Y-69794286D02*
X24831009Y-69841905D01*
X24831009Y-69841905D02*
X24926247Y-69889524D01*
X24926247Y-69889524D02*
X25164342Y-69889524D01*
X25164342Y-69889524D02*
X25259580Y-69841905D01*
X25259580Y-69841905D02*
X25307200Y-69794286D01*
X25307200Y-69794286D02*
X25354819Y-69699048D01*
X25354819Y-69699048D02*
X25354819Y-69413334D01*
X25354819Y-69413334D02*
X25307200Y-69318096D01*
X25307200Y-69318096D02*
X25259580Y-69270477D01*
X24354819Y-70508572D02*
X24354819Y-70603810D01*
X24354819Y-70603810D02*
X24402438Y-70699048D01*
X24402438Y-70699048D02*
X24450057Y-70746667D01*
X24450057Y-70746667D02*
X24545295Y-70794286D01*
X24545295Y-70794286D02*
X24735771Y-70841905D01*
X24735771Y-70841905D02*
X24973866Y-70841905D01*
X24973866Y-70841905D02*
X25164342Y-70794286D01*
X25164342Y-70794286D02*
X25259580Y-70746667D01*
X25259580Y-70746667D02*
X25307200Y-70699048D01*
X25307200Y-70699048D02*
X25354819Y-70603810D01*
X25354819Y-70603810D02*
X25354819Y-70508572D01*
X25354819Y-70508572D02*
X25307200Y-70413334D01*
X25307200Y-70413334D02*
X25259580Y-70365715D01*
X25259580Y-70365715D02*
X25164342Y-70318096D01*
X25164342Y-70318096D02*
X24973866Y-70270477D01*
X24973866Y-70270477D02*
X24735771Y-70270477D01*
X24735771Y-70270477D02*
X24545295Y-70318096D01*
X24545295Y-70318096D02*
X24450057Y-70365715D01*
X24450057Y-70365715D02*
X24402438Y-70413334D01*
X24402438Y-70413334D02*
X24354819Y-70508572D01*
X32509047Y-100587200D02*
X32366190Y-100634819D01*
X32366190Y-100634819D02*
X32128095Y-100634819D01*
X32128095Y-100634819D02*
X32032857Y-100587200D01*
X32032857Y-100587200D02*
X31985238Y-100539580D01*
X31985238Y-100539580D02*
X31937619Y-100444342D01*
X31937619Y-100444342D02*
X31937619Y-100349104D01*
X31937619Y-100349104D02*
X31985238Y-100253866D01*
X31985238Y-100253866D02*
X32032857Y-100206247D01*
X32032857Y-100206247D02*
X32128095Y-100158628D01*
X32128095Y-100158628D02*
X32318571Y-100111009D01*
X32318571Y-100111009D02*
X32413809Y-100063390D01*
X32413809Y-100063390D02*
X32461428Y-100015771D01*
X32461428Y-100015771D02*
X32509047Y-99920533D01*
X32509047Y-99920533D02*
X32509047Y-99825295D01*
X32509047Y-99825295D02*
X32461428Y-99730057D01*
X32461428Y-99730057D02*
X32413809Y-99682438D01*
X32413809Y-99682438D02*
X32318571Y-99634819D01*
X32318571Y-99634819D02*
X32080476Y-99634819D01*
X32080476Y-99634819D02*
X31937619Y-99682438D01*
X31509047Y-100634819D02*
X31509047Y-99634819D01*
X31509047Y-99634819D02*
X31128095Y-99634819D01*
X31128095Y-99634819D02*
X31032857Y-99682438D01*
X31032857Y-99682438D02*
X30985238Y-99730057D01*
X30985238Y-99730057D02*
X30937619Y-99825295D01*
X30937619Y-99825295D02*
X30937619Y-99968152D01*
X30937619Y-99968152D02*
X30985238Y-100063390D01*
X30985238Y-100063390D02*
X31032857Y-100111009D01*
X31032857Y-100111009D02*
X31128095Y-100158628D01*
X31128095Y-100158628D02*
X31509047Y-100158628D01*
X30556666Y-100587200D02*
X30413809Y-100634819D01*
X30413809Y-100634819D02*
X30175714Y-100634819D01*
X30175714Y-100634819D02*
X30080476Y-100587200D01*
X30080476Y-100587200D02*
X30032857Y-100539580D01*
X30032857Y-100539580D02*
X29985238Y-100444342D01*
X29985238Y-100444342D02*
X29985238Y-100349104D01*
X29985238Y-100349104D02*
X30032857Y-100253866D01*
X30032857Y-100253866D02*
X30080476Y-100206247D01*
X30080476Y-100206247D02*
X30175714Y-100158628D01*
X30175714Y-100158628D02*
X30366190Y-100111009D01*
X30366190Y-100111009D02*
X30461428Y-100063390D01*
X30461428Y-100063390D02*
X30509047Y-100015771D01*
X30509047Y-100015771D02*
X30556666Y-99920533D01*
X30556666Y-99920533D02*
X30556666Y-99825295D01*
X30556666Y-99825295D02*
X30509047Y-99730057D01*
X30509047Y-99730057D02*
X30461428Y-99682438D01*
X30461428Y-99682438D02*
X30366190Y-99634819D01*
X30366190Y-99634819D02*
X30128095Y-99634819D01*
X30128095Y-99634819D02*
X29985238Y-99682438D01*
X29699523Y-99634819D02*
X29128095Y-99634819D01*
X29413809Y-100634819D02*
X29413809Y-99634819D01*
X29032857Y-100730057D02*
X28270952Y-100730057D01*
X28032856Y-100634819D02*
X28032856Y-99634819D01*
X28032856Y-99634819D02*
X27651904Y-99634819D01*
X27651904Y-99634819D02*
X27556666Y-99682438D01*
X27556666Y-99682438D02*
X27509047Y-99730057D01*
X27509047Y-99730057D02*
X27461428Y-99825295D01*
X27461428Y-99825295D02*
X27461428Y-99968152D01*
X27461428Y-99968152D02*
X27509047Y-100063390D01*
X27509047Y-100063390D02*
X27556666Y-100111009D01*
X27556666Y-100111009D02*
X27651904Y-100158628D01*
X27651904Y-100158628D02*
X28032856Y-100158628D01*
X26842380Y-99634819D02*
X26651904Y-99634819D01*
X26651904Y-99634819D02*
X26556666Y-99682438D01*
X26556666Y-99682438D02*
X26461428Y-99777676D01*
X26461428Y-99777676D02*
X26413809Y-99968152D01*
X26413809Y-99968152D02*
X26413809Y-100301485D01*
X26413809Y-100301485D02*
X26461428Y-100491961D01*
X26461428Y-100491961D02*
X26556666Y-100587200D01*
X26556666Y-100587200D02*
X26651904Y-100634819D01*
X26651904Y-100634819D02*
X26842380Y-100634819D01*
X26842380Y-100634819D02*
X26937618Y-100587200D01*
X26937618Y-100587200D02*
X27032856Y-100491961D01*
X27032856Y-100491961D02*
X27080475Y-100301485D01*
X27080475Y-100301485D02*
X27080475Y-99968152D01*
X27080475Y-99968152D02*
X27032856Y-99777676D01*
X27032856Y-99777676D02*
X26937618Y-99682438D01*
X26937618Y-99682438D02*
X26842380Y-99634819D01*
X26080475Y-99634819D02*
X25842380Y-100634819D01*
X25842380Y-100634819D02*
X25651904Y-99920533D01*
X25651904Y-99920533D02*
X25461428Y-100634819D01*
X25461428Y-100634819D02*
X25223333Y-99634819D01*
X24842380Y-100111009D02*
X24509047Y-100111009D01*
X24366190Y-100634819D02*
X24842380Y-100634819D01*
X24842380Y-100634819D02*
X24842380Y-99634819D01*
X24842380Y-99634819D02*
X24366190Y-99634819D01*
X23366190Y-100634819D02*
X23699523Y-100158628D01*
X23937618Y-100634819D02*
X23937618Y-99634819D01*
X23937618Y-99634819D02*
X23556666Y-99634819D01*
X23556666Y-99634819D02*
X23461428Y-99682438D01*
X23461428Y-99682438D02*
X23413809Y-99730057D01*
X23413809Y-99730057D02*
X23366190Y-99825295D01*
X23366190Y-99825295D02*
X23366190Y-99968152D01*
X23366190Y-99968152D02*
X23413809Y-100063390D01*
X23413809Y-100063390D02*
X23461428Y-100111009D01*
X23461428Y-100111009D02*
X23556666Y-100158628D01*
X23556666Y-100158628D02*
X23937618Y-100158628D01*
X23175714Y-100730057D02*
X22413809Y-100730057D01*
X22223332Y-100587200D02*
X22080475Y-100634819D01*
X22080475Y-100634819D02*
X21842380Y-100634819D01*
X21842380Y-100634819D02*
X21747142Y-100587200D01*
X21747142Y-100587200D02*
X21699523Y-100539580D01*
X21699523Y-100539580D02*
X21651904Y-100444342D01*
X21651904Y-100444342D02*
X21651904Y-100349104D01*
X21651904Y-100349104D02*
X21699523Y-100253866D01*
X21699523Y-100253866D02*
X21747142Y-100206247D01*
X21747142Y-100206247D02*
X21842380Y-100158628D01*
X21842380Y-100158628D02*
X22032856Y-100111009D01*
X22032856Y-100111009D02*
X22128094Y-100063390D01*
X22128094Y-100063390D02*
X22175713Y-100015771D01*
X22175713Y-100015771D02*
X22223332Y-99920533D01*
X22223332Y-99920533D02*
X22223332Y-99825295D01*
X22223332Y-99825295D02*
X22175713Y-99730057D01*
X22175713Y-99730057D02*
X22128094Y-99682438D01*
X22128094Y-99682438D02*
X22032856Y-99634819D01*
X22032856Y-99634819D02*
X21794761Y-99634819D01*
X21794761Y-99634819D02*
X21651904Y-99682438D01*
X21318570Y-99634819D02*
X21080475Y-100634819D01*
X21080475Y-100634819D02*
X20889999Y-99920533D01*
X20889999Y-99920533D02*
X20699523Y-100634819D01*
X20699523Y-100634819D02*
X20461428Y-99634819D01*
X20080475Y-100634819D02*
X20080475Y-99634819D01*
X19747142Y-99634819D02*
X19175714Y-99634819D01*
X19461428Y-100634819D02*
X19461428Y-99634819D01*
X18270952Y-100539580D02*
X18318571Y-100587200D01*
X18318571Y-100587200D02*
X18461428Y-100634819D01*
X18461428Y-100634819D02*
X18556666Y-100634819D01*
X18556666Y-100634819D02*
X18699523Y-100587200D01*
X18699523Y-100587200D02*
X18794761Y-100491961D01*
X18794761Y-100491961D02*
X18842380Y-100396723D01*
X18842380Y-100396723D02*
X18889999Y-100206247D01*
X18889999Y-100206247D02*
X18889999Y-100063390D01*
X18889999Y-100063390D02*
X18842380Y-99872914D01*
X18842380Y-99872914D02*
X18794761Y-99777676D01*
X18794761Y-99777676D02*
X18699523Y-99682438D01*
X18699523Y-99682438D02*
X18556666Y-99634819D01*
X18556666Y-99634819D02*
X18461428Y-99634819D01*
X18461428Y-99634819D02*
X18318571Y-99682438D01*
X18318571Y-99682438D02*
X18270952Y-99730057D01*
X17842380Y-100634819D02*
X17842380Y-99634819D01*
X17842380Y-100111009D02*
X17270952Y-100111009D01*
X17270952Y-100634819D02*
X17270952Y-99634819D01*
X16604285Y-99634819D02*
X16509047Y-99634819D01*
X16509047Y-99634819D02*
X16413809Y-99682438D01*
X16413809Y-99682438D02*
X16366190Y-99730057D01*
X16366190Y-99730057D02*
X16318571Y-99825295D01*
X16318571Y-99825295D02*
X16270952Y-100015771D01*
X16270952Y-100015771D02*
X16270952Y-100253866D01*
X16270952Y-100253866D02*
X16318571Y-100444342D01*
X16318571Y-100444342D02*
X16366190Y-100539580D01*
X16366190Y-100539580D02*
X16413809Y-100587200D01*
X16413809Y-100587200D02*
X16509047Y-100634819D01*
X16509047Y-100634819D02*
X16604285Y-100634819D01*
X16604285Y-100634819D02*
X16699523Y-100587200D01*
X16699523Y-100587200D02*
X16747142Y-100539580D01*
X16747142Y-100539580D02*
X16794761Y-100444342D01*
X16794761Y-100444342D02*
X16842380Y-100253866D01*
X16842380Y-100253866D02*
X16842380Y-100015771D01*
X16842380Y-100015771D02*
X16794761Y-99825295D01*
X16794761Y-99825295D02*
X16747142Y-99730057D01*
X16747142Y-99730057D02*
X16699523Y-99682438D01*
X16699523Y-99682438D02*
X16604285Y-99634819D01*
D11*
X962180Y-108000000D02*
X1009800Y-107971428D01*
X1009800Y-107971428D02*
X1057419Y-107885714D01*
X1057419Y-107885714D02*
X1057419Y-107828571D01*
X1057419Y-107828571D02*
X1009800Y-107742857D01*
X1009800Y-107742857D02*
X914561Y-107685714D01*
X914561Y-107685714D02*
X819323Y-107657143D01*
X819323Y-107657143D02*
X628847Y-107628571D01*
X628847Y-107628571D02*
X485990Y-107628571D01*
X485990Y-107628571D02*
X295514Y-107657143D01*
X295514Y-107657143D02*
X200276Y-107685714D01*
X200276Y-107685714D02*
X105038Y-107742857D01*
X105038Y-107742857D02*
X57419Y-107828571D01*
X57419Y-107828571D02*
X57419Y-107885714D01*
X57419Y-107885714D02*
X105038Y-107971428D01*
X105038Y-107971428D02*
X152657Y-108000000D01*
X1057419Y-108342857D02*
X1009800Y-108285714D01*
X1009800Y-108285714D02*
X962180Y-108257143D01*
X962180Y-108257143D02*
X866942Y-108228571D01*
X866942Y-108228571D02*
X581228Y-108228571D01*
X581228Y-108228571D02*
X485990Y-108257143D01*
X485990Y-108257143D02*
X438371Y-108285714D01*
X438371Y-108285714D02*
X390752Y-108342857D01*
X390752Y-108342857D02*
X390752Y-108428571D01*
X390752Y-108428571D02*
X438371Y-108485714D01*
X438371Y-108485714D02*
X485990Y-108514286D01*
X485990Y-108514286D02*
X581228Y-108542857D01*
X581228Y-108542857D02*
X866942Y-108542857D01*
X866942Y-108542857D02*
X962180Y-108514286D01*
X962180Y-108514286D02*
X1009800Y-108485714D01*
X1009800Y-108485714D02*
X1057419Y-108428571D01*
X1057419Y-108428571D02*
X1057419Y-108342857D01*
X390752Y-108800000D02*
X1057419Y-108800000D01*
X485990Y-108800000D02*
X438371Y-108828571D01*
X438371Y-108828571D02*
X390752Y-108885714D01*
X390752Y-108885714D02*
X390752Y-108971428D01*
X390752Y-108971428D02*
X438371Y-109028571D01*
X438371Y-109028571D02*
X533609Y-109057143D01*
X533609Y-109057143D02*
X1057419Y-109057143D01*
X390752Y-109342857D02*
X1057419Y-109342857D01*
X485990Y-109342857D02*
X438371Y-109371428D01*
X438371Y-109371428D02*
X390752Y-109428571D01*
X390752Y-109428571D02*
X390752Y-109514285D01*
X390752Y-109514285D02*
X438371Y-109571428D01*
X438371Y-109571428D02*
X533609Y-109600000D01*
X533609Y-109600000D02*
X1057419Y-109600000D01*
X1152657Y-109742857D02*
X1152657Y-110199999D01*
X57419Y-110457142D02*
X57419Y-110514285D01*
X57419Y-110514285D02*
X105038Y-110571428D01*
X105038Y-110571428D02*
X152657Y-110600000D01*
X152657Y-110600000D02*
X247895Y-110628571D01*
X247895Y-110628571D02*
X438371Y-110657142D01*
X438371Y-110657142D02*
X676466Y-110657142D01*
X676466Y-110657142D02*
X866942Y-110628571D01*
X866942Y-110628571D02*
X962180Y-110600000D01*
X962180Y-110600000D02*
X1009800Y-110571428D01*
X1009800Y-110571428D02*
X1057419Y-110514285D01*
X1057419Y-110514285D02*
X1057419Y-110457142D01*
X1057419Y-110457142D02*
X1009800Y-110400000D01*
X1009800Y-110400000D02*
X962180Y-110371428D01*
X962180Y-110371428D02*
X866942Y-110342857D01*
X866942Y-110342857D02*
X676466Y-110314285D01*
X676466Y-110314285D02*
X438371Y-110314285D01*
X438371Y-110314285D02*
X247895Y-110342857D01*
X247895Y-110342857D02*
X152657Y-110371428D01*
X152657Y-110371428D02*
X105038Y-110400000D01*
X105038Y-110400000D02*
X57419Y-110457142D01*
X1057419Y-111228571D02*
X1057419Y-110885714D01*
X1057419Y-111057143D02*
X57419Y-111057143D01*
X57419Y-111057143D02*
X200276Y-111000000D01*
X200276Y-111000000D02*
X295514Y-110942857D01*
X295514Y-110942857D02*
X343133Y-110885714D01*
X1057419Y-111428572D02*
X390752Y-111742858D01*
X390752Y-111428572D02*
X1057419Y-111742858D01*
X57419Y-112085714D02*
X57419Y-112142857D01*
X57419Y-112142857D02*
X105038Y-112200000D01*
X105038Y-112200000D02*
X152657Y-112228572D01*
X152657Y-112228572D02*
X247895Y-112257143D01*
X247895Y-112257143D02*
X438371Y-112285714D01*
X438371Y-112285714D02*
X676466Y-112285714D01*
X676466Y-112285714D02*
X866942Y-112257143D01*
X866942Y-112257143D02*
X962180Y-112228572D01*
X962180Y-112228572D02*
X1009800Y-112200000D01*
X1009800Y-112200000D02*
X1057419Y-112142857D01*
X1057419Y-112142857D02*
X1057419Y-112085714D01*
X1057419Y-112085714D02*
X1009800Y-112028572D01*
X1009800Y-112028572D02*
X962180Y-112000000D01*
X962180Y-112000000D02*
X866942Y-111971429D01*
X866942Y-111971429D02*
X676466Y-111942857D01*
X676466Y-111942857D02*
X438371Y-111942857D01*
X438371Y-111942857D02*
X247895Y-111971429D01*
X247895Y-111971429D02*
X152657Y-112000000D01*
X152657Y-112000000D02*
X105038Y-112028572D01*
X105038Y-112028572D02*
X57419Y-112085714D01*
X390752Y-112800001D02*
X1057419Y-112800001D01*
X9800Y-112657143D02*
X724085Y-112514286D01*
X724085Y-112514286D02*
X724085Y-112885715D01*
X1152657Y-112971430D02*
X1152657Y-113428572D01*
X962180Y-113914287D02*
X1009800Y-113885715D01*
X1009800Y-113885715D02*
X1057419Y-113800001D01*
X1057419Y-113800001D02*
X1057419Y-113742858D01*
X1057419Y-113742858D02*
X1009800Y-113657144D01*
X1009800Y-113657144D02*
X914561Y-113600001D01*
X914561Y-113600001D02*
X819323Y-113571430D01*
X819323Y-113571430D02*
X628847Y-113542858D01*
X628847Y-113542858D02*
X485990Y-113542858D01*
X485990Y-113542858D02*
X295514Y-113571430D01*
X295514Y-113571430D02*
X200276Y-113600001D01*
X200276Y-113600001D02*
X105038Y-113657144D01*
X105038Y-113657144D02*
X57419Y-113742858D01*
X57419Y-113742858D02*
X57419Y-113800001D01*
X57419Y-113800001D02*
X105038Y-113885715D01*
X105038Y-113885715D02*
X152657Y-113914287D01*
X1057419Y-114171430D02*
X57419Y-114171430D01*
X533609Y-114171430D02*
X533609Y-114514287D01*
X1057419Y-114514287D02*
X57419Y-114514287D01*
X771704Y-114771429D02*
X771704Y-115057144D01*
X1057419Y-114714286D02*
X57419Y-114914286D01*
X57419Y-114914286D02*
X1057419Y-115114286D01*
X1057419Y-115657144D02*
X581228Y-115457144D01*
X1057419Y-115314287D02*
X57419Y-115314287D01*
X57419Y-115314287D02*
X57419Y-115542858D01*
X57419Y-115542858D02*
X105038Y-115600001D01*
X105038Y-115600001D02*
X152657Y-115628572D01*
X152657Y-115628572D02*
X247895Y-115657144D01*
X247895Y-115657144D02*
X390752Y-115657144D01*
X390752Y-115657144D02*
X485990Y-115628572D01*
X485990Y-115628572D02*
X533609Y-115600001D01*
X533609Y-115600001D02*
X581228Y-115542858D01*
X581228Y-115542858D02*
X581228Y-115314287D01*
X105038Y-116228572D02*
X57419Y-116171430D01*
X57419Y-116171430D02*
X57419Y-116085715D01*
X57419Y-116085715D02*
X105038Y-116000001D01*
X105038Y-116000001D02*
X200276Y-115942858D01*
X200276Y-115942858D02*
X295514Y-115914287D01*
X295514Y-115914287D02*
X485990Y-115885715D01*
X485990Y-115885715D02*
X628847Y-115885715D01*
X628847Y-115885715D02*
X819323Y-115914287D01*
X819323Y-115914287D02*
X914561Y-115942858D01*
X914561Y-115942858D02*
X1009800Y-116000001D01*
X1009800Y-116000001D02*
X1057419Y-116085715D01*
X1057419Y-116085715D02*
X1057419Y-116142858D01*
X1057419Y-116142858D02*
X1009800Y-116228572D01*
X1009800Y-116228572D02*
X962180Y-116257144D01*
X962180Y-116257144D02*
X628847Y-116257144D01*
X628847Y-116257144D02*
X628847Y-116142858D01*
X1057419Y-116514287D02*
X57419Y-116514287D01*
X1057419Y-116800001D02*
X57419Y-116800001D01*
X57419Y-116800001D02*
X1057419Y-117142858D01*
X1057419Y-117142858D02*
X57419Y-117142858D01*
X105038Y-117742857D02*
X57419Y-117685715D01*
X57419Y-117685715D02*
X57419Y-117600000D01*
X57419Y-117600000D02*
X105038Y-117514286D01*
X105038Y-117514286D02*
X200276Y-117457143D01*
X200276Y-117457143D02*
X295514Y-117428572D01*
X295514Y-117428572D02*
X485990Y-117400000D01*
X485990Y-117400000D02*
X628847Y-117400000D01*
X628847Y-117400000D02*
X819323Y-117428572D01*
X819323Y-117428572D02*
X914561Y-117457143D01*
X914561Y-117457143D02*
X1009800Y-117514286D01*
X1009800Y-117514286D02*
X1057419Y-117600000D01*
X1057419Y-117600000D02*
X1057419Y-117657143D01*
X1057419Y-117657143D02*
X1009800Y-117742857D01*
X1009800Y-117742857D02*
X962180Y-117771429D01*
X962180Y-117771429D02*
X628847Y-117771429D01*
X628847Y-117771429D02*
X628847Y-117657143D01*
X1152657Y-117885715D02*
X1152657Y-118342857D01*
X1057419Y-118485715D02*
X57419Y-118485715D01*
X57419Y-118485715D02*
X771704Y-118685715D01*
X771704Y-118685715D02*
X57419Y-118885715D01*
X57419Y-118885715D02*
X1057419Y-118885715D01*
X57419Y-119285714D02*
X57419Y-119400000D01*
X57419Y-119400000D02*
X105038Y-119457143D01*
X105038Y-119457143D02*
X200276Y-119514286D01*
X200276Y-119514286D02*
X390752Y-119542857D01*
X390752Y-119542857D02*
X724085Y-119542857D01*
X724085Y-119542857D02*
X914561Y-119514286D01*
X914561Y-119514286D02*
X1009800Y-119457143D01*
X1009800Y-119457143D02*
X1057419Y-119400000D01*
X1057419Y-119400000D02*
X1057419Y-119285714D01*
X1057419Y-119285714D02*
X1009800Y-119228572D01*
X1009800Y-119228572D02*
X914561Y-119171429D01*
X914561Y-119171429D02*
X724085Y-119142857D01*
X724085Y-119142857D02*
X390752Y-119142857D01*
X390752Y-119142857D02*
X200276Y-119171429D01*
X200276Y-119171429D02*
X105038Y-119228572D01*
X105038Y-119228572D02*
X57419Y-119285714D01*
X1057419Y-119800000D02*
X57419Y-119800000D01*
X57419Y-119800000D02*
X57419Y-119942857D01*
X57419Y-119942857D02*
X105038Y-120028571D01*
X105038Y-120028571D02*
X200276Y-120085714D01*
X200276Y-120085714D02*
X295514Y-120114285D01*
X295514Y-120114285D02*
X485990Y-120142857D01*
X485990Y-120142857D02*
X628847Y-120142857D01*
X628847Y-120142857D02*
X819323Y-120114285D01*
X819323Y-120114285D02*
X914561Y-120085714D01*
X914561Y-120085714D02*
X1009800Y-120028571D01*
X1009800Y-120028571D02*
X1057419Y-119942857D01*
X1057419Y-119942857D02*
X1057419Y-119800000D01*
X57419Y-120400000D02*
X866942Y-120400000D01*
X866942Y-120400000D02*
X962180Y-120428571D01*
X962180Y-120428571D02*
X1009800Y-120457143D01*
X1009800Y-120457143D02*
X1057419Y-120514285D01*
X1057419Y-120514285D02*
X1057419Y-120628571D01*
X1057419Y-120628571D02*
X1009800Y-120685714D01*
X1009800Y-120685714D02*
X962180Y-120714285D01*
X962180Y-120714285D02*
X866942Y-120742857D01*
X866942Y-120742857D02*
X57419Y-120742857D01*
X1057419Y-121314285D02*
X1057419Y-121028571D01*
X1057419Y-121028571D02*
X57419Y-121028571D01*
X533609Y-121514285D02*
X533609Y-121714285D01*
X1057419Y-121799999D02*
X1057419Y-121514285D01*
X1057419Y-121514285D02*
X57419Y-121514285D01*
X57419Y-121514285D02*
X57419Y-121799999D01*
X57419Y-122171427D02*
X57419Y-122228570D01*
X57419Y-122228570D02*
X105038Y-122285713D01*
X105038Y-122285713D02*
X152657Y-122314285D01*
X152657Y-122314285D02*
X247895Y-122342856D01*
X247895Y-122342856D02*
X438371Y-122371427D01*
X438371Y-122371427D02*
X676466Y-122371427D01*
X676466Y-122371427D02*
X866942Y-122342856D01*
X866942Y-122342856D02*
X962180Y-122314285D01*
X962180Y-122314285D02*
X1009800Y-122285713D01*
X1009800Y-122285713D02*
X1057419Y-122228570D01*
X1057419Y-122228570D02*
X1057419Y-122171427D01*
X1057419Y-122171427D02*
X1009800Y-122114285D01*
X1009800Y-122114285D02*
X962180Y-122085713D01*
X962180Y-122085713D02*
X866942Y-122057142D01*
X866942Y-122057142D02*
X676466Y-122028570D01*
X676466Y-122028570D02*
X438371Y-122028570D01*
X438371Y-122028570D02*
X247895Y-122057142D01*
X247895Y-122057142D02*
X152657Y-122085713D01*
X152657Y-122085713D02*
X105038Y-122114285D01*
X105038Y-122114285D02*
X57419Y-122171427D01*
X13766666Y-91342580D02*
X13766666Y-90628295D01*
X13766666Y-90628295D02*
X13719047Y-90485438D01*
X13719047Y-90485438D02*
X13623809Y-90390200D01*
X13623809Y-90390200D02*
X13480952Y-90342580D01*
X13480952Y-90342580D02*
X13385714Y-90342580D01*
X14766666Y-90342580D02*
X14195238Y-90342580D01*
X14480952Y-90342580D02*
X14480952Y-91342580D01*
X14480952Y-91342580D02*
X14385714Y-91199723D01*
X14385714Y-91199723D02*
X14290476Y-91104485D01*
X14290476Y-91104485D02*
X14195238Y-91056866D01*
X6972419Y-82461027D02*
X7972419Y-82794360D01*
X7972419Y-82794360D02*
X6972419Y-83127693D01*
X7972419Y-83461027D02*
X7305752Y-83461027D01*
X6972419Y-83461027D02*
X7020038Y-83413408D01*
X7020038Y-83413408D02*
X7067657Y-83461027D01*
X7067657Y-83461027D02*
X7020038Y-83508646D01*
X7020038Y-83508646D02*
X6972419Y-83461027D01*
X6972419Y-83461027D02*
X7067657Y-83461027D01*
X7305752Y-83937217D02*
X7972419Y-83937217D01*
X7400990Y-83937217D02*
X7353371Y-83984836D01*
X7353371Y-83984836D02*
X7305752Y-84080074D01*
X7305752Y-84080074D02*
X7305752Y-84222931D01*
X7305752Y-84222931D02*
X7353371Y-84318169D01*
X7353371Y-84318169D02*
X7448609Y-84365788D01*
X7448609Y-84365788D02*
X7972419Y-84365788D01*
X9472419Y-82508646D02*
X9472419Y-83127693D01*
X9472419Y-83127693D02*
X9853371Y-82794360D01*
X9853371Y-82794360D02*
X9853371Y-82937217D01*
X9853371Y-82937217D02*
X9900990Y-83032455D01*
X9900990Y-83032455D02*
X9948609Y-83080074D01*
X9948609Y-83080074D02*
X10043847Y-83127693D01*
X10043847Y-83127693D02*
X10281942Y-83127693D01*
X10281942Y-83127693D02*
X10377180Y-83080074D01*
X10377180Y-83080074D02*
X10424800Y-83032455D01*
X10424800Y-83032455D02*
X10472419Y-82937217D01*
X10472419Y-82937217D02*
X10472419Y-82651503D01*
X10472419Y-82651503D02*
X10424800Y-82556265D01*
X10424800Y-82556265D02*
X10377180Y-82508646D01*
X9805752Y-83461027D02*
X10472419Y-83699122D01*
X10472419Y-83699122D02*
X9805752Y-83937217D01*
X10472419Y-84461027D02*
X10424800Y-84365789D01*
X10424800Y-84365789D02*
X10377180Y-84318170D01*
X10377180Y-84318170D02*
X10281942Y-84270551D01*
X10281942Y-84270551D02*
X9996228Y-84270551D01*
X9996228Y-84270551D02*
X9900990Y-84318170D01*
X9900990Y-84318170D02*
X9853371Y-84365789D01*
X9853371Y-84365789D02*
X9805752Y-84461027D01*
X9805752Y-84461027D02*
X9805752Y-84603884D01*
X9805752Y-84603884D02*
X9853371Y-84699122D01*
X9853371Y-84699122D02*
X9900990Y-84746741D01*
X9900990Y-84746741D02*
X9996228Y-84794360D01*
X9996228Y-84794360D02*
X10281942Y-84794360D01*
X10281942Y-84794360D02*
X10377180Y-84746741D01*
X10377180Y-84746741D02*
X10424800Y-84699122D01*
X10424800Y-84699122D02*
X10472419Y-84603884D01*
X10472419Y-84603884D02*
X10472419Y-84461027D01*
X11472419Y-94603884D02*
X10472419Y-94603884D01*
X10472419Y-94603884D02*
X10472419Y-94984836D01*
X10472419Y-94984836D02*
X10520038Y-95080074D01*
X10520038Y-95080074D02*
X10567657Y-95127693D01*
X10567657Y-95127693D02*
X10662895Y-95175312D01*
X10662895Y-95175312D02*
X10805752Y-95175312D01*
X10805752Y-95175312D02*
X10900990Y-95127693D01*
X10900990Y-95127693D02*
X10948609Y-95080074D01*
X10948609Y-95080074D02*
X10996228Y-94984836D01*
X10996228Y-94984836D02*
X10996228Y-94603884D01*
X11424800Y-95556265D02*
X11472419Y-95699122D01*
X11472419Y-95699122D02*
X11472419Y-95937217D01*
X11472419Y-95937217D02*
X11424800Y-96032455D01*
X11424800Y-96032455D02*
X11377180Y-96080074D01*
X11377180Y-96080074D02*
X11281942Y-96127693D01*
X11281942Y-96127693D02*
X11186704Y-96127693D01*
X11186704Y-96127693D02*
X11091466Y-96080074D01*
X11091466Y-96080074D02*
X11043847Y-96032455D01*
X11043847Y-96032455D02*
X10996228Y-95937217D01*
X10996228Y-95937217D02*
X10948609Y-95746741D01*
X10948609Y-95746741D02*
X10900990Y-95651503D01*
X10900990Y-95651503D02*
X10853371Y-95603884D01*
X10853371Y-95603884D02*
X10758133Y-95556265D01*
X10758133Y-95556265D02*
X10662895Y-95556265D01*
X10662895Y-95556265D02*
X10567657Y-95603884D01*
X10567657Y-95603884D02*
X10520038Y-95651503D01*
X10520038Y-95651503D02*
X10472419Y-95746741D01*
X10472419Y-95746741D02*
X10472419Y-95984836D01*
X10472419Y-95984836D02*
X10520038Y-96127693D01*
X10472419Y-96746741D02*
X10472419Y-96841979D01*
X10472419Y-96841979D02*
X10520038Y-96937217D01*
X10520038Y-96937217D02*
X10567657Y-96984836D01*
X10567657Y-96984836D02*
X10662895Y-97032455D01*
X10662895Y-97032455D02*
X10853371Y-97080074D01*
X10853371Y-97080074D02*
X11091466Y-97080074D01*
X11091466Y-97080074D02*
X11281942Y-97032455D01*
X11281942Y-97032455D02*
X11377180Y-96984836D01*
X11377180Y-96984836D02*
X11424800Y-96937217D01*
X11424800Y-96937217D02*
X11472419Y-96841979D01*
X11472419Y-96841979D02*
X11472419Y-96746741D01*
X11472419Y-96746741D02*
X11424800Y-96651503D01*
X11424800Y-96651503D02*
X11377180Y-96603884D01*
X11377180Y-96603884D02*
X11281942Y-96556265D01*
X11281942Y-96556265D02*
X11091466Y-96508646D01*
X11091466Y-96508646D02*
X10853371Y-96508646D01*
X10853371Y-96508646D02*
X10662895Y-96556265D01*
X10662895Y-96556265D02*
X10567657Y-96603884D01*
X10567657Y-96603884D02*
X10520038Y-96651503D01*
X10520038Y-96651503D02*
X10472419Y-96746741D01*
X12020038Y-83127693D02*
X11972419Y-83032455D01*
X11972419Y-83032455D02*
X11972419Y-82889598D01*
X11972419Y-82889598D02*
X12020038Y-82746741D01*
X12020038Y-82746741D02*
X12115276Y-82651503D01*
X12115276Y-82651503D02*
X12210514Y-82603884D01*
X12210514Y-82603884D02*
X12400990Y-82556265D01*
X12400990Y-82556265D02*
X12543847Y-82556265D01*
X12543847Y-82556265D02*
X12734323Y-82603884D01*
X12734323Y-82603884D02*
X12829561Y-82651503D01*
X12829561Y-82651503D02*
X12924800Y-82746741D01*
X12924800Y-82746741D02*
X12972419Y-82889598D01*
X12972419Y-82889598D02*
X12972419Y-82984836D01*
X12972419Y-82984836D02*
X12924800Y-83127693D01*
X12924800Y-83127693D02*
X12877180Y-83175312D01*
X12877180Y-83175312D02*
X12543847Y-83175312D01*
X12543847Y-83175312D02*
X12543847Y-82984836D01*
X12972419Y-83603884D02*
X11972419Y-83603884D01*
X11972419Y-83603884D02*
X12972419Y-84175312D01*
X12972419Y-84175312D02*
X11972419Y-84175312D01*
X12972419Y-84651503D02*
X11972419Y-84651503D01*
X11972419Y-84651503D02*
X11972419Y-84889598D01*
X11972419Y-84889598D02*
X12020038Y-85032455D01*
X12020038Y-85032455D02*
X12115276Y-85127693D01*
X12115276Y-85127693D02*
X12210514Y-85175312D01*
X12210514Y-85175312D02*
X12400990Y-85222931D01*
X12400990Y-85222931D02*
X12543847Y-85222931D01*
X12543847Y-85222931D02*
X12734323Y-85175312D01*
X12734323Y-85175312D02*
X12829561Y-85127693D01*
X12829561Y-85127693D02*
X12924800Y-85032455D01*
X12924800Y-85032455D02*
X12972419Y-84889598D01*
X12972419Y-84889598D02*
X12972419Y-84651503D01*
X13972419Y-94603884D02*
X12972419Y-94603884D01*
X12972419Y-94603884D02*
X12972419Y-94984836D01*
X12972419Y-94984836D02*
X13020038Y-95080074D01*
X13020038Y-95080074D02*
X13067657Y-95127693D01*
X13067657Y-95127693D02*
X13162895Y-95175312D01*
X13162895Y-95175312D02*
X13305752Y-95175312D01*
X13305752Y-95175312D02*
X13400990Y-95127693D01*
X13400990Y-95127693D02*
X13448609Y-95080074D01*
X13448609Y-95080074D02*
X13496228Y-94984836D01*
X13496228Y-94984836D02*
X13496228Y-94603884D01*
X13924800Y-95556265D02*
X13972419Y-95699122D01*
X13972419Y-95699122D02*
X13972419Y-95937217D01*
X13972419Y-95937217D02*
X13924800Y-96032455D01*
X13924800Y-96032455D02*
X13877180Y-96080074D01*
X13877180Y-96080074D02*
X13781942Y-96127693D01*
X13781942Y-96127693D02*
X13686704Y-96127693D01*
X13686704Y-96127693D02*
X13591466Y-96080074D01*
X13591466Y-96080074D02*
X13543847Y-96032455D01*
X13543847Y-96032455D02*
X13496228Y-95937217D01*
X13496228Y-95937217D02*
X13448609Y-95746741D01*
X13448609Y-95746741D02*
X13400990Y-95651503D01*
X13400990Y-95651503D02*
X13353371Y-95603884D01*
X13353371Y-95603884D02*
X13258133Y-95556265D01*
X13258133Y-95556265D02*
X13162895Y-95556265D01*
X13162895Y-95556265D02*
X13067657Y-95603884D01*
X13067657Y-95603884D02*
X13020038Y-95651503D01*
X13020038Y-95651503D02*
X12972419Y-95746741D01*
X12972419Y-95746741D02*
X12972419Y-95984836D01*
X12972419Y-95984836D02*
X13020038Y-96127693D01*
X13972419Y-97080074D02*
X13972419Y-96508646D01*
X13972419Y-96794360D02*
X12972419Y-96794360D01*
X12972419Y-96794360D02*
X13115276Y-96699122D01*
X13115276Y-96699122D02*
X13210514Y-96603884D01*
X13210514Y-96603884D02*
X13258133Y-96508646D01*
X15424800Y-82556265D02*
X15472419Y-82699122D01*
X15472419Y-82699122D02*
X15472419Y-82937217D01*
X15472419Y-82937217D02*
X15424800Y-83032455D01*
X15424800Y-83032455D02*
X15377180Y-83080074D01*
X15377180Y-83080074D02*
X15281942Y-83127693D01*
X15281942Y-83127693D02*
X15186704Y-83127693D01*
X15186704Y-83127693D02*
X15091466Y-83080074D01*
X15091466Y-83080074D02*
X15043847Y-83032455D01*
X15043847Y-83032455D02*
X14996228Y-82937217D01*
X14996228Y-82937217D02*
X14948609Y-82746741D01*
X14948609Y-82746741D02*
X14900990Y-82651503D01*
X14900990Y-82651503D02*
X14853371Y-82603884D01*
X14853371Y-82603884D02*
X14758133Y-82556265D01*
X14758133Y-82556265D02*
X14662895Y-82556265D01*
X14662895Y-82556265D02*
X14567657Y-82603884D01*
X14567657Y-82603884D02*
X14520038Y-82651503D01*
X14520038Y-82651503D02*
X14472419Y-82746741D01*
X14472419Y-82746741D02*
X14472419Y-82984836D01*
X14472419Y-82984836D02*
X14520038Y-83127693D01*
X15472419Y-83556265D02*
X14472419Y-83556265D01*
X14472419Y-83556265D02*
X14472419Y-83794360D01*
X14472419Y-83794360D02*
X14520038Y-83937217D01*
X14520038Y-83937217D02*
X14615276Y-84032455D01*
X14615276Y-84032455D02*
X14710514Y-84080074D01*
X14710514Y-84080074D02*
X14900990Y-84127693D01*
X14900990Y-84127693D02*
X15043847Y-84127693D01*
X15043847Y-84127693D02*
X15234323Y-84080074D01*
X15234323Y-84080074D02*
X15329561Y-84032455D01*
X15329561Y-84032455D02*
X15424800Y-83937217D01*
X15424800Y-83937217D02*
X15472419Y-83794360D01*
X15472419Y-83794360D02*
X15472419Y-83556265D01*
X15186704Y-84508646D02*
X15186704Y-84984836D01*
X15472419Y-84413408D02*
X14472419Y-84746741D01*
X14472419Y-84746741D02*
X15472419Y-85080074D01*
X16472419Y-95103884D02*
X15472419Y-95103884D01*
X16472419Y-95580074D02*
X15472419Y-95580074D01*
X15472419Y-95580074D02*
X16472419Y-96151502D01*
X16472419Y-96151502D02*
X15472419Y-96151502D01*
X15472419Y-96484836D02*
X15472419Y-97056264D01*
X16472419Y-96770550D02*
X15472419Y-96770550D01*
X17924800Y-82556265D02*
X17972419Y-82699122D01*
X17972419Y-82699122D02*
X17972419Y-82937217D01*
X17972419Y-82937217D02*
X17924800Y-83032455D01*
X17924800Y-83032455D02*
X17877180Y-83080074D01*
X17877180Y-83080074D02*
X17781942Y-83127693D01*
X17781942Y-83127693D02*
X17686704Y-83127693D01*
X17686704Y-83127693D02*
X17591466Y-83080074D01*
X17591466Y-83080074D02*
X17543847Y-83032455D01*
X17543847Y-83032455D02*
X17496228Y-82937217D01*
X17496228Y-82937217D02*
X17448609Y-82746741D01*
X17448609Y-82746741D02*
X17400990Y-82651503D01*
X17400990Y-82651503D02*
X17353371Y-82603884D01*
X17353371Y-82603884D02*
X17258133Y-82556265D01*
X17258133Y-82556265D02*
X17162895Y-82556265D01*
X17162895Y-82556265D02*
X17067657Y-82603884D01*
X17067657Y-82603884D02*
X17020038Y-82651503D01*
X17020038Y-82651503D02*
X16972419Y-82746741D01*
X16972419Y-82746741D02*
X16972419Y-82984836D01*
X16972419Y-82984836D02*
X17020038Y-83127693D01*
X17877180Y-84127693D02*
X17924800Y-84080074D01*
X17924800Y-84080074D02*
X17972419Y-83937217D01*
X17972419Y-83937217D02*
X17972419Y-83841979D01*
X17972419Y-83841979D02*
X17924800Y-83699122D01*
X17924800Y-83699122D02*
X17829561Y-83603884D01*
X17829561Y-83603884D02*
X17734323Y-83556265D01*
X17734323Y-83556265D02*
X17543847Y-83508646D01*
X17543847Y-83508646D02*
X17400990Y-83508646D01*
X17400990Y-83508646D02*
X17210514Y-83556265D01*
X17210514Y-83556265D02*
X17115276Y-83603884D01*
X17115276Y-83603884D02*
X17020038Y-83699122D01*
X17020038Y-83699122D02*
X16972419Y-83841979D01*
X16972419Y-83841979D02*
X16972419Y-83937217D01*
X16972419Y-83937217D02*
X17020038Y-84080074D01*
X17020038Y-84080074D02*
X17067657Y-84127693D01*
X17972419Y-85032455D02*
X17972419Y-84556265D01*
X17972419Y-84556265D02*
X16972419Y-84556265D01*
X18686704Y-94556265D02*
X18686704Y-95032455D01*
X18972419Y-94461027D02*
X17972419Y-94794360D01*
X17972419Y-94794360D02*
X18972419Y-95127693D01*
X18972419Y-95461027D02*
X17972419Y-95461027D01*
X17972419Y-95461027D02*
X17972419Y-95699122D01*
X17972419Y-95699122D02*
X18020038Y-95841979D01*
X18020038Y-95841979D02*
X18115276Y-95937217D01*
X18115276Y-95937217D02*
X18210514Y-95984836D01*
X18210514Y-95984836D02*
X18400990Y-96032455D01*
X18400990Y-96032455D02*
X18543847Y-96032455D01*
X18543847Y-96032455D02*
X18734323Y-95984836D01*
X18734323Y-95984836D02*
X18829561Y-95937217D01*
X18829561Y-95937217D02*
X18924800Y-95841979D01*
X18924800Y-95841979D02*
X18972419Y-95699122D01*
X18972419Y-95699122D02*
X18972419Y-95461027D01*
X18972419Y-97032455D02*
X18496228Y-96699122D01*
X18972419Y-96461027D02*
X17972419Y-96461027D01*
X17972419Y-96461027D02*
X17972419Y-96841979D01*
X17972419Y-96841979D02*
X18020038Y-96937217D01*
X18020038Y-96937217D02*
X18067657Y-96984836D01*
X18067657Y-96984836D02*
X18162895Y-97032455D01*
X18162895Y-97032455D02*
X18305752Y-97032455D01*
X18305752Y-97032455D02*
X18400990Y-96984836D01*
X18400990Y-96984836D02*
X18448609Y-96937217D01*
X18448609Y-96937217D02*
X18496228Y-96841979D01*
X18496228Y-96841979D02*
X18496228Y-96461027D01*
X20472419Y-83175312D02*
X19996228Y-82841979D01*
X20472419Y-82603884D02*
X19472419Y-82603884D01*
X19472419Y-82603884D02*
X19472419Y-82984836D01*
X19472419Y-82984836D02*
X19520038Y-83080074D01*
X19520038Y-83080074D02*
X19567657Y-83127693D01*
X19567657Y-83127693D02*
X19662895Y-83175312D01*
X19662895Y-83175312D02*
X19805752Y-83175312D01*
X19805752Y-83175312D02*
X19900990Y-83127693D01*
X19900990Y-83127693D02*
X19948609Y-83080074D01*
X19948609Y-83080074D02*
X19996228Y-82984836D01*
X19996228Y-82984836D02*
X19996228Y-82603884D01*
X20424800Y-83556265D02*
X20472419Y-83699122D01*
X20472419Y-83699122D02*
X20472419Y-83937217D01*
X20472419Y-83937217D02*
X20424800Y-84032455D01*
X20424800Y-84032455D02*
X20377180Y-84080074D01*
X20377180Y-84080074D02*
X20281942Y-84127693D01*
X20281942Y-84127693D02*
X20186704Y-84127693D01*
X20186704Y-84127693D02*
X20091466Y-84080074D01*
X20091466Y-84080074D02*
X20043847Y-84032455D01*
X20043847Y-84032455D02*
X19996228Y-83937217D01*
X19996228Y-83937217D02*
X19948609Y-83746741D01*
X19948609Y-83746741D02*
X19900990Y-83651503D01*
X19900990Y-83651503D02*
X19853371Y-83603884D01*
X19853371Y-83603884D02*
X19758133Y-83556265D01*
X19758133Y-83556265D02*
X19662895Y-83556265D01*
X19662895Y-83556265D02*
X19567657Y-83603884D01*
X19567657Y-83603884D02*
X19520038Y-83651503D01*
X19520038Y-83651503D02*
X19472419Y-83746741D01*
X19472419Y-83746741D02*
X19472419Y-83984836D01*
X19472419Y-83984836D02*
X19520038Y-84127693D01*
X19472419Y-84413408D02*
X19472419Y-84984836D01*
X20472419Y-84699122D02*
X19472419Y-84699122D01*
D12*
X9263334Y-100763220D02*
X9280001Y-100810840D01*
X9280001Y-100810840D02*
X9330001Y-100858459D01*
X9330001Y-100858459D02*
X9363334Y-100858459D01*
X9363334Y-100858459D02*
X9413334Y-100810840D01*
X9413334Y-100810840D02*
X9446668Y-100715601D01*
X9446668Y-100715601D02*
X9463334Y-100620363D01*
X9463334Y-100620363D02*
X9480001Y-100429887D01*
X9480001Y-100429887D02*
X9480001Y-100287030D01*
X9480001Y-100287030D02*
X9463334Y-100096554D01*
X9463334Y-100096554D02*
X9446668Y-100001316D01*
X9446668Y-100001316D02*
X9413334Y-99906078D01*
X9413334Y-99906078D02*
X9363334Y-99858459D01*
X9363334Y-99858459D02*
X9330001Y-99858459D01*
X9330001Y-99858459D02*
X9280001Y-99906078D01*
X9280001Y-99906078D02*
X9263334Y-99953697D01*
X9063334Y-100858459D02*
X9096668Y-100810840D01*
X9096668Y-100810840D02*
X9113334Y-100763220D01*
X9113334Y-100763220D02*
X9130001Y-100667982D01*
X9130001Y-100667982D02*
X9130001Y-100382268D01*
X9130001Y-100382268D02*
X9113334Y-100287030D01*
X9113334Y-100287030D02*
X9096668Y-100239411D01*
X9096668Y-100239411D02*
X9063334Y-100191792D01*
X9063334Y-100191792D02*
X9013334Y-100191792D01*
X9013334Y-100191792D02*
X8980001Y-100239411D01*
X8980001Y-100239411D02*
X8963334Y-100287030D01*
X8963334Y-100287030D02*
X8946668Y-100382268D01*
X8946668Y-100382268D02*
X8946668Y-100667982D01*
X8946668Y-100667982D02*
X8963334Y-100763220D01*
X8963334Y-100763220D02*
X8980001Y-100810840D01*
X8980001Y-100810840D02*
X9013334Y-100858459D01*
X9013334Y-100858459D02*
X9063334Y-100858459D01*
X8796667Y-100191792D02*
X8796667Y-100858459D01*
X8796667Y-100287030D02*
X8780001Y-100239411D01*
X8780001Y-100239411D02*
X8746667Y-100191792D01*
X8746667Y-100191792D02*
X8696667Y-100191792D01*
X8696667Y-100191792D02*
X8663334Y-100239411D01*
X8663334Y-100239411D02*
X8646667Y-100334649D01*
X8646667Y-100334649D02*
X8646667Y-100858459D01*
X8480000Y-100191792D02*
X8480000Y-100858459D01*
X8480000Y-100287030D02*
X8463334Y-100239411D01*
X8463334Y-100239411D02*
X8430000Y-100191792D01*
X8430000Y-100191792D02*
X8380000Y-100191792D01*
X8380000Y-100191792D02*
X8346667Y-100239411D01*
X8346667Y-100239411D02*
X8330000Y-100334649D01*
X8330000Y-100334649D02*
X8330000Y-100858459D01*
X8246667Y-100953697D02*
X7980000Y-100953697D01*
X7830000Y-99858459D02*
X7796666Y-99858459D01*
X7796666Y-99858459D02*
X7763333Y-99906078D01*
X7763333Y-99906078D02*
X7746666Y-99953697D01*
X7746666Y-99953697D02*
X7730000Y-100048935D01*
X7730000Y-100048935D02*
X7713333Y-100239411D01*
X7713333Y-100239411D02*
X7713333Y-100477506D01*
X7713333Y-100477506D02*
X7730000Y-100667982D01*
X7730000Y-100667982D02*
X7746666Y-100763220D01*
X7746666Y-100763220D02*
X7763333Y-100810840D01*
X7763333Y-100810840D02*
X7796666Y-100858459D01*
X7796666Y-100858459D02*
X7830000Y-100858459D01*
X7830000Y-100858459D02*
X7863333Y-100810840D01*
X7863333Y-100810840D02*
X7880000Y-100763220D01*
X7880000Y-100763220D02*
X7896666Y-100667982D01*
X7896666Y-100667982D02*
X7913333Y-100477506D01*
X7913333Y-100477506D02*
X7913333Y-100239411D01*
X7913333Y-100239411D02*
X7896666Y-100048935D01*
X7896666Y-100048935D02*
X7880000Y-99953697D01*
X7880000Y-99953697D02*
X7863333Y-99906078D01*
X7863333Y-99906078D02*
X7830000Y-99858459D01*
X7380000Y-100858459D02*
X7580000Y-100858459D01*
X7480000Y-100858459D02*
X7480000Y-99858459D01*
X7480000Y-99858459D02*
X7513333Y-100001316D01*
X7513333Y-100001316D02*
X7546667Y-100096554D01*
X7546667Y-100096554D02*
X7580000Y-100144173D01*
X7263334Y-100858459D02*
X7080000Y-100191792D01*
X7263334Y-100191792D02*
X7080000Y-100858459D01*
X6880001Y-99858459D02*
X6846667Y-99858459D01*
X6846667Y-99858459D02*
X6813334Y-99906078D01*
X6813334Y-99906078D02*
X6796667Y-99953697D01*
X6796667Y-99953697D02*
X6780001Y-100048935D01*
X6780001Y-100048935D02*
X6763334Y-100239411D01*
X6763334Y-100239411D02*
X6763334Y-100477506D01*
X6763334Y-100477506D02*
X6780001Y-100667982D01*
X6780001Y-100667982D02*
X6796667Y-100763220D01*
X6796667Y-100763220D02*
X6813334Y-100810840D01*
X6813334Y-100810840D02*
X6846667Y-100858459D01*
X6846667Y-100858459D02*
X6880001Y-100858459D01*
X6880001Y-100858459D02*
X6913334Y-100810840D01*
X6913334Y-100810840D02*
X6930001Y-100763220D01*
X6930001Y-100763220D02*
X6946667Y-100667982D01*
X6946667Y-100667982D02*
X6963334Y-100477506D01*
X6963334Y-100477506D02*
X6963334Y-100239411D01*
X6963334Y-100239411D02*
X6946667Y-100048935D01*
X6946667Y-100048935D02*
X6930001Y-99953697D01*
X6930001Y-99953697D02*
X6913334Y-99906078D01*
X6913334Y-99906078D02*
X6880001Y-99858459D01*
X6630001Y-99953697D02*
X6613334Y-99906078D01*
X6613334Y-99906078D02*
X6580001Y-99858459D01*
X6580001Y-99858459D02*
X6496668Y-99858459D01*
X6496668Y-99858459D02*
X6463334Y-99906078D01*
X6463334Y-99906078D02*
X6446668Y-99953697D01*
X6446668Y-99953697D02*
X6430001Y-100048935D01*
X6430001Y-100048935D02*
X6430001Y-100144173D01*
X6430001Y-100144173D02*
X6446668Y-100287030D01*
X6446668Y-100287030D02*
X6646668Y-100858459D01*
X6646668Y-100858459D02*
X6430001Y-100858459D01*
X6363335Y-100953697D02*
X6096668Y-100953697D01*
X6013334Y-100858459D02*
X6013334Y-99858459D01*
X6013334Y-100239411D02*
X5980001Y-100191792D01*
X5980001Y-100191792D02*
X5913334Y-100191792D01*
X5913334Y-100191792D02*
X5880001Y-100239411D01*
X5880001Y-100239411D02*
X5863334Y-100287030D01*
X5863334Y-100287030D02*
X5846668Y-100382268D01*
X5846668Y-100382268D02*
X5846668Y-100667982D01*
X5846668Y-100667982D02*
X5863334Y-100763220D01*
X5863334Y-100763220D02*
X5880001Y-100810840D01*
X5880001Y-100810840D02*
X5913334Y-100858459D01*
X5913334Y-100858459D02*
X5980001Y-100858459D01*
X5980001Y-100858459D02*
X6013334Y-100810840D01*
X5546667Y-100858459D02*
X5546667Y-100334649D01*
X5546667Y-100334649D02*
X5563334Y-100239411D01*
X5563334Y-100239411D02*
X5596667Y-100191792D01*
X5596667Y-100191792D02*
X5663334Y-100191792D01*
X5663334Y-100191792D02*
X5696667Y-100239411D01*
X5546667Y-100810840D02*
X5580001Y-100858459D01*
X5580001Y-100858459D02*
X5663334Y-100858459D01*
X5663334Y-100858459D02*
X5696667Y-100810840D01*
X5696667Y-100810840D02*
X5713334Y-100715601D01*
X5713334Y-100715601D02*
X5713334Y-100620363D01*
X5713334Y-100620363D02*
X5696667Y-100525125D01*
X5696667Y-100525125D02*
X5663334Y-100477506D01*
X5663334Y-100477506D02*
X5580001Y-100477506D01*
X5580001Y-100477506D02*
X5546667Y-100429887D01*
X5430000Y-100191792D02*
X5296667Y-100191792D01*
X5380000Y-99858459D02*
X5380000Y-100715601D01*
X5380000Y-100715601D02*
X5363334Y-100810840D01*
X5363334Y-100810840D02*
X5330000Y-100858459D01*
X5330000Y-100858459D02*
X5296667Y-100858459D01*
X5230000Y-100191792D02*
X5096667Y-100191792D01*
X5180000Y-99858459D02*
X5180000Y-100715601D01*
X5180000Y-100715601D02*
X5163334Y-100810840D01*
X5163334Y-100810840D02*
X5130000Y-100858459D01*
X5130000Y-100858459D02*
X5096667Y-100858459D01*
X4846667Y-100810840D02*
X4880000Y-100858459D01*
X4880000Y-100858459D02*
X4946667Y-100858459D01*
X4946667Y-100858459D02*
X4980000Y-100810840D01*
X4980000Y-100810840D02*
X4996667Y-100715601D01*
X4996667Y-100715601D02*
X4996667Y-100334649D01*
X4996667Y-100334649D02*
X4980000Y-100239411D01*
X4980000Y-100239411D02*
X4946667Y-100191792D01*
X4946667Y-100191792D02*
X4880000Y-100191792D01*
X4880000Y-100191792D02*
X4846667Y-100239411D01*
X4846667Y-100239411D02*
X4830000Y-100334649D01*
X4830000Y-100334649D02*
X4830000Y-100429887D01*
X4830000Y-100429887D02*
X4996667Y-100525125D01*
X4680000Y-100858459D02*
X4680000Y-100191792D01*
X4680000Y-100382268D02*
X4663334Y-100287030D01*
X4663334Y-100287030D02*
X4646667Y-100239411D01*
X4646667Y-100239411D02*
X4613334Y-100191792D01*
X4613334Y-100191792D02*
X4580000Y-100191792D01*
X4496667Y-100191792D02*
X4413333Y-100858459D01*
X4330000Y-100191792D02*
X4413333Y-100858459D01*
X4413333Y-100858459D02*
X4446667Y-101096554D01*
X4446667Y-101096554D02*
X4463333Y-101144173D01*
X4463333Y-101144173D02*
X4496667Y-101191792D01*
X4280000Y-100953697D02*
X4013333Y-100953697D01*
X3979999Y-100191792D02*
X3846666Y-100191792D01*
X3929999Y-99858459D02*
X3929999Y-100715601D01*
X3929999Y-100715601D02*
X3913333Y-100810840D01*
X3913333Y-100810840D02*
X3879999Y-100858459D01*
X3879999Y-100858459D02*
X3846666Y-100858459D01*
X3596666Y-100810840D02*
X3629999Y-100858459D01*
X3629999Y-100858459D02*
X3696666Y-100858459D01*
X3696666Y-100858459D02*
X3729999Y-100810840D01*
X3729999Y-100810840D02*
X3746666Y-100715601D01*
X3746666Y-100715601D02*
X3746666Y-100334649D01*
X3746666Y-100334649D02*
X3729999Y-100239411D01*
X3729999Y-100239411D02*
X3696666Y-100191792D01*
X3696666Y-100191792D02*
X3629999Y-100191792D01*
X3629999Y-100191792D02*
X3596666Y-100239411D01*
X3596666Y-100239411D02*
X3579999Y-100334649D01*
X3579999Y-100334649D02*
X3579999Y-100429887D01*
X3579999Y-100429887D02*
X3746666Y-100525125D01*
X3429999Y-100858459D02*
X3429999Y-100191792D01*
X3429999Y-100382268D02*
X3413333Y-100287030D01*
X3413333Y-100287030D02*
X3396666Y-100239411D01*
X3396666Y-100239411D02*
X3363333Y-100191792D01*
X3363333Y-100191792D02*
X3329999Y-100191792D01*
X3213332Y-100858459D02*
X3213332Y-100191792D01*
X3213332Y-100287030D02*
X3196666Y-100239411D01*
X3196666Y-100239411D02*
X3163332Y-100191792D01*
X3163332Y-100191792D02*
X3113332Y-100191792D01*
X3113332Y-100191792D02*
X3079999Y-100239411D01*
X3079999Y-100239411D02*
X3063332Y-100334649D01*
X3063332Y-100334649D02*
X3063332Y-100858459D01*
X3063332Y-100334649D02*
X3046666Y-100239411D01*
X3046666Y-100239411D02*
X3013332Y-100191792D01*
X3013332Y-100191792D02*
X2963332Y-100191792D01*
X2963332Y-100191792D02*
X2929999Y-100239411D01*
X2929999Y-100239411D02*
X2913332Y-100334649D01*
X2913332Y-100334649D02*
X2913332Y-100858459D01*
X2746665Y-100858459D02*
X2746665Y-100191792D01*
X2746665Y-99858459D02*
X2763332Y-99906078D01*
X2763332Y-99906078D02*
X2746665Y-99953697D01*
X2746665Y-99953697D02*
X2729999Y-99906078D01*
X2729999Y-99906078D02*
X2746665Y-99858459D01*
X2746665Y-99858459D02*
X2746665Y-99953697D01*
X2579998Y-100191792D02*
X2579998Y-100858459D01*
X2579998Y-100287030D02*
X2563332Y-100239411D01*
X2563332Y-100239411D02*
X2529998Y-100191792D01*
X2529998Y-100191792D02*
X2479998Y-100191792D01*
X2479998Y-100191792D02*
X2446665Y-100239411D01*
X2446665Y-100239411D02*
X2429998Y-100334649D01*
X2429998Y-100334649D02*
X2429998Y-100858459D01*
X2113331Y-100858459D02*
X2113331Y-100334649D01*
X2113331Y-100334649D02*
X2129998Y-100239411D01*
X2129998Y-100239411D02*
X2163331Y-100191792D01*
X2163331Y-100191792D02*
X2229998Y-100191792D01*
X2229998Y-100191792D02*
X2263331Y-100239411D01*
X2113331Y-100810840D02*
X2146665Y-100858459D01*
X2146665Y-100858459D02*
X2229998Y-100858459D01*
X2229998Y-100858459D02*
X2263331Y-100810840D01*
X2263331Y-100810840D02*
X2279998Y-100715601D01*
X2279998Y-100715601D02*
X2279998Y-100620363D01*
X2279998Y-100620363D02*
X2263331Y-100525125D01*
X2263331Y-100525125D02*
X2229998Y-100477506D01*
X2229998Y-100477506D02*
X2146665Y-100477506D01*
X2146665Y-100477506D02*
X2113331Y-100429887D01*
X1896664Y-100858459D02*
X1929998Y-100810840D01*
X1929998Y-100810840D02*
X1946664Y-100715601D01*
X1946664Y-100715601D02*
X1946664Y-99858459D01*
X1696665Y-99858459D02*
X1663331Y-99858459D01*
X1663331Y-99858459D02*
X1629998Y-99906078D01*
X1629998Y-99906078D02*
X1613331Y-99953697D01*
X1613331Y-99953697D02*
X1596665Y-100048935D01*
X1596665Y-100048935D02*
X1579998Y-100239411D01*
X1579998Y-100239411D02*
X1579998Y-100477506D01*
X1579998Y-100477506D02*
X1596665Y-100667982D01*
X1596665Y-100667982D02*
X1613331Y-100763220D01*
X1613331Y-100763220D02*
X1629998Y-100810840D01*
X1629998Y-100810840D02*
X1663331Y-100858459D01*
X1663331Y-100858459D02*
X1696665Y-100858459D01*
X1696665Y-100858459D02*
X1729998Y-100810840D01*
X1729998Y-100810840D02*
X1746665Y-100763220D01*
X1746665Y-100763220D02*
X1763331Y-100667982D01*
X1763331Y-100667982D02*
X1779998Y-100477506D01*
X1779998Y-100477506D02*
X1779998Y-100239411D01*
X1779998Y-100239411D02*
X1763331Y-100048935D01*
X1763331Y-100048935D02*
X1746665Y-99953697D01*
X1746665Y-99953697D02*
X1729998Y-99906078D01*
X1729998Y-99906078D02*
X1696665Y-99858459D01*
D11*
X24023810Y-124262180D02*
X24071429Y-124309800D01*
X24071429Y-124309800D02*
X24214286Y-124357419D01*
X24214286Y-124357419D02*
X24309524Y-124357419D01*
X24309524Y-124357419D02*
X24452381Y-124309800D01*
X24452381Y-124309800D02*
X24547619Y-124214561D01*
X24547619Y-124214561D02*
X24595238Y-124119323D01*
X24595238Y-124119323D02*
X24642857Y-123928847D01*
X24642857Y-123928847D02*
X24642857Y-123785990D01*
X24642857Y-123785990D02*
X24595238Y-123595514D01*
X24595238Y-123595514D02*
X24547619Y-123500276D01*
X24547619Y-123500276D02*
X24452381Y-123405038D01*
X24452381Y-123405038D02*
X24309524Y-123357419D01*
X24309524Y-123357419D02*
X24214286Y-123357419D01*
X24214286Y-123357419D02*
X24071429Y-123405038D01*
X24071429Y-123405038D02*
X24023810Y-123452657D01*
X23452381Y-124357419D02*
X23547619Y-124309800D01*
X23547619Y-124309800D02*
X23595238Y-124262180D01*
X23595238Y-124262180D02*
X23642857Y-124166942D01*
X23642857Y-124166942D02*
X23642857Y-123881228D01*
X23642857Y-123881228D02*
X23595238Y-123785990D01*
X23595238Y-123785990D02*
X23547619Y-123738371D01*
X23547619Y-123738371D02*
X23452381Y-123690752D01*
X23452381Y-123690752D02*
X23309524Y-123690752D01*
X23309524Y-123690752D02*
X23214286Y-123738371D01*
X23214286Y-123738371D02*
X23166667Y-123785990D01*
X23166667Y-123785990D02*
X23119048Y-123881228D01*
X23119048Y-123881228D02*
X23119048Y-124166942D01*
X23119048Y-124166942D02*
X23166667Y-124262180D01*
X23166667Y-124262180D02*
X23214286Y-124309800D01*
X23214286Y-124309800D02*
X23309524Y-124357419D01*
X23309524Y-124357419D02*
X23452381Y-124357419D01*
X22690476Y-123690752D02*
X22690476Y-124357419D01*
X22690476Y-123785990D02*
X22642857Y-123738371D01*
X22642857Y-123738371D02*
X22547619Y-123690752D01*
X22547619Y-123690752D02*
X22404762Y-123690752D01*
X22404762Y-123690752D02*
X22309524Y-123738371D01*
X22309524Y-123738371D02*
X22261905Y-123833609D01*
X22261905Y-123833609D02*
X22261905Y-124357419D01*
X21785714Y-123690752D02*
X21785714Y-124357419D01*
X21785714Y-123785990D02*
X21738095Y-123738371D01*
X21738095Y-123738371D02*
X21642857Y-123690752D01*
X21642857Y-123690752D02*
X21500000Y-123690752D01*
X21500000Y-123690752D02*
X21404762Y-123738371D01*
X21404762Y-123738371D02*
X21357143Y-123833609D01*
X21357143Y-123833609D02*
X21357143Y-124357419D01*
X21119048Y-124452657D02*
X20357143Y-124452657D01*
X19928571Y-123357419D02*
X19833333Y-123357419D01*
X19833333Y-123357419D02*
X19738095Y-123405038D01*
X19738095Y-123405038D02*
X19690476Y-123452657D01*
X19690476Y-123452657D02*
X19642857Y-123547895D01*
X19642857Y-123547895D02*
X19595238Y-123738371D01*
X19595238Y-123738371D02*
X19595238Y-123976466D01*
X19595238Y-123976466D02*
X19642857Y-124166942D01*
X19642857Y-124166942D02*
X19690476Y-124262180D01*
X19690476Y-124262180D02*
X19738095Y-124309800D01*
X19738095Y-124309800D02*
X19833333Y-124357419D01*
X19833333Y-124357419D02*
X19928571Y-124357419D01*
X19928571Y-124357419D02*
X20023809Y-124309800D01*
X20023809Y-124309800D02*
X20071428Y-124262180D01*
X20071428Y-124262180D02*
X20119047Y-124166942D01*
X20119047Y-124166942D02*
X20166666Y-123976466D01*
X20166666Y-123976466D02*
X20166666Y-123738371D01*
X20166666Y-123738371D02*
X20119047Y-123547895D01*
X20119047Y-123547895D02*
X20071428Y-123452657D01*
X20071428Y-123452657D02*
X20023809Y-123405038D01*
X20023809Y-123405038D02*
X19928571Y-123357419D01*
X18642857Y-124357419D02*
X19214285Y-124357419D01*
X18928571Y-124357419D02*
X18928571Y-123357419D01*
X18928571Y-123357419D02*
X19023809Y-123500276D01*
X19023809Y-123500276D02*
X19119047Y-123595514D01*
X19119047Y-123595514D02*
X19214285Y-123643133D01*
X18309523Y-124357419D02*
X17785714Y-123690752D01*
X18309523Y-123690752D02*
X17785714Y-124357419D01*
X17214285Y-123357419D02*
X17119047Y-123357419D01*
X17119047Y-123357419D02*
X17023809Y-123405038D01*
X17023809Y-123405038D02*
X16976190Y-123452657D01*
X16976190Y-123452657D02*
X16928571Y-123547895D01*
X16928571Y-123547895D02*
X16880952Y-123738371D01*
X16880952Y-123738371D02*
X16880952Y-123976466D01*
X16880952Y-123976466D02*
X16928571Y-124166942D01*
X16928571Y-124166942D02*
X16976190Y-124262180D01*
X16976190Y-124262180D02*
X17023809Y-124309800D01*
X17023809Y-124309800D02*
X17119047Y-124357419D01*
X17119047Y-124357419D02*
X17214285Y-124357419D01*
X17214285Y-124357419D02*
X17309523Y-124309800D01*
X17309523Y-124309800D02*
X17357142Y-124262180D01*
X17357142Y-124262180D02*
X17404761Y-124166942D01*
X17404761Y-124166942D02*
X17452380Y-123976466D01*
X17452380Y-123976466D02*
X17452380Y-123738371D01*
X17452380Y-123738371D02*
X17404761Y-123547895D01*
X17404761Y-123547895D02*
X17357142Y-123452657D01*
X17357142Y-123452657D02*
X17309523Y-123405038D01*
X17309523Y-123405038D02*
X17214285Y-123357419D01*
X16023809Y-123690752D02*
X16023809Y-124357419D01*
X16261904Y-123309800D02*
X16499999Y-124024085D01*
X16499999Y-124024085D02*
X15880952Y-124024085D01*
X15738095Y-124452657D02*
X14976190Y-124452657D01*
X14404761Y-123833609D02*
X14261904Y-123881228D01*
X14261904Y-123881228D02*
X14214285Y-123928847D01*
X14214285Y-123928847D02*
X14166666Y-124024085D01*
X14166666Y-124024085D02*
X14166666Y-124166942D01*
X14166666Y-124166942D02*
X14214285Y-124262180D01*
X14214285Y-124262180D02*
X14261904Y-124309800D01*
X14261904Y-124309800D02*
X14357142Y-124357419D01*
X14357142Y-124357419D02*
X14738094Y-124357419D01*
X14738094Y-124357419D02*
X14738094Y-123357419D01*
X14738094Y-123357419D02*
X14404761Y-123357419D01*
X14404761Y-123357419D02*
X14309523Y-123405038D01*
X14309523Y-123405038D02*
X14261904Y-123452657D01*
X14261904Y-123452657D02*
X14214285Y-123547895D01*
X14214285Y-123547895D02*
X14214285Y-123643133D01*
X14214285Y-123643133D02*
X14261904Y-123738371D01*
X14261904Y-123738371D02*
X14309523Y-123785990D01*
X14309523Y-123785990D02*
X14404761Y-123833609D01*
X14404761Y-123833609D02*
X14738094Y-123833609D01*
X13738094Y-123357419D02*
X13738094Y-124166942D01*
X13738094Y-124166942D02*
X13690475Y-124262180D01*
X13690475Y-124262180D02*
X13642856Y-124309800D01*
X13642856Y-124309800D02*
X13547618Y-124357419D01*
X13547618Y-124357419D02*
X13357142Y-124357419D01*
X13357142Y-124357419D02*
X13261904Y-124309800D01*
X13261904Y-124309800D02*
X13214285Y-124262180D01*
X13214285Y-124262180D02*
X13166666Y-124166942D01*
X13166666Y-124166942D02*
X13166666Y-123357419D01*
X12119047Y-124262180D02*
X12166666Y-124309800D01*
X12166666Y-124309800D02*
X12309523Y-124357419D01*
X12309523Y-124357419D02*
X12404761Y-124357419D01*
X12404761Y-124357419D02*
X12547618Y-124309800D01*
X12547618Y-124309800D02*
X12642856Y-124214561D01*
X12642856Y-124214561D02*
X12690475Y-124119323D01*
X12690475Y-124119323D02*
X12738094Y-123928847D01*
X12738094Y-123928847D02*
X12738094Y-123785990D01*
X12738094Y-123785990D02*
X12690475Y-123595514D01*
X12690475Y-123595514D02*
X12642856Y-123500276D01*
X12642856Y-123500276D02*
X12547618Y-123405038D01*
X12547618Y-123405038D02*
X12404761Y-123357419D01*
X12404761Y-123357419D02*
X12309523Y-123357419D01*
X12309523Y-123357419D02*
X12166666Y-123405038D01*
X12166666Y-123405038D02*
X12119047Y-123452657D01*
X11690475Y-124357419D02*
X11690475Y-123357419D01*
X11119047Y-124357419D02*
X11547618Y-123785990D01*
X11119047Y-123357419D02*
X11690475Y-123928847D01*
X10357142Y-123833609D02*
X10214285Y-123881228D01*
X10214285Y-123881228D02*
X10166666Y-123928847D01*
X10166666Y-123928847D02*
X10119047Y-124024085D01*
X10119047Y-124024085D02*
X10119047Y-124166942D01*
X10119047Y-124166942D02*
X10166666Y-124262180D01*
X10166666Y-124262180D02*
X10214285Y-124309800D01*
X10214285Y-124309800D02*
X10309523Y-124357419D01*
X10309523Y-124357419D02*
X10690475Y-124357419D01*
X10690475Y-124357419D02*
X10690475Y-123357419D01*
X10690475Y-123357419D02*
X10357142Y-123357419D01*
X10357142Y-123357419D02*
X10261904Y-123405038D01*
X10261904Y-123405038D02*
X10214285Y-123452657D01*
X10214285Y-123452657D02*
X10166666Y-123547895D01*
X10166666Y-123547895D02*
X10166666Y-123643133D01*
X10166666Y-123643133D02*
X10214285Y-123738371D01*
X10214285Y-123738371D02*
X10261904Y-123785990D01*
X10261904Y-123785990D02*
X10357142Y-123833609D01*
X10357142Y-123833609D02*
X10690475Y-123833609D01*
X9499999Y-123357419D02*
X9309523Y-123357419D01*
X9309523Y-123357419D02*
X9214285Y-123405038D01*
X9214285Y-123405038D02*
X9119047Y-123500276D01*
X9119047Y-123500276D02*
X9071428Y-123690752D01*
X9071428Y-123690752D02*
X9071428Y-124024085D01*
X9071428Y-124024085D02*
X9119047Y-124214561D01*
X9119047Y-124214561D02*
X9214285Y-124309800D01*
X9214285Y-124309800D02*
X9309523Y-124357419D01*
X9309523Y-124357419D02*
X9499999Y-124357419D01*
X9499999Y-124357419D02*
X9595237Y-124309800D01*
X9595237Y-124309800D02*
X9690475Y-124214561D01*
X9690475Y-124214561D02*
X9738094Y-124024085D01*
X9738094Y-124024085D02*
X9738094Y-123690752D01*
X9738094Y-123690752D02*
X9690475Y-123500276D01*
X9690475Y-123500276D02*
X9595237Y-123405038D01*
X9595237Y-123405038D02*
X9499999Y-123357419D01*
X8452380Y-123357419D02*
X8261904Y-123357419D01*
X8261904Y-123357419D02*
X8166666Y-123405038D01*
X8166666Y-123405038D02*
X8071428Y-123500276D01*
X8071428Y-123500276D02*
X8023809Y-123690752D01*
X8023809Y-123690752D02*
X8023809Y-124024085D01*
X8023809Y-124024085D02*
X8071428Y-124214561D01*
X8071428Y-124214561D02*
X8166666Y-124309800D01*
X8166666Y-124309800D02*
X8261904Y-124357419D01*
X8261904Y-124357419D02*
X8452380Y-124357419D01*
X8452380Y-124357419D02*
X8547618Y-124309800D01*
X8547618Y-124309800D02*
X8642856Y-124214561D01*
X8642856Y-124214561D02*
X8690475Y-124024085D01*
X8690475Y-124024085D02*
X8690475Y-123690752D01*
X8690475Y-123690752D02*
X8642856Y-123500276D01*
X8642856Y-123500276D02*
X8547618Y-123405038D01*
X8547618Y-123405038D02*
X8452380Y-123357419D01*
X7642856Y-124309800D02*
X7499999Y-124357419D01*
X7499999Y-124357419D02*
X7261904Y-124357419D01*
X7261904Y-124357419D02*
X7166666Y-124309800D01*
X7166666Y-124309800D02*
X7119047Y-124262180D01*
X7119047Y-124262180D02*
X7071428Y-124166942D01*
X7071428Y-124166942D02*
X7071428Y-124071704D01*
X7071428Y-124071704D02*
X7119047Y-123976466D01*
X7119047Y-123976466D02*
X7166666Y-123928847D01*
X7166666Y-123928847D02*
X7261904Y-123881228D01*
X7261904Y-123881228D02*
X7452380Y-123833609D01*
X7452380Y-123833609D02*
X7547618Y-123785990D01*
X7547618Y-123785990D02*
X7595237Y-123738371D01*
X7595237Y-123738371D02*
X7642856Y-123643133D01*
X7642856Y-123643133D02*
X7642856Y-123547895D01*
X7642856Y-123547895D02*
X7595237Y-123452657D01*
X7595237Y-123452657D02*
X7547618Y-123405038D01*
X7547618Y-123405038D02*
X7452380Y-123357419D01*
X7452380Y-123357419D02*
X7214285Y-123357419D01*
X7214285Y-123357419D02*
X7071428Y-123405038D01*
X6785713Y-123357419D02*
X6214285Y-123357419D01*
X6499999Y-124357419D02*
X6499999Y-123357419D01*
X5690475Y-123357419D02*
X5595237Y-123357419D01*
X5595237Y-123357419D02*
X5499999Y-123405038D01*
X5499999Y-123405038D02*
X5452380Y-123452657D01*
X5452380Y-123452657D02*
X5404761Y-123547895D01*
X5404761Y-123547895D02*
X5357142Y-123738371D01*
X5357142Y-123738371D02*
X5357142Y-123976466D01*
X5357142Y-123976466D02*
X5404761Y-124166942D01*
X5404761Y-124166942D02*
X5452380Y-124262180D01*
X5452380Y-124262180D02*
X5499999Y-124309800D01*
X5499999Y-124309800D02*
X5595237Y-124357419D01*
X5595237Y-124357419D02*
X5690475Y-124357419D01*
X5690475Y-124357419D02*
X5785713Y-124309800D01*
X5785713Y-124309800D02*
X5833332Y-124262180D01*
X5833332Y-124262180D02*
X5880951Y-124166942D01*
X5880951Y-124166942D02*
X5928570Y-123976466D01*
X5928570Y-123976466D02*
X5928570Y-123738371D01*
X5928570Y-123738371D02*
X5880951Y-123547895D01*
X5880951Y-123547895D02*
X5833332Y-123452657D01*
X5833332Y-123452657D02*
X5785713Y-123405038D01*
X5785713Y-123405038D02*
X5690475Y-123357419D01*
X28520038Y-137527693D02*
X28472419Y-137432455D01*
X28472419Y-137432455D02*
X28472419Y-137289598D01*
X28472419Y-137289598D02*
X28520038Y-137146741D01*
X28520038Y-137146741D02*
X28615276Y-137051503D01*
X28615276Y-137051503D02*
X28710514Y-137003884D01*
X28710514Y-137003884D02*
X28900990Y-136956265D01*
X28900990Y-136956265D02*
X29043847Y-136956265D01*
X29043847Y-136956265D02*
X29234323Y-137003884D01*
X29234323Y-137003884D02*
X29329561Y-137051503D01*
X29329561Y-137051503D02*
X29424800Y-137146741D01*
X29424800Y-137146741D02*
X29472419Y-137289598D01*
X29472419Y-137289598D02*
X29472419Y-137384836D01*
X29472419Y-137384836D02*
X29424800Y-137527693D01*
X29424800Y-137527693D02*
X29377180Y-137575312D01*
X29377180Y-137575312D02*
X29043847Y-137575312D01*
X29043847Y-137575312D02*
X29043847Y-137384836D01*
X29472419Y-138003884D02*
X28472419Y-138003884D01*
X28472419Y-138003884D02*
X29472419Y-138575312D01*
X29472419Y-138575312D02*
X28472419Y-138575312D01*
X29472419Y-139051503D02*
X28472419Y-139051503D01*
X28472419Y-139051503D02*
X28472419Y-139289598D01*
X28472419Y-139289598D02*
X28520038Y-139432455D01*
X28520038Y-139432455D02*
X28615276Y-139527693D01*
X28615276Y-139527693D02*
X28710514Y-139575312D01*
X28710514Y-139575312D02*
X28900990Y-139622931D01*
X28900990Y-139622931D02*
X29043847Y-139622931D01*
X29043847Y-139622931D02*
X29234323Y-139575312D01*
X29234323Y-139575312D02*
X29329561Y-139527693D01*
X29329561Y-139527693D02*
X29424800Y-139432455D01*
X29424800Y-139432455D02*
X29472419Y-139289598D01*
X29472419Y-139289598D02*
X29472419Y-139051503D01*
X28472419Y-126361027D02*
X29472419Y-126694360D01*
X29472419Y-126694360D02*
X28472419Y-127027693D01*
X29472419Y-127361027D02*
X28472419Y-127361027D01*
X29472419Y-127837217D02*
X28472419Y-127837217D01*
X28472419Y-127837217D02*
X29472419Y-128408645D01*
X29472419Y-128408645D02*
X28472419Y-128408645D01*
X520038Y-137527693D02*
X472419Y-137432455D01*
X472419Y-137432455D02*
X472419Y-137289598D01*
X472419Y-137289598D02*
X520038Y-137146741D01*
X520038Y-137146741D02*
X615276Y-137051503D01*
X615276Y-137051503D02*
X710514Y-137003884D01*
X710514Y-137003884D02*
X900990Y-136956265D01*
X900990Y-136956265D02*
X1043847Y-136956265D01*
X1043847Y-136956265D02*
X1234323Y-137003884D01*
X1234323Y-137003884D02*
X1329561Y-137051503D01*
X1329561Y-137051503D02*
X1424800Y-137146741D01*
X1424800Y-137146741D02*
X1472419Y-137289598D01*
X1472419Y-137289598D02*
X1472419Y-137384836D01*
X1472419Y-137384836D02*
X1424800Y-137527693D01*
X1424800Y-137527693D02*
X1377180Y-137575312D01*
X1377180Y-137575312D02*
X1043847Y-137575312D01*
X1043847Y-137575312D02*
X1043847Y-137384836D01*
X1472419Y-138003884D02*
X472419Y-138003884D01*
X472419Y-138003884D02*
X1472419Y-138575312D01*
X1472419Y-138575312D02*
X472419Y-138575312D01*
X1472419Y-139051503D02*
X472419Y-139051503D01*
X472419Y-139051503D02*
X472419Y-139289598D01*
X472419Y-139289598D02*
X520038Y-139432455D01*
X520038Y-139432455D02*
X615276Y-139527693D01*
X615276Y-139527693D02*
X710514Y-139575312D01*
X710514Y-139575312D02*
X900990Y-139622931D01*
X900990Y-139622931D02*
X1043847Y-139622931D01*
X1043847Y-139622931D02*
X1234323Y-139575312D01*
X1234323Y-139575312D02*
X1329561Y-139527693D01*
X1329561Y-139527693D02*
X1424800Y-139432455D01*
X1424800Y-139432455D02*
X1472419Y-139289598D01*
X1472419Y-139289598D02*
X1472419Y-139051503D01*
X472419Y-125861027D02*
X1472419Y-126194360D01*
X1472419Y-126194360D02*
X472419Y-126527693D01*
X472419Y-127051503D02*
X472419Y-127241979D01*
X472419Y-127241979D02*
X520038Y-127337217D01*
X520038Y-127337217D02*
X615276Y-127432455D01*
X615276Y-127432455D02*
X805752Y-127480074D01*
X805752Y-127480074D02*
X1139085Y-127480074D01*
X1139085Y-127480074D02*
X1329561Y-127432455D01*
X1329561Y-127432455D02*
X1424800Y-127337217D01*
X1424800Y-127337217D02*
X1472419Y-127241979D01*
X1472419Y-127241979D02*
X1472419Y-127051503D01*
X1472419Y-127051503D02*
X1424800Y-126956265D01*
X1424800Y-126956265D02*
X1329561Y-126861027D01*
X1329561Y-126861027D02*
X1139085Y-126813408D01*
X1139085Y-126813408D02*
X805752Y-126813408D01*
X805752Y-126813408D02*
X615276Y-126861027D01*
X615276Y-126861027D02*
X520038Y-126956265D01*
X520038Y-126956265D02*
X472419Y-127051503D01*
X472419Y-127908646D02*
X1281942Y-127908646D01*
X1281942Y-127908646D02*
X1377180Y-127956265D01*
X1377180Y-127956265D02*
X1424800Y-128003884D01*
X1424800Y-128003884D02*
X1472419Y-128099122D01*
X1472419Y-128099122D02*
X1472419Y-128289598D01*
X1472419Y-128289598D02*
X1424800Y-128384836D01*
X1424800Y-128384836D02*
X1377180Y-128432455D01*
X1377180Y-128432455D02*
X1281942Y-128480074D01*
X1281942Y-128480074D02*
X472419Y-128480074D01*
X472419Y-128813408D02*
X472419Y-129384836D01*
X1472419Y-129099122D02*
X472419Y-129099122D01*
X19023809Y-30409800D02*
X18880952Y-30457419D01*
X18880952Y-30457419D02*
X18642857Y-30457419D01*
X18642857Y-30457419D02*
X18547619Y-30409800D01*
X18547619Y-30409800D02*
X18500000Y-30362180D01*
X18500000Y-30362180D02*
X18452381Y-30266942D01*
X18452381Y-30266942D02*
X18452381Y-30171704D01*
X18452381Y-30171704D02*
X18500000Y-30076466D01*
X18500000Y-30076466D02*
X18547619Y-30028847D01*
X18547619Y-30028847D02*
X18642857Y-29981228D01*
X18642857Y-29981228D02*
X18833333Y-29933609D01*
X18833333Y-29933609D02*
X18928571Y-29885990D01*
X18928571Y-29885990D02*
X18976190Y-29838371D01*
X18976190Y-29838371D02*
X19023809Y-29743133D01*
X19023809Y-29743133D02*
X19023809Y-29647895D01*
X19023809Y-29647895D02*
X18976190Y-29552657D01*
X18976190Y-29552657D02*
X18928571Y-29505038D01*
X18928571Y-29505038D02*
X18833333Y-29457419D01*
X18833333Y-29457419D02*
X18595238Y-29457419D01*
X18595238Y-29457419D02*
X18452381Y-29505038D01*
X18119047Y-29457419D02*
X17880952Y-30457419D01*
X17880952Y-30457419D02*
X17690476Y-29743133D01*
X17690476Y-29743133D02*
X17500000Y-30457419D01*
X17500000Y-30457419D02*
X17261905Y-29457419D01*
X17119048Y-30552657D02*
X16357143Y-30552657D01*
X16119047Y-30457419D02*
X16119047Y-29457419D01*
X16119047Y-29457419D02*
X15738095Y-29457419D01*
X15738095Y-29457419D02*
X15642857Y-29505038D01*
X15642857Y-29505038D02*
X15595238Y-29552657D01*
X15595238Y-29552657D02*
X15547619Y-29647895D01*
X15547619Y-29647895D02*
X15547619Y-29790752D01*
X15547619Y-29790752D02*
X15595238Y-29885990D01*
X15595238Y-29885990D02*
X15642857Y-29933609D01*
X15642857Y-29933609D02*
X15738095Y-29981228D01*
X15738095Y-29981228D02*
X16119047Y-29981228D01*
X14690476Y-29790752D02*
X14690476Y-30457419D01*
X15119047Y-29790752D02*
X15119047Y-30314561D01*
X15119047Y-30314561D02*
X15071428Y-30409800D01*
X15071428Y-30409800D02*
X14976190Y-30457419D01*
X14976190Y-30457419D02*
X14833333Y-30457419D01*
X14833333Y-30457419D02*
X14738095Y-30409800D01*
X14738095Y-30409800D02*
X14690476Y-30362180D01*
X14261904Y-30409800D02*
X14166666Y-30457419D01*
X14166666Y-30457419D02*
X13976190Y-30457419D01*
X13976190Y-30457419D02*
X13880952Y-30409800D01*
X13880952Y-30409800D02*
X13833333Y-30314561D01*
X13833333Y-30314561D02*
X13833333Y-30266942D01*
X13833333Y-30266942D02*
X13880952Y-30171704D01*
X13880952Y-30171704D02*
X13976190Y-30124085D01*
X13976190Y-30124085D02*
X14119047Y-30124085D01*
X14119047Y-30124085D02*
X14214285Y-30076466D01*
X14214285Y-30076466D02*
X14261904Y-29981228D01*
X14261904Y-29981228D02*
X14261904Y-29933609D01*
X14261904Y-29933609D02*
X14214285Y-29838371D01*
X14214285Y-29838371D02*
X14119047Y-29790752D01*
X14119047Y-29790752D02*
X13976190Y-29790752D01*
X13976190Y-29790752D02*
X13880952Y-29838371D01*
X13404761Y-30457419D02*
X13404761Y-29457419D01*
X12976190Y-30457419D02*
X12976190Y-29933609D01*
X12976190Y-29933609D02*
X13023809Y-29838371D01*
X13023809Y-29838371D02*
X13119047Y-29790752D01*
X13119047Y-29790752D02*
X13261904Y-29790752D01*
X13261904Y-29790752D02*
X13357142Y-29838371D01*
X13357142Y-29838371D02*
X13404761Y-29885990D01*
X11976190Y-30457419D02*
X12547618Y-30457419D01*
X12261904Y-30457419D02*
X12261904Y-29457419D01*
X12261904Y-29457419D02*
X12357142Y-29600276D01*
X12357142Y-29600276D02*
X12452380Y-29695514D01*
X12452380Y-29695514D02*
X12547618Y-29743133D01*
%TO.C,Conn_01x15_ESP32_DEV_KIT_PINS_VIN-EN0*%
D13*
X2730000Y-74350000D02*
X70000Y-74350000D01*
X2730000Y-38730000D02*
X2730000Y-74350000D01*
X2730000Y-38730000D02*
X70000Y-38730000D01*
X1400000Y-36130000D02*
X70000Y-36130000D01*
X70000Y-38730000D02*
X70000Y-74350000D01*
X70000Y-36130000D02*
X70000Y-37460000D01*
%TO.C,Conn_01x15_ESP32_DEV_KIT_PINS_3v3-D230*%
X29430000Y-74350000D02*
X26770000Y-74350000D01*
X29430000Y-38730000D02*
X29430000Y-74350000D01*
X29430000Y-38730000D02*
X26770000Y-38730000D01*
X28100000Y-36130000D02*
X26770000Y-36130000D01*
X26770000Y-38730000D02*
X26770000Y-74350000D01*
X26770000Y-36130000D02*
X26770000Y-37460000D01*
%TO.C,SPST_POWER_SWITCH0*%
X29580000Y-100940000D02*
X28197000Y-100940000D01*
X29580000Y-100940000D02*
X29580000Y-102323000D01*
X19440000Y-101180000D02*
X19440000Y-106020000D01*
X29340000Y-101180000D02*
X19440000Y-101180000D01*
X29340000Y-101180000D02*
X29340000Y-106020000D01*
X25066667Y-102965000D02*
X25066667Y-104235000D01*
X29340000Y-106020000D02*
X19440000Y-106020000D01*
X22360000Y-102965000D02*
X26420000Y-102965000D01*
X26420000Y-104235000D01*
X22360000Y-104235000D01*
X22360000Y-102965000D01*
X25066667Y-102965000D02*
X26420000Y-102965000D01*
X26420000Y-104235000D01*
X25066667Y-104235000D01*
X25066667Y-102965000D01*
G36*
X25066667Y-102965000D02*
G01*
X26420000Y-102965000D01*
X26420000Y-104235000D01*
X25066667Y-104235000D01*
X25066667Y-102965000D01*
G37*
%TO.C,Conn_01x02_battery_terminal0*%
X2930000Y-104330000D02*
X2930000Y-101670000D01*
X5530000Y-104330000D02*
X2930000Y-104330000D01*
X5530000Y-104330000D02*
X5530000Y-101670000D01*
X8130000Y-103000000D02*
X8130000Y-101670000D01*
X5530000Y-101670000D02*
X2930000Y-101670000D01*
X8130000Y-101670000D02*
X6800000Y-101670000D01*
%TO.C,Conn_01x04_BUCKBOOST0*%
D11*
X28000000Y-126200000D02*
X28000000Y-139000000D01*
X2100000Y-139000000D02*
X28000000Y-139000000D01*
X2100000Y-126200000D02*
X28000000Y-126200000D01*
X2100000Y-126200000D02*
X2100000Y-139000000D01*
%TD*%
M02*
